%TF.GenerationSoftware,KiCad,Pcbnew,9.0.7*%
%TF.CreationDate,2026-06-07T11:27:53-03:00*%
%TF.ProjectId,razor32,72617a6f-7233-4322-9e6b-696361645f70,rev?*%
%TF.SameCoordinates,Original*%
%TF.FileFunction,Copper,L2,Inr*%
%TF.FilePolarity,Positive*%
%FSLAX46Y46*%
G04 Gerber Fmt 4.6, Leading zero omitted, Abs format (unit mm)*
G04 Created by KiCad (PCBNEW 9.0.7) date 2026-06-07 11:27:53*
%MOMM*%
%LPD*%
G01*
G04 APERTURE LIST*
%TA.AperFunction,ComponentPad*%
%ADD10C,2.000000*%
%TD*%
%TA.AperFunction,ComponentPad*%
%ADD11R,1.700000X1.700000*%
%TD*%
%TA.AperFunction,ComponentPad*%
%ADD12C,1.700000*%
%TD*%
%TA.AperFunction,ViaPad*%
%ADD13C,2.100000*%
%TD*%
%TA.AperFunction,ViaPad*%
%ADD14C,2.000000*%
%TD*%
%TA.AperFunction,ViaPad*%
%ADD15C,0.500000*%
%TD*%
%TA.AperFunction,Conductor*%
%ADD16C,0.200000*%
%TD*%
%TA.AperFunction,Conductor*%
%ADD17C,0.300000*%
%TD*%
G04 APERTURE END LIST*
D10*
%TO.N,gnd*%
%TO.C,j*%
X165500000Y-99000000D03*
%TO.N,N/C*%
X172000000Y-99000000D03*
%TO.N,y2*%
X165500000Y-103500000D03*
%TO.N,x7*%
X172000000Y-103500000D03*
%TD*%
%TO.N,gnd*%
%TO.C,g*%
X138500000Y-99000000D03*
%TO.N,N/C*%
X145000000Y-99000000D03*
%TO.N,y2*%
X138500000Y-103500000D03*
%TO.N,x5*%
X145000000Y-103500000D03*
%TD*%
%TO.N,gnd*%
%TO.C,z*%
X84500000Y-111000000D03*
%TO.N,N/C*%
X91000000Y-111000000D03*
%TO.N,y3*%
X84500000Y-115500000D03*
%TO.N,x1*%
X91000000Y-115500000D03*
%TD*%
%TO.N,gnd*%
%TO.C,u*%
X165500000Y-87000000D03*
%TO.N,N/C*%
X172000000Y-87000000D03*
%TO.N,y1*%
X165500000Y-91500000D03*
%TO.N,x7*%
X172000000Y-91500000D03*
%TD*%
%TO.N,gnd*%
%TO.C,o*%
X192500000Y-87000000D03*
%TO.N,N/C*%
X199000000Y-87000000D03*
%TO.N,y1*%
X192500000Y-91500000D03*
%TO.N,x9*%
X199000000Y-91500000D03*
%TD*%
%TO.N,gnd*%
%TO.C,n*%
X165500000Y-111000000D03*
%TO.N,N/C*%
X172000000Y-111000000D03*
%TO.N,y3*%
X165500000Y-115500000D03*
%TO.N,x7*%
X172000000Y-115500000D03*
%TD*%
%TO.N,gnd*%
%TO.C,ret*%
X206000000Y-99000000D03*
%TO.N,N/C*%
X212500000Y-99000000D03*
%TO.N,y2*%
X206000000Y-103500000D03*
%TO.N,x10*%
X212500000Y-103500000D03*
%TD*%
%TO.N,gnd*%
%TO.C,space*%
X152000000Y-111000000D03*
%TO.N,N/C*%
X158500000Y-111000000D03*
%TO.N,y3*%
X152000000Y-115500000D03*
%TO.N,x6*%
X158500000Y-115500000D03*
%TD*%
%TO.N,gnd*%
%TO.C,q*%
X84500000Y-87000000D03*
%TO.N,N/C*%
X91000000Y-87000000D03*
%TO.N,y1*%
X84500000Y-91500000D03*
%TO.N,x1*%
X91000000Y-91500000D03*
%TD*%
%TO.N,gnd*%
%TO.C,fun*%
X192500000Y-111000000D03*
%TO.N,N/C*%
X199000000Y-111000000D03*
%TO.N,y3*%
X192500000Y-115500000D03*
%TO.N,x9*%
X199000000Y-115500000D03*
%TD*%
%TO.N,gnd*%
%TO.C,m*%
X179000000Y-111000000D03*
%TO.N,N/C*%
X185500000Y-111000000D03*
%TO.N,y3*%
X179000000Y-115500000D03*
%TO.N,x8*%
X185500000Y-115500000D03*
%TD*%
%TO.N,gnd*%
%TO.C,f*%
X125000000Y-99000000D03*
%TO.N,N/C*%
X131500000Y-99000000D03*
%TO.N,y2*%
X125000000Y-103500000D03*
%TO.N,x4*%
X131500000Y-103500000D03*
%TD*%
%TO.N,gnd*%
%TO.C,x*%
X98000000Y-111000000D03*
%TO.N,N/C*%
X104500000Y-111000000D03*
%TO.N,y3*%
X98000000Y-115500000D03*
%TO.N,x2*%
X104500000Y-115500000D03*
%TD*%
%TO.N,gnd*%
%TO.C,r*%
X125000000Y-87000000D03*
%TO.N,N/C*%
X131500000Y-87000000D03*
%TO.N,y1*%
X125000000Y-91500000D03*
%TO.N,x4*%
X131500000Y-91500000D03*
%TD*%
%TO.N,gnd*%
%TO.C,k*%
X179000000Y-99000000D03*
%TO.N,N/C*%
X185500000Y-99000000D03*
%TO.N,y2*%
X179000000Y-103500000D03*
%TO.N,x8*%
X185500000Y-103500000D03*
%TD*%
%TO.N,gnd*%
%TO.C,w*%
X98000000Y-87000000D03*
%TO.N,N/C*%
X104500000Y-87000000D03*
%TO.N,y1*%
X98000000Y-91500000D03*
%TO.N,x2*%
X104500000Y-91500000D03*
%TD*%
%TO.N,gnd*%
%TO.C,enter*%
X206000000Y-111000000D03*
%TO.N,N/C*%
X212500000Y-111000000D03*
%TO.N,y3*%
X206000000Y-115500000D03*
%TO.N,x10*%
X212500000Y-115500000D03*
%TD*%
%TO.N,gnd*%
%TO.C,p*%
X206000000Y-87000000D03*
%TO.N,N/C*%
X212500000Y-87000000D03*
%TO.N,y1*%
X206000000Y-91500000D03*
%TO.N,x10*%
X212500000Y-91500000D03*
%TD*%
%TO.N,gnd*%
%TO.C,l*%
X192500000Y-99000000D03*
%TO.N,N/C*%
X199000000Y-99000000D03*
%TO.N,y2*%
X192500000Y-103500000D03*
%TO.N,x9*%
X199000000Y-103500000D03*
%TD*%
%TO.N,gnd*%
%TO.C,a*%
X84500000Y-99000000D03*
%TO.N,N/C*%
X91000000Y-99000000D03*
%TO.N,y2*%
X84500000Y-103500000D03*
%TO.N,x1*%
X91000000Y-103500000D03*
%TD*%
%TO.N,gnd*%
%TO.C,h*%
X152000000Y-99000000D03*
%TO.N,N/C*%
X158500000Y-99000000D03*
%TO.N,y2*%
X152000000Y-103500000D03*
%TO.N,x6*%
X158500000Y-103500000D03*
%TD*%
%TO.N,gnd*%
%TO.C,b*%
X138500000Y-111000000D03*
%TO.N,N/C*%
X145000000Y-111000000D03*
%TO.N,y3*%
X138500000Y-115500000D03*
%TO.N,x5*%
X145000000Y-115500000D03*
%TD*%
%TO.N,gnd*%
%TO.C,v*%
X125000000Y-111000000D03*
%TO.N,N/C*%
X131500000Y-111000000D03*
%TO.N,y3*%
X125000000Y-115500000D03*
%TO.N,x4*%
X131500000Y-115500000D03*
%TD*%
%TO.N,gnd*%
%TO.C,d*%
X111500000Y-99000000D03*
%TO.N,N/C*%
X118000000Y-99000000D03*
%TO.N,y2*%
X111500000Y-103500000D03*
%TO.N,x3*%
X118000000Y-103500000D03*
%TD*%
%TO.N,gnd*%
%TO.C,t*%
X138500000Y-87000000D03*
%TO.N,N/C*%
X145000000Y-87000000D03*
%TO.N,y1*%
X138500000Y-91500000D03*
%TO.N,x5*%
X145000000Y-91500000D03*
%TD*%
%TO.N,gnd*%
%TO.C,i*%
X179000000Y-87000000D03*
%TO.N,N/C*%
X185500000Y-87000000D03*
%TO.N,y1*%
X179000000Y-91500000D03*
%TO.N,x8*%
X185500000Y-91500000D03*
%TD*%
%TO.N,gnd*%
%TO.C,y*%
X152000000Y-87000000D03*
%TO.N,N/C*%
X158500000Y-87000000D03*
%TO.N,y1*%
X152000000Y-91500000D03*
%TO.N,x6*%
X158500000Y-91500000D03*
%TD*%
%TO.N,gnd*%
%TO.C,s*%
X98000000Y-99000000D03*
%TO.N,N/C*%
X104500000Y-99000000D03*
%TO.N,y2*%
X98000000Y-103500000D03*
%TO.N,x2*%
X104500000Y-103500000D03*
%TD*%
%TO.N,gnd*%
%TO.C,c*%
X111500000Y-111000000D03*
%TO.N,N/C*%
X118000000Y-111000000D03*
%TO.N,y3*%
X111500000Y-115500000D03*
%TO.N,x3*%
X118000000Y-115500000D03*
%TD*%
%TO.N,gnd*%
%TO.C,e*%
X111500000Y-87000000D03*
%TO.N,N/C*%
X118000000Y-87000000D03*
%TO.N,y1*%
X111500000Y-91500000D03*
%TO.N,x3*%
X118000000Y-91500000D03*
%TD*%
D11*
%TO.N,N/C*%
%TO.C,ESP32PinSocket_2*%
X212240000Y-107500000D03*
D12*
%TO.N,sdi*%
X209700000Y-107500000D03*
%TO.N,sck*%
X207160000Y-107500000D03*
%TO.N,y2*%
X204620000Y-107500000D03*
%TO.N,x9*%
X202080000Y-107500000D03*
%TO.N,x1*%
X199540000Y-107500000D03*
%TO.N,x2*%
X197000000Y-107500000D03*
%TO.N,N/C*%
X194460000Y-107500000D03*
X191920000Y-107500000D03*
X189380000Y-107500000D03*
X186840000Y-107500000D03*
%TO.N,bl*%
X184300000Y-107500000D03*
%TO.N,x8*%
X181760000Y-107500000D03*
%TO.N,x5*%
X179220000Y-107500000D03*
%TO.N,y3*%
X176680000Y-107500000D03*
%TO.N,x7*%
X174140000Y-107500000D03*
%TO.N,N/C*%
X171600000Y-107500000D03*
X169060000Y-107500000D03*
X166520000Y-107500000D03*
X163980000Y-107500000D03*
%TO.N,gnd*%
X161440000Y-107500000D03*
%TD*%
D11*
%TO.N,vcc*%
%TO.C,ESP32PinSocket_1*%
X212290000Y-82000000D03*
D12*
%TO.N,sdo*%
X209750000Y-82000000D03*
%TO.N,rst*%
X207210000Y-82000000D03*
%TO.N,cs*%
X204670000Y-82000000D03*
%TO.N,dc*%
X202130000Y-82000000D03*
%TO.N,x10*%
X199590000Y-82000000D03*
%TO.N,N/C*%
X197050000Y-82000000D03*
X194510000Y-82000000D03*
X191970000Y-82000000D03*
%TO.N,y1*%
X189430000Y-82000000D03*
%TO.N,x6*%
X186890000Y-82000000D03*
%TO.N,x3*%
X184350000Y-82000000D03*
%TO.N,x4*%
X181810000Y-82000000D03*
%TO.N,N/C*%
X179270000Y-82000000D03*
X176730000Y-82000000D03*
X174190000Y-82000000D03*
X171650000Y-82000000D03*
%TO.N,sd*%
X169110000Y-82000000D03*
%TO.N,N/C*%
X166570000Y-82000000D03*
X164030000Y-82000000D03*
%TO.N,sgnd*%
X161490000Y-82000000D03*
%TD*%
D13*
%TO.N,*%
X216000000Y-131500000D03*
X81000000Y-131500000D03*
X216000000Y-77500000D03*
X81000000Y-77500000D03*
D14*
%TO.N,x4*%
X94250000Y-123500000D03*
%TO.N,x6*%
X99250000Y-123500000D03*
%TO.N,x1*%
X86750000Y-123500000D03*
%TO.N,x2*%
X89250000Y-123500000D03*
%TO.N,x5*%
X96750000Y-123500000D03*
%TO.N,x3*%
X91750000Y-123500000D03*
D15*
%TO.N,vcc*%
X87740000Y-81960000D03*
%TO.N,cs*%
X89290000Y-81950000D03*
%TO.N,rst*%
X90100000Y-81940000D03*
%TO.N,sdi*%
X91100000Y-81970000D03*
%TO.N,sck*%
X92140000Y-81940000D03*
%TO.N,bl*%
X92930000Y-81960000D03*
%TO.N,sd*%
X95090000Y-82140000D03*
%TO.N,sgnd*%
X88530000Y-81950000D03*
%TD*%
D16*
%TO.N,x8*%
X181760000Y-107500000D02*
X181760000Y-114630000D01*
D17*
%TO.N,x10*%
X215000000Y-105300000D02*
X215000000Y-113000000D01*
D16*
%TO.N,x8*%
X181760000Y-102180000D02*
X183010000Y-100930000D01*
D17*
%TO.N,x10*%
X199590000Y-82000000D02*
X199590000Y-84190000D01*
X212500000Y-91500000D02*
X215000000Y-94000000D01*
%TO.N,x8*%
X187800000Y-103300000D02*
X187600000Y-103500000D01*
%TO.N,x10*%
X214900000Y-103500000D02*
X212500000Y-103500000D01*
X215000000Y-94000000D02*
X215000000Y-96000000D01*
X215000000Y-113000000D02*
X212500000Y-115500000D01*
%TO.N,x8*%
X185500000Y-91500000D02*
X187800000Y-93800000D01*
%TO.N,x10*%
X215000000Y-103400000D02*
X215000000Y-105300000D01*
%TO.N,x8*%
X187800000Y-100930000D02*
X187800000Y-103300000D01*
%TO.N,x10*%
X215000000Y-96000000D02*
X215000000Y-103400000D01*
D16*
%TO.N,x8*%
X181760000Y-107500000D02*
X181760000Y-102180000D01*
D17*
%TO.N,x10*%
X202600000Y-84400000D02*
X202600000Y-94900000D01*
D16*
%TO.N,x8*%
X183010000Y-100930000D02*
X187800000Y-100930000D01*
D17*
X187800000Y-93800000D02*
X187800000Y-100930000D01*
D16*
X182630000Y-115500000D02*
X185500000Y-115500000D01*
D17*
%TO.N,x10*%
X215000000Y-103400000D02*
X214900000Y-103500000D01*
X199800000Y-84400000D02*
X202600000Y-84400000D01*
X199590000Y-84190000D02*
X199800000Y-84400000D01*
X203700000Y-96000000D02*
X215000000Y-96000000D01*
X202600000Y-94900000D02*
X203700000Y-96000000D01*
%TO.N,x8*%
X187600000Y-103500000D02*
X185500000Y-103500000D01*
D16*
X181760000Y-114630000D02*
X182630000Y-115500000D01*
D17*
%TO.N,rst*%
X90500000Y-76400000D02*
X207210000Y-76400000D01*
X207210000Y-76400000D02*
X207210000Y-82000000D01*
X90100000Y-81940000D02*
X90100000Y-76800000D01*
X90100000Y-76800000D02*
X90500000Y-76400000D01*
%TO.N,sdi*%
X94700000Y-120200000D02*
X94700000Y-94500000D01*
X94700000Y-94500000D02*
X93600000Y-93400000D01*
D16*
X91100000Y-85270000D02*
X91230000Y-85400000D01*
D17*
X209700000Y-107500000D02*
X209700000Y-118000000D01*
D16*
X92400000Y-85400000D02*
X92800000Y-85800000D01*
X91230000Y-85400000D02*
X92400000Y-85400000D01*
D17*
X207500000Y-120200000D02*
X94700000Y-120200000D01*
X92800000Y-92600000D02*
X92800000Y-85800000D01*
D16*
X91100000Y-81970000D02*
X91100000Y-85270000D01*
D17*
X209700000Y-118000000D02*
X207500000Y-120200000D01*
X93600000Y-93400000D02*
X92800000Y-92600000D01*
%TD*%
M02*
