%TF.GenerationSoftware,KiCad,Pcbnew,9.0.7*%
%TF.CreationDate,2026-06-06T13:03:47-03:00*%
%TF.ProjectId,razor32,72617a6f-7233-4322-9e6b-696361645f70,rev?*%
%TF.SameCoordinates,Original*%
%TF.FileFunction,Copper,L4,Bot*%
%TF.FilePolarity,Positive*%
%FSLAX46Y46*%
G04 Gerber Fmt 4.6, Leading zero omitted, Abs format (unit mm)*
G04 Created by KiCad (PCBNEW 9.0.7) date 2026-06-06 13:03:47*
%MOMM*%
%LPD*%
G01*
G04 APERTURE LIST*
%TA.AperFunction,ComponentPad*%
%ADD10C,2.000000*%
%TD*%
%TA.AperFunction,ComponentPad*%
%ADD11R,1.700000X1.700000*%
%TD*%
%TA.AperFunction,ComponentPad*%
%ADD12C,1.700000*%
%TD*%
%TA.AperFunction,ViaPad*%
%ADD13C,2.100000*%
%TD*%
%TA.AperFunction,ViaPad*%
%ADD14C,2.000000*%
%TD*%
%TA.AperFunction,ViaPad*%
%ADD15C,0.500000*%
%TD*%
%TA.AperFunction,Conductor*%
%ADD16C,0.300000*%
%TD*%
%TA.AperFunction,Conductor*%
%ADD17C,0.600000*%
%TD*%
%TA.AperFunction,Conductor*%
%ADD18C,0.200000*%
%TD*%
G04 APERTURE END LIST*
D10*
%TO.P,j,1*%
%TO.N,gnd*%
X165500000Y-99000000D03*
%TO.N,N/C*%
X172000000Y-99000000D03*
%TO.P,j,2*%
X165500000Y-103500000D03*
%TO.N,.*%
X172000000Y-103500000D03*
%TD*%
%TO.P,g,1*%
%TO.N,gnd*%
X138500000Y-99000000D03*
%TO.N,N/C*%
X145000000Y-99000000D03*
%TO.P,g,2*%
X138500000Y-103500000D03*
%TO.N,.*%
X145000000Y-103500000D03*
%TD*%
%TO.P,z,1*%
%TO.N,gnd*%
X84500000Y-111000000D03*
%TO.N,N/C*%
X91000000Y-111000000D03*
%TO.P,z,2*%
X84500000Y-115500000D03*
%TO.N,.*%
X91000000Y-115500000D03*
%TD*%
%TO.P,u,1*%
%TO.N,gnd*%
X165500000Y-87000000D03*
%TO.N,N/C*%
X172000000Y-87000000D03*
%TO.P,u,2*%
X165500000Y-91500000D03*
%TO.N,.*%
X172000000Y-91500000D03*
%TD*%
%TO.P,o,1*%
%TO.N,gnd*%
X192500000Y-87000000D03*
%TO.N,N/C*%
X199000000Y-87000000D03*
%TO.P,o,2*%
X192500000Y-91500000D03*
%TO.N,.*%
X199000000Y-91500000D03*
%TD*%
%TO.P,n,1*%
%TO.N,gnd*%
X165500000Y-111000000D03*
%TO.N,N/C*%
X172000000Y-111000000D03*
%TO.P,n,2*%
X165500000Y-115500000D03*
%TO.N,.*%
X172000000Y-115500000D03*
%TD*%
%TO.P,ret,1*%
%TO.N,gnd*%
X206000000Y-99000000D03*
%TO.N,N/C*%
X212500000Y-99000000D03*
%TO.P,ret,2*%
X206000000Y-103500000D03*
%TO.N,.*%
X212500000Y-103500000D03*
%TD*%
%TO.P,space,1*%
%TO.N,gnd*%
X152000000Y-111000000D03*
%TO.N,N/C*%
X158500000Y-111000000D03*
%TO.P,space,2*%
X152000000Y-115500000D03*
%TO.N,.*%
X158500000Y-115500000D03*
%TD*%
%TO.P,q,1*%
%TO.N,gnd*%
X84500000Y-87000000D03*
%TO.N,N/C*%
X91000000Y-87000000D03*
%TO.P,q,2*%
X84500000Y-91500000D03*
%TO.N,.*%
X91000000Y-91500000D03*
%TD*%
%TO.P,fun,1*%
%TO.N,gnd*%
X192500000Y-111000000D03*
%TO.N,N/C*%
X199000000Y-111000000D03*
%TO.P,fun,2*%
X192500000Y-115500000D03*
%TO.N,.*%
X199000000Y-115500000D03*
%TD*%
%TO.P,m,1*%
%TO.N,gnd*%
X179000000Y-111000000D03*
%TO.N,N/C*%
X185500000Y-111000000D03*
%TO.P,m,2*%
X179000000Y-115500000D03*
%TO.N,.*%
X185500000Y-115500000D03*
%TD*%
%TO.P,f,1*%
%TO.N,gnd*%
X125000000Y-99000000D03*
%TO.N,N/C*%
X131500000Y-99000000D03*
%TO.P,f,2*%
X125000000Y-103500000D03*
%TO.N,.*%
X131500000Y-103500000D03*
%TD*%
%TO.P,x,1*%
%TO.N,gnd*%
X98000000Y-111000000D03*
%TO.N,N/C*%
X104500000Y-111000000D03*
%TO.P,x,2*%
X98000000Y-115500000D03*
%TO.N,.*%
X104500000Y-115500000D03*
%TD*%
%TO.P,r,1*%
%TO.N,gnd*%
X125000000Y-87000000D03*
%TO.N,N/C*%
X131500000Y-87000000D03*
%TO.P,r,2*%
X125000000Y-91500000D03*
%TO.N,.*%
X131500000Y-91500000D03*
%TD*%
%TO.P,k,1*%
%TO.N,gnd*%
X179000000Y-99000000D03*
%TO.N,N/C*%
X185500000Y-99000000D03*
%TO.P,k,2*%
X179000000Y-103500000D03*
%TO.N,.*%
X185500000Y-103500000D03*
%TD*%
%TO.P,w,1*%
%TO.N,gnd*%
X98000000Y-87000000D03*
%TO.N,N/C*%
X104500000Y-87000000D03*
%TO.P,w,2*%
X98000000Y-91500000D03*
%TO.N,.*%
X104500000Y-91500000D03*
%TD*%
%TO.P,enter,1*%
%TO.N,gnd*%
X206000000Y-111000000D03*
%TO.N,N/C*%
X212500000Y-111000000D03*
%TO.P,enter,2*%
X206000000Y-115500000D03*
%TO.N,.*%
X212500000Y-115500000D03*
%TD*%
%TO.P,p,1*%
%TO.N,gnd*%
X206000000Y-87000000D03*
%TO.N,N/C*%
X212500000Y-87000000D03*
%TO.P,p,2*%
X206000000Y-91500000D03*
%TO.N,.*%
X212500000Y-91500000D03*
%TD*%
%TO.P,l,1*%
%TO.N,gnd*%
X192500000Y-99000000D03*
%TO.N,N/C*%
X199000000Y-99000000D03*
%TO.P,l,2*%
X192500000Y-103500000D03*
%TO.N,.*%
X199000000Y-103500000D03*
%TD*%
%TO.P,a,1*%
%TO.N,gnd*%
X84500000Y-99000000D03*
%TO.N,N/C*%
X91000000Y-99000000D03*
%TO.P,a,2*%
X84500000Y-103500000D03*
%TO.N,.*%
X91000000Y-103500000D03*
%TD*%
%TO.P,h,1*%
%TO.N,gnd*%
X152000000Y-99000000D03*
%TO.N,N/C*%
X158500000Y-99000000D03*
%TO.P,h,2*%
X152000000Y-103500000D03*
%TO.N,.*%
X158500000Y-103500000D03*
%TD*%
%TO.P,b,1*%
%TO.N,gnd*%
X138500000Y-111000000D03*
%TO.N,N/C*%
X145000000Y-111000000D03*
%TO.P,b,2*%
X138500000Y-115500000D03*
%TO.N,.*%
X145000000Y-115500000D03*
%TD*%
%TO.P,v,1*%
%TO.N,gnd*%
X125000000Y-111000000D03*
%TO.N,N/C*%
X131500000Y-111000000D03*
%TO.P,v,2*%
X125000000Y-115500000D03*
%TO.N,.*%
X131500000Y-115500000D03*
%TD*%
%TO.P,d,1*%
%TO.N,gnd*%
X111500000Y-99000000D03*
%TO.N,N/C*%
X118000000Y-99000000D03*
%TO.P,d,2*%
X111500000Y-103500000D03*
%TO.N,.*%
X118000000Y-103500000D03*
%TD*%
%TO.P,t,1*%
%TO.N,gnd*%
X138500000Y-87000000D03*
%TO.N,N/C*%
X145000000Y-87000000D03*
%TO.P,t,2*%
X138500000Y-91500000D03*
%TO.N,.*%
X145000000Y-91500000D03*
%TD*%
%TO.P,i,1*%
%TO.N,gnd*%
X179000000Y-87000000D03*
%TO.N,N/C*%
X185500000Y-87000000D03*
%TO.P,i,2*%
X179000000Y-91500000D03*
%TO.N,.*%
X185500000Y-91500000D03*
%TD*%
%TO.P,y,1*%
%TO.N,gnd*%
X152000000Y-87000000D03*
%TO.N,N/C*%
X158500000Y-87000000D03*
%TO.P,y,2*%
X152000000Y-91500000D03*
%TO.N,.*%
X158500000Y-91500000D03*
%TD*%
%TO.P,s,1*%
%TO.N,gnd*%
X98000000Y-99000000D03*
%TO.N,N/C*%
X104500000Y-99000000D03*
%TO.P,s,2*%
X98000000Y-103500000D03*
%TO.N,.*%
X104500000Y-103500000D03*
%TD*%
%TO.P,c,1*%
%TO.N,gnd*%
X111500000Y-111000000D03*
%TO.N,N/C*%
X118000000Y-111000000D03*
%TO.P,c,2*%
X111500000Y-115500000D03*
%TO.N,.*%
X118000000Y-115500000D03*
%TD*%
%TO.P,e,1*%
%TO.N,gnd*%
X111500000Y-87000000D03*
%TO.N,N/C*%
X118000000Y-87000000D03*
%TO.P,e,2*%
X111500000Y-91500000D03*
%TO.N,.*%
X118000000Y-91500000D03*
%TD*%
D11*
%TO.P,ESP32PinSocket_2,1*%
%TO.N,N/C*%
X212240000Y-107500000D03*
D12*
%TO.P,ESP32PinSocket_2,2*%
%TO.N,sdi*%
X209700000Y-107500000D03*
%TO.P,ESP32PinSocket_2,3*%
%TO.N,sck*%
X207160000Y-107500000D03*
%TO.P,ESP32PinSocket_2,4*%
%TO.N,.*%
X204620000Y-107500000D03*
%TO.P,ESP32PinSocket_2,5*%
X202080000Y-107500000D03*
%TO.P,ESP32PinSocket_2,6*%
X199540000Y-107500000D03*
%TO.P,ESP32PinSocket_2,7*%
X197000000Y-107500000D03*
%TO.P,ESP32PinSocket_2,8*%
%TO.N,N/C*%
X194460000Y-107500000D03*
%TO.P,ESP32PinSocket_2,9*%
%TO.N,.*%
X191920000Y-107500000D03*
%TO.P,ESP32PinSocket_2,10*%
X189380000Y-107500000D03*
%TO.P,ESP32PinSocket_2,11*%
X186840000Y-107500000D03*
%TO.P,ESP32PinSocket_2,12*%
%TO.N,bl*%
X184300000Y-107500000D03*
%TO.P,ESP32PinSocket_2,13*%
%TO.N,.*%
X181760000Y-107500000D03*
%TO.P,ESP32PinSocket_2,14*%
X179220000Y-107500000D03*
%TO.P,ESP32PinSocket_2,15*%
X176680000Y-107500000D03*
%TO.P,ESP32PinSocket_2,16*%
X174140000Y-107500000D03*
%TO.P,ESP32PinSocket_2,17*%
%TO.N,N/C*%
X171600000Y-107500000D03*
%TO.P,ESP32PinSocket_2,18*%
X169060000Y-107500000D03*
%TO.P,ESP32PinSocket_2,19*%
X166520000Y-107500000D03*
%TO.P,ESP32PinSocket_2,20*%
X163980000Y-107500000D03*
%TO.P,ESP32PinSocket_2,21*%
%TO.N,gnd*%
X161440000Y-107500000D03*
%TD*%
D11*
%TO.P,ESP32PinSocket_1,1*%
%TO.N,vcc*%
X212290000Y-82000000D03*
D12*
%TO.P,ESP32PinSocket_1,2*%
%TO.N,sdo*%
X209750000Y-82000000D03*
%TO.P,ESP32PinSocket_1,3*%
%TO.N,rst*%
X207210000Y-82000000D03*
%TO.P,ESP32PinSocket_1,4*%
%TO.N,cs*%
X204670000Y-82000000D03*
%TO.P,ESP32PinSocket_1,5*%
%TO.N,dc*%
X202130000Y-82000000D03*
%TO.P,ESP32PinSocket_1,6*%
%TO.N,.*%
X199590000Y-82000000D03*
%TO.P,ESP32PinSocket_1,7*%
%TO.N,N/C*%
X197050000Y-82000000D03*
%TO.P,ESP32PinSocket_1,8*%
X194510000Y-82000000D03*
%TO.P,ESP32PinSocket_1,9*%
X191970000Y-82000000D03*
%TO.P,ESP32PinSocket_1,10*%
%TO.N,.*%
X189430000Y-82000000D03*
%TO.P,ESP32PinSocket_1,11*%
%TO.N,N/C*%
X186890000Y-82000000D03*
%TO.P,ESP32PinSocket_1,12*%
X184350000Y-82000000D03*
%TO.P,ESP32PinSocket_1,13*%
X181810000Y-82000000D03*
%TO.P,ESP32PinSocket_1,14*%
X179270000Y-82000000D03*
%TO.P,ESP32PinSocket_1,15*%
X176730000Y-82000000D03*
%TO.P,ESP32PinSocket_1,16*%
X174190000Y-82000000D03*
%TO.P,ESP32PinSocket_1,17*%
X171650000Y-82000000D03*
%TO.P,ESP32PinSocket_1,18*%
%TO.N,sd*%
X169110000Y-82000000D03*
%TO.P,ESP32PinSocket_1,19*%
%TO.N,N/C*%
X166570000Y-82000000D03*
%TO.P,ESP32PinSocket_1,20*%
X164030000Y-82000000D03*
%TO.P,ESP32PinSocket_1,21*%
%TO.N,sgnd*%
X161490000Y-82000000D03*
%TD*%
D13*
%TO.N,*%
X216000000Y-131500000D03*
X81000000Y-131500000D03*
X216000000Y-77500000D03*
X81000000Y-77500000D03*
D14*
%TO.N,.*%
X94250000Y-123500000D03*
X99250000Y-123500000D03*
X86750000Y-123500000D03*
X89250000Y-123500000D03*
X96750000Y-123500000D03*
X91750000Y-123500000D03*
D15*
%TO.N,vcc*%
X87740000Y-81960000D03*
%TO.N,cs*%
X89290000Y-81950000D03*
%TO.N,rst*%
X90100000Y-81940000D03*
%TO.N,sdi*%
X91100000Y-81970000D03*
%TO.N,sck*%
X92140000Y-81940000D03*
%TO.N,bl*%
X92930000Y-81960000D03*
%TO.N,sd*%
X95090000Y-82140000D03*
%TO.N,sgnd*%
X88530000Y-81950000D03*
%TD*%
D16*
%TO.N,.*%
X202956507Y-104001275D02*
X202455232Y-103500000D01*
X158500000Y-103500000D02*
X159300000Y-104300000D01*
X158500000Y-91500000D02*
X160400000Y-93400000D01*
X133600000Y-103500000D02*
X131500000Y-103500000D01*
X174335232Y-103200000D02*
X175156507Y-104021275D01*
X107200000Y-94200000D02*
X107200000Y-103900000D01*
X107150000Y-112850000D02*
X104500000Y-115500000D01*
X134100000Y-103000000D02*
X134100000Y-112900000D01*
X201400000Y-103500000D02*
X199000000Y-103500000D01*
X157900000Y-121300000D02*
X99200000Y-121300000D01*
X107200000Y-103900000D02*
X106800000Y-103500000D01*
X107200000Y-103900000D02*
X107200000Y-112800000D01*
X134100000Y-94100000D02*
X134100000Y-103000000D01*
X134100000Y-115600000D02*
X130700000Y-119000000D01*
X120400000Y-103400000D02*
X120400000Y-113100000D01*
X131500000Y-91500000D02*
X134100000Y-94100000D01*
X201400000Y-93900000D02*
X201400000Y-103500000D01*
X93400000Y-93900000D02*
X93400000Y-103400000D01*
X147100000Y-103400000D02*
X147000000Y-103500000D01*
X86800000Y-123450000D02*
X86750000Y-123500000D01*
X202080000Y-107500000D02*
X202956507Y-106623493D01*
X160700000Y-113300000D02*
X158500000Y-115500000D01*
X107150000Y-115150000D02*
X104400000Y-117900000D01*
X202956507Y-106623493D02*
X202956507Y-104001275D01*
X202080000Y-112420000D02*
X199000000Y-115500000D01*
X160000000Y-103500000D02*
X158500000Y-103500000D01*
X202455232Y-103500000D02*
X201400000Y-103500000D01*
X93400000Y-103400000D02*
X93400000Y-113100000D01*
X99200000Y-121300000D02*
X99200000Y-123450000D01*
X172000000Y-91500000D02*
X174100000Y-93600000D01*
X93400000Y-103400000D02*
X93300000Y-103500000D01*
X147050000Y-113450000D02*
X147050000Y-117600000D01*
X118000000Y-91500000D02*
X120400000Y-93900000D01*
X120400000Y-103400000D02*
X120300000Y-103500000D01*
D17*
X191960000Y-107540000D02*
X191920000Y-107500000D01*
D16*
X147100000Y-113400000D02*
X147050000Y-113450000D01*
X119000000Y-118400000D02*
X91900000Y-118400000D01*
X160700000Y-110400000D02*
X160700000Y-113300000D01*
X120400000Y-113100000D02*
X118000000Y-115500000D01*
X97800000Y-119700000D02*
X96750000Y-120750000D01*
X86760000Y-121740000D02*
X86760000Y-123490000D01*
X174140000Y-113360000D02*
X172000000Y-115500000D01*
X145000000Y-91500000D02*
X147100000Y-93600000D01*
X93400000Y-113100000D02*
X91000000Y-115500000D01*
X91500000Y-117900000D02*
X89250000Y-120150000D01*
X93400000Y-115100000D02*
X86760000Y-121740000D01*
X104400000Y-117900000D02*
X91500000Y-117900000D01*
X173800000Y-103500000D02*
X172000000Y-103500000D01*
X93300000Y-103500000D02*
X91000000Y-103500000D01*
X91900000Y-118400000D02*
X91900000Y-123350000D01*
X91000000Y-91500000D02*
X93400000Y-93900000D01*
X120400000Y-117000000D02*
X119000000Y-118400000D01*
X160700000Y-118500000D02*
X157900000Y-121300000D01*
X147100000Y-103400000D02*
X147100000Y-113400000D01*
X147050000Y-113450000D02*
X145000000Y-115500000D01*
X144950000Y-119700000D02*
X97800000Y-119700000D01*
X199000000Y-91500000D02*
X201400000Y-93900000D01*
X89250000Y-120150000D02*
X89250000Y-123500000D01*
X174140000Y-107500000D02*
X174140000Y-113360000D01*
X107200000Y-112800000D02*
X107150000Y-112850000D01*
X99200000Y-123450000D02*
X99250000Y-123500000D01*
X174100000Y-103200000D02*
X174335232Y-103200000D01*
X147100000Y-93600000D02*
X147100000Y-103400000D01*
X175156507Y-106483493D02*
X174140000Y-107500000D01*
X107150000Y-112850000D02*
X107150000Y-115150000D01*
X91900000Y-123350000D02*
X91750000Y-123500000D01*
X134100000Y-112900000D02*
X134100000Y-115600000D01*
X147000000Y-103500000D02*
X145000000Y-103500000D01*
X120300000Y-103500000D02*
X118000000Y-103500000D01*
X174100000Y-103200000D02*
X173800000Y-103500000D01*
X159300000Y-109000000D02*
X160700000Y-110400000D01*
X120400000Y-93900000D02*
X120400000Y-103400000D01*
X147050000Y-117600000D02*
X144950000Y-119700000D01*
X94200000Y-119000000D02*
X94200000Y-123450000D01*
X106800000Y-103500000D02*
X104500000Y-103500000D01*
X159300000Y-104300000D02*
X159300000Y-109000000D01*
X202080000Y-107500000D02*
X202080000Y-112420000D01*
X160400000Y-93400000D02*
X160400000Y-103100000D01*
X134100000Y-103000000D02*
X133600000Y-103500000D01*
X160700000Y-113300000D02*
X160700000Y-118500000D01*
X104500000Y-91500000D02*
X107200000Y-94200000D01*
X174100000Y-93600000D02*
X174100000Y-103200000D01*
X93400000Y-113100000D02*
X93400000Y-115100000D01*
X96750000Y-120750000D02*
X96750000Y-123500000D01*
X86760000Y-123490000D02*
X86750000Y-123500000D01*
X130700000Y-119000000D02*
X94200000Y-119000000D01*
X120400000Y-113100000D02*
X120400000Y-117000000D01*
X94200000Y-123450000D02*
X94250000Y-123500000D01*
X160400000Y-103100000D02*
X160000000Y-103500000D01*
X134100000Y-112900000D02*
X131500000Y-115500000D01*
X175156507Y-104021275D02*
X175156507Y-106483493D01*
X89250000Y-123500000D02*
X89400000Y-123350000D01*
%TO.N,vcc*%
X87740000Y-81960000D02*
X88600000Y-81100000D01*
X88600000Y-81100000D02*
X88600000Y-77150000D01*
X213500000Y-80790000D02*
X212290000Y-82000000D01*
X213500000Y-77500000D02*
X213500000Y-80790000D01*
X212250000Y-76250000D02*
X213500000Y-77500000D01*
X89500000Y-76250000D02*
X212250000Y-76250000D01*
X88600000Y-77150000D02*
X89500000Y-76250000D01*
%TO.N,cs*%
X89700000Y-85250000D02*
X204000000Y-85250000D01*
X204000000Y-85250000D02*
X204670000Y-84580000D01*
X204670000Y-84580000D02*
X204670000Y-82000000D01*
X89290000Y-81950000D02*
X89600000Y-82260000D01*
X89600000Y-85150000D02*
X89700000Y-85250000D01*
X89600000Y-82260000D02*
X89600000Y-85150000D01*
D18*
%TO.N,sd*%
X168950000Y-84500000D02*
X169110000Y-84340000D01*
X95090000Y-84390000D02*
X95200000Y-84500000D01*
X95090000Y-82140000D02*
X95090000Y-84390000D01*
X169110000Y-84340000D02*
X169110000Y-82000000D01*
X95200000Y-84500000D02*
X168950000Y-84500000D01*
D16*
%TO.N,sgnd*%
X158000000Y-76750000D02*
X161490000Y-80240000D01*
X161490000Y-80240000D02*
X161490000Y-82000000D01*
X88530000Y-81950000D02*
X89100000Y-81380000D01*
X89750000Y-76750000D02*
X158000000Y-76750000D01*
X89100000Y-77400000D02*
X89750000Y-76750000D01*
X89100000Y-81380000D02*
X89100000Y-77400000D01*
%TD*%
M02*
