%TF.GenerationSoftware,KiCad,Pcbnew,10.0.5*%
%TF.CreationDate,2026-08-23T14:29:25-03:00*%
%TF.ProjectId,razor32,72617a6f-7233-4322-9e6b-696361645f70,rev?*%
%TF.SameCoordinates,Original*%
%TF.FileFunction,Copper,L1,Top*%
%TF.FilePolarity,Positive*%
%FSLAX46Y46*%
G04 Gerber Fmt 4.6, Leading zero omitted, Abs format (unit mm)*
G04 Created by KiCad (PCBNEW 10.0.5) date 2026-08-23 14:29:25*
%MOMM*%
%LPD*%
G01*
G04 APERTURE LIST*
%ADD10C,0.300000*%
%TA.AperFunction,NonConductor*%
%ADD11C,0.300000*%
%TD*%
%ADD12C,0.020000*%
%TA.AperFunction,NonConductor*%
%ADD13C,0.020000*%
%TD*%
%ADD14C,0.050000*%
%TA.AperFunction,NonConductor*%
%ADD15C,0.050000*%
%TD*%
%ADD16C,0.175000*%
%TA.AperFunction,NonConductor*%
%ADD17C,0.175000*%
%TD*%
%ADD18C,0.400000*%
%TA.AperFunction,NonConductor*%
%ADD19C,0.400000*%
%TD*%
%TA.AperFunction,ComponentPad*%
%ADD20C,2.000000*%
%TD*%
%TA.AperFunction,SMDPad,CuDef*%
%ADD21R,0.300000X1.300000*%
%TD*%
%TA.AperFunction,SMDPad,CuDef*%
%ADD22R,1.800000X2.200000*%
%TD*%
%TA.AperFunction,ComponentPad*%
%ADD23R,1.700000X1.700000*%
%TD*%
%TA.AperFunction,ComponentPad*%
%ADD24C,1.700000*%
%TD*%
%TA.AperFunction,ViaPad*%
%ADD25C,2.100000*%
%TD*%
%TA.AperFunction,ViaPad*%
%ADD26C,0.500000*%
%TD*%
%TA.AperFunction,ViaPad*%
%ADD27C,1.100000*%
%TD*%
%TA.AperFunction,ViaPad*%
%ADD28C,1.000000*%
%TD*%
%TA.AperFunction,Conductor*%
%ADD29C,0.200000*%
%TD*%
%TA.AperFunction,Conductor*%
%ADD30C,0.400000*%
%TD*%
%TA.AperFunction,Conductor*%
%ADD31C,0.300000*%
%TD*%
G04 APERTURE END LIST*
D10*
D11*
X93609774Y-113256314D02*
X93324060Y-113470600D01*
X93324060Y-113470600D02*
X93038346Y-113256314D01*
D10*
D11*
X147409774Y-113506314D02*
X147124060Y-113720600D01*
X147124060Y-113720600D02*
X146838346Y-113506314D01*
D10*
D11*
X107109774Y-113456314D02*
X106824060Y-113670600D01*
X106824060Y-113670600D02*
X106538346Y-113456314D01*
D10*
D11*
X120459774Y-113456314D02*
X120174060Y-113670600D01*
X120174060Y-113670600D02*
X119888346Y-113456314D01*
D10*
D11*
X201409774Y-113306314D02*
X201124060Y-113520600D01*
X201124060Y-113520600D02*
X200838346Y-113306314D01*
D10*
D11*
X174509774Y-113456314D02*
X174224060Y-113670600D01*
X174224060Y-113670600D02*
X173938346Y-113456314D01*
D10*
D11*
X134059774Y-113506314D02*
X133774060Y-113720600D01*
X133774060Y-113720600D02*
X133488346Y-113506314D01*
D10*
D11*
X160859774Y-113306314D02*
X160574060Y-113520600D01*
X160574060Y-113520600D02*
X160288346Y-113306314D01*
D10*
D11*
X187859774Y-113406314D02*
X187574060Y-113620600D01*
X187574060Y-113620600D02*
X187288346Y-113406314D01*
D10*
D11*
X215609774Y-113256314D02*
X215324060Y-113470600D01*
X215324060Y-113470600D02*
X215038346Y-113256314D01*
D10*
D11*
X93609774Y-101306314D02*
X93324060Y-101520600D01*
X93324060Y-101520600D02*
X93038346Y-101306314D01*
D10*
D11*
X147409774Y-101556314D02*
X147124060Y-101770600D01*
X147124060Y-101770600D02*
X146838346Y-101556314D01*
D10*
D11*
X107109774Y-101506314D02*
X106824060Y-101720600D01*
X106824060Y-101720600D02*
X106538346Y-101506314D01*
D10*
D11*
X120359774Y-101356314D02*
X120074060Y-101570600D01*
X120074060Y-101570600D02*
X119788346Y-101356314D01*
D10*
D11*
X201409774Y-101356314D02*
X201124060Y-101570600D01*
X201124060Y-101570600D02*
X200838346Y-101356314D01*
D10*
D11*
X174509774Y-101506314D02*
X174224060Y-101720600D01*
X174224060Y-101720600D02*
X173938346Y-101506314D01*
D10*
D11*
X134059774Y-101356314D02*
X133774060Y-101570600D01*
X133774060Y-101570600D02*
X133488346Y-101356314D01*
D10*
D11*
X160859774Y-101356314D02*
X160574060Y-101570600D01*
X160574060Y-101570600D02*
X160288346Y-101356314D01*
D10*
D11*
X187859774Y-101456314D02*
X187574060Y-101670600D01*
X187574060Y-101670600D02*
X187288346Y-101456314D01*
D10*
D11*
X215609774Y-101306314D02*
X215324060Y-101520600D01*
X215324060Y-101520600D02*
X215038346Y-101306314D01*
D10*
D11*
X187859774Y-89406314D02*
X187574060Y-89620600D01*
X187574060Y-89620600D02*
X187288346Y-89406314D01*
D10*
D11*
X174509774Y-89456314D02*
X174224060Y-89670600D01*
X174224060Y-89670600D02*
X173938346Y-89456314D01*
D10*
D11*
X215609774Y-89256314D02*
X215324060Y-89470600D01*
X215324060Y-89470600D02*
X215038346Y-89256314D01*
D10*
D11*
X147409774Y-89506314D02*
X147124060Y-89720600D01*
X147124060Y-89720600D02*
X146838346Y-89506314D01*
D10*
D11*
X120359774Y-89306314D02*
X120074060Y-89520600D01*
X120074060Y-89520600D02*
X119788346Y-89306314D01*
D10*
D11*
X93609774Y-89256314D02*
X93324060Y-89470600D01*
X93324060Y-89470600D02*
X93038346Y-89256314D01*
D10*
D11*
X160859774Y-89306314D02*
X160574060Y-89520600D01*
X160574060Y-89520600D02*
X160288346Y-89306314D01*
D10*
D11*
X107109774Y-89456314D02*
X106824060Y-89670600D01*
X106824060Y-89670600D02*
X106538346Y-89456314D01*
D10*
D11*
X201409774Y-89306314D02*
X201124060Y-89520600D01*
X201124060Y-89520600D02*
X200838346Y-89306314D01*
D10*
D11*
X134059774Y-89506314D02*
X133774060Y-89720600D01*
X133774060Y-89720600D02*
X133488346Y-89506314D01*
D10*
D11*
X109140225Y-113543685D02*
X109425939Y-113329400D01*
X109425939Y-113329400D02*
X109711653Y-113543685D01*
D10*
D11*
X122490225Y-113543685D02*
X122775939Y-113329400D01*
X122775939Y-113329400D02*
X123061653Y-113543685D01*
D10*
D11*
X81890225Y-113443685D02*
X82175939Y-113229400D01*
X82175939Y-113229400D02*
X82461653Y-113443685D01*
D10*
D11*
X149790225Y-113543685D02*
X150075939Y-113329400D01*
X150075939Y-113329400D02*
X150361653Y-113543685D01*
D10*
D11*
X176740225Y-113593685D02*
X177025939Y-113379400D01*
X177025939Y-113379400D02*
X177311653Y-113593685D01*
D10*
D11*
X203590225Y-113443685D02*
X203875939Y-113229400D01*
X203875939Y-113229400D02*
X204161653Y-113443685D01*
D10*
D11*
X135990225Y-113593685D02*
X136275939Y-113379400D01*
X136275939Y-113379400D02*
X136561653Y-113593685D01*
D10*
D11*
X190190225Y-113543685D02*
X190475939Y-113329400D01*
X190475939Y-113329400D02*
X190761653Y-113543685D01*
D10*
D11*
X95590225Y-113443685D02*
X95875939Y-113229400D01*
X95875939Y-113229400D02*
X96161653Y-113443685D01*
D10*
D11*
X163190225Y-113443685D02*
X163475939Y-113229400D01*
X163475939Y-113229400D02*
X163761653Y-113443685D01*
D10*
D11*
X108940225Y-101443685D02*
X109225939Y-101229400D01*
X109225939Y-101229400D02*
X109511653Y-101443685D01*
D10*
D11*
X122340225Y-101493685D02*
X122625939Y-101279400D01*
X122625939Y-101279400D02*
X122911653Y-101493685D01*
D10*
D11*
X81390225Y-103093685D02*
X81675939Y-102879400D01*
X81675939Y-102879400D02*
X81961653Y-103093685D01*
D10*
D11*
X149740225Y-101393685D02*
X150025939Y-101179400D01*
X150025939Y-101179400D02*
X150311653Y-101393685D01*
D10*
D11*
X176340225Y-101543685D02*
X176625939Y-101329400D01*
X176625939Y-101329400D02*
X176911653Y-101543685D01*
D10*
D11*
X203540225Y-101343685D02*
X203825939Y-101129400D01*
X203825939Y-101129400D02*
X204111653Y-101343685D01*
D10*
D11*
X135940225Y-101443685D02*
X136225939Y-101229400D01*
X136225939Y-101229400D02*
X136511653Y-101443685D01*
D10*
D11*
X189990225Y-101493685D02*
X190275939Y-101279400D01*
X190275939Y-101279400D02*
X190561653Y-101493685D01*
D10*
D11*
X95340225Y-101443685D02*
X95625939Y-101229400D01*
X95625939Y-101229400D02*
X95911653Y-101443685D01*
D10*
D11*
X162990225Y-101443685D02*
X163275939Y-101229400D01*
X163275939Y-101229400D02*
X163561653Y-101443685D01*
D10*
D11*
X203340225Y-89443685D02*
X203625939Y-89229400D01*
X203625939Y-89229400D02*
X203911653Y-89443685D01*
D10*
D11*
X189940225Y-89543685D02*
X190225939Y-89329400D01*
X190225939Y-89329400D02*
X190511653Y-89543685D01*
D10*
D11*
X135740225Y-89593685D02*
X136025939Y-89379400D01*
X136025939Y-89379400D02*
X136311653Y-89593685D01*
D10*
D11*
X176540225Y-89593685D02*
X176825939Y-89379400D01*
X176825939Y-89379400D02*
X177111653Y-89593685D01*
D10*
D11*
X108740225Y-89443685D02*
X109025939Y-89229400D01*
X109025939Y-89229400D02*
X109311653Y-89443685D01*
D10*
D11*
X95190225Y-89343685D02*
X95475939Y-89129400D01*
X95475939Y-89129400D02*
X95761653Y-89343685D01*
D10*
D11*
X122090225Y-89443685D02*
X122375939Y-89229400D01*
X122375939Y-89229400D02*
X122661653Y-89443685D01*
D10*
D11*
X149540225Y-89543685D02*
X149825939Y-89329400D01*
X149825939Y-89329400D02*
X150111653Y-89543685D01*
D10*
D11*
X81240225Y-90993685D02*
X81525939Y-90779400D01*
X81525939Y-90779400D02*
X81811653Y-90993685D01*
D10*
D11*
X162940225Y-89443685D02*
X163225939Y-89229400D01*
X163225939Y-89229400D02*
X163511653Y-89443685D01*
D12*
D13*
X101191728Y-83329262D02*
X101020299Y-83329262D01*
X101106014Y-83329262D02*
X101106014Y-83029262D01*
X101106014Y-83029262D02*
X101077442Y-83072119D01*
X101077442Y-83072119D02*
X101048871Y-83100691D01*
X101048871Y-83100691D02*
X101020299Y-83114977D01*
X101377442Y-83029262D02*
X101406013Y-83029262D01*
X101406013Y-83029262D02*
X101434585Y-83043548D01*
X101434585Y-83043548D02*
X101448871Y-83057834D01*
X101448871Y-83057834D02*
X101463156Y-83086405D01*
X101463156Y-83086405D02*
X101477442Y-83143548D01*
X101477442Y-83143548D02*
X101477442Y-83214977D01*
X101477442Y-83214977D02*
X101463156Y-83272119D01*
X101463156Y-83272119D02*
X101448871Y-83300691D01*
X101448871Y-83300691D02*
X101434585Y-83314977D01*
X101434585Y-83314977D02*
X101406013Y-83329262D01*
X101406013Y-83329262D02*
X101377442Y-83329262D01*
X101377442Y-83329262D02*
X101348871Y-83314977D01*
X101348871Y-83314977D02*
X101334585Y-83300691D01*
X101334585Y-83300691D02*
X101320299Y-83272119D01*
X101320299Y-83272119D02*
X101306013Y-83214977D01*
X101306013Y-83214977D02*
X101306013Y-83143548D01*
X101306013Y-83143548D02*
X101320299Y-83086405D01*
X101320299Y-83086405D02*
X101334585Y-83057834D01*
X101334585Y-83057834D02*
X101348871Y-83043548D01*
X101348871Y-83043548D02*
X101377442Y-83029262D01*
X101163157Y-83797960D02*
X101134585Y-83812245D01*
X101134585Y-83812245D02*
X101077442Y-83812245D01*
X101077442Y-83812245D02*
X101048871Y-83797960D01*
X101048871Y-83797960D02*
X101034585Y-83783674D01*
X101034585Y-83783674D02*
X101020299Y-83755102D01*
X101020299Y-83755102D02*
X101020299Y-83669388D01*
X101020299Y-83669388D02*
X101034585Y-83640817D01*
X101034585Y-83640817D02*
X101048871Y-83626531D01*
X101048871Y-83626531D02*
X101077442Y-83612245D01*
X101077442Y-83612245D02*
X101134585Y-83612245D01*
X101134585Y-83612245D02*
X101163157Y-83626531D01*
X101277442Y-83797960D02*
X101306014Y-83812245D01*
X101306014Y-83812245D02*
X101363157Y-83812245D01*
X101363157Y-83812245D02*
X101391728Y-83797960D01*
X101391728Y-83797960D02*
X101406014Y-83769388D01*
X101406014Y-83769388D02*
X101406014Y-83755102D01*
X101406014Y-83755102D02*
X101391728Y-83726531D01*
X101391728Y-83726531D02*
X101363157Y-83712245D01*
X101363157Y-83712245D02*
X101320300Y-83712245D01*
X101320300Y-83712245D02*
X101291728Y-83697960D01*
X101291728Y-83697960D02*
X101277442Y-83669388D01*
X101277442Y-83669388D02*
X101277442Y-83655102D01*
X101277442Y-83655102D02*
X101291728Y-83626531D01*
X101291728Y-83626531D02*
X101320300Y-83612245D01*
X101320300Y-83612245D02*
X101363157Y-83612245D01*
X101363157Y-83612245D02*
X101391728Y-83626531D01*
D12*
D13*
X102091728Y-83329262D02*
X101920299Y-83329262D01*
X102006014Y-83329262D02*
X102006014Y-83029262D01*
X102006014Y-83029262D02*
X101977442Y-83072119D01*
X101977442Y-83072119D02*
X101948871Y-83100691D01*
X101948871Y-83100691D02*
X101920299Y-83114977D01*
X102377442Y-83329262D02*
X102206013Y-83329262D01*
X102291728Y-83329262D02*
X102291728Y-83029262D01*
X102291728Y-83029262D02*
X102263156Y-83072119D01*
X102263156Y-83072119D02*
X102234585Y-83100691D01*
X102234585Y-83100691D02*
X102206013Y-83114977D01*
X101934585Y-83812245D02*
X101934585Y-83612245D01*
X101934585Y-83669388D02*
X101948871Y-83640817D01*
X101948871Y-83640817D02*
X101963157Y-83626531D01*
X101963157Y-83626531D02*
X101991728Y-83612245D01*
X101991728Y-83612245D02*
X102020299Y-83612245D01*
X102106013Y-83797960D02*
X102134585Y-83812245D01*
X102134585Y-83812245D02*
X102191728Y-83812245D01*
X102191728Y-83812245D02*
X102220299Y-83797960D01*
X102220299Y-83797960D02*
X102234585Y-83769388D01*
X102234585Y-83769388D02*
X102234585Y-83755102D01*
X102234585Y-83755102D02*
X102220299Y-83726531D01*
X102220299Y-83726531D02*
X102191728Y-83712245D01*
X102191728Y-83712245D02*
X102148871Y-83712245D01*
X102148871Y-83712245D02*
X102120299Y-83697960D01*
X102120299Y-83697960D02*
X102106013Y-83669388D01*
X102106013Y-83669388D02*
X102106013Y-83655102D01*
X102106013Y-83655102D02*
X102120299Y-83626531D01*
X102120299Y-83626531D02*
X102148871Y-83612245D01*
X102148871Y-83612245D02*
X102191728Y-83612245D01*
X102191728Y-83612245D02*
X102220299Y-83626531D01*
X102320299Y-83612245D02*
X102434585Y-83612245D01*
X102363156Y-83512245D02*
X102363156Y-83769388D01*
X102363156Y-83769388D02*
X102377442Y-83797960D01*
X102377442Y-83797960D02*
X102406013Y-83812245D01*
X102406013Y-83812245D02*
X102434585Y-83812245D01*
D12*
D13*
X102748871Y-83329262D02*
X102806014Y-83329262D01*
X102806014Y-83329262D02*
X102834585Y-83314977D01*
X102834585Y-83314977D02*
X102848871Y-83300691D01*
X102848871Y-83300691D02*
X102877442Y-83257834D01*
X102877442Y-83257834D02*
X102891728Y-83200691D01*
X102891728Y-83200691D02*
X102891728Y-83086405D01*
X102891728Y-83086405D02*
X102877442Y-83057834D01*
X102877442Y-83057834D02*
X102863157Y-83043548D01*
X102863157Y-83043548D02*
X102834585Y-83029262D01*
X102834585Y-83029262D02*
X102777442Y-83029262D01*
X102777442Y-83029262D02*
X102748871Y-83043548D01*
X102748871Y-83043548D02*
X102734585Y-83057834D01*
X102734585Y-83057834D02*
X102720299Y-83086405D01*
X102720299Y-83086405D02*
X102720299Y-83157834D01*
X102720299Y-83157834D02*
X102734585Y-83186405D01*
X102734585Y-83186405D02*
X102748871Y-83200691D01*
X102748871Y-83200691D02*
X102777442Y-83214977D01*
X102777442Y-83214977D02*
X102834585Y-83214977D01*
X102834585Y-83214977D02*
X102863157Y-83200691D01*
X102863157Y-83200691D02*
X102877442Y-83186405D01*
X102877442Y-83186405D02*
X102891728Y-83157834D01*
X102863157Y-83812245D02*
X102863157Y-83512245D01*
X102863157Y-83797960D02*
X102834585Y-83812245D01*
X102834585Y-83812245D02*
X102777442Y-83812245D01*
X102777442Y-83812245D02*
X102748871Y-83797960D01*
X102748871Y-83797960D02*
X102734585Y-83783674D01*
X102734585Y-83783674D02*
X102720299Y-83755102D01*
X102720299Y-83755102D02*
X102720299Y-83669388D01*
X102720299Y-83669388D02*
X102734585Y-83640817D01*
X102734585Y-83640817D02*
X102748871Y-83626531D01*
X102748871Y-83626531D02*
X102777442Y-83612245D01*
X102777442Y-83612245D02*
X102834585Y-83612245D01*
X102834585Y-83612245D02*
X102863157Y-83626531D01*
X103134586Y-83797960D02*
X103106014Y-83812245D01*
X103106014Y-83812245D02*
X103048871Y-83812245D01*
X103048871Y-83812245D02*
X103020300Y-83797960D01*
X103020300Y-83797960D02*
X103006014Y-83783674D01*
X103006014Y-83783674D02*
X102991728Y-83755102D01*
X102991728Y-83755102D02*
X102991728Y-83669388D01*
X102991728Y-83669388D02*
X103006014Y-83640817D01*
X103006014Y-83640817D02*
X103020300Y-83626531D01*
X103020300Y-83626531D02*
X103048871Y-83612245D01*
X103048871Y-83612245D02*
X103106014Y-83612245D01*
X103106014Y-83612245D02*
X103134586Y-83626531D01*
D12*
D13*
X103591728Y-83279262D02*
X103420299Y-83279262D01*
X103506014Y-83279262D02*
X103506014Y-82979262D01*
X103506014Y-82979262D02*
X103477442Y-83022119D01*
X103477442Y-83022119D02*
X103448871Y-83050691D01*
X103448871Y-83050691D02*
X103420299Y-83064977D01*
X103691728Y-82979262D02*
X103877442Y-82979262D01*
X103877442Y-82979262D02*
X103777442Y-83093548D01*
X103777442Y-83093548D02*
X103820299Y-83093548D01*
X103820299Y-83093548D02*
X103848871Y-83107834D01*
X103848871Y-83107834D02*
X103863156Y-83122119D01*
X103863156Y-83122119D02*
X103877442Y-83150691D01*
X103877442Y-83150691D02*
X103877442Y-83222119D01*
X103877442Y-83222119D02*
X103863156Y-83250691D01*
X103863156Y-83250691D02*
X103848871Y-83264977D01*
X103848871Y-83264977D02*
X103820299Y-83279262D01*
X103820299Y-83279262D02*
X103734585Y-83279262D01*
X103734585Y-83279262D02*
X103706013Y-83264977D01*
X103706013Y-83264977D02*
X103691728Y-83250691D01*
X103420299Y-83747960D02*
X103448871Y-83762245D01*
X103448871Y-83762245D02*
X103506014Y-83762245D01*
X103506014Y-83762245D02*
X103534585Y-83747960D01*
X103534585Y-83747960D02*
X103548871Y-83719388D01*
X103548871Y-83719388D02*
X103548871Y-83705102D01*
X103548871Y-83705102D02*
X103534585Y-83676531D01*
X103534585Y-83676531D02*
X103506014Y-83662245D01*
X103506014Y-83662245D02*
X103463157Y-83662245D01*
X103463157Y-83662245D02*
X103434585Y-83647960D01*
X103434585Y-83647960D02*
X103420299Y-83619388D01*
X103420299Y-83619388D02*
X103420299Y-83605102D01*
X103420299Y-83605102D02*
X103434585Y-83576531D01*
X103434585Y-83576531D02*
X103463157Y-83562245D01*
X103463157Y-83562245D02*
X103506014Y-83562245D01*
X103506014Y-83562245D02*
X103534585Y-83576531D01*
X103806014Y-83762245D02*
X103806014Y-83462245D01*
X103806014Y-83747960D02*
X103777442Y-83762245D01*
X103777442Y-83762245D02*
X103720299Y-83762245D01*
X103720299Y-83762245D02*
X103691728Y-83747960D01*
X103691728Y-83747960D02*
X103677442Y-83733674D01*
X103677442Y-83733674D02*
X103663156Y-83705102D01*
X103663156Y-83705102D02*
X103663156Y-83619388D01*
X103663156Y-83619388D02*
X103677442Y-83590817D01*
X103677442Y-83590817D02*
X103691728Y-83576531D01*
X103691728Y-83576531D02*
X103720299Y-83562245D01*
X103720299Y-83562245D02*
X103777442Y-83562245D01*
X103777442Y-83562245D02*
X103806014Y-83576531D01*
X103948871Y-83762245D02*
X103948871Y-83562245D01*
X103948871Y-83462245D02*
X103934585Y-83476531D01*
X103934585Y-83476531D02*
X103948871Y-83490817D01*
X103948871Y-83490817D02*
X103963157Y-83476531D01*
X103963157Y-83476531D02*
X103948871Y-83462245D01*
X103948871Y-83462245D02*
X103948871Y-83490817D01*
D12*
D13*
X104491728Y-83279262D02*
X104320299Y-83279262D01*
X104406014Y-83279262D02*
X104406014Y-82979262D01*
X104406014Y-82979262D02*
X104377442Y-83022119D01*
X104377442Y-83022119D02*
X104348871Y-83050691D01*
X104348871Y-83050691D02*
X104320299Y-83064977D01*
X104748871Y-83079262D02*
X104748871Y-83279262D01*
X104677442Y-82964977D02*
X104606013Y-83179262D01*
X104606013Y-83179262D02*
X104791728Y-83179262D01*
X104320299Y-83747960D02*
X104348871Y-83762245D01*
X104348871Y-83762245D02*
X104406014Y-83762245D01*
X104406014Y-83762245D02*
X104434585Y-83747960D01*
X104434585Y-83747960D02*
X104448871Y-83719388D01*
X104448871Y-83719388D02*
X104448871Y-83705102D01*
X104448871Y-83705102D02*
X104434585Y-83676531D01*
X104434585Y-83676531D02*
X104406014Y-83662245D01*
X104406014Y-83662245D02*
X104363157Y-83662245D01*
X104363157Y-83662245D02*
X104334585Y-83647960D01*
X104334585Y-83647960D02*
X104320299Y-83619388D01*
X104320299Y-83619388D02*
X104320299Y-83605102D01*
X104320299Y-83605102D02*
X104334585Y-83576531D01*
X104334585Y-83576531D02*
X104363157Y-83562245D01*
X104363157Y-83562245D02*
X104406014Y-83562245D01*
X104406014Y-83562245D02*
X104434585Y-83576531D01*
X104706014Y-83747960D02*
X104677442Y-83762245D01*
X104677442Y-83762245D02*
X104620299Y-83762245D01*
X104620299Y-83762245D02*
X104591728Y-83747960D01*
X104591728Y-83747960D02*
X104577442Y-83733674D01*
X104577442Y-83733674D02*
X104563156Y-83705102D01*
X104563156Y-83705102D02*
X104563156Y-83619388D01*
X104563156Y-83619388D02*
X104577442Y-83590817D01*
X104577442Y-83590817D02*
X104591728Y-83576531D01*
X104591728Y-83576531D02*
X104620299Y-83562245D01*
X104620299Y-83562245D02*
X104677442Y-83562245D01*
X104677442Y-83562245D02*
X104706014Y-83576531D01*
X104834585Y-83762245D02*
X104834585Y-83462245D01*
X104863157Y-83647960D02*
X104948871Y-83762245D01*
X104948871Y-83562245D02*
X104834585Y-83676531D01*
D12*
D13*
X105256014Y-82979262D02*
X105441728Y-82979262D01*
X105441728Y-82979262D02*
X105341728Y-83093548D01*
X105341728Y-83093548D02*
X105384585Y-83093548D01*
X105384585Y-83093548D02*
X105413157Y-83107834D01*
X105413157Y-83107834D02*
X105427442Y-83122119D01*
X105427442Y-83122119D02*
X105441728Y-83150691D01*
X105441728Y-83150691D02*
X105441728Y-83222119D01*
X105441728Y-83222119D02*
X105427442Y-83250691D01*
X105427442Y-83250691D02*
X105413157Y-83264977D01*
X105413157Y-83264977D02*
X105384585Y-83279262D01*
X105384585Y-83279262D02*
X105298871Y-83279262D01*
X105298871Y-83279262D02*
X105270299Y-83264977D01*
X105270299Y-83264977D02*
X105256014Y-83250691D01*
X105613156Y-83107834D02*
X105584585Y-83093548D01*
X105584585Y-83093548D02*
X105570299Y-83079262D01*
X105570299Y-83079262D02*
X105556013Y-83050691D01*
X105556013Y-83050691D02*
X105556013Y-83036405D01*
X105556013Y-83036405D02*
X105570299Y-83007834D01*
X105570299Y-83007834D02*
X105584585Y-82993548D01*
X105584585Y-82993548D02*
X105613156Y-82979262D01*
X105613156Y-82979262D02*
X105670299Y-82979262D01*
X105670299Y-82979262D02*
X105698871Y-82993548D01*
X105698871Y-82993548D02*
X105713156Y-83007834D01*
X105713156Y-83007834D02*
X105727442Y-83036405D01*
X105727442Y-83036405D02*
X105727442Y-83050691D01*
X105727442Y-83050691D02*
X105713156Y-83079262D01*
X105713156Y-83079262D02*
X105698871Y-83093548D01*
X105698871Y-83093548D02*
X105670299Y-83107834D01*
X105670299Y-83107834D02*
X105613156Y-83107834D01*
X105613156Y-83107834D02*
X105584585Y-83122119D01*
X105584585Y-83122119D02*
X105570299Y-83136405D01*
X105570299Y-83136405D02*
X105556013Y-83164977D01*
X105556013Y-83164977D02*
X105556013Y-83222119D01*
X105556013Y-83222119D02*
X105570299Y-83250691D01*
X105570299Y-83250691D02*
X105584585Y-83264977D01*
X105584585Y-83264977D02*
X105613156Y-83279262D01*
X105613156Y-83279262D02*
X105670299Y-83279262D01*
X105670299Y-83279262D02*
X105698871Y-83264977D01*
X105698871Y-83264977D02*
X105713156Y-83250691D01*
X105713156Y-83250691D02*
X105727442Y-83222119D01*
X105727442Y-83222119D02*
X105727442Y-83164977D01*
X105727442Y-83164977D02*
X105713156Y-83136405D01*
X105713156Y-83136405D02*
X105698871Y-83122119D01*
X105698871Y-83122119D02*
X105670299Y-83107834D01*
X105284585Y-83762245D02*
X105284585Y-83462245D01*
X105284585Y-83576531D02*
X105313157Y-83562245D01*
X105313157Y-83562245D02*
X105370299Y-83562245D01*
X105370299Y-83562245D02*
X105398871Y-83576531D01*
X105398871Y-83576531D02*
X105413157Y-83590817D01*
X105413157Y-83590817D02*
X105427442Y-83619388D01*
X105427442Y-83619388D02*
X105427442Y-83705102D01*
X105427442Y-83705102D02*
X105413157Y-83733674D01*
X105413157Y-83733674D02*
X105398871Y-83747960D01*
X105398871Y-83747960D02*
X105370299Y-83762245D01*
X105370299Y-83762245D02*
X105313157Y-83762245D01*
X105313157Y-83762245D02*
X105284585Y-83747960D01*
X105598871Y-83762245D02*
X105570300Y-83747960D01*
X105570300Y-83747960D02*
X105556014Y-83719388D01*
X105556014Y-83719388D02*
X105556014Y-83462245D01*
D12*
D13*
X106241728Y-83279262D02*
X106070299Y-83279262D01*
X106156014Y-83279262D02*
X106156014Y-82979262D01*
X106156014Y-82979262D02*
X106127442Y-83022119D01*
X106127442Y-83022119D02*
X106098871Y-83050691D01*
X106098871Y-83050691D02*
X106070299Y-83064977D01*
X106356013Y-83007834D02*
X106370299Y-82993548D01*
X106370299Y-82993548D02*
X106398871Y-82979262D01*
X106398871Y-82979262D02*
X106470299Y-82979262D01*
X106470299Y-82979262D02*
X106498871Y-82993548D01*
X106498871Y-82993548D02*
X106513156Y-83007834D01*
X106513156Y-83007834D02*
X106527442Y-83036405D01*
X106527442Y-83036405D02*
X106527442Y-83064977D01*
X106527442Y-83064977D02*
X106513156Y-83107834D01*
X106513156Y-83107834D02*
X106341728Y-83279262D01*
X106341728Y-83279262D02*
X106527442Y-83279262D01*
X106070299Y-83747960D02*
X106098871Y-83762245D01*
X106098871Y-83762245D02*
X106156014Y-83762245D01*
X106156014Y-83762245D02*
X106184585Y-83747960D01*
X106184585Y-83747960D02*
X106198871Y-83719388D01*
X106198871Y-83719388D02*
X106198871Y-83705102D01*
X106198871Y-83705102D02*
X106184585Y-83676531D01*
X106184585Y-83676531D02*
X106156014Y-83662245D01*
X106156014Y-83662245D02*
X106113157Y-83662245D01*
X106113157Y-83662245D02*
X106084585Y-83647960D01*
X106084585Y-83647960D02*
X106070299Y-83619388D01*
X106070299Y-83619388D02*
X106070299Y-83605102D01*
X106070299Y-83605102D02*
X106084585Y-83576531D01*
X106084585Y-83576531D02*
X106113157Y-83562245D01*
X106113157Y-83562245D02*
X106156014Y-83562245D01*
X106156014Y-83562245D02*
X106184585Y-83576531D01*
X106456014Y-83762245D02*
X106456014Y-83462245D01*
X106456014Y-83747960D02*
X106427442Y-83762245D01*
X106427442Y-83762245D02*
X106370299Y-83762245D01*
X106370299Y-83762245D02*
X106341728Y-83747960D01*
X106341728Y-83747960D02*
X106327442Y-83733674D01*
X106327442Y-83733674D02*
X106313156Y-83705102D01*
X106313156Y-83705102D02*
X106313156Y-83619388D01*
X106313156Y-83619388D02*
X106327442Y-83590817D01*
X106327442Y-83590817D02*
X106341728Y-83576531D01*
X106341728Y-83576531D02*
X106370299Y-83562245D01*
X106370299Y-83562245D02*
X106427442Y-83562245D01*
X106427442Y-83562245D02*
X106456014Y-83576531D01*
X106641728Y-83762245D02*
X106613157Y-83747960D01*
X106613157Y-83747960D02*
X106598871Y-83733674D01*
X106598871Y-83733674D02*
X106584585Y-83705102D01*
X106584585Y-83705102D02*
X106584585Y-83619388D01*
X106584585Y-83619388D02*
X106598871Y-83590817D01*
X106598871Y-83590817D02*
X106613157Y-83576531D01*
X106613157Y-83576531D02*
X106641728Y-83562245D01*
X106641728Y-83562245D02*
X106684585Y-83562245D01*
X106684585Y-83562245D02*
X106713157Y-83576531D01*
X106713157Y-83576531D02*
X106727443Y-83590817D01*
X106727443Y-83590817D02*
X106741728Y-83619388D01*
X106741728Y-83619388D02*
X106741728Y-83705102D01*
X106741728Y-83705102D02*
X106727443Y-83733674D01*
X106727443Y-83733674D02*
X106713157Y-83747960D01*
X106713157Y-83747960D02*
X106684585Y-83762245D01*
X106684585Y-83762245D02*
X106641728Y-83762245D01*
D12*
D13*
X110163157Y-83079262D02*
X110163157Y-83279262D01*
X110091728Y-82964977D02*
X110020299Y-83179262D01*
X110020299Y-83179262D02*
X110206014Y-83179262D01*
X110020299Y-83747960D02*
X110048871Y-83762245D01*
X110048871Y-83762245D02*
X110106014Y-83762245D01*
X110106014Y-83762245D02*
X110134585Y-83747960D01*
X110134585Y-83747960D02*
X110148871Y-83719388D01*
X110148871Y-83719388D02*
X110148871Y-83705102D01*
X110148871Y-83705102D02*
X110134585Y-83676531D01*
X110134585Y-83676531D02*
X110106014Y-83662245D01*
X110106014Y-83662245D02*
X110063157Y-83662245D01*
X110063157Y-83662245D02*
X110034585Y-83647960D01*
X110034585Y-83647960D02*
X110020299Y-83619388D01*
X110020299Y-83619388D02*
X110020299Y-83605102D01*
X110020299Y-83605102D02*
X110034585Y-83576531D01*
X110034585Y-83576531D02*
X110063157Y-83562245D01*
X110063157Y-83562245D02*
X110106014Y-83562245D01*
X110106014Y-83562245D02*
X110134585Y-83576531D01*
X110406014Y-83762245D02*
X110406014Y-83462245D01*
X110406014Y-83747960D02*
X110377442Y-83762245D01*
X110377442Y-83762245D02*
X110320299Y-83762245D01*
X110320299Y-83762245D02*
X110291728Y-83747960D01*
X110291728Y-83747960D02*
X110277442Y-83733674D01*
X110277442Y-83733674D02*
X110263156Y-83705102D01*
X110263156Y-83705102D02*
X110263156Y-83619388D01*
X110263156Y-83619388D02*
X110277442Y-83590817D01*
X110277442Y-83590817D02*
X110291728Y-83576531D01*
X110291728Y-83576531D02*
X110320299Y-83562245D01*
X110320299Y-83562245D02*
X110377442Y-83562245D01*
X110377442Y-83562245D02*
X110406014Y-83576531D01*
D14*
D15*
X82599560Y-132548447D02*
X82599560Y-132148447D01*
X82599560Y-132529400D02*
X82561465Y-132548447D01*
X82561465Y-132548447D02*
X82485274Y-132548447D01*
X82485274Y-132548447D02*
X82447179Y-132529400D01*
X82447179Y-132529400D02*
X82428132Y-132510352D01*
X82428132Y-132510352D02*
X82409084Y-132472257D01*
X82409084Y-132472257D02*
X82409084Y-132357971D01*
X82409084Y-132357971D02*
X82428132Y-132319876D01*
X82428132Y-132319876D02*
X82447179Y-132300828D01*
X82447179Y-132300828D02*
X82485274Y-132281780D01*
X82485274Y-132281780D02*
X82561465Y-132281780D01*
X82561465Y-132281780D02*
X82599560Y-132300828D01*
X82790037Y-132548447D02*
X82790037Y-132281780D01*
X82790037Y-132148447D02*
X82770989Y-132167495D01*
X82770989Y-132167495D02*
X82790037Y-132186542D01*
X82790037Y-132186542D02*
X82809084Y-132167495D01*
X82809084Y-132167495D02*
X82790037Y-132148447D01*
X82790037Y-132148447D02*
X82790037Y-132186542D01*
X83151941Y-132548447D02*
X83151941Y-132148447D01*
X83151941Y-132529400D02*
X83113846Y-132548447D01*
X83113846Y-132548447D02*
X83037655Y-132548447D01*
X83037655Y-132548447D02*
X82999560Y-132529400D01*
X82999560Y-132529400D02*
X82980513Y-132510352D01*
X82980513Y-132510352D02*
X82961465Y-132472257D01*
X82961465Y-132472257D02*
X82961465Y-132357971D01*
X82961465Y-132357971D02*
X82980513Y-132319876D01*
X82980513Y-132319876D02*
X82999560Y-132300828D01*
X82999560Y-132300828D02*
X83037655Y-132281780D01*
X83037655Y-132281780D02*
X83113846Y-132281780D01*
X83113846Y-132281780D02*
X83151941Y-132300828D01*
X83342418Y-132548447D02*
X83342418Y-132281780D01*
X83342418Y-132148447D02*
X83323370Y-132167495D01*
X83323370Y-132167495D02*
X83342418Y-132186542D01*
X83342418Y-132186542D02*
X83361465Y-132167495D01*
X83361465Y-132167495D02*
X83342418Y-132148447D01*
X83342418Y-132148447D02*
X83342418Y-132186542D01*
X83532894Y-132548447D02*
X83532894Y-132281780D01*
X83532894Y-132319876D02*
X83551941Y-132300828D01*
X83551941Y-132300828D02*
X83590036Y-132281780D01*
X83590036Y-132281780D02*
X83647179Y-132281780D01*
X83647179Y-132281780D02*
X83685275Y-132300828D01*
X83685275Y-132300828D02*
X83704322Y-132338923D01*
X83704322Y-132338923D02*
X83704322Y-132548447D01*
X83704322Y-132338923D02*
X83723370Y-132300828D01*
X83723370Y-132300828D02*
X83761465Y-132281780D01*
X83761465Y-132281780D02*
X83818608Y-132281780D01*
X83818608Y-132281780D02*
X83856703Y-132300828D01*
X83856703Y-132300828D02*
X83875751Y-132338923D01*
X83875751Y-132338923D02*
X83875751Y-132548447D01*
X84123369Y-132548447D02*
X84085274Y-132529400D01*
X84085274Y-132529400D02*
X84066227Y-132510352D01*
X84066227Y-132510352D02*
X84047179Y-132472257D01*
X84047179Y-132472257D02*
X84047179Y-132357971D01*
X84047179Y-132357971D02*
X84066227Y-132319876D01*
X84066227Y-132319876D02*
X84085274Y-132300828D01*
X84085274Y-132300828D02*
X84123369Y-132281780D01*
X84123369Y-132281780D02*
X84180512Y-132281780D01*
X84180512Y-132281780D02*
X84218608Y-132300828D01*
X84218608Y-132300828D02*
X84237655Y-132319876D01*
X84237655Y-132319876D02*
X84256703Y-132357971D01*
X84256703Y-132357971D02*
X84256703Y-132472257D01*
X84256703Y-132472257D02*
X84237655Y-132510352D01*
X84237655Y-132510352D02*
X84218608Y-132529400D01*
X84218608Y-132529400D02*
X84180512Y-132548447D01*
X84180512Y-132548447D02*
X84123369Y-132548447D01*
X84599560Y-132529400D02*
X84561465Y-132548447D01*
X84561465Y-132548447D02*
X84485274Y-132548447D01*
X84485274Y-132548447D02*
X84447179Y-132529400D01*
X84447179Y-132529400D02*
X84428132Y-132510352D01*
X84428132Y-132510352D02*
X84409084Y-132472257D01*
X84409084Y-132472257D02*
X84409084Y-132357971D01*
X84409084Y-132357971D02*
X84428132Y-132319876D01*
X84428132Y-132319876D02*
X84447179Y-132300828D01*
X84447179Y-132300828D02*
X84485274Y-132281780D01*
X84485274Y-132281780D02*
X84561465Y-132281780D01*
X84561465Y-132281780D02*
X84599560Y-132300828D01*
X84828131Y-132548447D02*
X84790036Y-132529400D01*
X84790036Y-132529400D02*
X84770989Y-132510352D01*
X84770989Y-132510352D02*
X84751941Y-132472257D01*
X84751941Y-132472257D02*
X84751941Y-132357971D01*
X84751941Y-132357971D02*
X84770989Y-132319876D01*
X84770989Y-132319876D02*
X84790036Y-132300828D01*
X84790036Y-132300828D02*
X84828131Y-132281780D01*
X84828131Y-132281780D02*
X84885274Y-132281780D01*
X84885274Y-132281780D02*
X84923370Y-132300828D01*
X84923370Y-132300828D02*
X84942417Y-132319876D01*
X84942417Y-132319876D02*
X84961465Y-132357971D01*
X84961465Y-132357971D02*
X84961465Y-132472257D01*
X84961465Y-132472257D02*
X84942417Y-132510352D01*
X84942417Y-132510352D02*
X84923370Y-132529400D01*
X84923370Y-132529400D02*
X84885274Y-132548447D01*
X84885274Y-132548447D02*
X84828131Y-132548447D01*
X84904322Y-132129400D02*
X84847179Y-132186542D01*
D14*
D15*
X99099560Y-83445066D02*
X99632894Y-83445066D01*
X99366227Y-83711733D02*
X99366227Y-83178400D01*
D14*
D15*
X100049560Y-83445066D02*
X100582894Y-83445066D01*
D16*
D17*
X86215131Y-125905233D02*
X86581797Y-125438566D01*
X86215131Y-125438566D02*
X86581797Y-125905233D01*
X87215131Y-125905233D02*
X86815131Y-125905233D01*
X87015131Y-125905233D02*
X87015131Y-125205233D01*
X87015131Y-125205233D02*
X86948464Y-125305233D01*
X86948464Y-125305233D02*
X86881798Y-125371900D01*
X86881798Y-125371900D02*
X86815131Y-125405233D01*
D16*
D17*
X88715131Y-125905233D02*
X89081797Y-125438566D01*
X88715131Y-125438566D02*
X89081797Y-125905233D01*
X89315131Y-125271900D02*
X89348464Y-125238566D01*
X89348464Y-125238566D02*
X89415131Y-125205233D01*
X89415131Y-125205233D02*
X89581798Y-125205233D01*
X89581798Y-125205233D02*
X89648464Y-125238566D01*
X89648464Y-125238566D02*
X89681798Y-125271900D01*
X89681798Y-125271900D02*
X89715131Y-125338566D01*
X89715131Y-125338566D02*
X89715131Y-125405233D01*
X89715131Y-125405233D02*
X89681798Y-125505233D01*
X89681798Y-125505233D02*
X89281798Y-125905233D01*
X89281798Y-125905233D02*
X89715131Y-125905233D01*
D16*
D17*
X91215131Y-125905233D02*
X91581797Y-125438566D01*
X91215131Y-125438566D02*
X91581797Y-125905233D01*
X91781798Y-125205233D02*
X92215131Y-125205233D01*
X92215131Y-125205233D02*
X91981798Y-125471900D01*
X91981798Y-125471900D02*
X92081798Y-125471900D01*
X92081798Y-125471900D02*
X92148464Y-125505233D01*
X92148464Y-125505233D02*
X92181798Y-125538566D01*
X92181798Y-125538566D02*
X92215131Y-125605233D01*
X92215131Y-125605233D02*
X92215131Y-125771900D01*
X92215131Y-125771900D02*
X92181798Y-125838566D01*
X92181798Y-125838566D02*
X92148464Y-125871900D01*
X92148464Y-125871900D02*
X92081798Y-125905233D01*
X92081798Y-125905233D02*
X91881798Y-125905233D01*
X91881798Y-125905233D02*
X91815131Y-125871900D01*
X91815131Y-125871900D02*
X91781798Y-125838566D01*
D16*
D17*
X93715131Y-125905233D02*
X94081797Y-125438566D01*
X93715131Y-125438566D02*
X94081797Y-125905233D01*
X94648464Y-125438566D02*
X94648464Y-125905233D01*
X94481798Y-125171900D02*
X94315131Y-125671900D01*
X94315131Y-125671900D02*
X94748464Y-125671900D01*
D16*
D17*
X96215131Y-125905233D02*
X96581797Y-125438566D01*
X96215131Y-125438566D02*
X96581797Y-125905233D01*
X97181798Y-125205233D02*
X96848464Y-125205233D01*
X96848464Y-125205233D02*
X96815131Y-125538566D01*
X96815131Y-125538566D02*
X96848464Y-125505233D01*
X96848464Y-125505233D02*
X96915131Y-125471900D01*
X96915131Y-125471900D02*
X97081798Y-125471900D01*
X97081798Y-125471900D02*
X97148464Y-125505233D01*
X97148464Y-125505233D02*
X97181798Y-125538566D01*
X97181798Y-125538566D02*
X97215131Y-125605233D01*
X97215131Y-125605233D02*
X97215131Y-125771900D01*
X97215131Y-125771900D02*
X97181798Y-125838566D01*
X97181798Y-125838566D02*
X97148464Y-125871900D01*
X97148464Y-125871900D02*
X97081798Y-125905233D01*
X97081798Y-125905233D02*
X96915131Y-125905233D01*
X96915131Y-125905233D02*
X96848464Y-125871900D01*
X96848464Y-125871900D02*
X96815131Y-125838566D01*
D16*
D17*
X98715131Y-125905233D02*
X99081797Y-125438566D01*
X98715131Y-125438566D02*
X99081797Y-125905233D01*
X99648464Y-125205233D02*
X99515131Y-125205233D01*
X99515131Y-125205233D02*
X99448464Y-125238566D01*
X99448464Y-125238566D02*
X99415131Y-125271900D01*
X99415131Y-125271900D02*
X99348464Y-125371900D01*
X99348464Y-125371900D02*
X99315131Y-125505233D01*
X99315131Y-125505233D02*
X99315131Y-125771900D01*
X99315131Y-125771900D02*
X99348464Y-125838566D01*
X99348464Y-125838566D02*
X99381798Y-125871900D01*
X99381798Y-125871900D02*
X99448464Y-125905233D01*
X99448464Y-125905233D02*
X99581798Y-125905233D01*
X99581798Y-125905233D02*
X99648464Y-125871900D01*
X99648464Y-125871900D02*
X99681798Y-125838566D01*
X99681798Y-125838566D02*
X99715131Y-125771900D01*
X99715131Y-125771900D02*
X99715131Y-125605233D01*
X99715131Y-125605233D02*
X99681798Y-125538566D01*
X99681798Y-125538566D02*
X99648464Y-125505233D01*
X99648464Y-125505233D02*
X99581798Y-125471900D01*
X99581798Y-125471900D02*
X99448464Y-125471900D01*
X99448464Y-125471900D02*
X99381798Y-125505233D01*
X99381798Y-125505233D02*
X99348464Y-125538566D01*
X99348464Y-125538566D02*
X99315131Y-125605233D01*
D18*
D19*
X195286966Y-127673247D02*
X194453633Y-126482771D01*
X193858395Y-127673247D02*
X193858395Y-125173247D01*
X193858395Y-125173247D02*
X194810776Y-125173247D01*
X194810776Y-125173247D02*
X195048871Y-125292295D01*
X195048871Y-125292295D02*
X195167918Y-125411342D01*
X195167918Y-125411342D02*
X195286966Y-125649438D01*
X195286966Y-125649438D02*
X195286966Y-126006580D01*
X195286966Y-126006580D02*
X195167918Y-126244676D01*
X195167918Y-126244676D02*
X195048871Y-126363723D01*
X195048871Y-126363723D02*
X194810776Y-126482771D01*
X194810776Y-126482771D02*
X193858395Y-126482771D01*
X196239347Y-126958961D02*
X197429823Y-126958961D01*
X196001252Y-127673247D02*
X196834585Y-125173247D01*
X196834585Y-125173247D02*
X197667918Y-127673247D01*
X198263156Y-125173247D02*
X199929823Y-125173247D01*
X199929823Y-125173247D02*
X198263156Y-127673247D01*
X198263156Y-127673247D02*
X199929823Y-127673247D01*
X201358394Y-125173247D02*
X201834585Y-125173247D01*
X201834585Y-125173247D02*
X202072680Y-125292295D01*
X202072680Y-125292295D02*
X202310775Y-125530390D01*
X202310775Y-125530390D02*
X202429823Y-126006580D01*
X202429823Y-126006580D02*
X202429823Y-126839914D01*
X202429823Y-126839914D02*
X202310775Y-127316104D01*
X202310775Y-127316104D02*
X202072680Y-127554200D01*
X202072680Y-127554200D02*
X201834585Y-127673247D01*
X201834585Y-127673247D02*
X201358394Y-127673247D01*
X201358394Y-127673247D02*
X201120299Y-127554200D01*
X201120299Y-127554200D02*
X200882204Y-127316104D01*
X200882204Y-127316104D02*
X200763156Y-126839914D01*
X200763156Y-126839914D02*
X200763156Y-126006580D01*
X200763156Y-126006580D02*
X200882204Y-125530390D01*
X200882204Y-125530390D02*
X201120299Y-125292295D01*
X201120299Y-125292295D02*
X201358394Y-125173247D01*
X204929823Y-127673247D02*
X204096490Y-126482771D01*
X203501252Y-127673247D02*
X203501252Y-125173247D01*
X203501252Y-125173247D02*
X204453633Y-125173247D01*
X204453633Y-125173247D02*
X204691728Y-125292295D01*
X204691728Y-125292295D02*
X204810775Y-125411342D01*
X204810775Y-125411342D02*
X204929823Y-125649438D01*
X204929823Y-125649438D02*
X204929823Y-126006580D01*
X204929823Y-126006580D02*
X204810775Y-126244676D01*
X204810775Y-126244676D02*
X204691728Y-126363723D01*
X204691728Y-126363723D02*
X204453633Y-126482771D01*
X204453633Y-126482771D02*
X203501252Y-126482771D01*
X205763156Y-125173247D02*
X207310775Y-125173247D01*
X207310775Y-125173247D02*
X206477442Y-126125628D01*
X206477442Y-126125628D02*
X206834585Y-126125628D01*
X206834585Y-126125628D02*
X207072680Y-126244676D01*
X207072680Y-126244676D02*
X207191728Y-126363723D01*
X207191728Y-126363723D02*
X207310775Y-126601819D01*
X207310775Y-126601819D02*
X207310775Y-127197057D01*
X207310775Y-127197057D02*
X207191728Y-127435152D01*
X207191728Y-127435152D02*
X207072680Y-127554200D01*
X207072680Y-127554200D02*
X206834585Y-127673247D01*
X206834585Y-127673247D02*
X206120299Y-127673247D01*
X206120299Y-127673247D02*
X205882204Y-127554200D01*
X205882204Y-127554200D02*
X205763156Y-127435152D01*
X208263156Y-125411342D02*
X208382204Y-125292295D01*
X208382204Y-125292295D02*
X208620299Y-125173247D01*
X208620299Y-125173247D02*
X209215537Y-125173247D01*
X209215537Y-125173247D02*
X209453632Y-125292295D01*
X209453632Y-125292295D02*
X209572680Y-125411342D01*
X209572680Y-125411342D02*
X209691727Y-125649438D01*
X209691727Y-125649438D02*
X209691727Y-125887533D01*
X209691727Y-125887533D02*
X209572680Y-126244676D01*
X209572680Y-126244676D02*
X208144108Y-127673247D01*
X208144108Y-127673247D02*
X209691727Y-127673247D01*
D20*
%TO.P,j,1*%
%TO.N,y2*%
X165500000Y-99000000D03*
%TO.N,N/C*%
X172000000Y-99000000D03*
%TO.P,j,2*%
X165500000Y-103500000D03*
%TO.N,x7*%
X172000000Y-103500000D03*
%TD*%
%TO.P,g,1*%
%TO.N,y2*%
X138500000Y-99000000D03*
%TO.N,N/C*%
X145000000Y-99000000D03*
%TO.P,g,2*%
X138500000Y-103500000D03*
%TO.N,x5*%
X145000000Y-103500000D03*
%TD*%
%TO.P,z,1*%
%TO.N,y3*%
X84500000Y-111000000D03*
%TO.N,N/C*%
X91000000Y-111000000D03*
%TO.P,z,2*%
X84500000Y-115500000D03*
%TO.N,x1*%
X91000000Y-115500000D03*
%TD*%
D21*
%TO.P,FlatCableSocket,1*%
%TO.N,sd*%
X95100000Y-83500000D03*
%TO.P,FlatCableSocket,2*%
%TO.N,N/C*%
X94600000Y-83500000D03*
%TO.P,FlatCableSocket,3*%
X94100000Y-83500000D03*
%TO.P,FlatCableSocket,4*%
X93600000Y-83500000D03*
%TO.P,FlatCableSocket,5*%
X93100000Y-83500000D03*
%TO.P,FlatCableSocket,6*%
%TO.N,sdo*%
X92600000Y-83500000D03*
%TO.P,FlatCableSocket,7*%
%TO.N,bl*%
X92100000Y-83500000D03*
%TO.P,FlatCableSocket,8*%
%TO.N,sck*%
X91600000Y-83500000D03*
%TO.P,FlatCableSocket,9*%
%TO.N,sdi*%
X91100000Y-83500000D03*
%TO.P,FlatCableSocket,10*%
%TO.N,dc*%
X90600000Y-83500000D03*
%TO.P,FlatCableSocket,11*%
%TO.N,rst*%
X90100000Y-83500000D03*
%TO.P,FlatCableSocket,12*%
%TO.N,cs*%
X89600000Y-83500000D03*
%TO.P,FlatCableSocket,13*%
%TO.N,sgnd*%
X89100000Y-83500000D03*
%TO.P,FlatCableSocket,14*%
%TO.N,vcc*%
X88600000Y-83500000D03*
D22*
%TO.P,FlatCableSocket,MP*%
%TO.N,N/C*%
X97000000Y-80250000D03*
X86700000Y-80250000D03*
%TD*%
D20*
%TO.P,u,1*%
%TO.N,y1*%
X165500000Y-87000000D03*
%TO.N,N/C*%
X172000000Y-87000000D03*
%TO.P,u,2*%
X165500000Y-91500000D03*
%TO.N,x7*%
X172000000Y-91500000D03*
%TD*%
%TO.P,o,1*%
%TO.N,y1*%
X192500000Y-87000000D03*
%TO.N,N/C*%
X199000000Y-87000000D03*
%TO.P,o,2*%
X192500000Y-91500000D03*
%TO.N,x9*%
X199000000Y-91500000D03*
%TD*%
%TO.P,n,1*%
%TO.N,y3*%
X165500000Y-111000000D03*
%TO.N,N/C*%
X172000000Y-111000000D03*
%TO.P,n,2*%
X165500000Y-115500000D03*
%TO.N,x7*%
X172000000Y-115500000D03*
%TD*%
%TO.P,ret,1*%
%TO.N,y2*%
X206000000Y-99000000D03*
%TO.N,N/C*%
X212500000Y-99000000D03*
%TO.P,ret,2*%
X206000000Y-103500000D03*
%TO.N,x10*%
X212500000Y-103500000D03*
%TD*%
%TO.P,space,1*%
%TO.N,y3*%
X152000000Y-111000000D03*
%TO.N,N/C*%
X158500000Y-111000000D03*
%TO.P,space,2*%
X152000000Y-115500000D03*
%TO.N,x6*%
X158500000Y-115500000D03*
%TD*%
%TO.P,q,1*%
%TO.N,y1*%
X84500000Y-87000000D03*
%TO.N,N/C*%
X91000000Y-87000000D03*
%TO.P,q,2*%
X84500000Y-91500000D03*
%TO.N,x1*%
X91000000Y-91500000D03*
%TD*%
%TO.P,fun,1*%
%TO.N,y3*%
X192500000Y-111000000D03*
%TO.N,N/C*%
X199000000Y-111000000D03*
%TO.P,fun,2*%
X192500000Y-115500000D03*
%TO.N,x9*%
X199000000Y-115500000D03*
%TD*%
%TO.P,m,1*%
%TO.N,y3*%
X179000000Y-111000000D03*
%TO.N,N/C*%
X185500000Y-111000000D03*
%TO.P,m,2*%
X179000000Y-115500000D03*
%TO.N,x8*%
X185500000Y-115500000D03*
%TD*%
%TO.P,f,1*%
%TO.N,y2*%
X125000000Y-99000000D03*
%TO.N,N/C*%
X131500000Y-99000000D03*
%TO.P,f,2*%
X125000000Y-103500000D03*
%TO.N,x4*%
X131500000Y-103500000D03*
%TD*%
%TO.P,x,1*%
%TO.N,y3*%
X98000000Y-111000000D03*
%TO.N,N/C*%
X104500000Y-111000000D03*
%TO.P,x,2*%
X98000000Y-115500000D03*
%TO.N,x2*%
X104500000Y-115500000D03*
%TD*%
%TO.P,r,1*%
%TO.N,y1*%
X125000000Y-87000000D03*
%TO.N,N/C*%
X131500000Y-87000000D03*
%TO.P,r,2*%
X125000000Y-91500000D03*
%TO.N,x4*%
X131500000Y-91500000D03*
%TD*%
%TO.P,k,1*%
%TO.N,y2*%
X179000000Y-99000000D03*
%TO.N,N/C*%
X185500000Y-99000000D03*
%TO.P,k,2*%
X179000000Y-103500000D03*
%TO.N,x8*%
X185500000Y-103500000D03*
%TD*%
%TO.P,w,1*%
%TO.N,y1*%
X98000000Y-87000000D03*
%TO.N,N/C*%
X104500000Y-87000000D03*
%TO.P,w,2*%
X98000000Y-91500000D03*
%TO.N,x2*%
X104500000Y-91500000D03*
%TD*%
%TO.P,enter,1*%
%TO.N,y3*%
X206000000Y-111000000D03*
%TO.N,N/C*%
X212500000Y-111000000D03*
%TO.P,enter,2*%
X206000000Y-115500000D03*
%TO.N,x10*%
X212500000Y-115500000D03*
%TD*%
%TO.P,p,1*%
%TO.N,y1*%
X206000000Y-87000000D03*
%TO.N,N/C*%
X212500000Y-87000000D03*
%TO.P,p,2*%
X206000000Y-91500000D03*
%TO.N,x10*%
X212500000Y-91500000D03*
%TD*%
%TO.P,l,1*%
%TO.N,y2*%
X192500000Y-99000000D03*
%TO.N,N/C*%
X199000000Y-99000000D03*
%TO.P,l,2*%
X192500000Y-103500000D03*
%TO.N,x9*%
X199000000Y-103500000D03*
%TD*%
%TO.P,a,1*%
%TO.N,y2*%
X84500000Y-99000000D03*
%TO.N,N/C*%
X91000000Y-99000000D03*
%TO.P,a,2*%
X84500000Y-103500000D03*
%TO.N,x1*%
X91000000Y-103500000D03*
%TD*%
%TO.P,h,1*%
%TO.N,y2*%
X152000000Y-99000000D03*
%TO.N,N/C*%
X158500000Y-99000000D03*
%TO.P,h,2*%
X152000000Y-103500000D03*
%TO.N,x6*%
X158500000Y-103500000D03*
%TD*%
%TO.P,b,1*%
%TO.N,y3*%
X138500000Y-111000000D03*
%TO.N,N/C*%
X145000000Y-111000000D03*
%TO.P,b,2*%
X138500000Y-115500000D03*
%TO.N,x5*%
X145000000Y-115500000D03*
%TD*%
%TO.P,v,1*%
%TO.N,y3*%
X125000000Y-111000000D03*
%TO.N,N/C*%
X131500000Y-111000000D03*
%TO.P,v,2*%
X125000000Y-115500000D03*
%TO.N,x4*%
X131500000Y-115500000D03*
%TD*%
%TO.P,d,1*%
%TO.N,y2*%
X111500000Y-99000000D03*
%TO.N,N/C*%
X118000000Y-99000000D03*
%TO.P,d,2*%
X111500000Y-103500000D03*
%TO.N,x3*%
X118000000Y-103500000D03*
%TD*%
%TO.P,t,1*%
%TO.N,y1*%
X138500000Y-87000000D03*
%TO.N,N/C*%
X145000000Y-87000000D03*
%TO.P,t,2*%
X138500000Y-91500000D03*
%TO.N,x5*%
X145000000Y-91500000D03*
%TD*%
%TO.P,i,1*%
%TO.N,y1*%
X179000000Y-87000000D03*
%TO.N,N/C*%
X185500000Y-87000000D03*
%TO.P,i,2*%
X179000000Y-91500000D03*
%TO.N,x8*%
X185500000Y-91500000D03*
%TD*%
%TO.P,y,1*%
%TO.N,y1*%
X152000000Y-87000000D03*
%TO.N,N/C*%
X158500000Y-87000000D03*
%TO.P,y,2*%
X152000000Y-91500000D03*
%TO.N,x6*%
X158500000Y-91500000D03*
%TD*%
%TO.P,s,1*%
%TO.N,y2*%
X98000000Y-99000000D03*
%TO.N,N/C*%
X104500000Y-99000000D03*
%TO.P,s,2*%
X98000000Y-103500000D03*
%TO.N,x2*%
X104500000Y-103500000D03*
%TD*%
%TO.P,c,1*%
%TO.N,y3*%
X111500000Y-111000000D03*
%TO.N,N/C*%
X118000000Y-111000000D03*
%TO.P,c,2*%
X111500000Y-115500000D03*
%TO.N,x3*%
X118000000Y-115500000D03*
%TD*%
%TO.P,e,1*%
%TO.N,y1*%
X111500000Y-87000000D03*
%TO.N,N/C*%
X118000000Y-87000000D03*
%TO.P,e,2*%
X111500000Y-91500000D03*
%TO.N,x3*%
X118000000Y-91500000D03*
%TD*%
D23*
%TO.P,ESP32PinSocket_2,1*%
%TO.N,N/C*%
X212240000Y-107500000D03*
D24*
%TO.P,ESP32PinSocket_2,2*%
%TO.N,sdi*%
X209700000Y-107500000D03*
%TO.P,ESP32PinSocket_2,3*%
%TO.N,sck*%
X207160000Y-107500000D03*
%TO.P,ESP32PinSocket_2,4*%
%TO.N,y2*%
X204620000Y-107500000D03*
%TO.P,ESP32PinSocket_2,5*%
%TO.N,x9*%
X202080000Y-107500000D03*
%TO.P,ESP32PinSocket_2,6*%
%TO.N,x1*%
X199540000Y-107500000D03*
%TO.P,ESP32PinSocket_2,7*%
%TO.N,x2*%
X197000000Y-107500000D03*
%TO.P,ESP32PinSocket_2,8*%
%TO.N,N/C*%
X194460000Y-107500000D03*
%TO.P,ESP32PinSocket_2,9*%
X191920000Y-107500000D03*
%TO.P,ESP32PinSocket_2,10*%
X189380000Y-107500000D03*
%TO.P,ESP32PinSocket_2,11*%
X186840000Y-107500000D03*
%TO.P,ESP32PinSocket_2,12*%
%TO.N,bl*%
X184300000Y-107500000D03*
%TO.P,ESP32PinSocket_2,13*%
%TO.N,x8*%
X181760000Y-107500000D03*
%TO.P,ESP32PinSocket_2,14*%
%TO.N,x5*%
X179220000Y-107500000D03*
%TO.P,ESP32PinSocket_2,15*%
%TO.N,y3*%
X176680000Y-107500000D03*
%TO.P,ESP32PinSocket_2,16*%
%TO.N,x7*%
X174140000Y-107500000D03*
%TO.P,ESP32PinSocket_2,17*%
%TO.N,N/C*%
X171600000Y-107500000D03*
%TO.P,ESP32PinSocket_2,18*%
X169060000Y-107500000D03*
%TO.P,ESP32PinSocket_2,19*%
X166520000Y-107500000D03*
%TO.P,ESP32PinSocket_2,20*%
X163980000Y-107500000D03*
%TO.P,ESP32PinSocket_2,21*%
%TO.N,gnd*%
X161440000Y-107500000D03*
%TD*%
D23*
%TO.P,ESP32PinSocket_1,1*%
%TO.N,vcc*%
X212290000Y-82000000D03*
D24*
%TO.P,ESP32PinSocket_1,2*%
%TO.N,sdo*%
X209750000Y-82000000D03*
%TO.P,ESP32PinSocket_1,3*%
%TO.N,rst*%
X207210000Y-82000000D03*
%TO.P,ESP32PinSocket_1,4*%
%TO.N,cs*%
X204670000Y-82000000D03*
%TO.P,ESP32PinSocket_1,5*%
%TO.N,dc*%
X202130000Y-82000000D03*
%TO.P,ESP32PinSocket_1,6*%
%TO.N,N/C*%
X199590000Y-82000000D03*
%TO.P,ESP32PinSocket_1,7*%
X197050000Y-82000000D03*
%TO.P,ESP32PinSocket_1,8*%
X194510000Y-82000000D03*
%TO.P,ESP32PinSocket_1,9*%
X191970000Y-82000000D03*
%TO.P,ESP32PinSocket_1,10*%
%TO.N,y1*%
X189430000Y-82000000D03*
%TO.P,ESP32PinSocket_1,11*%
%TO.N,x6*%
X186890000Y-82000000D03*
%TO.P,ESP32PinSocket_1,12*%
%TO.N,x3*%
X184350000Y-82000000D03*
%TO.P,ESP32PinSocket_1,13*%
%TO.N,x4*%
X181810000Y-82000000D03*
%TO.P,ESP32PinSocket_1,14*%
%TO.N,N/C*%
X179270000Y-82000000D03*
%TO.P,ESP32PinSocket_1,15*%
%TO.N,x10*%
X176730000Y-82000000D03*
%TO.P,ESP32PinSocket_1,16*%
%TO.N,N/C*%
X174190000Y-82000000D03*
%TO.P,ESP32PinSocket_1,17*%
X171650000Y-82000000D03*
%TO.P,ESP32PinSocket_1,18*%
%TO.N,sd*%
X169110000Y-82000000D03*
%TO.P,ESP32PinSocket_1,19*%
%TO.N,N/C*%
X166570000Y-82000000D03*
%TO.P,ESP32PinSocket_1,20*%
X164030000Y-82000000D03*
%TO.P,ESP32PinSocket_1,21*%
%TO.N,sgnd*%
X161490000Y-82000000D03*
%TD*%
D25*
%TO.N,*%
X216000000Y-131500000D03*
X81000000Y-131500000D03*
X216000000Y-77500000D03*
X81000000Y-77500000D03*
D26*
%TO.N,vcc*%
X87740000Y-81960000D03*
%TO.N,cs*%
X89290000Y-81950000D03*
%TO.N,rst*%
X90100000Y-81940000D03*
%TO.N,sdi*%
X91100000Y-81970000D03*
%TO.N,sck*%
X92140000Y-81940000D03*
%TO.N,bl*%
X92930000Y-81960000D03*
%TO.N,sd*%
X95090000Y-82140000D03*
%TO.N,sgnd*%
X88530000Y-81950000D03*
D27*
%TO.N,y1*%
X136000000Y-91800000D03*
X95400000Y-87000000D03*
X163200000Y-91700000D03*
X136000000Y-87275000D03*
X81500000Y-93200000D03*
X163200000Y-87175000D03*
X122400000Y-87175000D03*
X109000000Y-87087500D03*
X149800000Y-91800000D03*
X203600000Y-91700000D03*
X176800000Y-87175000D03*
X176800000Y-91700000D03*
X81500000Y-88675000D03*
X122400000Y-91800000D03*
X109000000Y-91800000D03*
X190200000Y-87175000D03*
X190200000Y-91700000D03*
X203600000Y-87175000D03*
X95400000Y-91800000D03*
X149800000Y-87275000D03*
%TO.N,y2*%
X95600000Y-99000000D03*
X109200000Y-103800000D03*
X190200000Y-103800000D03*
X109200000Y-99000000D03*
X149600000Y-103800000D03*
X190200000Y-99000000D03*
X136200000Y-99000000D03*
X163200000Y-99000000D03*
X81600000Y-105400000D03*
X163200000Y-103800000D03*
X176600000Y-103800000D03*
X95600000Y-103800000D03*
X122600000Y-103800000D03*
X203800000Y-99000000D03*
X122600000Y-99000000D03*
X81600000Y-100600000D03*
X176600000Y-99000000D03*
X203800000Y-103800000D03*
X149600000Y-99000000D03*
X136200000Y-103800000D03*
%TO.N,y3*%
X109400000Y-115800000D03*
X109400000Y-111000000D03*
X82200000Y-115800000D03*
X149800000Y-115800000D03*
X203800000Y-111050000D03*
X177000000Y-111200000D03*
X163200000Y-115850000D03*
X122800000Y-111000000D03*
X95800000Y-111000000D03*
X136200000Y-111000000D03*
X95800000Y-115800000D03*
D26*
X176200000Y-117600000D03*
D27*
X190400000Y-111050000D03*
X177000000Y-116000000D03*
X122800000Y-115800000D03*
X203800000Y-115850000D03*
X136200000Y-115800000D03*
X149800000Y-111000000D03*
X82200000Y-111000000D03*
X190400000Y-115850000D03*
X163200000Y-111050000D03*
%TO.N,x1*%
X93400000Y-99000000D03*
D28*
X86750000Y-123500000D03*
D27*
X93400000Y-91800000D03*
X93400000Y-103800000D03*
X93400000Y-87000000D03*
X93400000Y-111000000D03*
X93400000Y-115800000D03*
%TO.N,x2*%
X106800000Y-91950000D03*
X106800000Y-111150000D03*
D28*
X89250000Y-123500000D03*
D27*
X106800000Y-115950000D03*
X106800000Y-103950000D03*
X106800000Y-99150000D03*
X106800000Y-87150000D03*
%TO.N,x3*%
X120200000Y-91950000D03*
X120200000Y-87150000D03*
X120200000Y-99150000D03*
X120200000Y-111150000D03*
D28*
X91750000Y-123500000D03*
D27*
X120200000Y-115950000D03*
X120200000Y-103950000D03*
%TO.N,x4*%
X133800000Y-103950000D03*
D28*
X94250000Y-123500000D03*
D27*
X133800000Y-99150000D03*
X133800000Y-91950000D03*
X133800000Y-111150000D03*
X133800000Y-115950000D03*
X133800000Y-87150000D03*
%TO.N,x5*%
X147200000Y-103950000D03*
X147200000Y-91950000D03*
X147200000Y-99150000D03*
X147200000Y-115950000D03*
D28*
X96750000Y-123500000D03*
D27*
X147200000Y-111150000D03*
X147200000Y-87150000D03*
%TO.N,x6*%
X160600000Y-92000000D03*
D28*
X99250000Y-123500000D03*
D27*
X160800000Y-111000000D03*
X160600000Y-87200000D03*
X160800000Y-115800000D03*
X160800000Y-99000000D03*
X160800000Y-103800000D03*
%TO.N,x7*%
X174200000Y-103800000D03*
X174200000Y-87000000D03*
X174200000Y-99000000D03*
X174200000Y-91800000D03*
X174200000Y-116000000D03*
X174200000Y-111200000D03*
%TO.N,x8*%
X187800000Y-115800000D03*
X187600000Y-91800000D03*
X187600000Y-87000000D03*
X187800000Y-103800000D03*
X187800000Y-111000000D03*
X187800000Y-99000000D03*
%TO.N,x9*%
X201200000Y-115800000D03*
X201200000Y-87000000D03*
X201800000Y-103600000D03*
X201800000Y-99000000D03*
X201200000Y-91800000D03*
X201200000Y-111000000D03*
D26*
%TO.N,x10*%
X210875000Y-95875000D03*
D27*
X215400000Y-87000000D03*
X215400000Y-91800000D03*
X215400000Y-115800000D03*
X215400000Y-111000000D03*
X215400000Y-99000000D03*
X215400000Y-103800000D03*
%TD*%
%TO.N,vcc*%
D29*
X88600000Y-83500000D02*
X88600000Y-82820000D01*
X88600000Y-82820000D02*
X87740000Y-81960000D01*
%TO.N,cs*%
X89600000Y-83500000D02*
X89600000Y-82260000D01*
X89600000Y-82260000D02*
X89290000Y-81950000D01*
%TO.N,rst*%
X90100000Y-83500000D02*
X90100000Y-81940000D01*
%TO.N,dc*%
X90600000Y-77500000D02*
X90600000Y-83500000D01*
X121850000Y-84350000D02*
X114800000Y-77300000D01*
X114800000Y-77300000D02*
X90800000Y-77300000D01*
X202130000Y-82000000D02*
X202130000Y-83970000D01*
X201750000Y-84350000D02*
X121850000Y-84350000D01*
X202130000Y-83970000D02*
X201750000Y-84350000D01*
X90800000Y-77300000D02*
X90600000Y-77500000D01*
%TO.N,sdi*%
X91100000Y-83500000D02*
X91100000Y-81970000D01*
%TO.N,sck*%
X91600000Y-82480000D02*
X92140000Y-81940000D01*
X91600000Y-83500000D02*
X91600000Y-82480000D01*
%TO.N,bl*%
X92790000Y-81960000D02*
X92100000Y-82650000D01*
X92930000Y-81960000D02*
X92790000Y-81960000D01*
D30*
X184460000Y-107340000D02*
X184300000Y-107500000D01*
D29*
X92100000Y-82650000D02*
X92100000Y-83500000D01*
%TO.N,sdo*%
X206900000Y-84850000D02*
X209750000Y-82000000D01*
X92600000Y-83500000D02*
X92600000Y-84600000D01*
X187199000Y-85001000D02*
X187350000Y-84850000D01*
X92600000Y-84600000D02*
X93001000Y-85001000D01*
X93001000Y-85001000D02*
X187199000Y-85001000D01*
X187350000Y-84850000D02*
X206900000Y-84850000D01*
%TO.N,sd*%
D31*
X95100000Y-83500000D02*
X95100000Y-82150000D01*
X95100000Y-82150000D02*
X95090000Y-82140000D01*
%TO.N,sgnd*%
D29*
X89100000Y-82520000D02*
X89100000Y-83500000D01*
X88530000Y-81950000D02*
X89100000Y-82520000D01*
%TO.N,y1*%
D31*
X106600000Y-94700000D02*
X109000000Y-94700000D01*
D29*
X109000000Y-91800000D02*
X109000000Y-94700000D01*
D31*
X135001000Y-94600000D02*
X136000000Y-94600000D01*
X214000000Y-94400000D02*
X214000000Y-80100000D01*
D29*
X122575000Y-87000000D02*
X122400000Y-87175000D01*
X95400000Y-87000000D02*
X95400000Y-87075000D01*
X176800000Y-91700000D02*
X176800000Y-94500000D01*
D31*
X190560000Y-79560000D02*
X189300000Y-80820000D01*
X133610000Y-94700000D02*
X134901000Y-94700000D01*
D29*
X203775000Y-87000000D02*
X203600000Y-87175000D01*
X81500000Y-93200000D02*
X81500000Y-94500000D01*
X149800000Y-91800000D02*
X149800000Y-94600000D01*
X190200000Y-87175000D02*
X190375000Y-87000000D01*
D31*
X98000000Y-94700000D02*
X106600000Y-94700000D01*
X136000000Y-94600000D02*
X213800000Y-94600000D01*
X189300000Y-80820000D02*
X189300000Y-81870000D01*
D29*
X190375000Y-87000000D02*
X192500000Y-87000000D01*
X111500000Y-87000000D02*
X109087500Y-87000000D01*
X152000000Y-87000000D02*
X150075000Y-87000000D01*
D31*
X98000000Y-87000000D02*
X95400000Y-87000000D01*
X189300000Y-81870000D02*
X189430000Y-82000000D01*
D29*
X163375000Y-87000000D02*
X163200000Y-87175000D01*
X176975000Y-87000000D02*
X176800000Y-87175000D01*
D31*
X111610000Y-94700000D02*
X120100000Y-94700000D01*
X109000000Y-94700000D02*
X111610000Y-94700000D01*
D29*
X150075000Y-87000000D02*
X149800000Y-87275000D01*
D31*
X213460000Y-79560000D02*
X190560000Y-79560000D01*
X97500000Y-86500000D02*
X98000000Y-87000000D01*
D29*
X82825000Y-88675000D02*
X81500000Y-88675000D01*
X206000000Y-87000000D02*
X203775000Y-87000000D01*
D31*
X213800000Y-94600000D02*
X214000000Y-94400000D01*
D29*
X109087500Y-87000000D02*
X109000000Y-87087500D01*
X163200000Y-91700000D02*
X163200000Y-94500000D01*
X136000000Y-91800000D02*
X136000000Y-94600000D01*
X203600000Y-91700000D02*
X203600000Y-94500000D01*
D31*
X95400000Y-94700000D02*
X98000000Y-94700000D01*
D29*
X138500000Y-87000000D02*
X136275000Y-87000000D01*
D31*
X125020000Y-94700000D02*
X133610000Y-94700000D01*
X214000000Y-80100000D02*
X213460000Y-79560000D01*
X134901000Y-94700000D02*
X135001000Y-94600000D01*
X120100000Y-94700000D02*
X122400000Y-94700000D01*
D29*
X136275000Y-87000000D02*
X136000000Y-87275000D01*
X122400000Y-91800000D02*
X122400000Y-94700000D01*
X84500000Y-87000000D02*
X82825000Y-88675000D01*
X95400000Y-91800000D02*
X95400000Y-94700000D01*
X81700000Y-94700000D02*
X94200000Y-94700000D01*
D31*
X94200000Y-94700000D02*
X95400000Y-94700000D01*
D29*
X81500000Y-94500000D02*
X81700000Y-94700000D01*
X165500000Y-87000000D02*
X163375000Y-87000000D01*
D31*
X122400000Y-94700000D02*
X125020000Y-94700000D01*
D29*
X125000000Y-87000000D02*
X122575000Y-87000000D01*
X190200000Y-91700000D02*
X190200000Y-94500000D01*
X179000000Y-87000000D02*
X176975000Y-87000000D01*
%TO.N,y2*%
X203800000Y-105210000D02*
X204650000Y-105210000D01*
X124910000Y-105210000D02*
X133210000Y-105210000D01*
X159360000Y-105210000D02*
X165470000Y-105210000D01*
X204650000Y-105320000D02*
X204620000Y-105350000D01*
X204650000Y-105210000D02*
X204650000Y-105320000D01*
X111390000Y-105210000D02*
X119710000Y-105210000D01*
X133210000Y-105210000D02*
X138500000Y-105210000D01*
X163200000Y-99000000D02*
X165500000Y-99000000D01*
X165470000Y-105210000D02*
X173710000Y-105210000D01*
X190200000Y-103800000D02*
X190200000Y-105210000D01*
X95600000Y-103800000D02*
X95600000Y-105210000D01*
X151970000Y-105210000D02*
X159360000Y-105210000D01*
X109200000Y-103800000D02*
X109200000Y-105210000D01*
X95600000Y-105210000D02*
X92710000Y-105210000D01*
X122600000Y-99000000D02*
X125000000Y-99000000D01*
X97970000Y-105210000D02*
X95600000Y-105210000D01*
X81600000Y-105400000D02*
X84590000Y-105400000D01*
X136200000Y-103800000D02*
X136200000Y-105210000D01*
X82900000Y-100600000D02*
X81600000Y-100600000D01*
X187210000Y-105210000D02*
X192510000Y-105210000D01*
X92710000Y-105210000D02*
X92700000Y-105220000D01*
X111500000Y-99000000D02*
X109200000Y-99000000D01*
X136200000Y-99000000D02*
X138500000Y-99000000D01*
X138500000Y-105210000D02*
X146630000Y-105210000D01*
X176600000Y-103800000D02*
X176600000Y-105210000D01*
X203800000Y-103800000D02*
X203800000Y-105210000D01*
X190200000Y-99000000D02*
X192500000Y-99000000D01*
X122600000Y-103800000D02*
X122600000Y-105210000D01*
X149600000Y-103800000D02*
X149600000Y-105210000D01*
X176600000Y-99000000D02*
X179000000Y-99000000D01*
X204620000Y-105350000D02*
X204620000Y-107500000D01*
X192510000Y-105210000D02*
X200710000Y-105210000D01*
X92700000Y-105220000D02*
X84770000Y-105220000D01*
X178920000Y-105210000D02*
X187210000Y-105210000D01*
X106210000Y-105210000D02*
X111390000Y-105210000D01*
X173710000Y-105210000D02*
X178920000Y-105210000D01*
X163200000Y-103800000D02*
X163200000Y-105210000D01*
X203800000Y-99000000D02*
X206000000Y-99000000D01*
X119710000Y-105210000D02*
X124910000Y-105210000D01*
X84500000Y-99000000D02*
X82900000Y-100600000D01*
X97970000Y-105210000D02*
X106210000Y-105210000D01*
X98000000Y-99000000D02*
X95600000Y-99000000D01*
X200710000Y-105210000D02*
X203800000Y-105210000D01*
X146630000Y-105210000D02*
X151970000Y-105210000D01*
X84590000Y-105400000D02*
X84770000Y-105220000D01*
X149600000Y-99000000D02*
X152000000Y-99000000D01*
%TO.N,y3*%
X177000000Y-118500000D02*
X203750000Y-118500000D01*
X122800000Y-115800000D02*
X122800000Y-118500000D01*
X111500000Y-111000000D02*
X109400000Y-111000000D01*
X203800000Y-115850000D02*
X203800000Y-118550000D01*
D31*
X95800000Y-118500000D02*
X84900000Y-118500000D01*
D29*
X165500000Y-111000000D02*
X163250000Y-111000000D01*
X176200000Y-117600000D02*
X176200000Y-118500000D01*
X163200000Y-115850000D02*
X163200000Y-118550000D01*
D31*
X176200000Y-118500000D02*
X149800000Y-118500000D01*
D29*
X109400000Y-115800000D02*
X109400000Y-118500000D01*
X98000000Y-111000000D02*
X95800000Y-111000000D01*
X203850000Y-111000000D02*
X203800000Y-111050000D01*
D31*
X109400000Y-118500000D02*
X95800000Y-118500000D01*
D29*
X152000000Y-111000000D02*
X149800000Y-111000000D01*
X190450000Y-111000000D02*
X190400000Y-111050000D01*
X95800000Y-115800000D02*
X95800000Y-118500000D01*
X84500000Y-111000000D02*
X82200000Y-111000000D01*
X192500000Y-111000000D02*
X190450000Y-111000000D01*
X179000000Y-111000000D02*
X177200000Y-111000000D01*
X136200000Y-115800000D02*
X136200000Y-118500000D01*
D31*
X136200000Y-118500000D02*
X122800000Y-118500000D01*
X176700000Y-118500000D02*
X176200000Y-118500000D01*
D29*
X206000000Y-111000000D02*
X203850000Y-111000000D01*
X149800000Y-115800000D02*
X149800000Y-118500000D01*
X125000000Y-111000000D02*
X122800000Y-111000000D01*
D31*
X149800000Y-118500000D02*
X136200000Y-118500000D01*
X84900000Y-118500000D02*
X82200000Y-115800000D01*
D29*
X190400000Y-115850000D02*
X190400000Y-118550000D01*
X177200000Y-111000000D02*
X177000000Y-111200000D01*
D31*
X176700000Y-118500000D02*
X177000000Y-118500000D01*
D29*
X163250000Y-111000000D02*
X163200000Y-111050000D01*
X203750000Y-118500000D02*
X203800000Y-118550000D01*
X138500000Y-111000000D02*
X136200000Y-111000000D01*
D31*
X122800000Y-118500000D02*
X109400000Y-118500000D01*
D29*
X177000000Y-116000000D02*
X177000000Y-118500000D01*
%TO.N,x3*%
D31*
X214340000Y-119460000D02*
X214400000Y-119400000D01*
X213990000Y-78740000D02*
X185130000Y-78740000D01*
X214600000Y-119250000D02*
X214600000Y-79350000D01*
X214400000Y-119400000D02*
X214450000Y-119400000D01*
X185130000Y-78740000D02*
X184350000Y-79520000D01*
X184350000Y-79520000D02*
X184350000Y-82000000D01*
X214450000Y-119400000D02*
X214600000Y-119250000D01*
X91750000Y-123500000D02*
X95790000Y-119460000D01*
X95790000Y-119460000D02*
X214340000Y-119460000D01*
X214600000Y-79350000D02*
X213990000Y-78740000D01*
%TO.N,x4*%
X216640000Y-119120000D02*
X216640000Y-108700000D01*
X216640000Y-108700000D02*
X216610000Y-108670000D01*
X94250000Y-122190000D02*
X96110000Y-120330000D01*
X214530000Y-77910000D02*
X182400000Y-77910000D01*
X96110000Y-120330000D02*
X215430000Y-120330000D01*
X181810000Y-78500000D02*
X181810000Y-82000000D01*
X215430000Y-120330000D02*
X216640000Y-119120000D01*
X94250000Y-123500000D02*
X94250000Y-122190000D01*
X216610000Y-79990000D02*
X214530000Y-77910000D01*
X216610000Y-108670000D02*
X216610000Y-79990000D01*
X182400000Y-77910000D02*
X181810000Y-78500000D01*
%TO.N,x6*%
D29*
X158500000Y-103500000D02*
X158500000Y-104350000D01*
%TD*%
M02*
