%TF.GenerationSoftware,KiCad,Pcbnew,9.0.7*%
%TF.CreationDate,2026-08-22T22:26:50-03:00*%
%TF.ProjectId,razor32,72617a6f-7233-4322-9e6b-696361645f70,rev?*%
%TF.SameCoordinates,Original*%
%TF.FileFunction,Copper,L2,Inr*%
%TF.FilePolarity,Positive*%
%FSLAX46Y46*%
G04 Gerber Fmt 4.6, Leading zero omitted, Abs format (unit mm)*
G04 Created by KiCad (PCBNEW 9.0.7) date 2026-08-22 22:26:50*
%MOMM*%
%LPD*%
G01*
G04 APERTURE LIST*
%TA.AperFunction,ComponentPad*%
%ADD10C,2.000000*%
%TD*%
%TA.AperFunction,ComponentPad*%
%ADD11R,1.700000X1.700000*%
%TD*%
%TA.AperFunction,ComponentPad*%
%ADD12C,1.700000*%
%TD*%
%TA.AperFunction,ViaPad*%
%ADD13C,2.100000*%
%TD*%
%TA.AperFunction,ViaPad*%
%ADD14C,0.500000*%
%TD*%
%TA.AperFunction,ViaPad*%
%ADD15C,1.100000*%
%TD*%
%TA.AperFunction,ViaPad*%
%ADD16C,1.000000*%
%TD*%
%TA.AperFunction,Conductor*%
%ADD17C,0.300000*%
%TD*%
%TA.AperFunction,Conductor*%
%ADD18C,0.200000*%
%TD*%
G04 APERTURE END LIST*
D10*
%TO.N,y2*%
%TO.C,j*%
X165500000Y-99000000D03*
%TO.N,N/C*%
X172000000Y-99000000D03*
X165500000Y-103500000D03*
%TO.N,x7*%
X172000000Y-103500000D03*
%TD*%
%TO.N,y2*%
%TO.C,g*%
X138500000Y-99000000D03*
%TO.N,N/C*%
X145000000Y-99000000D03*
X138500000Y-103500000D03*
%TO.N,x5*%
X145000000Y-103500000D03*
%TD*%
%TO.N,y3*%
%TO.C,z*%
X84500000Y-111000000D03*
%TO.N,N/C*%
X91000000Y-111000000D03*
X84500000Y-115500000D03*
%TO.N,x1*%
X91000000Y-115500000D03*
%TD*%
%TO.N,y1*%
%TO.C,u*%
X165500000Y-87000000D03*
%TO.N,N/C*%
X172000000Y-87000000D03*
X165500000Y-91500000D03*
%TO.N,x7*%
X172000000Y-91500000D03*
%TD*%
%TO.N,y1*%
%TO.C,o*%
X192500000Y-87000000D03*
%TO.N,N/C*%
X199000000Y-87000000D03*
X192500000Y-91500000D03*
%TO.N,x9*%
X199000000Y-91500000D03*
%TD*%
%TO.N,y3*%
%TO.C,n*%
X165500000Y-111000000D03*
%TO.N,N/C*%
X172000000Y-111000000D03*
X165500000Y-115500000D03*
%TO.N,x7*%
X172000000Y-115500000D03*
%TD*%
%TO.N,y2*%
%TO.C,ret*%
X206000000Y-99000000D03*
%TO.N,N/C*%
X212500000Y-99000000D03*
X206000000Y-103500000D03*
%TO.N,x10*%
X212500000Y-103500000D03*
%TD*%
%TO.N,y3*%
%TO.C,space*%
X152000000Y-111000000D03*
%TO.N,N/C*%
X158500000Y-111000000D03*
X152000000Y-115500000D03*
%TO.N,x6*%
X158500000Y-115500000D03*
%TD*%
%TO.N,y1*%
%TO.C,q*%
X84500000Y-87000000D03*
%TO.N,N/C*%
X91000000Y-87000000D03*
X84500000Y-91500000D03*
%TO.N,x1*%
X91000000Y-91500000D03*
%TD*%
%TO.N,y3*%
%TO.C,fun*%
X192500000Y-111000000D03*
%TO.N,N/C*%
X199000000Y-111000000D03*
X192500000Y-115500000D03*
%TO.N,x9*%
X199000000Y-115500000D03*
%TD*%
%TO.N,y3*%
%TO.C,m*%
X179000000Y-111000000D03*
%TO.N,N/C*%
X185500000Y-111000000D03*
X179000000Y-115500000D03*
%TO.N,x8*%
X185500000Y-115500000D03*
%TD*%
%TO.N,y2*%
%TO.C,f*%
X125000000Y-99000000D03*
%TO.N,N/C*%
X131500000Y-99000000D03*
X125000000Y-103500000D03*
%TO.N,x4*%
X131500000Y-103500000D03*
%TD*%
%TO.N,y3*%
%TO.C,x*%
X98000000Y-111000000D03*
%TO.N,N/C*%
X104500000Y-111000000D03*
X98000000Y-115500000D03*
%TO.N,x2*%
X104500000Y-115500000D03*
%TD*%
%TO.N,y1*%
%TO.C,r*%
X125000000Y-87000000D03*
%TO.N,N/C*%
X131500000Y-87000000D03*
X125000000Y-91500000D03*
%TO.N,x4*%
X131500000Y-91500000D03*
%TD*%
%TO.N,y2*%
%TO.C,k*%
X179000000Y-99000000D03*
%TO.N,N/C*%
X185500000Y-99000000D03*
X179000000Y-103500000D03*
%TO.N,x8*%
X185500000Y-103500000D03*
%TD*%
%TO.N,y1*%
%TO.C,w*%
X98000000Y-87000000D03*
%TO.N,N/C*%
X104500000Y-87000000D03*
X98000000Y-91500000D03*
%TO.N,x2*%
X104500000Y-91500000D03*
%TD*%
%TO.N,y3*%
%TO.C,enter*%
X206000000Y-111000000D03*
%TO.N,N/C*%
X212500000Y-111000000D03*
X206000000Y-115500000D03*
%TO.N,x10*%
X212500000Y-115500000D03*
%TD*%
%TO.N,y1*%
%TO.C,p*%
X206000000Y-87000000D03*
%TO.N,N/C*%
X212500000Y-87000000D03*
X206000000Y-91500000D03*
%TO.N,x10*%
X212500000Y-91500000D03*
%TD*%
%TO.N,y2*%
%TO.C,l*%
X192500000Y-99000000D03*
%TO.N,N/C*%
X199000000Y-99000000D03*
X192500000Y-103500000D03*
%TO.N,x9*%
X199000000Y-103500000D03*
%TD*%
%TO.N,y2*%
%TO.C,a*%
X84500000Y-99000000D03*
%TO.N,N/C*%
X91000000Y-99000000D03*
X84500000Y-103500000D03*
%TO.N,x1*%
X91000000Y-103500000D03*
%TD*%
%TO.N,y2*%
%TO.C,h*%
X152000000Y-99000000D03*
%TO.N,N/C*%
X158500000Y-99000000D03*
X152000000Y-103500000D03*
%TO.N,x6*%
X158500000Y-103500000D03*
%TD*%
%TO.N,y3*%
%TO.C,b*%
X138500000Y-111000000D03*
%TO.N,N/C*%
X145000000Y-111000000D03*
X138500000Y-115500000D03*
%TO.N,x5*%
X145000000Y-115500000D03*
%TD*%
%TO.N,y3*%
%TO.C,v*%
X125000000Y-111000000D03*
%TO.N,N/C*%
X131500000Y-111000000D03*
X125000000Y-115500000D03*
%TO.N,x4*%
X131500000Y-115500000D03*
%TD*%
%TO.N,y2*%
%TO.C,d*%
X111500000Y-99000000D03*
%TO.N,N/C*%
X118000000Y-99000000D03*
X111500000Y-103500000D03*
%TO.N,x3*%
X118000000Y-103500000D03*
%TD*%
%TO.N,y1*%
%TO.C,t*%
X138500000Y-87000000D03*
%TO.N,N/C*%
X145000000Y-87000000D03*
X138500000Y-91500000D03*
%TO.N,x5*%
X145000000Y-91500000D03*
%TD*%
%TO.N,y1*%
%TO.C,i*%
X179000000Y-87000000D03*
%TO.N,N/C*%
X185500000Y-87000000D03*
X179000000Y-91500000D03*
%TO.N,x8*%
X185500000Y-91500000D03*
%TD*%
%TO.N,y1*%
%TO.C,y*%
X152000000Y-87000000D03*
%TO.N,N/C*%
X158500000Y-87000000D03*
X152000000Y-91500000D03*
%TO.N,x6*%
X158500000Y-91500000D03*
%TD*%
%TO.N,y2*%
%TO.C,s*%
X98000000Y-99000000D03*
%TO.N,N/C*%
X104500000Y-99000000D03*
X98000000Y-103500000D03*
%TO.N,x2*%
X104500000Y-103500000D03*
%TD*%
%TO.N,y3*%
%TO.C,c*%
X111500000Y-111000000D03*
%TO.N,N/C*%
X118000000Y-111000000D03*
X111500000Y-115500000D03*
%TO.N,x3*%
X118000000Y-115500000D03*
%TD*%
%TO.N,y1*%
%TO.C,e*%
X111500000Y-87000000D03*
%TO.N,N/C*%
X118000000Y-87000000D03*
X111500000Y-91500000D03*
%TO.N,x3*%
X118000000Y-91500000D03*
%TD*%
D11*
%TO.N,N/C*%
%TO.C,ESP32PinSocket_2*%
X212240000Y-107500000D03*
D12*
%TO.N,sdi*%
X209700000Y-107500000D03*
%TO.N,sck*%
X207160000Y-107500000D03*
%TO.N,y2*%
X204620000Y-107500000D03*
%TO.N,x9*%
X202080000Y-107500000D03*
%TO.N,x1*%
X199540000Y-107500000D03*
%TO.N,x2*%
X197000000Y-107500000D03*
%TO.N,N/C*%
X194460000Y-107500000D03*
X191920000Y-107500000D03*
X189380000Y-107500000D03*
X186840000Y-107500000D03*
%TO.N,bl*%
X184300000Y-107500000D03*
%TO.N,x8*%
X181760000Y-107500000D03*
%TO.N,x5*%
X179220000Y-107500000D03*
%TO.N,y3*%
X176680000Y-107500000D03*
%TO.N,x7*%
X174140000Y-107500000D03*
%TO.N,N/C*%
X171600000Y-107500000D03*
X169060000Y-107500000D03*
X166520000Y-107500000D03*
X163980000Y-107500000D03*
%TO.N,gnd*%
X161440000Y-107500000D03*
%TD*%
D11*
%TO.N,vcc*%
%TO.C,ESP32PinSocket_1*%
X212290000Y-82000000D03*
D12*
%TO.N,sdo*%
X209750000Y-82000000D03*
%TO.N,rst*%
X207210000Y-82000000D03*
%TO.N,cs*%
X204670000Y-82000000D03*
%TO.N,dc*%
X202130000Y-82000000D03*
%TO.N,N/C*%
X199590000Y-82000000D03*
X197050000Y-82000000D03*
X194510000Y-82000000D03*
X191970000Y-82000000D03*
%TO.N,y1*%
X189430000Y-82000000D03*
%TO.N,x6*%
X186890000Y-82000000D03*
%TO.N,x3*%
X184350000Y-82000000D03*
%TO.N,x4*%
X181810000Y-82000000D03*
%TO.N,N/C*%
X179270000Y-82000000D03*
%TO.N,x10*%
X176730000Y-82000000D03*
%TO.N,N/C*%
X174190000Y-82000000D03*
X171650000Y-82000000D03*
%TO.N,sd*%
X169110000Y-82000000D03*
%TO.N,N/C*%
X166570000Y-82000000D03*
X164030000Y-82000000D03*
%TO.N,sgnd*%
X161490000Y-82000000D03*
%TD*%
D13*
%TO.N,*%
X216000000Y-131500000D03*
X81000000Y-131500000D03*
X216000000Y-77500000D03*
X81000000Y-77500000D03*
D14*
%TO.N,vcc*%
X87740000Y-81960000D03*
%TO.N,cs*%
X89290000Y-81950000D03*
%TO.N,rst*%
X90100000Y-81940000D03*
%TO.N,sdi*%
X91100000Y-81970000D03*
%TO.N,sck*%
X92140000Y-81940000D03*
%TO.N,bl*%
X92930000Y-81960000D03*
%TO.N,sd*%
X95090000Y-82140000D03*
%TO.N,sgnd*%
X88530000Y-81950000D03*
D15*
%TO.N,y1*%
X136000000Y-91800000D03*
X95400000Y-87000000D03*
X163200000Y-91700000D03*
X136000000Y-87275000D03*
X81500000Y-93200000D03*
X163200000Y-87175000D03*
X122400000Y-87175000D03*
X109000000Y-87087500D03*
X149800000Y-91800000D03*
X203600000Y-91700000D03*
X176800000Y-87175000D03*
X176800000Y-91700000D03*
X81500000Y-88675000D03*
X122400000Y-91800000D03*
X109000000Y-91800000D03*
X190200000Y-87175000D03*
X190200000Y-91700000D03*
X203600000Y-87175000D03*
X95400000Y-91800000D03*
X149800000Y-87275000D03*
%TO.N,y2*%
X95600000Y-99000000D03*
X109200000Y-103800000D03*
X190200000Y-103800000D03*
X109200000Y-99000000D03*
X149600000Y-103800000D03*
X190200000Y-99000000D03*
X136200000Y-99000000D03*
X163200000Y-99000000D03*
X81600000Y-105400000D03*
X163200000Y-103800000D03*
X176600000Y-103800000D03*
X95600000Y-103800000D03*
X122600000Y-103800000D03*
X203800000Y-99000000D03*
X122600000Y-99000000D03*
X81600000Y-100600000D03*
X176600000Y-99000000D03*
X203800000Y-103800000D03*
X149600000Y-99000000D03*
X136200000Y-103800000D03*
%TO.N,y3*%
X109400000Y-115800000D03*
X109400000Y-111000000D03*
X82200000Y-115800000D03*
X149800000Y-115800000D03*
X203800000Y-111050000D03*
X177000000Y-111200000D03*
X163200000Y-115850000D03*
X122800000Y-111000000D03*
X95800000Y-111000000D03*
X136200000Y-111000000D03*
X95800000Y-115800000D03*
D14*
X176200000Y-117600000D03*
D15*
X190400000Y-111050000D03*
X177000000Y-116000000D03*
X122800000Y-115800000D03*
X203800000Y-115850000D03*
X136200000Y-115800000D03*
X149800000Y-111000000D03*
X82200000Y-111000000D03*
X190400000Y-115850000D03*
X163200000Y-111050000D03*
%TO.N,x1*%
X93400000Y-99000000D03*
D16*
X86750000Y-123500000D03*
D15*
X93400000Y-91800000D03*
X93400000Y-103800000D03*
X93400000Y-87000000D03*
X93400000Y-111000000D03*
X93400000Y-115800000D03*
%TO.N,x2*%
X106800000Y-91950000D03*
X106800000Y-111150000D03*
D16*
X89250000Y-123500000D03*
D15*
X106800000Y-115950000D03*
X106800000Y-103950000D03*
X106800000Y-99150000D03*
X106800000Y-87150000D03*
%TO.N,x3*%
X120200000Y-91950000D03*
X120200000Y-87150000D03*
X120200000Y-99150000D03*
X120200000Y-111150000D03*
D16*
X91750000Y-123500000D03*
D15*
X120200000Y-115950000D03*
X120200000Y-103950000D03*
%TO.N,x4*%
X133800000Y-103950000D03*
D16*
X94250000Y-123500000D03*
D15*
X133800000Y-99150000D03*
X133800000Y-91950000D03*
X133800000Y-111150000D03*
X133800000Y-115950000D03*
X133800000Y-87150000D03*
%TO.N,x5*%
X147200000Y-103950000D03*
X147200000Y-91950000D03*
X147200000Y-99150000D03*
X147200000Y-115950000D03*
D16*
X96750000Y-123500000D03*
D15*
X147200000Y-111150000D03*
X147200000Y-87150000D03*
%TO.N,x6*%
X160600000Y-92000000D03*
D16*
X99250000Y-123500000D03*
D15*
X160800000Y-111000000D03*
X160600000Y-87200000D03*
X160800000Y-115800000D03*
X160800000Y-99000000D03*
X160800000Y-103800000D03*
%TO.N,x7*%
X174200000Y-103800000D03*
X174200000Y-87000000D03*
X174200000Y-99000000D03*
X174200000Y-91800000D03*
X174200000Y-116000000D03*
X174200000Y-111200000D03*
%TO.N,x8*%
X187800000Y-115800000D03*
X187600000Y-91800000D03*
X187600000Y-87000000D03*
X187800000Y-103800000D03*
X187800000Y-111000000D03*
X187800000Y-99000000D03*
%TO.N,x9*%
X201200000Y-115800000D03*
X201200000Y-87000000D03*
X201800000Y-103600000D03*
X201800000Y-99000000D03*
X201200000Y-91800000D03*
X201200000Y-111000000D03*
D14*
%TO.N,x10*%
X210875000Y-95875000D03*
D15*
X215400000Y-87000000D03*
X215400000Y-91800000D03*
X215400000Y-115800000D03*
X215400000Y-111000000D03*
X215400000Y-99000000D03*
X215400000Y-103800000D03*
%TD*%
D17*
%TO.N,rst*%
X90500000Y-76400000D02*
X207210000Y-76400000D01*
X207210000Y-76400000D02*
X207210000Y-82000000D01*
X90100000Y-81940000D02*
X90100000Y-76800000D01*
X90100000Y-76800000D02*
X90500000Y-76400000D01*
D18*
%TO.N,sdi*%
X91400000Y-85400000D02*
X91230000Y-85400000D01*
X91230000Y-85400000D02*
X91100000Y-85270000D01*
D17*
X94700000Y-120200000D02*
X207500000Y-120200000D01*
X209700000Y-118000000D02*
X209700000Y-107500000D01*
X92200000Y-86000000D02*
X92400000Y-86200000D01*
X92400000Y-92200000D02*
X94700000Y-94500000D01*
X207500000Y-120200000D02*
X209700000Y-118000000D01*
D18*
X92000000Y-86000000D02*
X91400000Y-85400000D01*
D17*
X92400000Y-86200000D02*
X92400000Y-92200000D01*
X94700000Y-94500000D02*
X94700000Y-120200000D01*
X92000000Y-86000000D02*
X92200000Y-86000000D01*
D18*
X91100000Y-85270000D02*
X91100000Y-81970000D01*
%TO.N,y3*%
X176680000Y-109320000D02*
X176680000Y-107500000D01*
X176200000Y-117600000D02*
X176200000Y-109800000D01*
X176200000Y-109800000D02*
X176680000Y-109320000D01*
%TO.N,x10*%
X176730000Y-84055000D02*
X177075000Y-84400000D01*
D17*
X202600000Y-84400000D02*
X202600000Y-94900000D01*
D18*
X176730000Y-82000000D02*
X176730000Y-84055000D01*
D17*
X177075000Y-84400000D02*
X202600000Y-84400000D01*
X202600000Y-94900000D02*
X203575000Y-95875000D01*
D18*
X210875000Y-95875000D02*
X203825000Y-95875000D01*
D17*
X203575000Y-95875000D02*
X203825000Y-95875000D01*
%TD*%
M02*
