%TF.GenerationSoftware,KiCad,Pcbnew,10.0.5*%
%TF.CreationDate,2026-08-24T21:25:45-03:00*%
%TF.ProjectId,razor32,72617a6f-7233-4322-9e6b-696361645f70,rev?*%
%TF.SameCoordinates,Original*%
%TF.FileFunction,Copper,L3,Inr*%
%TF.FilePolarity,Positive*%
%FSLAX46Y46*%
G04 Gerber Fmt 4.6, Leading zero omitted, Abs format (unit mm)*
G04 Created by KiCad (PCBNEW 10.0.5) date 2026-08-24 21:25:45*
%MOMM*%
%LPD*%
G01*
G04 APERTURE LIST*
%TA.AperFunction,ComponentPad*%
%ADD10C,2.000000*%
%TD*%
%TA.AperFunction,ComponentPad*%
%ADD11R,1.700000X1.700000*%
%TD*%
%TA.AperFunction,ComponentPad*%
%ADD12C,1.700000*%
%TD*%
%TA.AperFunction,ViaPad*%
%ADD13C,1.100000*%
%TD*%
%TA.AperFunction,ViaPad*%
%ADD14C,2.100000*%
%TD*%
%TA.AperFunction,ViaPad*%
%ADD15C,1.000000*%
%TD*%
%TA.AperFunction,ViaPad*%
%ADD16C,0.500000*%
%TD*%
%TA.AperFunction,Conductor*%
%ADD17C,0.300000*%
%TD*%
%TA.AperFunction,Conductor*%
%ADD18C,0.200000*%
%TD*%
%TA.AperFunction,Conductor*%
%ADD19C,0.400000*%
%TD*%
G04 APERTURE END LIST*
D10*
%TO.N,y2*%
%TO.C,j*%
X165500000Y-99000000D03*
%TO.N,N/C*%
X172000000Y-99000000D03*
X165500000Y-103500000D03*
%TO.N,x7*%
X172000000Y-103500000D03*
%TD*%
%TO.N,y2*%
%TO.C,g*%
X138500000Y-99000000D03*
%TO.N,N/C*%
X145000000Y-99000000D03*
X138500000Y-103500000D03*
%TO.N,x5*%
X145000000Y-103500000D03*
%TD*%
%TO.N,y3*%
%TO.C,z*%
X84500000Y-111000000D03*
%TO.N,N/C*%
X91000000Y-111000000D03*
X84500000Y-115500000D03*
%TO.N,x1*%
X91000000Y-115500000D03*
%TD*%
%TO.N,y1*%
%TO.C,u*%
X165500000Y-87000000D03*
%TO.N,N/C*%
X172000000Y-87000000D03*
X165500000Y-91500000D03*
%TO.N,x7*%
X172000000Y-91500000D03*
%TD*%
%TO.N,y1*%
%TO.C,o*%
X192500000Y-87000000D03*
%TO.N,N/C*%
X199000000Y-87000000D03*
X192500000Y-91500000D03*
%TO.N,x9*%
X199000000Y-91500000D03*
%TD*%
%TO.N,y3*%
%TO.C,n*%
X165500000Y-111000000D03*
%TO.N,N/C*%
X172000000Y-111000000D03*
X165500000Y-115500000D03*
%TO.N,x7*%
X172000000Y-115500000D03*
%TD*%
%TO.N,y2*%
%TO.C,ret*%
X206000000Y-99000000D03*
%TO.N,N/C*%
X212500000Y-99000000D03*
X206000000Y-103500000D03*
%TO.N,x10*%
X212500000Y-103500000D03*
%TD*%
%TO.N,y3*%
%TO.C,space*%
X152000000Y-111000000D03*
%TO.N,N/C*%
X158500000Y-111000000D03*
X152000000Y-115500000D03*
%TO.N,x6*%
X158500000Y-115500000D03*
%TD*%
%TO.N,y1*%
%TO.C,q*%
X84500000Y-87000000D03*
%TO.N,N/C*%
X91000000Y-87000000D03*
X84500000Y-91500000D03*
%TO.N,x1*%
X91000000Y-91500000D03*
%TD*%
%TO.N,y3*%
%TO.C,fun*%
X192500000Y-111000000D03*
%TO.N,N/C*%
X199000000Y-111000000D03*
X192500000Y-115500000D03*
%TO.N,x9*%
X199000000Y-115500000D03*
%TD*%
%TO.N,y3*%
%TO.C,m*%
X179000000Y-111000000D03*
%TO.N,N/C*%
X185500000Y-111000000D03*
X179000000Y-115500000D03*
%TO.N,x8*%
X185500000Y-115500000D03*
%TD*%
%TO.N,y2*%
%TO.C,f*%
X125000000Y-99000000D03*
%TO.N,N/C*%
X131500000Y-99000000D03*
X125000000Y-103500000D03*
%TO.N,x4*%
X131500000Y-103500000D03*
%TD*%
%TO.N,y3*%
%TO.C,x*%
X98000000Y-111000000D03*
%TO.N,N/C*%
X104500000Y-111000000D03*
X98000000Y-115500000D03*
%TO.N,x2*%
X104500000Y-115500000D03*
%TD*%
%TO.N,y1*%
%TO.C,r*%
X125000000Y-87000000D03*
%TO.N,N/C*%
X131500000Y-87000000D03*
X125000000Y-91500000D03*
%TO.N,x4*%
X131500000Y-91500000D03*
%TD*%
%TO.N,y2*%
%TO.C,k*%
X179000000Y-99000000D03*
%TO.N,N/C*%
X185500000Y-99000000D03*
X179000000Y-103500000D03*
%TO.N,x8*%
X185500000Y-103500000D03*
%TD*%
%TO.N,y1*%
%TO.C,w*%
X98000000Y-87000000D03*
%TO.N,N/C*%
X104500000Y-87000000D03*
X98000000Y-91500000D03*
%TO.N,x2*%
X104500000Y-91500000D03*
%TD*%
%TO.N,y3*%
%TO.C,enter*%
X206000000Y-111000000D03*
%TO.N,N/C*%
X212500000Y-111000000D03*
X206000000Y-115500000D03*
%TO.N,x10*%
X212500000Y-115500000D03*
%TD*%
%TO.N,y1*%
%TO.C,p*%
X206000000Y-87000000D03*
%TO.N,N/C*%
X212500000Y-87000000D03*
X206000000Y-91500000D03*
%TO.N,x10*%
X212500000Y-91500000D03*
%TD*%
%TO.N,y2*%
%TO.C,l*%
X192500000Y-99000000D03*
%TO.N,N/C*%
X199000000Y-99000000D03*
X192500000Y-103500000D03*
%TO.N,x9*%
X199000000Y-103500000D03*
%TD*%
%TO.N,y2*%
%TO.C,a*%
X84500000Y-99000000D03*
%TO.N,N/C*%
X91000000Y-99000000D03*
X84500000Y-103500000D03*
%TO.N,x1*%
X91000000Y-103500000D03*
%TD*%
%TO.N,y2*%
%TO.C,h*%
X152000000Y-99000000D03*
%TO.N,N/C*%
X158500000Y-99000000D03*
X152000000Y-103500000D03*
%TO.N,x6*%
X158500000Y-103500000D03*
%TD*%
%TO.N,y3*%
%TO.C,b*%
X138500000Y-111000000D03*
%TO.N,N/C*%
X145000000Y-111000000D03*
X138500000Y-115500000D03*
%TO.N,x5*%
X145000000Y-115500000D03*
%TD*%
%TO.N,y3*%
%TO.C,v*%
X125000000Y-111000000D03*
%TO.N,N/C*%
X131500000Y-111000000D03*
X125000000Y-115500000D03*
%TO.N,x4*%
X131500000Y-115500000D03*
%TD*%
%TO.N,y2*%
%TO.C,d*%
X111500000Y-99000000D03*
%TO.N,N/C*%
X118000000Y-99000000D03*
X111500000Y-103500000D03*
%TO.N,x3*%
X118000000Y-103500000D03*
%TD*%
%TO.N,y1*%
%TO.C,t*%
X138500000Y-87000000D03*
%TO.N,N/C*%
X145000000Y-87000000D03*
X138500000Y-91500000D03*
%TO.N,x5*%
X145000000Y-91500000D03*
%TD*%
%TO.N,y1*%
%TO.C,i*%
X179000000Y-87000000D03*
%TO.N,N/C*%
X185500000Y-87000000D03*
X179000000Y-91500000D03*
%TO.N,x8*%
X185500000Y-91500000D03*
%TD*%
%TO.N,y1*%
%TO.C,y*%
X152000000Y-87000000D03*
%TO.N,N/C*%
X158500000Y-87000000D03*
X152000000Y-91500000D03*
%TO.N,x6*%
X158500000Y-91500000D03*
%TD*%
%TO.N,y2*%
%TO.C,s*%
X98000000Y-99000000D03*
%TO.N,N/C*%
X104500000Y-99000000D03*
X98000000Y-103500000D03*
%TO.N,x2*%
X104500000Y-103500000D03*
%TD*%
%TO.N,y3*%
%TO.C,c*%
X111500000Y-111000000D03*
%TO.N,N/C*%
X118000000Y-111000000D03*
X111500000Y-115500000D03*
%TO.N,x3*%
X118000000Y-115500000D03*
%TD*%
%TO.N,y1*%
%TO.C,e*%
X111500000Y-87000000D03*
%TO.N,N/C*%
X118000000Y-87000000D03*
X111500000Y-91500000D03*
%TO.N,x3*%
X118000000Y-91500000D03*
%TD*%
D11*
%TO.N,N/C*%
%TO.C,ESP32PinSocket_2*%
X212240000Y-107500000D03*
D12*
%TO.N,sdi*%
X209700000Y-107500000D03*
%TO.N,sck*%
X207160000Y-107500000D03*
%TO.N,y2*%
X204620000Y-107500000D03*
%TO.N,x9*%
X202080000Y-107500000D03*
%TO.N,x1*%
X199540000Y-107500000D03*
%TO.N,x2*%
X197000000Y-107500000D03*
%TO.N,N/C*%
X194460000Y-107500000D03*
X191920000Y-107500000D03*
X189380000Y-107500000D03*
X186840000Y-107500000D03*
%TO.N,bl*%
X184300000Y-107500000D03*
%TO.N,x8*%
X181760000Y-107500000D03*
%TO.N,x5*%
X179220000Y-107500000D03*
%TO.N,y3*%
X176680000Y-107500000D03*
%TO.N,x7*%
X174140000Y-107500000D03*
%TO.N,N/C*%
X171600000Y-107500000D03*
X169060000Y-107500000D03*
X166520000Y-107500000D03*
X163980000Y-107500000D03*
%TO.N,gnd*%
X161440000Y-107500000D03*
%TD*%
D11*
%TO.N,vcc*%
%TO.C,ESP32PinSocket_1*%
X212290000Y-82000000D03*
D12*
%TO.N,sdo*%
X209750000Y-82000000D03*
%TO.N,rst*%
X207210000Y-82000000D03*
%TO.N,cs*%
X204670000Y-82000000D03*
%TO.N,dc*%
X202130000Y-82000000D03*
%TO.N,N/C*%
X199590000Y-82000000D03*
X197050000Y-82000000D03*
X194510000Y-82000000D03*
X191970000Y-82000000D03*
%TO.N,y1*%
X189430000Y-82000000D03*
%TO.N,x6*%
X186890000Y-82000000D03*
%TO.N,x3*%
X184350000Y-82000000D03*
%TO.N,x4*%
X181810000Y-82000000D03*
%TO.N,N/C*%
X179270000Y-82000000D03*
%TO.N,x10*%
X176730000Y-82000000D03*
%TO.N,N/C*%
X174190000Y-82000000D03*
X171650000Y-82000000D03*
%TO.N,sd*%
X169110000Y-82000000D03*
%TO.N,N/C*%
X166570000Y-82000000D03*
X164030000Y-82000000D03*
%TO.N,sgnd*%
X161490000Y-82000000D03*
%TD*%
D13*
%TO.N,y2*%
X163200000Y-99000000D03*
X163200000Y-103800000D03*
D14*
%TO.N,*%
X216000000Y-131500000D03*
X81000000Y-131500000D03*
X216000000Y-77500000D03*
X81000000Y-77500000D03*
D13*
%TO.N,y2*%
X95600000Y-99000000D03*
X109200000Y-103800000D03*
X190200000Y-103800000D03*
X109200000Y-99000000D03*
X149600000Y-103800000D03*
X190200000Y-99000000D03*
X136200000Y-99000000D03*
X81600000Y-105400000D03*
X176600000Y-103800000D03*
X95600000Y-103800000D03*
X122600000Y-103800000D03*
X203800000Y-99000000D03*
X122600000Y-99000000D03*
X81600000Y-100600000D03*
X176600000Y-99000000D03*
X203800000Y-103800000D03*
X149600000Y-99000000D03*
X136200000Y-103800000D03*
D15*
%TO.N,x5*%
X96750000Y-123500000D03*
D13*
%TO.N,y3*%
X109400000Y-115800000D03*
X109400000Y-111000000D03*
X82200000Y-115800000D03*
X149800000Y-115800000D03*
X203800000Y-111050000D03*
X177000000Y-111200000D03*
X163200000Y-115850000D03*
X122800000Y-111000000D03*
X95800000Y-111000000D03*
X136200000Y-111000000D03*
X95800000Y-115800000D03*
D16*
X176200000Y-117600000D03*
D13*
X190400000Y-111050000D03*
X177000000Y-116000000D03*
X122800000Y-115800000D03*
X203800000Y-115850000D03*
X136200000Y-115800000D03*
X149800000Y-111000000D03*
X82200000Y-111000000D03*
X190400000Y-115850000D03*
X163200000Y-111050000D03*
D15*
%TO.N,x1*%
X86750000Y-123500000D03*
D16*
%TO.N,sd*%
X95090000Y-82140000D03*
%TO.N,bl*%
X92930000Y-81960000D03*
%TO.N,sck*%
X92140000Y-81940000D03*
%TO.N,sdi*%
X91100000Y-81970000D03*
%TO.N,rst*%
X90100000Y-81940000D03*
%TO.N,cs*%
X89290000Y-81950000D03*
%TO.N,sgnd*%
X88530000Y-81950000D03*
%TO.N,vcc*%
X87740000Y-81960000D03*
D13*
%TO.N,y1*%
X136000000Y-91800000D03*
X95400000Y-87000000D03*
X163200000Y-91700000D03*
X136000000Y-87275000D03*
X81500000Y-93200000D03*
X163200000Y-87175000D03*
X122400000Y-87175000D03*
X109000000Y-87087500D03*
X149800000Y-91800000D03*
X203600000Y-91700000D03*
X176800000Y-87175000D03*
X176800000Y-91700000D03*
X81500000Y-88675000D03*
X122400000Y-91800000D03*
X109000000Y-91800000D03*
X190200000Y-87175000D03*
X190200000Y-91700000D03*
X203600000Y-87175000D03*
X95400000Y-91800000D03*
X149800000Y-87275000D03*
D16*
%TO.N,x10*%
X210875000Y-95875000D03*
D15*
%TO.N,x6*%
X99250000Y-123500000D03*
%TO.N,x4*%
X94250000Y-123500000D03*
%TO.N,x2*%
X89250000Y-123500000D03*
%TO.N,x3*%
X91750000Y-123500000D03*
%TD*%
%TO.N,x5*%
D17*
X179200000Y-109200000D02*
X179220000Y-109180000D01*
X96750000Y-123500000D02*
X96750000Y-121050000D01*
X180100000Y-109200000D02*
X179200000Y-109200000D01*
X179220000Y-109180000D02*
X179220000Y-107500000D01*
X180900000Y-110000000D02*
X180100000Y-109200000D01*
X180900000Y-112700000D02*
X180900000Y-110000000D01*
X96750000Y-121050000D02*
X97300000Y-120500000D01*
X213900000Y-120500000D02*
X214200000Y-120200000D01*
X97300000Y-120500000D02*
X213900000Y-120500000D01*
X181900000Y-113700000D02*
X180900000Y-112700000D01*
X214200000Y-113700000D02*
X181900000Y-113700000D01*
X214200000Y-120200000D02*
X214200000Y-113700000D01*
%TO.N,x1*%
X200900000Y-104100000D02*
X199540000Y-105460000D01*
X80000000Y-121500000D02*
X80000000Y-97800000D01*
X199540000Y-105460000D02*
X199540000Y-107500000D01*
X80000000Y-97800000D02*
X82200000Y-95600000D01*
X200900000Y-95600000D02*
X200900000Y-104100000D01*
X86750000Y-123500000D02*
X82000000Y-123500000D01*
X82200000Y-95600000D02*
X200900000Y-95600000D01*
X82000000Y-123500000D02*
X80000000Y-121500000D01*
%TO.N,bl*%
D18*
X92930000Y-81960000D02*
X92790000Y-81960000D01*
X92200000Y-85200000D02*
X97100000Y-85200000D01*
D19*
X184700000Y-109200000D02*
X214400000Y-109200000D01*
X184300000Y-108800000D02*
X184700000Y-109200000D01*
X214400000Y-109200000D02*
X214400000Y-84500000D01*
X214400000Y-84500000D02*
X97800000Y-84500000D01*
X184300000Y-107500000D02*
X184300000Y-108800000D01*
X97800000Y-84500000D02*
X97100000Y-85200000D01*
D18*
X92100000Y-82650000D02*
X92100000Y-85100000D01*
X92100000Y-85100000D02*
X92200000Y-85200000D01*
X92790000Y-81960000D02*
X92100000Y-82650000D01*
%TO.N,sck*%
D17*
X93400000Y-92700000D02*
X94900000Y-94200000D01*
X92400000Y-87400000D02*
X92400000Y-92700000D01*
X207600000Y-107060000D02*
X207160000Y-107500000D01*
D18*
X91600000Y-82480000D02*
X92140000Y-81940000D01*
D17*
X207600000Y-94200000D02*
X207600000Y-107060000D01*
X92400000Y-92700000D02*
X93400000Y-92700000D01*
D18*
X92400000Y-86200000D02*
X91600000Y-85400000D01*
X92400000Y-87400000D02*
X92400000Y-86200000D01*
D17*
X94900000Y-94200000D02*
X207600000Y-94200000D01*
D18*
X91600000Y-85400000D02*
X91600000Y-82480000D01*
%TO.N,x6*%
D17*
X186890000Y-79540000D02*
X186890000Y-82000000D01*
X216400000Y-80440000D02*
X214350000Y-78390000D01*
X99250000Y-123500000D02*
X214300000Y-123500000D01*
X188040000Y-78390000D02*
X186890000Y-79540000D01*
X214350000Y-78390000D02*
X188040000Y-78390000D01*
X216400000Y-121400000D02*
X216400000Y-80440000D01*
X214300000Y-123500000D02*
X216400000Y-121400000D01*
%TO.N,x4*%
X94250000Y-123500000D02*
X94200000Y-123500000D01*
%TO.N,x2*%
X197000000Y-97200000D02*
X197000000Y-107500000D01*
X87500000Y-121600000D02*
X81550000Y-121600000D01*
X82400000Y-96400000D02*
X196200000Y-96400000D01*
X89250000Y-123350000D02*
X87500000Y-121600000D01*
X89250000Y-123500000D02*
X89250000Y-123350000D01*
X80800000Y-120850000D02*
X80800000Y-98000000D01*
X81550000Y-121600000D02*
X80800000Y-120850000D01*
X80800000Y-98000000D02*
X82400000Y-96400000D01*
X196200000Y-96400000D02*
X197000000Y-97200000D01*
%TD*%
M02*
