M48
; DRILL file {KiCad 9.0.7} date 2026-06-07T11:27:55-0300
; FORMAT={-:-/ absolute / metric / decimal}
; #@! TF.CreationDate,2026-06-07T11:27:55-03:00
; #@! TF.GenerationSoftware,Kicad,Pcbnew,9.0.7
; #@! TF.FileFunction,Plated,1,4,PTH
FMAT,2
METRIC
; #@! TA.AperFunction,Plated,PTH,ViaDrill
T1C0.350
; #@! TA.AperFunction,Plated,PTH,ComponentDrill
T2C1.000
; #@! TA.AperFunction,Plated,PTH,ComponentDrill
T3C1.100
; #@! TA.AperFunction,Plated,PTH,ViaDrill
T4C1.800
; #@! TA.AperFunction,Plated,PTH,ViaDrill
T5C2.000
%
G90
G05
T1
X87.74Y-81.96
X88.53Y-81.95
X89.29Y-81.95
X90.1Y-81.94
X91.1Y-81.97
X92.14Y-81.94
X92.93Y-81.96
X95.09Y-82.14
T2
X161.44Y-107.5
X161.49Y-82.0
X163.98Y-107.5
X164.03Y-82.0
X166.52Y-107.5
X166.57Y-82.0
X169.06Y-107.5
X169.11Y-82.0
X171.6Y-107.5
X171.65Y-82.0
X174.14Y-107.5
X174.19Y-82.0
X176.68Y-107.5
X176.73Y-82.0
X179.22Y-107.5
X179.27Y-82.0
X181.76Y-107.5
X181.81Y-82.0
X184.3Y-107.5
X184.35Y-82.0
X186.84Y-107.5
X186.89Y-82.0
X189.38Y-107.5
X189.43Y-82.0
X191.92Y-107.5
X191.97Y-82.0
X194.46Y-107.5
X194.51Y-82.0
X197.0Y-107.5
X197.05Y-82.0
X199.54Y-107.5
X199.59Y-82.0
X202.08Y-107.5
X202.13Y-82.0
X204.62Y-107.5
X204.67Y-82.0
X207.16Y-107.5
X207.21Y-82.0
X209.7Y-107.5
X209.75Y-82.0
X212.24Y-107.5
X212.29Y-82.0
T3
X84.5Y-87.0
X84.5Y-91.5
X84.5Y-99.0
X84.5Y-103.5
X84.5Y-111.0
X84.5Y-115.5
X91.0Y-87.0
X91.0Y-91.5
X91.0Y-99.0
X91.0Y-103.5
X91.0Y-111.0
X91.0Y-115.5
X98.0Y-87.0
X98.0Y-91.5
X98.0Y-99.0
X98.0Y-103.5
X98.0Y-111.0
X98.0Y-115.5
X104.5Y-87.0
X104.5Y-91.5
X104.5Y-99.0
X104.5Y-103.5
X104.5Y-111.0
X104.5Y-115.5
X111.5Y-87.0
X111.5Y-91.5
X111.5Y-99.0
X111.5Y-103.5
X111.5Y-111.0
X111.5Y-115.5
X118.0Y-87.0
X118.0Y-91.5
X118.0Y-99.0
X118.0Y-103.5
X118.0Y-111.0
X118.0Y-115.5
X125.0Y-87.0
X125.0Y-91.5
X125.0Y-99.0
X125.0Y-103.5
X125.0Y-111.0
X125.0Y-115.5
X131.5Y-87.0
X131.5Y-91.5
X131.5Y-99.0
X131.5Y-103.5
X131.5Y-111.0
X131.5Y-115.5
X138.5Y-87.0
X138.5Y-91.5
X138.5Y-99.0
X138.5Y-103.5
X138.5Y-111.0
X138.5Y-115.5
X145.0Y-87.0
X145.0Y-91.5
X145.0Y-99.0
X145.0Y-103.5
X145.0Y-111.0
X145.0Y-115.5
X152.0Y-87.0
X152.0Y-91.5
X152.0Y-99.0
X152.0Y-103.5
X152.0Y-111.0
X152.0Y-115.5
X158.5Y-87.0
X158.5Y-91.5
X158.5Y-99.0
X158.5Y-103.5
X158.5Y-111.0
X158.5Y-115.5
X165.5Y-87.0
X165.5Y-91.5
X165.5Y-99.0
X165.5Y-103.5
X165.5Y-111.0
X165.5Y-115.5
X172.0Y-87.0
X172.0Y-91.5
X172.0Y-99.0
X172.0Y-103.5
X172.0Y-111.0
X172.0Y-115.5
X179.0Y-87.0
X179.0Y-91.5
X179.0Y-99.0
X179.0Y-103.5
X179.0Y-111.0
X179.0Y-115.5
X185.5Y-87.0
X185.5Y-91.5
X185.5Y-99.0
X185.5Y-103.5
X185.5Y-111.0
X185.5Y-115.5
X192.5Y-87.0
X192.5Y-91.5
X192.5Y-99.0
X192.5Y-103.5
X192.5Y-111.0
X192.5Y-115.5
X199.0Y-87.0
X199.0Y-91.5
X199.0Y-99.0
X199.0Y-103.5
X199.0Y-111.0
X199.0Y-115.5
X206.0Y-87.0
X206.0Y-91.5
X206.0Y-99.0
X206.0Y-103.5
X206.0Y-111.0
X206.0Y-115.5
X212.5Y-87.0
X212.5Y-91.5
X212.5Y-99.0
X212.5Y-103.5
X212.5Y-111.0
X212.5Y-115.5
T4
X86.75Y-123.5
X89.25Y-123.5
X91.75Y-123.5
X94.25Y-123.5
X96.75Y-123.5
X99.25Y-123.5
T5
X81.0Y-77.5
X81.0Y-131.5
X216.0Y-77.5
X216.0Y-131.5
M30
