M48
; DRILL file KiCad 10.0.5 date 2026-08-24T21:25:47
; FORMAT={-:-/ absolute / metric / decimal}
; #@! TF.CreationDate,2026-08-24T21:25:47-03:00
; #@! TF.GenerationSoftware,Kicad,Pcbnew,10.0.5
; #@! TF.FileFunction,Plated,1,4,PTH
FMAT,2
METRIC
; #@! TA.AperFunction,Plated,PTH,ViaDrill
T1C0.250
; #@! TA.AperFunction,Plated,PTH,ViaDrill
T2C0.350
; #@! TA.AperFunction,Plated,PTH,ViaDrill
T3C0.800
; #@! TA.AperFunction,Plated,PTH,ViaDrill
T4C0.900
; #@! TA.AperFunction,Plated,PTH,ComponentDrill
T5C1.000
; #@! TA.AperFunction,Plated,PTH,ComponentDrill
T6C1.100
; #@! TA.AperFunction,Plated,PTH,ViaDrill
T7C2.000
%
G90
G05
T1
X176.2Y-117.6
T2
X87.74Y-81.96
X88.53Y-81.95
X89.29Y-81.95
X90.1Y-81.94
X91.1Y-81.97
X92.14Y-81.94
X92.93Y-81.96
X95.09Y-82.14
X210.875Y-95.875
T3
X86.75Y-123.5
X89.25Y-123.5
X91.75Y-123.5
X94.25Y-123.5
X96.75Y-123.5
X99.25Y-123.5
T4
X81.5Y-88.675
X81.5Y-93.2
X81.6Y-100.6
X81.6Y-105.4
X82.2Y-111.0
X82.2Y-115.8
X95.4Y-87.0
X95.4Y-91.8
X95.6Y-99.0
X95.6Y-103.8
X95.8Y-111.0
X95.8Y-115.8
X109.0Y-87.087
X109.0Y-91.8
X109.2Y-99.0
X109.2Y-103.8
X109.4Y-111.0
X109.4Y-115.8
X122.4Y-87.175
X122.4Y-91.8
X122.6Y-99.0
X122.6Y-103.8
X122.8Y-111.0
X122.8Y-115.8
X136.0Y-87.275
X136.0Y-91.8
X136.2Y-99.0
X136.2Y-103.8
X136.2Y-111.0
X136.2Y-115.8
X149.6Y-99.0
X149.6Y-103.8
X149.8Y-87.275
X149.8Y-91.8
X149.8Y-111.0
X149.8Y-115.8
X163.2Y-87.175
X163.2Y-91.7
X163.2Y-99.0
X163.2Y-103.8
X163.2Y-111.05
X163.2Y-115.85
X176.6Y-99.0
X176.6Y-103.8
X176.8Y-87.175
X176.8Y-91.7
X177.0Y-111.2
X177.0Y-116.0
X190.2Y-87.175
X190.2Y-91.7
X190.2Y-99.0
X190.2Y-103.8
X190.4Y-111.05
X190.4Y-115.85
X203.6Y-87.175
X203.6Y-91.7
X203.8Y-99.0
X203.8Y-103.8
X203.8Y-111.05
X203.8Y-115.85
T5
X161.44Y-107.5
X161.49Y-82.0
X163.98Y-107.5
X164.03Y-82.0
X166.52Y-107.5
X166.57Y-82.0
X169.06Y-107.5
X169.11Y-82.0
X171.6Y-107.5
X171.65Y-82.0
X174.14Y-107.5
X174.19Y-82.0
X176.68Y-107.5
X176.73Y-82.0
X179.22Y-107.5
X179.27Y-82.0
X181.76Y-107.5
X181.81Y-82.0
X184.3Y-107.5
X184.35Y-82.0
X186.84Y-107.5
X186.89Y-82.0
X189.38Y-107.5
X189.43Y-82.0
X191.92Y-107.5
X191.97Y-82.0
X194.46Y-107.5
X194.51Y-82.0
X197.0Y-107.5
X197.05Y-82.0
X199.54Y-107.5
X199.59Y-82.0
X202.08Y-107.5
X202.13Y-82.0
X204.62Y-107.5
X204.67Y-82.0
X207.16Y-107.5
X207.21Y-82.0
X209.7Y-107.5
X209.75Y-82.0
X212.24Y-107.5
X212.29Y-82.0
T6
X84.5Y-87.0
X84.5Y-91.5
X84.5Y-99.0
X84.5Y-103.5
X84.5Y-111.0
X84.5Y-115.5
X91.0Y-87.0
X91.0Y-91.5
X91.0Y-99.0
X91.0Y-103.5
X91.0Y-111.0
X91.0Y-115.5
X98.0Y-87.0
X98.0Y-91.5
X98.0Y-99.0
X98.0Y-103.5
X98.0Y-111.0
X98.0Y-115.5
X104.5Y-87.0
X104.5Y-91.5
X104.5Y-99.0
X104.5Y-103.5
X104.5Y-111.0
X104.5Y-115.5
X111.5Y-87.0
X111.5Y-91.5
X111.5Y-99.0
X111.5Y-103.5
X111.5Y-111.0
X111.5Y-115.5
X118.0Y-87.0
X118.0Y-91.5
X118.0Y-99.0
X118.0Y-103.5
X118.0Y-111.0
X118.0Y-115.5
X125.0Y-87.0
X125.0Y-91.5
X125.0Y-99.0
X125.0Y-103.5
X125.0Y-111.0
X125.0Y-115.5
X131.5Y-87.0
X131.5Y-91.5
X131.5Y-99.0
X131.5Y-103.5
X131.5Y-111.0
X131.5Y-115.5
X138.5Y-87.0
X138.5Y-91.5
X138.5Y-99.0
X138.5Y-103.5
X138.5Y-111.0
X138.5Y-115.5
X145.0Y-87.0
X145.0Y-91.5
X145.0Y-99.0
X145.0Y-103.5
X145.0Y-111.0
X145.0Y-115.5
X152.0Y-87.0
X152.0Y-91.5
X152.0Y-99.0
X152.0Y-103.5
X152.0Y-111.0
X152.0Y-115.5
X158.5Y-87.0
X158.5Y-91.5
X158.5Y-99.0
X158.5Y-103.5
X158.5Y-111.0
X158.5Y-115.5
X165.5Y-87.0
X165.5Y-91.5
X165.5Y-99.0
X165.5Y-103.5
X165.5Y-111.0
X165.5Y-115.5
X172.0Y-87.0
X172.0Y-91.5
X172.0Y-99.0
X172.0Y-103.5
X172.0Y-111.0
X172.0Y-115.5
X179.0Y-87.0
X179.0Y-91.5
X179.0Y-99.0
X179.0Y-103.5
X179.0Y-111.0
X179.0Y-115.5
X185.5Y-87.0
X185.5Y-91.5
X185.5Y-99.0
X185.5Y-103.5
X185.5Y-111.0
X185.5Y-115.5
X192.5Y-87.0
X192.5Y-91.5
X192.5Y-99.0
X192.5Y-103.5
X192.5Y-111.0
X192.5Y-115.5
X199.0Y-87.0
X199.0Y-91.5
X199.0Y-99.0
X199.0Y-103.5
X199.0Y-111.0
X199.0Y-115.5
X206.0Y-87.0
X206.0Y-91.5
X206.0Y-99.0
X206.0Y-103.5
X206.0Y-111.0
X206.0Y-115.5
X212.5Y-87.0
X212.5Y-91.5
X212.5Y-99.0
X212.5Y-103.5
X212.5Y-111.0
X212.5Y-115.5
T7
X81.0Y-77.5
X81.0Y-131.5
X216.0Y-77.5
X216.0Y-131.5
M30
