M48
; DRILL file {KiCad 9.0.7} date 2026-01-27T19:20:53-0300
; FORMAT={-:-/ absolute / metric / decimal}
; #@! TF.CreationDate,2026-01-27T19:20:53-03:00
; #@! TF.GenerationSoftware,Kicad,Pcbnew,9.0.7
; #@! TF.FileFunction,Plated,1,2,PTH
FMAT,2
METRIC
; #@! TA.AperFunction,Plated,PTH,ComponentDrill
T1C1.000
; #@! TA.AperFunction,Plated,PTH,ComponentDrill
T2C1.100
; #@! TA.AperFunction,Plated,PTH,ViaDrill
T3C2.000
%
G90
G05
T1
X84.42Y-122.71
X84.42Y-125.25
X86.96Y-122.71
X86.96Y-125.25
X89.5Y-122.71
X89.5Y-125.25
X92.04Y-122.71
X92.04Y-125.25
X94.58Y-122.71
X94.58Y-125.25
X97.12Y-122.71
X97.12Y-125.25
X99.66Y-122.71
X99.66Y-125.25
T2
X84.5Y-87.0
X84.5Y-91.5
X84.5Y-99.0
X84.5Y-103.5
X84.5Y-111.0
X84.5Y-115.5
X91.0Y-87.0
X91.0Y-91.5
X91.0Y-99.0
X91.0Y-103.5
X91.0Y-111.0
X91.0Y-115.5
X98.0Y-87.0
X98.0Y-91.5
X98.0Y-99.0
X98.0Y-103.5
X98.0Y-111.0
X98.0Y-115.5
X104.5Y-87.0
X104.5Y-91.5
X104.5Y-99.0
X104.5Y-103.5
X104.5Y-111.0
X104.5Y-115.5
X111.5Y-87.0
X111.5Y-91.5
X111.5Y-99.0
X111.5Y-103.5
X111.5Y-111.0
X111.5Y-115.5
X118.0Y-87.0
X118.0Y-91.5
X118.0Y-99.0
X118.0Y-103.5
X118.0Y-111.0
X118.0Y-115.5
X125.0Y-87.0
X125.0Y-91.5
X125.0Y-99.0
X125.0Y-103.5
X125.0Y-111.0
X125.0Y-115.5
X131.5Y-87.0
X131.5Y-91.5
X131.5Y-99.0
X131.5Y-103.5
X131.5Y-111.0
X131.5Y-115.5
X138.5Y-87.0
X138.5Y-91.5
X138.5Y-99.0
X138.5Y-103.5
X138.5Y-111.0
X138.5Y-115.5
X145.0Y-87.0
X145.0Y-91.5
X145.0Y-99.0
X145.0Y-103.5
X145.0Y-111.0
X145.0Y-115.5
X152.0Y-87.0
X152.0Y-91.5
X152.0Y-99.0
X152.0Y-103.5
X152.0Y-111.0
X152.0Y-115.5
X158.5Y-87.0
X158.5Y-91.5
X158.5Y-99.0
X158.5Y-103.5
X158.5Y-111.0
X158.5Y-115.5
X165.5Y-87.0
X165.5Y-91.5
X165.5Y-99.0
X165.5Y-103.5
X165.5Y-111.0
X165.5Y-115.5
X172.0Y-87.0
X172.0Y-91.5
X172.0Y-99.0
X172.0Y-103.5
X172.0Y-111.0
X172.0Y-115.5
X179.0Y-87.0
X179.0Y-91.5
X179.0Y-99.0
X179.0Y-103.5
X179.0Y-111.0
X179.0Y-115.5
X185.5Y-87.0
X185.5Y-91.5
X185.5Y-99.0
X185.5Y-103.5
X185.5Y-111.0
X185.5Y-115.5
X192.5Y-87.0
X192.5Y-91.5
X192.5Y-99.0
X192.5Y-103.5
X192.5Y-111.0
X192.5Y-115.5
X199.0Y-87.0
X199.0Y-91.5
X199.0Y-99.0
X199.0Y-103.5
X199.0Y-111.0
X199.0Y-115.5
X206.0Y-87.0
X206.0Y-91.5
X206.0Y-99.0
X206.0Y-103.5
X206.0Y-111.0
X206.0Y-115.5
X212.5Y-87.0
X212.5Y-91.5
X212.5Y-99.0
X212.5Y-103.5
X212.5Y-111.0
X212.5Y-115.5
T3
X81.0Y-77.5
X81.0Y-131.5
X216.0Y-77.5
X216.0Y-131.5
M30
