%TF.GenerationSoftware,KiCad,Pcbnew,9.0.7*%
%TF.CreationDate,2026-01-30T19:35:37-03:00*%
%TF.ProjectId,teclado_matricial,7465636c-6164-46f5-9f6d-617472696369,rev?*%
%TF.SameCoordinates,Original*%
%TF.FileFunction,Legend,Top*%
%TF.FilePolarity,Positive*%
%FSLAX46Y46*%
G04 Gerber Fmt 4.6, Leading zero omitted, Abs format (unit mm)*
G04 Created by KiCad (PCBNEW 9.0.7) date 2026-01-30 19:35:37*
%MOMM*%
%LPD*%
G01*
G04 APERTURE LIST*
%ADD10C,0.120000*%
G04 APERTURE END LIST*
D10*
%TO.C,j*%
X165250000Y-100500000D02*
X165250000Y-102000000D01*
X166500000Y-104500000D02*
X171000000Y-104500000D01*
X171000000Y-98000000D02*
X166500000Y-98000000D01*
X172250000Y-102000000D02*
X172250000Y-100500000D01*
%TO.C,g*%
X138250000Y-100500000D02*
X138250000Y-102000000D01*
X139500000Y-104500000D02*
X144000000Y-104500000D01*
X144000000Y-98000000D02*
X139500000Y-98000000D01*
X145250000Y-102000000D02*
X145250000Y-100500000D01*
%TO.C,z*%
X84250000Y-112500000D02*
X84250000Y-114000000D01*
X85500000Y-116500000D02*
X90000000Y-116500000D01*
X90000000Y-110000000D02*
X85500000Y-110000000D01*
X91250000Y-114000000D02*
X91250000Y-112500000D01*
%TO.C,u*%
X165250000Y-88500000D02*
X165250000Y-90000000D01*
X166500000Y-92500000D02*
X171000000Y-92500000D01*
X171000000Y-86000000D02*
X166500000Y-86000000D01*
X172250000Y-90000000D02*
X172250000Y-88500000D01*
%TO.C,o*%
X192250000Y-88500000D02*
X192250000Y-90000000D01*
X193500000Y-92500000D02*
X198000000Y-92500000D01*
X198000000Y-86000000D02*
X193500000Y-86000000D01*
X199250000Y-90000000D02*
X199250000Y-88500000D01*
%TO.C,n*%
X165250000Y-112500000D02*
X165250000Y-114000000D01*
X166500000Y-116500000D02*
X171000000Y-116500000D01*
X171000000Y-110000000D02*
X166500000Y-110000000D01*
X172250000Y-114000000D02*
X172250000Y-112500000D01*
%TO.C,ret*%
X205750000Y-100500000D02*
X205750000Y-102000000D01*
X207000000Y-104500000D02*
X211500000Y-104500000D01*
X211500000Y-98000000D02*
X207000000Y-98000000D01*
X212750000Y-102000000D02*
X212750000Y-100500000D01*
%TO.C,space*%
X151750000Y-112500000D02*
X151750000Y-114000000D01*
X153000000Y-116500000D02*
X157500000Y-116500000D01*
X157500000Y-110000000D02*
X153000000Y-110000000D01*
X158750000Y-114000000D02*
X158750000Y-112500000D01*
%TO.C,q*%
X84250000Y-88500000D02*
X84250000Y-90000000D01*
X85500000Y-92500000D02*
X90000000Y-92500000D01*
X90000000Y-86000000D02*
X85500000Y-86000000D01*
X91250000Y-90000000D02*
X91250000Y-88500000D01*
%TO.C,fun*%
X192250000Y-112500000D02*
X192250000Y-114000000D01*
X193500000Y-116500000D02*
X198000000Y-116500000D01*
X198000000Y-110000000D02*
X193500000Y-110000000D01*
X199250000Y-114000000D02*
X199250000Y-112500000D01*
%TO.C,m*%
X178750000Y-112500000D02*
X178750000Y-114000000D01*
X180000000Y-116500000D02*
X184500000Y-116500000D01*
X184500000Y-110000000D02*
X180000000Y-110000000D01*
X185750000Y-114000000D02*
X185750000Y-112500000D01*
%TO.C,f*%
X124750000Y-100500000D02*
X124750000Y-102000000D01*
X126000000Y-104500000D02*
X130500000Y-104500000D01*
X130500000Y-98000000D02*
X126000000Y-98000000D01*
X131750000Y-102000000D02*
X131750000Y-100500000D01*
%TO.C,x*%
X97750000Y-112500000D02*
X97750000Y-114000000D01*
X99000000Y-116500000D02*
X103500000Y-116500000D01*
X103500000Y-110000000D02*
X99000000Y-110000000D01*
X104750000Y-114000000D02*
X104750000Y-112500000D01*
%TO.C,r*%
X124750000Y-88500000D02*
X124750000Y-90000000D01*
X126000000Y-92500000D02*
X130500000Y-92500000D01*
X130500000Y-86000000D02*
X126000000Y-86000000D01*
X131750000Y-90000000D02*
X131750000Y-88500000D01*
%TO.C,k*%
X178750000Y-100500000D02*
X178750000Y-102000000D01*
X180000000Y-104500000D02*
X184500000Y-104500000D01*
X184500000Y-98000000D02*
X180000000Y-98000000D01*
X185750000Y-102000000D02*
X185750000Y-100500000D01*
%TO.C,w*%
X97750000Y-88500000D02*
X97750000Y-90000000D01*
X99000000Y-92500000D02*
X103500000Y-92500000D01*
X103500000Y-86000000D02*
X99000000Y-86000000D01*
X104750000Y-90000000D02*
X104750000Y-88500000D01*
%TO.C,enter*%
X205750000Y-112500000D02*
X205750000Y-114000000D01*
X207000000Y-116500000D02*
X211500000Y-116500000D01*
X211500000Y-110000000D02*
X207000000Y-110000000D01*
X212750000Y-114000000D02*
X212750000Y-112500000D01*
%TO.C,p*%
X205750000Y-88500000D02*
X205750000Y-90000000D01*
X207000000Y-92500000D02*
X211500000Y-92500000D01*
X211500000Y-86000000D02*
X207000000Y-86000000D01*
X212750000Y-90000000D02*
X212750000Y-88500000D01*
%TO.C,l*%
X192250000Y-100500000D02*
X192250000Y-102000000D01*
X193500000Y-104500000D02*
X198000000Y-104500000D01*
X198000000Y-98000000D02*
X193500000Y-98000000D01*
X199250000Y-102000000D02*
X199250000Y-100500000D01*
%TO.C,a*%
X84250000Y-100500000D02*
X84250000Y-102000000D01*
X85500000Y-104500000D02*
X90000000Y-104500000D01*
X90000000Y-98000000D02*
X85500000Y-98000000D01*
X91250000Y-102000000D02*
X91250000Y-100500000D01*
%TO.C,h*%
X151750000Y-100500000D02*
X151750000Y-102000000D01*
X153000000Y-104500000D02*
X157500000Y-104500000D01*
X157500000Y-98000000D02*
X153000000Y-98000000D01*
X158750000Y-102000000D02*
X158750000Y-100500000D01*
%TO.C,b*%
X138250000Y-112500000D02*
X138250000Y-114000000D01*
X139500000Y-116500000D02*
X144000000Y-116500000D01*
X144000000Y-110000000D02*
X139500000Y-110000000D01*
X145250000Y-114000000D02*
X145250000Y-112500000D01*
%TO.C,v*%
X124750000Y-112500000D02*
X124750000Y-114000000D01*
X126000000Y-116500000D02*
X130500000Y-116500000D01*
X130500000Y-110000000D02*
X126000000Y-110000000D01*
X131750000Y-114000000D02*
X131750000Y-112500000D01*
%TO.C,d*%
X111250000Y-100500000D02*
X111250000Y-102000000D01*
X112500000Y-104500000D02*
X117000000Y-104500000D01*
X117000000Y-98000000D02*
X112500000Y-98000000D01*
X118250000Y-102000000D02*
X118250000Y-100500000D01*
%TO.C,t*%
X138250000Y-88500000D02*
X138250000Y-90000000D01*
X139500000Y-92500000D02*
X144000000Y-92500000D01*
X144000000Y-86000000D02*
X139500000Y-86000000D01*
X145250000Y-90000000D02*
X145250000Y-88500000D01*
%TO.C,i*%
X178750000Y-88500000D02*
X178750000Y-90000000D01*
X180000000Y-92500000D02*
X184500000Y-92500000D01*
X184500000Y-86000000D02*
X180000000Y-86000000D01*
X185750000Y-90000000D02*
X185750000Y-88500000D01*
%TO.C,y*%
X151750000Y-88500000D02*
X151750000Y-90000000D01*
X153000000Y-92500000D02*
X157500000Y-92500000D01*
X157500000Y-86000000D02*
X153000000Y-86000000D01*
X158750000Y-90000000D02*
X158750000Y-88500000D01*
%TO.C,s*%
X97750000Y-100500000D02*
X97750000Y-102000000D01*
X99000000Y-104500000D02*
X103500000Y-104500000D01*
X103500000Y-98000000D02*
X99000000Y-98000000D01*
X104750000Y-102000000D02*
X104750000Y-100500000D01*
%TO.C,c*%
X111250000Y-112500000D02*
X111250000Y-114000000D01*
X112500000Y-116500000D02*
X117000000Y-116500000D01*
X117000000Y-110000000D02*
X112500000Y-110000000D01*
X118250000Y-114000000D02*
X118250000Y-112500000D01*
%TO.C,e*%
X111250000Y-88500000D02*
X111250000Y-90000000D01*
X112500000Y-92500000D02*
X117000000Y-92500000D01*
X117000000Y-86000000D02*
X112500000Y-86000000D01*
X118250000Y-90000000D02*
X118250000Y-88500000D01*
%TD*%
M02*
