%TF.GenerationSoftware,KiCad,Pcbnew,9.0.7*%
%TF.CreationDate,2026-01-27T19:20:49-03:00*%
%TF.ProjectId,teclado_matricial,7465636c-6164-46f5-9f6d-617472696369,rev?*%
%TF.SameCoordinates,Original*%
%TF.FileFunction,Profile,NP*%
%FSLAX46Y46*%
G04 Gerber Fmt 4.6, Leading zero omitted, Abs format (unit mm)*
G04 Created by KiCad (PCBNEW 9.0.7) date 2026-01-27 19:20:49*
%MOMM*%
%LPD*%
G01*
G04 APERTURE LIST*
%TA.AperFunction,Profile*%
%ADD10C,0.050000*%
%TD*%
%TA.AperFunction,ComponentPad*%
%ADD11C,2.000000*%
%TD*%
%TA.AperFunction,ComponentPad*%
%ADD12R,1.700000X1.700000*%
%TD*%
%TA.AperFunction,ComponentPad*%
%ADD13C,1.700000*%
%TD*%
%TA.AperFunction,ViaPad*%
%ADD14C,2.100000*%
%TD*%
%TA.AperFunction,Conductor*%
%ADD15C,0.600000*%
%TD*%
%TA.AperFunction,Conductor*%
%ADD16C,0.400000*%
%TD*%
%ADD17C,2.000000*%
%ADD18R,1.700000X1.700000*%
%ADD19C,1.700000*%
%ADD20C,0.120000*%
%ADD21C,0.050000*%
%ADD22C,0.100000*%
%ADD23C,0.175000*%
%ADD24C,0.150000*%
G04 APERTURE END LIST*
D10*
X217500000Y-76000000D02*
X79500000Y-76000000D01*
X217500000Y-133000000D02*
X217500000Y-76000000D01*
X217500000Y-133000000D02*
X79500000Y-133000000D01*
X79500000Y-76000000D02*
X79500000Y-133000000D01*
D11*
%TO.P,Button,1*%
%TO.N,.*%
X165500000Y-99000000D03*
%TO.N,N/C*%
X172000000Y-99000000D03*
%TO.P,Button,2*%
X165500000Y-103500000D03*
%TO.N,.*%
X172000000Y-103500000D03*
%TD*%
%TO.P,Button,1*%
%TO.N,.*%
X138500000Y-99000000D03*
%TO.N,N/C*%
X145000000Y-99000000D03*
%TO.P,Button,2*%
X138500000Y-103500000D03*
%TO.N,.*%
X145000000Y-103500000D03*
%TD*%
%TO.P,Button,1*%
%TO.N,.*%
X84500000Y-111000000D03*
%TO.N,N/C*%
X91000000Y-111000000D03*
%TO.P,Button,2*%
X84500000Y-115500000D03*
%TO.N,.*%
X91000000Y-115500000D03*
%TD*%
%TO.P,Button,1*%
%TO.N,.*%
X165500000Y-87000000D03*
%TO.N,N/C*%
X172000000Y-87000000D03*
%TO.P,Button,2*%
X165500000Y-91500000D03*
%TO.N,.*%
X172000000Y-91500000D03*
%TD*%
%TO.P,Button,1*%
%TO.N,.*%
X192500000Y-87000000D03*
%TO.N,N/C*%
X199000000Y-87000000D03*
%TO.P,Button,2*%
X192500000Y-91500000D03*
%TO.N,.*%
X199000000Y-91500000D03*
%TD*%
%TO.P,Button,1*%
%TO.N,.*%
X165500000Y-111000000D03*
%TO.N,N/C*%
X172000000Y-111000000D03*
%TO.P,Button,2*%
X165500000Y-115500000D03*
%TO.N,.*%
X172000000Y-115500000D03*
%TD*%
%TO.P,Button,1*%
%TO.N,.*%
X206000000Y-99000000D03*
%TO.N,N/C*%
X212500000Y-99000000D03*
%TO.P,Button,2*%
X206000000Y-103500000D03*
%TO.N,.*%
X212500000Y-103500000D03*
%TD*%
%TO.P,Button,1*%
%TO.N,.*%
X152000000Y-111000000D03*
%TO.N,N/C*%
X158500000Y-111000000D03*
%TO.P,Button,2*%
X152000000Y-115500000D03*
%TO.N,.*%
X158500000Y-115500000D03*
%TD*%
%TO.P,Button,1*%
%TO.N,.*%
X84500000Y-87000000D03*
%TO.N,N/C*%
X91000000Y-87000000D03*
%TO.P,Button,2*%
X84500000Y-91500000D03*
%TO.N,.*%
X91000000Y-91500000D03*
%TD*%
%TO.P,Button,1*%
%TO.N,.*%
X192500000Y-111000000D03*
%TO.N,N/C*%
X199000000Y-111000000D03*
%TO.P,Button,2*%
X192500000Y-115500000D03*
%TO.N,.*%
X199000000Y-115500000D03*
%TD*%
%TO.P,Button,1*%
%TO.N,.*%
X179000000Y-111000000D03*
%TO.N,N/C*%
X185500000Y-111000000D03*
%TO.P,Button,2*%
X179000000Y-115500000D03*
%TO.N,.*%
X185500000Y-115500000D03*
%TD*%
%TO.P,Button,1*%
%TO.N,.*%
X125000000Y-99000000D03*
%TO.N,N/C*%
X131500000Y-99000000D03*
%TO.P,Button,2*%
X125000000Y-103500000D03*
%TO.N,.*%
X131500000Y-103500000D03*
%TD*%
%TO.P,Button,1*%
%TO.N,.*%
X98000000Y-111000000D03*
%TO.N,N/C*%
X104500000Y-111000000D03*
%TO.P,Button,2*%
X98000000Y-115500000D03*
%TO.N,.*%
X104500000Y-115500000D03*
%TD*%
%TO.P,Button,1*%
%TO.N,.*%
X125000000Y-87000000D03*
%TO.N,N/C*%
X131500000Y-87000000D03*
%TO.P,Button,2*%
X125000000Y-91500000D03*
%TO.N,.*%
X131500000Y-91500000D03*
%TD*%
%TO.P,Button,1*%
%TO.N,.*%
X179000000Y-99000000D03*
%TO.N,N/C*%
X185500000Y-99000000D03*
%TO.P,Button,2*%
X179000000Y-103500000D03*
%TO.N,.*%
X185500000Y-103500000D03*
%TD*%
%TO.P,Button,1*%
%TO.N,.*%
X98000000Y-87000000D03*
%TO.N,N/C*%
X104500000Y-87000000D03*
%TO.P,Button,2*%
X98000000Y-91500000D03*
%TO.N,.*%
X104500000Y-91500000D03*
%TD*%
%TO.P,Button,1*%
%TO.N,.*%
X206000000Y-111000000D03*
%TO.N,N/C*%
X212500000Y-111000000D03*
%TO.P,Button,2*%
X206000000Y-115500000D03*
%TO.N,.*%
X212500000Y-115500000D03*
%TD*%
%TO.P,Button,1*%
%TO.N,.*%
X206000000Y-87000000D03*
%TO.N,N/C*%
X212500000Y-87000000D03*
%TO.P,Button,2*%
X206000000Y-91500000D03*
%TO.N,.*%
X212500000Y-91500000D03*
%TD*%
%TO.P,Button,1*%
%TO.N,.*%
X192500000Y-99000000D03*
%TO.N,N/C*%
X199000000Y-99000000D03*
%TO.P,Button,2*%
X192500000Y-103500000D03*
%TO.N,.*%
X199000000Y-103500000D03*
%TD*%
%TO.P,Button,1*%
%TO.N,.*%
X84500000Y-99000000D03*
%TO.N,N/C*%
X91000000Y-99000000D03*
%TO.P,Button,2*%
X84500000Y-103500000D03*
%TO.N,.*%
X91000000Y-103500000D03*
%TD*%
%TO.P,Button,1*%
%TO.N,.*%
X152000000Y-99000000D03*
%TO.N,N/C*%
X158500000Y-99000000D03*
%TO.P,Button,2*%
X152000000Y-103500000D03*
%TO.N,.*%
X158500000Y-103500000D03*
%TD*%
%TO.P,Button,1*%
%TO.N,.*%
X138500000Y-111000000D03*
%TO.N,N/C*%
X145000000Y-111000000D03*
%TO.P,Button,2*%
X138500000Y-115500000D03*
%TO.N,.*%
X145000000Y-115500000D03*
%TD*%
%TO.P,Button,1*%
%TO.N,.*%
X125000000Y-111000000D03*
%TO.N,N/C*%
X131500000Y-111000000D03*
%TO.P,Button,2*%
X125000000Y-115500000D03*
%TO.N,.*%
X131500000Y-115500000D03*
%TD*%
%TO.P,Button,1*%
%TO.N,.*%
X111500000Y-99000000D03*
%TO.N,N/C*%
X118000000Y-99000000D03*
%TO.P,Button,2*%
X111500000Y-103500000D03*
%TO.N,.*%
X118000000Y-103500000D03*
%TD*%
%TO.P,Button,1*%
%TO.N,.*%
X138500000Y-87000000D03*
%TO.N,N/C*%
X145000000Y-87000000D03*
%TO.P,Button,2*%
X138500000Y-91500000D03*
%TO.N,.*%
X145000000Y-91500000D03*
%TD*%
%TO.P,Button,1*%
%TO.N,.*%
X179000000Y-87000000D03*
%TO.N,N/C*%
X185500000Y-87000000D03*
%TO.P,Button,2*%
X179000000Y-91500000D03*
%TO.N,.*%
X185500000Y-91500000D03*
%TD*%
%TO.P,Button,1*%
%TO.N,.*%
X152000000Y-87000000D03*
%TO.N,N/C*%
X158500000Y-87000000D03*
%TO.P,Button,2*%
X152000000Y-91500000D03*
%TO.N,.*%
X158500000Y-91500000D03*
%TD*%
%TO.P,Button,1*%
%TO.N,.*%
X98000000Y-99000000D03*
%TO.N,N/C*%
X104500000Y-99000000D03*
%TO.P,Button,2*%
X98000000Y-103500000D03*
%TO.N,.*%
X104500000Y-103500000D03*
%TD*%
%TO.P,Button,1*%
%TO.N,.*%
X111500000Y-111000000D03*
%TO.N,N/C*%
X118000000Y-111000000D03*
%TO.P,Button,2*%
X111500000Y-115500000D03*
%TO.N,.*%
X118000000Y-115500000D03*
%TD*%
%TO.P,Button,1*%
%TO.N,.*%
X111500000Y-87000000D03*
%TO.N,N/C*%
X118000000Y-87000000D03*
%TO.P,Button,2*%
X111500000Y-91500000D03*
%TO.N,.*%
X118000000Y-91500000D03*
%TD*%
D12*
%TO.P,PinHeader,1*%
%TO.N,N/C*%
X84420000Y-122710000D03*
D13*
%TO.P,PinHeader,2*%
X84420000Y-125250000D03*
%TO.P,PinHeader,3*%
X86960000Y-122710000D03*
%TO.P,PinHeader,4*%
X86960000Y-125250000D03*
%TO.P,PinHeader,5*%
X89500000Y-122710000D03*
%TO.P,PinHeader,6*%
X89500000Y-125250000D03*
%TO.P,PinHeader,7*%
X92040000Y-122710000D03*
%TO.P,PinHeader,8*%
X92040000Y-125250000D03*
%TO.P,PinHeader,9*%
X94580000Y-122710000D03*
%TO.P,PinHeader,10*%
X94580000Y-125250000D03*
%TO.P,PinHeader,11*%
X97120000Y-122710000D03*
%TO.P,PinHeader,12*%
X97120000Y-125250000D03*
%TO.P,PinHeader,13*%
X99660000Y-122710000D03*
%TO.P,PinHeader,14*%
X99660000Y-125250000D03*
%TD*%
D14*
%TO.N,.*%
X216000000Y-131500000D03*
X81000000Y-131500000D03*
X216000000Y-77500000D03*
X81000000Y-77500000D03*
%TD*%
D15*
%TO.N,.*%
X199000000Y-91500000D02*
X202500000Y-91500000D01*
D16*
X121000000Y-100500000D02*
X118000000Y-103500000D01*
X104500000Y-91500000D02*
X107500000Y-91500000D01*
X93500000Y-117500000D02*
X89500000Y-117500000D01*
D15*
X92500000Y-127000000D02*
X92500000Y-125250000D01*
D16*
X118000000Y-118000000D02*
X92000000Y-118000000D01*
D15*
X164000000Y-127000000D02*
X92500000Y-127000000D01*
X202500000Y-91500000D02*
X202500000Y-100000000D01*
D16*
X89500000Y-117500000D02*
X89000000Y-118000000D01*
X108000000Y-115000000D02*
X106000000Y-117000000D01*
X134500000Y-91500000D02*
X135000000Y-92000000D01*
X158500000Y-91500000D02*
X161500000Y-91500000D01*
D15*
X215500000Y-112500000D02*
X215500000Y-118000000D01*
D16*
X106000000Y-117000000D02*
X94000000Y-117000000D01*
X135000000Y-92000000D02*
X135000000Y-100000000D01*
X135000000Y-112000000D02*
X131500000Y-115500000D01*
X89000000Y-117000000D02*
X87250000Y-118750000D01*
D15*
X176000000Y-128000000D02*
X89500000Y-128000000D01*
D16*
X108000000Y-112000000D02*
X108000000Y-115000000D01*
D15*
X175000000Y-116000000D02*
X164000000Y-127000000D01*
D16*
X108000000Y-110500000D02*
X108000000Y-112000000D01*
X162000000Y-112000000D02*
X158500000Y-115500000D01*
X135000000Y-114000000D02*
X130250000Y-118750000D01*
X107500000Y-91500000D02*
X108000000Y-92000000D01*
X162000000Y-92000000D02*
X162000000Y-103000000D01*
X118000000Y-91500000D02*
X120500000Y-91500000D01*
D15*
X189000000Y-112000000D02*
X189000000Y-115000000D01*
D16*
X148000000Y-115000000D02*
X143500000Y-119500000D01*
X94000000Y-116000000D02*
X93000000Y-117000000D01*
D15*
X172000000Y-91500000D02*
X175000000Y-91500000D01*
D16*
X162000000Y-115500000D02*
X157250000Y-120250000D01*
X148000000Y-100500000D02*
X145000000Y-103500000D01*
X135000000Y-100000000D02*
X131500000Y-103500000D01*
D15*
X203500000Y-130000000D02*
X84500000Y-130000000D01*
D16*
X89000000Y-118000000D02*
X89000000Y-121250003D01*
X148000000Y-100500000D02*
X148000000Y-112500000D01*
X87250000Y-118750000D02*
X87250000Y-122590000D01*
D15*
X89500000Y-128000000D02*
X89500000Y-125250000D01*
D16*
X157250000Y-120250000D02*
X99750000Y-120250000D01*
X108000000Y-100000000D02*
X104500000Y-103500000D01*
D15*
X215500000Y-100500000D02*
X212500000Y-103500000D01*
D16*
X94000000Y-112500000D02*
X94000000Y-116000000D01*
X135000000Y-112000000D02*
X135000000Y-114000000D01*
X121000000Y-92000000D02*
X121000000Y-100500000D01*
X121000000Y-100500000D02*
X121000000Y-112500000D01*
D15*
X189000000Y-100000000D02*
X189000000Y-112000000D01*
X87000000Y-129000000D02*
X87000000Y-125250000D01*
X215500000Y-118000000D02*
X203500000Y-130000000D01*
D16*
X94000000Y-100500000D02*
X94000000Y-112500000D01*
D15*
X212500000Y-91500000D02*
X215500000Y-91500000D01*
D16*
X94500000Y-121750009D02*
X95000000Y-122250009D01*
D15*
X175000000Y-91500000D02*
X175000000Y-100500000D01*
D16*
X89000000Y-121250003D02*
X90000000Y-122250003D01*
X162000000Y-103000000D02*
X161500000Y-103500000D01*
D15*
X215500000Y-100500000D02*
X215500000Y-112500000D01*
D16*
X161500000Y-103500000D02*
X158500000Y-103500000D01*
D15*
X189000000Y-115000000D02*
X176000000Y-128000000D01*
D16*
X120500000Y-91500000D02*
X121000000Y-92000000D01*
D15*
X185500000Y-91500000D02*
X189000000Y-91500000D01*
X84500000Y-125250000D02*
X84750000Y-125000000D01*
D16*
X130250000Y-118750000D02*
X94500000Y-118750000D01*
X99500000Y-120500000D02*
X99500000Y-122249997D01*
X99750000Y-120250000D02*
X99500000Y-120500000D01*
D15*
X189000000Y-100000000D02*
X185500000Y-103500000D01*
D16*
X148000000Y-112500000D02*
X148000000Y-115000000D01*
X108000000Y-100000000D02*
X108000000Y-110500000D01*
X143500000Y-119500000D02*
X97000000Y-119500000D01*
X161500000Y-91500000D02*
X162000000Y-92000000D01*
X121000000Y-115000000D02*
X118000000Y-118000000D01*
X135000000Y-100000000D02*
X135000000Y-112000000D01*
X131500000Y-91500000D02*
X134500000Y-91500000D01*
X92000000Y-118000000D02*
X92000000Y-122249994D01*
D15*
X189000000Y-91500000D02*
X189000000Y-100000000D01*
X87000000Y-125250000D02*
X87250000Y-125000000D01*
D16*
X121000000Y-112500000D02*
X121000000Y-115000000D01*
X162000000Y-112000000D02*
X162000000Y-115500000D01*
X94000000Y-112500000D02*
X91000000Y-115500000D01*
X145000000Y-91500000D02*
X148000000Y-91500000D01*
D15*
X84500000Y-130000000D02*
X84500000Y-125250000D01*
D16*
X93500000Y-91500000D02*
X94000000Y-92000000D01*
X94000000Y-117000000D02*
X93500000Y-117500000D01*
X91000000Y-91500000D02*
X93500000Y-91500000D01*
D15*
X175000000Y-112500000D02*
X172000000Y-115500000D01*
D16*
X94000000Y-92000000D02*
X94000000Y-100500000D01*
X87250000Y-122590000D02*
X87130000Y-122710000D01*
D15*
X202500000Y-112000000D02*
X185500000Y-129000000D01*
X202500000Y-100000000D02*
X199000000Y-103500000D01*
X175000000Y-100500000D02*
X175000000Y-112500000D01*
X175000000Y-112500000D02*
X175000000Y-116000000D01*
D16*
X121000000Y-112500000D02*
X118000000Y-115500000D01*
X94000000Y-100500000D02*
X91000000Y-103500000D01*
X162000000Y-103000000D02*
X162000000Y-112000000D01*
X108000000Y-92000000D02*
X108000000Y-100000000D01*
X148000000Y-91500000D02*
X148000000Y-100500000D01*
D15*
X215500000Y-91500000D02*
X215500000Y-100500000D01*
X189000000Y-112000000D02*
X185500000Y-115500000D01*
X202500000Y-100000000D02*
X202500000Y-112000000D01*
D16*
X97000000Y-119500000D02*
X97000000Y-122250000D01*
D15*
X175000000Y-100500000D02*
X172000000Y-103500000D01*
D16*
X93000000Y-117000000D02*
X89000000Y-117000000D01*
D15*
X92500000Y-125250000D02*
X92250000Y-125000000D01*
X215500000Y-112500000D02*
X212500000Y-115500000D01*
D16*
X148000000Y-112500000D02*
X145000000Y-115500000D01*
X108000000Y-112000000D02*
X104500000Y-115500000D01*
D15*
X202500000Y-112000000D02*
X199000000Y-115500000D01*
X89500000Y-125250000D02*
X89750000Y-125000000D01*
D16*
X94500000Y-118750000D02*
X94500000Y-121750009D01*
D15*
X185500000Y-129000000D02*
X87000000Y-129000000D01*
%TD*%
D17*
%TO.C,Button*%
X165500000Y-99000000D03*
X172000000Y-99000000D03*
X165500000Y-103500000D03*
X172000000Y-103500000D03*
%TD*%
%TO.C,Button*%
X138500000Y-99000000D03*
X145000000Y-99000000D03*
X138500000Y-103500000D03*
X145000000Y-103500000D03*
%TD*%
%TO.C,Button*%
X84500000Y-111000000D03*
X91000000Y-111000000D03*
X84500000Y-115500000D03*
X91000000Y-115500000D03*
%TD*%
%TO.C,Button*%
X165500000Y-87000000D03*
X172000000Y-87000000D03*
X165500000Y-91500000D03*
X172000000Y-91500000D03*
%TD*%
%TO.C,Button*%
X192500000Y-87000000D03*
X199000000Y-87000000D03*
X192500000Y-91500000D03*
X199000000Y-91500000D03*
%TD*%
%TO.C,Button*%
X165500000Y-111000000D03*
X172000000Y-111000000D03*
X165500000Y-115500000D03*
X172000000Y-115500000D03*
%TD*%
%TO.C,Button*%
X206000000Y-99000000D03*
X212500000Y-99000000D03*
X206000000Y-103500000D03*
X212500000Y-103500000D03*
%TD*%
%TO.C,Button*%
X152000000Y-111000000D03*
X158500000Y-111000000D03*
X152000000Y-115500000D03*
X158500000Y-115500000D03*
%TD*%
%TO.C,Button*%
X84500000Y-87000000D03*
X91000000Y-87000000D03*
X84500000Y-91500000D03*
X91000000Y-91500000D03*
%TD*%
%TO.C,Button*%
X192500000Y-111000000D03*
X199000000Y-111000000D03*
X192500000Y-115500000D03*
X199000000Y-115500000D03*
%TD*%
%TO.C,Button*%
X179000000Y-111000000D03*
X185500000Y-111000000D03*
X179000000Y-115500000D03*
X185500000Y-115500000D03*
%TD*%
%TO.C,Button*%
X125000000Y-99000000D03*
X131500000Y-99000000D03*
X125000000Y-103500000D03*
X131500000Y-103500000D03*
%TD*%
%TO.C,Button*%
X98000000Y-111000000D03*
X104500000Y-111000000D03*
X98000000Y-115500000D03*
X104500000Y-115500000D03*
%TD*%
%TO.C,Button*%
X125000000Y-87000000D03*
X131500000Y-87000000D03*
X125000000Y-91500000D03*
X131500000Y-91500000D03*
%TD*%
%TO.C,Button*%
X179000000Y-99000000D03*
X185500000Y-99000000D03*
X179000000Y-103500000D03*
X185500000Y-103500000D03*
%TD*%
%TO.C,Button*%
X98000000Y-87000000D03*
X104500000Y-87000000D03*
X98000000Y-91500000D03*
X104500000Y-91500000D03*
%TD*%
%TO.C,Button*%
X206000000Y-111000000D03*
X212500000Y-111000000D03*
X206000000Y-115500000D03*
X212500000Y-115500000D03*
%TD*%
%TO.C,Button*%
X206000000Y-87000000D03*
X212500000Y-87000000D03*
X206000000Y-91500000D03*
X212500000Y-91500000D03*
%TD*%
%TO.C,Button*%
X192500000Y-99000000D03*
X199000000Y-99000000D03*
X192500000Y-103500000D03*
X199000000Y-103500000D03*
%TD*%
%TO.C,Button*%
X84500000Y-99000000D03*
X91000000Y-99000000D03*
X84500000Y-103500000D03*
X91000000Y-103500000D03*
%TD*%
%TO.C,Button*%
X152000000Y-99000000D03*
X158500000Y-99000000D03*
X152000000Y-103500000D03*
X158500000Y-103500000D03*
%TD*%
%TO.C,Button*%
X138500000Y-111000000D03*
X145000000Y-111000000D03*
X138500000Y-115500000D03*
X145000000Y-115500000D03*
%TD*%
%TO.C,Button*%
X125000000Y-111000000D03*
X131500000Y-111000000D03*
X125000000Y-115500000D03*
X131500000Y-115500000D03*
%TD*%
%TO.C,Button*%
X111500000Y-99000000D03*
X118000000Y-99000000D03*
X111500000Y-103500000D03*
X118000000Y-103500000D03*
%TD*%
%TO.C,Button*%
X138500000Y-87000000D03*
X145000000Y-87000000D03*
X138500000Y-91500000D03*
X145000000Y-91500000D03*
%TD*%
%TO.C,Button*%
X179000000Y-87000000D03*
X185500000Y-87000000D03*
X179000000Y-91500000D03*
X185500000Y-91500000D03*
%TD*%
%TO.C,Button*%
X152000000Y-87000000D03*
X158500000Y-87000000D03*
X152000000Y-91500000D03*
X158500000Y-91500000D03*
%TD*%
%TO.C,Button*%
X98000000Y-99000000D03*
X104500000Y-99000000D03*
X98000000Y-103500000D03*
X104500000Y-103500000D03*
%TD*%
%TO.C,Button*%
X111500000Y-111000000D03*
X118000000Y-111000000D03*
X111500000Y-115500000D03*
X118000000Y-115500000D03*
%TD*%
%TO.C,Button*%
X111500000Y-87000000D03*
X118000000Y-87000000D03*
X111500000Y-91500000D03*
X118000000Y-91500000D03*
%TD*%
D18*
%TO.C,PinHeader*%
X84420000Y-122710000D03*
D19*
X84420000Y-125250000D03*
X86960000Y-122710000D03*
X86960000Y-125250000D03*
X89500000Y-122710000D03*
X89500000Y-125250000D03*
X92040000Y-122710000D03*
X92040000Y-125250000D03*
X94580000Y-122710000D03*
X94580000Y-125250000D03*
X97120000Y-122710000D03*
X97120000Y-125250000D03*
X99660000Y-122710000D03*
X99660000Y-125250000D03*
%TD*%
D20*
%TO.C,PinHeader*%
X83040000Y-121330000D02*
X83040000Y-122710000D01*
X83040000Y-123980000D02*
X83040000Y-126630000D01*
X83040000Y-126630000D02*
X101040000Y-126630000D01*
X84420000Y-121330000D02*
X83040000Y-121330000D01*
X85690000Y-121330000D02*
X85690000Y-123980000D01*
X85690000Y-121330000D02*
X101040000Y-121330000D01*
X85690000Y-123980000D02*
X83040000Y-123980000D01*
X101040000Y-121330000D02*
X101040000Y-126630000D01*
%TD*%
%TO.C,PinHeader*%
D21*
X82640000Y-120940000D02*
X101440000Y-120940000D01*
X101440000Y-127030000D01*
X82640000Y-127030000D01*
X82640000Y-120940000D01*
%TD*%
D22*
%TO.C,PinHeader*%
X83150000Y-122710000D02*
X83150000Y-126520000D01*
X83150000Y-126520000D02*
X100930000Y-126520000D01*
X84420000Y-121440000D02*
X83150000Y-122710000D01*
X100930000Y-121440000D02*
X84420000Y-121440000D01*
X100930000Y-126520000D02*
X100930000Y-121440000D01*
%TD*%
D11*
%TO.P,Button,1*%
%TO.N,.*%
X165500000Y-99000000D03*
%TO.N,N/C*%
X172000000Y-99000000D03*
%TO.P,Button,2*%
X165500000Y-103500000D03*
%TO.N,.*%
X172000000Y-103500000D03*
%TD*%
%TO.P,Button,1*%
%TO.N,.*%
X138500000Y-99000000D03*
%TO.N,N/C*%
X145000000Y-99000000D03*
%TO.P,Button,2*%
X138500000Y-103500000D03*
%TO.N,.*%
X145000000Y-103500000D03*
%TD*%
%TO.P,Button,1*%
%TO.N,.*%
X84500000Y-111000000D03*
%TO.N,N/C*%
X91000000Y-111000000D03*
%TO.P,Button,2*%
X84500000Y-115500000D03*
%TO.N,.*%
X91000000Y-115500000D03*
%TD*%
%TO.P,Button,1*%
%TO.N,.*%
X165500000Y-87000000D03*
%TO.N,N/C*%
X172000000Y-87000000D03*
%TO.P,Button,2*%
X165500000Y-91500000D03*
%TO.N,.*%
X172000000Y-91500000D03*
%TD*%
%TO.P,Button,1*%
%TO.N,.*%
X192500000Y-87000000D03*
%TO.N,N/C*%
X199000000Y-87000000D03*
%TO.P,Button,2*%
X192500000Y-91500000D03*
%TO.N,.*%
X199000000Y-91500000D03*
%TD*%
%TO.P,Button,1*%
%TO.N,.*%
X165500000Y-111000000D03*
%TO.N,N/C*%
X172000000Y-111000000D03*
%TO.P,Button,2*%
X165500000Y-115500000D03*
%TO.N,.*%
X172000000Y-115500000D03*
%TD*%
%TO.P,Button,1*%
%TO.N,.*%
X206000000Y-99000000D03*
%TO.N,N/C*%
X212500000Y-99000000D03*
%TO.P,Button,2*%
X206000000Y-103500000D03*
%TO.N,.*%
X212500000Y-103500000D03*
%TD*%
%TO.P,Button,1*%
%TO.N,.*%
X152000000Y-111000000D03*
%TO.N,N/C*%
X158500000Y-111000000D03*
%TO.P,Button,2*%
X152000000Y-115500000D03*
%TO.N,.*%
X158500000Y-115500000D03*
%TD*%
%TO.P,Button,1*%
%TO.N,.*%
X84500000Y-87000000D03*
%TO.N,N/C*%
X91000000Y-87000000D03*
%TO.P,Button,2*%
X84500000Y-91500000D03*
%TO.N,.*%
X91000000Y-91500000D03*
%TD*%
%TO.P,Button,1*%
%TO.N,.*%
X192500000Y-111000000D03*
%TO.N,N/C*%
X199000000Y-111000000D03*
%TO.P,Button,2*%
X192500000Y-115500000D03*
%TO.N,.*%
X199000000Y-115500000D03*
%TD*%
%TO.P,Button,1*%
%TO.N,.*%
X179000000Y-111000000D03*
%TO.N,N/C*%
X185500000Y-111000000D03*
%TO.P,Button,2*%
X179000000Y-115500000D03*
%TO.N,.*%
X185500000Y-115500000D03*
%TD*%
%TO.P,Button,1*%
%TO.N,.*%
X125000000Y-99000000D03*
%TO.N,N/C*%
X131500000Y-99000000D03*
%TO.P,Button,2*%
X125000000Y-103500000D03*
%TO.N,.*%
X131500000Y-103500000D03*
%TD*%
%TO.P,Button,1*%
%TO.N,.*%
X98000000Y-111000000D03*
%TO.N,N/C*%
X104500000Y-111000000D03*
%TO.P,Button,2*%
X98000000Y-115500000D03*
%TO.N,.*%
X104500000Y-115500000D03*
%TD*%
%TO.P,Button,1*%
%TO.N,.*%
X125000000Y-87000000D03*
%TO.N,N/C*%
X131500000Y-87000000D03*
%TO.P,Button,2*%
X125000000Y-91500000D03*
%TO.N,.*%
X131500000Y-91500000D03*
%TD*%
%TO.P,Button,1*%
%TO.N,.*%
X179000000Y-99000000D03*
%TO.N,N/C*%
X185500000Y-99000000D03*
%TO.P,Button,2*%
X179000000Y-103500000D03*
%TO.N,.*%
X185500000Y-103500000D03*
%TD*%
%TO.P,Button,1*%
%TO.N,.*%
X98000000Y-87000000D03*
%TO.N,N/C*%
X104500000Y-87000000D03*
%TO.P,Button,2*%
X98000000Y-91500000D03*
%TO.N,.*%
X104500000Y-91500000D03*
%TD*%
%TO.P,Button,1*%
%TO.N,.*%
X206000000Y-111000000D03*
%TO.N,N/C*%
X212500000Y-111000000D03*
%TO.P,Button,2*%
X206000000Y-115500000D03*
%TO.N,.*%
X212500000Y-115500000D03*
%TD*%
%TO.P,Button,1*%
%TO.N,.*%
X206000000Y-87000000D03*
%TO.N,N/C*%
X212500000Y-87000000D03*
%TO.P,Button,2*%
X206000000Y-91500000D03*
%TO.N,.*%
X212500000Y-91500000D03*
%TD*%
%TO.P,Button,1*%
%TO.N,.*%
X192500000Y-99000000D03*
%TO.N,N/C*%
X199000000Y-99000000D03*
%TO.P,Button,2*%
X192500000Y-103500000D03*
%TO.N,.*%
X199000000Y-103500000D03*
%TD*%
%TO.P,Button,1*%
%TO.N,.*%
X84500000Y-99000000D03*
%TO.N,N/C*%
X91000000Y-99000000D03*
%TO.P,Button,2*%
X84500000Y-103500000D03*
%TO.N,.*%
X91000000Y-103500000D03*
%TD*%
%TO.P,Button,1*%
%TO.N,.*%
X152000000Y-99000000D03*
%TO.N,N/C*%
X158500000Y-99000000D03*
%TO.P,Button,2*%
X152000000Y-103500000D03*
%TO.N,.*%
X158500000Y-103500000D03*
%TD*%
%TO.P,Button,1*%
%TO.N,.*%
X138500000Y-111000000D03*
%TO.N,N/C*%
X145000000Y-111000000D03*
%TO.P,Button,2*%
X138500000Y-115500000D03*
%TO.N,.*%
X145000000Y-115500000D03*
%TD*%
%TO.P,Button,1*%
%TO.N,.*%
X125000000Y-111000000D03*
%TO.N,N/C*%
X131500000Y-111000000D03*
%TO.P,Button,2*%
X125000000Y-115500000D03*
%TO.N,.*%
X131500000Y-115500000D03*
%TD*%
%TO.P,Button,1*%
%TO.N,.*%
X111500000Y-99000000D03*
%TO.N,N/C*%
X118000000Y-99000000D03*
%TO.P,Button,2*%
X111500000Y-103500000D03*
%TO.N,.*%
X118000000Y-103500000D03*
%TD*%
%TO.P,Button,1*%
%TO.N,.*%
X138500000Y-87000000D03*
%TO.N,N/C*%
X145000000Y-87000000D03*
%TO.P,Button,2*%
X138500000Y-91500000D03*
%TO.N,.*%
X145000000Y-91500000D03*
%TD*%
%TO.P,Button,1*%
%TO.N,.*%
X179000000Y-87000000D03*
%TO.N,N/C*%
X185500000Y-87000000D03*
%TO.P,Button,2*%
X179000000Y-91500000D03*
%TO.N,.*%
X185500000Y-91500000D03*
%TD*%
%TO.P,Button,1*%
%TO.N,.*%
X152000000Y-87000000D03*
%TO.N,N/C*%
X158500000Y-87000000D03*
%TO.P,Button,2*%
X152000000Y-91500000D03*
%TO.N,.*%
X158500000Y-91500000D03*
%TD*%
%TO.P,Button,1*%
%TO.N,.*%
X98000000Y-99000000D03*
%TO.N,N/C*%
X104500000Y-99000000D03*
%TO.P,Button,2*%
X98000000Y-103500000D03*
%TO.N,.*%
X104500000Y-103500000D03*
%TD*%
%TO.P,Button,1*%
%TO.N,.*%
X111500000Y-111000000D03*
%TO.N,N/C*%
X118000000Y-111000000D03*
%TO.P,Button,2*%
X111500000Y-115500000D03*
%TO.N,.*%
X118000000Y-115500000D03*
%TD*%
%TO.P,Button,1*%
%TO.N,.*%
X111500000Y-87000000D03*
%TO.N,N/C*%
X118000000Y-87000000D03*
%TO.P,Button,2*%
X111500000Y-91500000D03*
%TO.N,.*%
X118000000Y-91500000D03*
%TD*%
D12*
%TO.P,PinHeader,1*%
%TO.N,N/C*%
X84420000Y-122710000D03*
D13*
%TO.P,PinHeader,2*%
X84420000Y-125250000D03*
%TO.P,PinHeader,3*%
X86960000Y-122710000D03*
%TO.P,PinHeader,4*%
X86960000Y-125250000D03*
%TO.P,PinHeader,5*%
X89500000Y-122710000D03*
%TO.P,PinHeader,6*%
X89500000Y-125250000D03*
%TO.P,PinHeader,7*%
X92040000Y-122710000D03*
%TO.P,PinHeader,8*%
X92040000Y-125250000D03*
%TO.P,PinHeader,9*%
X94580000Y-122710000D03*
%TO.P,PinHeader,10*%
X94580000Y-125250000D03*
%TO.P,PinHeader,11*%
X97120000Y-122710000D03*
%TO.P,PinHeader,12*%
X97120000Y-125250000D03*
%TO.P,PinHeader,13*%
X99660000Y-122710000D03*
%TO.P,PinHeader,14*%
X99660000Y-125250000D03*
%TD*%
D14*
%TO.N,.*%
X216000000Y-131500000D03*
X81000000Y-131500000D03*
X216000000Y-77500000D03*
X81000000Y-77500000D03*
%TD*%
D15*
%TO.N,.*%
X141500000Y-107000000D02*
X155000000Y-107000000D01*
X105000000Y-94000000D02*
X104500000Y-93500000D01*
X96000000Y-109000000D02*
X109500000Y-109000000D01*
X190500000Y-109000000D02*
X192500000Y-111000000D01*
X101000000Y-119000000D02*
X114500000Y-119000000D01*
X195500000Y-119000000D02*
X199000000Y-115500000D01*
X150000000Y-109000000D02*
X163500000Y-109000000D01*
X133000000Y-122000000D02*
X125000000Y-130000000D01*
X182000000Y-107000000D02*
X195500000Y-107000000D01*
X128000000Y-107000000D02*
X141500000Y-107000000D01*
X177000000Y-97000000D02*
X179000000Y-99000000D01*
X142500000Y-94000000D02*
X145000000Y-91500000D01*
X177000000Y-109000000D02*
X179000000Y-111000000D01*
X155000000Y-107000000D02*
X158500000Y-103500000D01*
X177000000Y-109000000D02*
X190500000Y-109000000D01*
X183000000Y-94000000D02*
X196500000Y-94000000D01*
X136500000Y-109000000D02*
X138500000Y-111000000D01*
X83000000Y-84000000D02*
X95000000Y-84000000D01*
X84500000Y-87000000D02*
X81000000Y-87000000D01*
X105000000Y-94000000D02*
X115500000Y-94000000D01*
X81000000Y-87000000D02*
X81000000Y-97000000D01*
X115500000Y-94000000D02*
X118000000Y-91500000D01*
X135500000Y-84000000D02*
X149000000Y-84000000D01*
X104500000Y-93500000D02*
X104500000Y-91500000D01*
X128000000Y-119000000D02*
X131500000Y-115500000D01*
X96000000Y-97000000D02*
X98000000Y-99000000D01*
X136500000Y-97000000D02*
X138500000Y-99000000D01*
X141500000Y-107000000D02*
X145000000Y-103500000D01*
X182000000Y-107000000D02*
X185500000Y-103500000D01*
X81000000Y-86000000D02*
X83000000Y-84000000D01*
X195500000Y-107000000D02*
X209000000Y-107000000D01*
X168500000Y-107000000D02*
X172000000Y-103500000D01*
X84500000Y-111000000D02*
X81000000Y-111000000D01*
X81000000Y-99000000D02*
X81000000Y-109000000D01*
X196500000Y-94000000D02*
X210000000Y-94000000D01*
X136500000Y-97000000D02*
X150000000Y-97000000D01*
X95000000Y-84000000D02*
X108500000Y-84000000D01*
X215000000Y-122000000D02*
X133000000Y-122000000D01*
X91000000Y-119000000D02*
X101000000Y-119000000D01*
X94500000Y-107000000D02*
X103000000Y-107000000D01*
X109500000Y-97000000D02*
X111500000Y-99000000D01*
X81000000Y-118750000D02*
X84750000Y-122500000D01*
X81000000Y-87000000D02*
X81000000Y-86000000D01*
X123000000Y-97000000D02*
X136500000Y-97000000D01*
X125000000Y-130000000D02*
X98000000Y-130000000D01*
X163500000Y-97000000D02*
X165500000Y-99000000D01*
X156000000Y-94000000D02*
X158500000Y-91500000D01*
X114500000Y-119000000D02*
X118000000Y-115500000D01*
X176000000Y-84000000D02*
X179000000Y-87000000D01*
X123000000Y-97000000D02*
X125000000Y-99000000D01*
X95000000Y-84000000D02*
X98000000Y-87000000D01*
X103000000Y-105000000D02*
X104500000Y-103500000D01*
X141500000Y-119000000D02*
X145000000Y-115500000D01*
X168500000Y-107000000D02*
X182000000Y-107000000D01*
X122000000Y-129000000D02*
X101000000Y-129000000D01*
X123000000Y-128000000D02*
X122000000Y-129000000D01*
X109500000Y-97000000D02*
X123000000Y-97000000D01*
X182000000Y-119000000D02*
X185500000Y-115500000D01*
X204000000Y-109000000D02*
X206000000Y-111000000D01*
X209000000Y-119000000D02*
X212500000Y-115500000D01*
X168500000Y-119000000D02*
X172000000Y-115500000D01*
X204000000Y-97000000D02*
X206000000Y-99000000D01*
X216699000Y-122301000D02*
X216000000Y-123000000D01*
X163500000Y-109000000D02*
X165500000Y-111000000D01*
X190500000Y-97000000D02*
X192500000Y-99000000D01*
X94750000Y-128750000D02*
X94750000Y-125000000D01*
X96000000Y-97000000D02*
X109500000Y-97000000D01*
X141500000Y-119000000D02*
X155000000Y-119000000D01*
X142500000Y-94000000D02*
X156000000Y-94000000D01*
X195500000Y-119000000D02*
X209000000Y-119000000D01*
X126000000Y-131000000D02*
X97000000Y-131000000D01*
X100000000Y-128000000D02*
X100000000Y-125250000D01*
X176000000Y-84000000D02*
X189500000Y-84000000D01*
X81000000Y-97000000D02*
X81000000Y-99000000D01*
X149000000Y-84000000D02*
X162500000Y-84000000D01*
X109500000Y-109000000D02*
X123000000Y-109000000D01*
X103000000Y-107000000D02*
X103000000Y-105000000D01*
X91000000Y-91500000D02*
X91000000Y-94000000D01*
X114500000Y-119000000D02*
X123000000Y-119000000D01*
X216000000Y-123000000D02*
X134000000Y-123000000D01*
X149000000Y-84000000D02*
X152000000Y-87000000D01*
X196500000Y-94000000D02*
X199000000Y-91500000D01*
X162500000Y-84000000D02*
X176000000Y-84000000D01*
X81000000Y-109000000D02*
X81000000Y-111000000D01*
X136500000Y-109000000D02*
X150000000Y-109000000D01*
X177000000Y-97000000D02*
X190500000Y-97000000D01*
X163500000Y-109000000D02*
X177000000Y-109000000D01*
X203000000Y-84000000D02*
X206000000Y-87000000D01*
X169500000Y-94000000D02*
X172000000Y-91500000D01*
X123000000Y-119000000D02*
X128000000Y-119000000D01*
X169500000Y-94000000D02*
X183000000Y-94000000D01*
X128000000Y-107000000D02*
X131500000Y-103500000D01*
X91000000Y-94000000D02*
X105000000Y-94000000D01*
X134000000Y-123000000D02*
X126000000Y-131000000D01*
X108500000Y-84000000D02*
X122000000Y-84000000D01*
X190500000Y-97000000D02*
X204000000Y-97000000D01*
X189500000Y-84000000D02*
X203000000Y-84000000D01*
X115500000Y-94000000D02*
X129000000Y-94000000D01*
X150000000Y-97000000D02*
X152000000Y-99000000D01*
X210000000Y-94000000D02*
X212500000Y-91500000D01*
X189500000Y-84000000D02*
X192500000Y-87000000D01*
X156000000Y-94000000D02*
X169500000Y-94000000D01*
X128000000Y-119000000D02*
X141500000Y-119000000D01*
X98000000Y-130000000D02*
X97000000Y-129000000D01*
X108500000Y-84000000D02*
X111500000Y-87000000D01*
X81000000Y-109000000D02*
X96000000Y-109000000D01*
X123000000Y-119000000D02*
X123000000Y-128000000D01*
X91000000Y-103500000D02*
X94500000Y-107000000D01*
X101000000Y-129000000D02*
X100000000Y-128000000D01*
X129000000Y-94000000D02*
X142500000Y-94000000D01*
X96000000Y-109000000D02*
X98000000Y-111000000D01*
X103000000Y-107000000D02*
X114500000Y-107000000D01*
X209000000Y-107000000D02*
X212500000Y-103500000D01*
X81000000Y-97000000D02*
X96000000Y-97000000D01*
X97000000Y-125250000D02*
X97250000Y-125000000D01*
X109500000Y-109000000D02*
X111500000Y-111000000D01*
X155000000Y-119000000D02*
X168500000Y-119000000D01*
X216699000Y-94000000D02*
X216699000Y-122301000D01*
X135500000Y-84000000D02*
X138500000Y-87000000D01*
X150000000Y-97000000D02*
X163500000Y-97000000D01*
X100000000Y-125250000D02*
X99750000Y-125000000D01*
X123000000Y-109000000D02*
X125000000Y-111000000D01*
X81000000Y-111000000D02*
X81000000Y-118750000D01*
X150000000Y-109000000D02*
X152000000Y-111000000D01*
X182000000Y-119000000D02*
X195500000Y-119000000D01*
X114500000Y-107000000D02*
X128000000Y-107000000D01*
X209000000Y-107000000D02*
X215000000Y-107000000D01*
X97000000Y-129000000D02*
X97000000Y-125250000D01*
X91000000Y-115500000D02*
X91000000Y-119000000D01*
X215000000Y-107000000D02*
X215000000Y-122000000D01*
X162500000Y-84000000D02*
X165500000Y-87000000D01*
X183000000Y-94000000D02*
X185500000Y-91500000D01*
X129000000Y-94000000D02*
X131500000Y-91500000D01*
X168500000Y-119000000D02*
X182000000Y-119000000D01*
X114500000Y-107000000D02*
X118000000Y-103500000D01*
X97000000Y-131000000D02*
X94750000Y-128750000D01*
X122000000Y-84000000D02*
X135500000Y-84000000D01*
X155000000Y-107000000D02*
X168500000Y-107000000D01*
X123000000Y-109000000D02*
X136500000Y-109000000D01*
X101000000Y-119000000D02*
X104500000Y-115500000D01*
X190500000Y-109000000D02*
X204000000Y-109000000D01*
X163500000Y-97000000D02*
X177000000Y-97000000D01*
X210000000Y-94000000D02*
X216699000Y-94000000D01*
X84500000Y-99000000D02*
X81000000Y-99000000D01*
X122000000Y-84000000D02*
X125000000Y-87000000D01*
X155000000Y-119000000D02*
X158500000Y-115500000D01*
X195500000Y-107000000D02*
X199000000Y-103500000D01*
%TD*%
D17*
%TO.C,Button*%
X165500000Y-99000000D03*
X172000000Y-99000000D03*
X165500000Y-103500000D03*
X172000000Y-103500000D03*
%TD*%
%TO.C,Button*%
X138500000Y-99000000D03*
X145000000Y-99000000D03*
X138500000Y-103500000D03*
X145000000Y-103500000D03*
%TD*%
%TO.C,Button*%
X84500000Y-111000000D03*
X91000000Y-111000000D03*
X84500000Y-115500000D03*
X91000000Y-115500000D03*
%TD*%
%TO.C,Button*%
X165500000Y-87000000D03*
X172000000Y-87000000D03*
X165500000Y-91500000D03*
X172000000Y-91500000D03*
%TD*%
%TO.C,Button*%
X192500000Y-87000000D03*
X199000000Y-87000000D03*
X192500000Y-91500000D03*
X199000000Y-91500000D03*
%TD*%
%TO.C,Button*%
X165500000Y-111000000D03*
X172000000Y-111000000D03*
X165500000Y-115500000D03*
X172000000Y-115500000D03*
%TD*%
%TO.C,Button*%
X206000000Y-99000000D03*
X212500000Y-99000000D03*
X206000000Y-103500000D03*
X212500000Y-103500000D03*
%TD*%
%TO.C,Button*%
X152000000Y-111000000D03*
X158500000Y-111000000D03*
X152000000Y-115500000D03*
X158500000Y-115500000D03*
%TD*%
%TO.C,Button*%
X84500000Y-87000000D03*
X91000000Y-87000000D03*
X84500000Y-91500000D03*
X91000000Y-91500000D03*
%TD*%
%TO.C,Button*%
X192500000Y-111000000D03*
X199000000Y-111000000D03*
X192500000Y-115500000D03*
X199000000Y-115500000D03*
%TD*%
%TO.C,Button*%
X179000000Y-111000000D03*
X185500000Y-111000000D03*
X179000000Y-115500000D03*
X185500000Y-115500000D03*
%TD*%
%TO.C,Button*%
X125000000Y-99000000D03*
X131500000Y-99000000D03*
X125000000Y-103500000D03*
X131500000Y-103500000D03*
%TD*%
%TO.C,Button*%
X98000000Y-111000000D03*
X104500000Y-111000000D03*
X98000000Y-115500000D03*
X104500000Y-115500000D03*
%TD*%
%TO.C,Button*%
X125000000Y-87000000D03*
X131500000Y-87000000D03*
X125000000Y-91500000D03*
X131500000Y-91500000D03*
%TD*%
%TO.C,Button*%
X179000000Y-99000000D03*
X185500000Y-99000000D03*
X179000000Y-103500000D03*
X185500000Y-103500000D03*
%TD*%
%TO.C,Button*%
X98000000Y-87000000D03*
X104500000Y-87000000D03*
X98000000Y-91500000D03*
X104500000Y-91500000D03*
%TD*%
%TO.C,Button*%
X206000000Y-111000000D03*
X212500000Y-111000000D03*
X206000000Y-115500000D03*
X212500000Y-115500000D03*
%TD*%
%TO.C,Button*%
X206000000Y-87000000D03*
X212500000Y-87000000D03*
X206000000Y-91500000D03*
X212500000Y-91500000D03*
%TD*%
%TO.C,Button*%
X192500000Y-99000000D03*
X199000000Y-99000000D03*
X192500000Y-103500000D03*
X199000000Y-103500000D03*
%TD*%
%TO.C,Button*%
X84500000Y-99000000D03*
X91000000Y-99000000D03*
X84500000Y-103500000D03*
X91000000Y-103500000D03*
%TD*%
%TO.C,Button*%
X152000000Y-99000000D03*
X158500000Y-99000000D03*
X152000000Y-103500000D03*
X158500000Y-103500000D03*
%TD*%
%TO.C,Button*%
X138500000Y-111000000D03*
X145000000Y-111000000D03*
X138500000Y-115500000D03*
X145000000Y-115500000D03*
%TD*%
%TO.C,Button*%
X125000000Y-111000000D03*
X131500000Y-111000000D03*
X125000000Y-115500000D03*
X131500000Y-115500000D03*
%TD*%
%TO.C,Button*%
X111500000Y-99000000D03*
X118000000Y-99000000D03*
X111500000Y-103500000D03*
X118000000Y-103500000D03*
%TD*%
%TO.C,Button*%
X138500000Y-87000000D03*
X145000000Y-87000000D03*
X138500000Y-91500000D03*
X145000000Y-91500000D03*
%TD*%
%TO.C,Button*%
X179000000Y-87000000D03*
X185500000Y-87000000D03*
X179000000Y-91500000D03*
X185500000Y-91500000D03*
%TD*%
%TO.C,Button*%
X152000000Y-87000000D03*
X158500000Y-87000000D03*
X152000000Y-91500000D03*
X158500000Y-91500000D03*
%TD*%
%TO.C,Button*%
X98000000Y-99000000D03*
X104500000Y-99000000D03*
X98000000Y-103500000D03*
X104500000Y-103500000D03*
%TD*%
%TO.C,Button*%
X111500000Y-111000000D03*
X118000000Y-111000000D03*
X111500000Y-115500000D03*
X118000000Y-115500000D03*
%TD*%
%TO.C,Button*%
X111500000Y-87000000D03*
X118000000Y-87000000D03*
X111500000Y-91500000D03*
X118000000Y-91500000D03*
%TD*%
D18*
%TO.C,PinHeader*%
X84420000Y-122710000D03*
D19*
X84420000Y-125250000D03*
X86960000Y-122710000D03*
X86960000Y-125250000D03*
X89500000Y-122710000D03*
X89500000Y-125250000D03*
X92040000Y-122710000D03*
X92040000Y-125250000D03*
X94580000Y-122710000D03*
X94580000Y-125250000D03*
X97120000Y-122710000D03*
X97120000Y-125250000D03*
X99660000Y-122710000D03*
X99660000Y-125250000D03*
%TD*%
D20*
%TO.C,Button*%
X165250000Y-100500000D02*
X165250000Y-102000000D01*
X166500000Y-104500000D02*
X171000000Y-104500000D01*
X171000000Y-98000000D02*
X166500000Y-98000000D01*
X172250000Y-102000000D02*
X172250000Y-100500000D01*
X138250000Y-100500000D02*
X138250000Y-102000000D01*
X139500000Y-104500000D02*
X144000000Y-104500000D01*
X144000000Y-98000000D02*
X139500000Y-98000000D01*
X145250000Y-102000000D02*
X145250000Y-100500000D01*
X84250000Y-112500000D02*
X84250000Y-114000000D01*
X85500000Y-116500000D02*
X90000000Y-116500000D01*
X90000000Y-110000000D02*
X85500000Y-110000000D01*
X91250000Y-114000000D02*
X91250000Y-112500000D01*
X165250000Y-88500000D02*
X165250000Y-90000000D01*
X166500000Y-92500000D02*
X171000000Y-92500000D01*
X171000000Y-86000000D02*
X166500000Y-86000000D01*
X172250000Y-90000000D02*
X172250000Y-88500000D01*
X192250000Y-88500000D02*
X192250000Y-90000000D01*
X193500000Y-92500000D02*
X198000000Y-92500000D01*
X198000000Y-86000000D02*
X193500000Y-86000000D01*
X199250000Y-90000000D02*
X199250000Y-88500000D01*
X165250000Y-112500000D02*
X165250000Y-114000000D01*
X166500000Y-116500000D02*
X171000000Y-116500000D01*
X171000000Y-110000000D02*
X166500000Y-110000000D01*
X172250000Y-114000000D02*
X172250000Y-112500000D01*
X205750000Y-100500000D02*
X205750000Y-102000000D01*
X207000000Y-104500000D02*
X211500000Y-104500000D01*
X211500000Y-98000000D02*
X207000000Y-98000000D01*
X212750000Y-102000000D02*
X212750000Y-100500000D01*
X151750000Y-112500000D02*
X151750000Y-114000000D01*
X153000000Y-116500000D02*
X157500000Y-116500000D01*
X157500000Y-110000000D02*
X153000000Y-110000000D01*
X158750000Y-114000000D02*
X158750000Y-112500000D01*
X84250000Y-88500000D02*
X84250000Y-90000000D01*
X85500000Y-92500000D02*
X90000000Y-92500000D01*
X90000000Y-86000000D02*
X85500000Y-86000000D01*
X91250000Y-90000000D02*
X91250000Y-88500000D01*
X192250000Y-112500000D02*
X192250000Y-114000000D01*
X193500000Y-116500000D02*
X198000000Y-116500000D01*
X198000000Y-110000000D02*
X193500000Y-110000000D01*
X199250000Y-114000000D02*
X199250000Y-112500000D01*
X178750000Y-112500000D02*
X178750000Y-114000000D01*
X180000000Y-116500000D02*
X184500000Y-116500000D01*
X184500000Y-110000000D02*
X180000000Y-110000000D01*
X185750000Y-114000000D02*
X185750000Y-112500000D01*
X124750000Y-100500000D02*
X124750000Y-102000000D01*
X126000000Y-104500000D02*
X130500000Y-104500000D01*
X130500000Y-98000000D02*
X126000000Y-98000000D01*
X131750000Y-102000000D02*
X131750000Y-100500000D01*
X97750000Y-112500000D02*
X97750000Y-114000000D01*
X99000000Y-116500000D02*
X103500000Y-116500000D01*
X103500000Y-110000000D02*
X99000000Y-110000000D01*
X104750000Y-114000000D02*
X104750000Y-112500000D01*
X124750000Y-88500000D02*
X124750000Y-90000000D01*
X126000000Y-92500000D02*
X130500000Y-92500000D01*
X130500000Y-86000000D02*
X126000000Y-86000000D01*
X131750000Y-90000000D02*
X131750000Y-88500000D01*
X178750000Y-100500000D02*
X178750000Y-102000000D01*
X180000000Y-104500000D02*
X184500000Y-104500000D01*
X184500000Y-98000000D02*
X180000000Y-98000000D01*
X185750000Y-102000000D02*
X185750000Y-100500000D01*
X97750000Y-88500000D02*
X97750000Y-90000000D01*
X99000000Y-92500000D02*
X103500000Y-92500000D01*
X103500000Y-86000000D02*
X99000000Y-86000000D01*
X104750000Y-90000000D02*
X104750000Y-88500000D01*
X205750000Y-112500000D02*
X205750000Y-114000000D01*
X207000000Y-116500000D02*
X211500000Y-116500000D01*
X211500000Y-110000000D02*
X207000000Y-110000000D01*
X212750000Y-114000000D02*
X212750000Y-112500000D01*
X205750000Y-88500000D02*
X205750000Y-90000000D01*
X207000000Y-92500000D02*
X211500000Y-92500000D01*
X211500000Y-86000000D02*
X207000000Y-86000000D01*
X212750000Y-90000000D02*
X212750000Y-88500000D01*
X192250000Y-100500000D02*
X192250000Y-102000000D01*
X193500000Y-104500000D02*
X198000000Y-104500000D01*
X198000000Y-98000000D02*
X193500000Y-98000000D01*
X199250000Y-102000000D02*
X199250000Y-100500000D01*
X84250000Y-100500000D02*
X84250000Y-102000000D01*
X85500000Y-104500000D02*
X90000000Y-104500000D01*
X90000000Y-98000000D02*
X85500000Y-98000000D01*
X91250000Y-102000000D02*
X91250000Y-100500000D01*
X151750000Y-100500000D02*
X151750000Y-102000000D01*
X153000000Y-104500000D02*
X157500000Y-104500000D01*
X157500000Y-98000000D02*
X153000000Y-98000000D01*
X158750000Y-102000000D02*
X158750000Y-100500000D01*
X138250000Y-112500000D02*
X138250000Y-114000000D01*
X139500000Y-116500000D02*
X144000000Y-116500000D01*
X144000000Y-110000000D02*
X139500000Y-110000000D01*
X145250000Y-114000000D02*
X145250000Y-112500000D01*
X124750000Y-112500000D02*
X124750000Y-114000000D01*
X126000000Y-116500000D02*
X130500000Y-116500000D01*
X130500000Y-110000000D02*
X126000000Y-110000000D01*
X131750000Y-114000000D02*
X131750000Y-112500000D01*
X111250000Y-100500000D02*
X111250000Y-102000000D01*
X112500000Y-104500000D02*
X117000000Y-104500000D01*
X117000000Y-98000000D02*
X112500000Y-98000000D01*
X118250000Y-102000000D02*
X118250000Y-100500000D01*
X138250000Y-88500000D02*
X138250000Y-90000000D01*
X139500000Y-92500000D02*
X144000000Y-92500000D01*
X144000000Y-86000000D02*
X139500000Y-86000000D01*
X145250000Y-90000000D02*
X145250000Y-88500000D01*
X178750000Y-88500000D02*
X178750000Y-90000000D01*
X180000000Y-92500000D02*
X184500000Y-92500000D01*
X184500000Y-86000000D02*
X180000000Y-86000000D01*
X185750000Y-90000000D02*
X185750000Y-88500000D01*
X151750000Y-88500000D02*
X151750000Y-90000000D01*
X153000000Y-92500000D02*
X157500000Y-92500000D01*
X157500000Y-86000000D02*
X153000000Y-86000000D01*
X158750000Y-90000000D02*
X158750000Y-88500000D01*
X97750000Y-100500000D02*
X97750000Y-102000000D01*
X99000000Y-104500000D02*
X103500000Y-104500000D01*
X103500000Y-98000000D02*
X99000000Y-98000000D01*
X104750000Y-102000000D02*
X104750000Y-100500000D01*
X111250000Y-112500000D02*
X111250000Y-114000000D01*
X112500000Y-116500000D02*
X117000000Y-116500000D01*
X117000000Y-110000000D02*
X112500000Y-110000000D01*
X118250000Y-114000000D02*
X118250000Y-112500000D01*
X111250000Y-88500000D02*
X111250000Y-90000000D01*
X112500000Y-92500000D02*
X117000000Y-92500000D01*
X117000000Y-86000000D02*
X112500000Y-86000000D01*
X118250000Y-90000000D02*
X118250000Y-88500000D01*
%TD*%
D23*
X107715131Y-124905233D02*
X108081797Y-124438566D01*
X107715131Y-124438566D02*
X108081797Y-124905233D01*
X108315131Y-124271900D02*
X108348464Y-124238566D01*
X108348464Y-124238566D02*
X108415131Y-124205233D01*
X108415131Y-124205233D02*
X108581798Y-124205233D01*
X108581798Y-124205233D02*
X108648464Y-124238566D01*
X108648464Y-124238566D02*
X108681798Y-124271900D01*
X108681798Y-124271900D02*
X108715131Y-124338566D01*
X108715131Y-124338566D02*
X108715131Y-124405233D01*
X108715131Y-124405233D02*
X108681798Y-124505233D01*
X108681798Y-124505233D02*
X108281798Y-124905233D01*
X108281798Y-124905233D02*
X108715131Y-124905233D01*
X117715131Y-124905233D02*
X118081797Y-124438566D01*
X117715131Y-124438566D02*
X118081797Y-124905233D01*
X118648464Y-124205233D02*
X118515131Y-124205233D01*
X118515131Y-124205233D02*
X118448464Y-124238566D01*
X118448464Y-124238566D02*
X118415131Y-124271900D01*
X118415131Y-124271900D02*
X118348464Y-124371900D01*
X118348464Y-124371900D02*
X118315131Y-124505233D01*
X118315131Y-124505233D02*
X118315131Y-124771900D01*
X118315131Y-124771900D02*
X118348464Y-124838566D01*
X118348464Y-124838566D02*
X118381798Y-124871900D01*
X118381798Y-124871900D02*
X118448464Y-124905233D01*
X118448464Y-124905233D02*
X118581798Y-124905233D01*
X118581798Y-124905233D02*
X118648464Y-124871900D01*
X118648464Y-124871900D02*
X118681798Y-124838566D01*
X118681798Y-124838566D02*
X118715131Y-124771900D01*
X118715131Y-124771900D02*
X118715131Y-124605233D01*
X118715131Y-124605233D02*
X118681798Y-124538566D01*
X118681798Y-124538566D02*
X118648464Y-124505233D01*
X118648464Y-124505233D02*
X118581798Y-124471900D01*
X118581798Y-124471900D02*
X118448464Y-124471900D01*
X118448464Y-124471900D02*
X118381798Y-124505233D01*
X118381798Y-124505233D02*
X118348464Y-124538566D01*
X118348464Y-124538566D02*
X118315131Y-124605233D01*
X103031797Y-124638566D02*
X103565131Y-124638566D01*
X115215131Y-125688566D02*
X115381797Y-126155233D01*
X115548464Y-125688566D02*
X115381797Y-126155233D01*
X115381797Y-126155233D02*
X115315131Y-126321900D01*
X115315131Y-126321900D02*
X115281797Y-126355233D01*
X115281797Y-126355233D02*
X115215131Y-126388566D01*
X115781797Y-125521900D02*
X115815130Y-125488566D01*
X115815130Y-125488566D02*
X115881797Y-125455233D01*
X115881797Y-125455233D02*
X116048464Y-125455233D01*
X116048464Y-125455233D02*
X116115130Y-125488566D01*
X116115130Y-125488566D02*
X116148464Y-125521900D01*
X116148464Y-125521900D02*
X116181797Y-125588566D01*
X116181797Y-125588566D02*
X116181797Y-125655233D01*
X116181797Y-125655233D02*
X116148464Y-125755233D01*
X116148464Y-125755233D02*
X115748464Y-126155233D01*
X115748464Y-126155233D02*
X116181797Y-126155233D01*
X102715131Y-126155233D02*
X103081797Y-125688566D01*
X102715131Y-125688566D02*
X103081797Y-126155233D01*
X103715131Y-126155233D02*
X103315131Y-126155233D01*
X103515131Y-126155233D02*
X103515131Y-125455233D01*
X103515131Y-125455233D02*
X103448464Y-125555233D01*
X103448464Y-125555233D02*
X103381798Y-125621900D01*
X103381798Y-125621900D02*
X103315131Y-125655233D01*
X104148465Y-125455233D02*
X104215131Y-125455233D01*
X104215131Y-125455233D02*
X104281798Y-125488566D01*
X104281798Y-125488566D02*
X104315131Y-125521900D01*
X104315131Y-125521900D02*
X104348465Y-125588566D01*
X104348465Y-125588566D02*
X104381798Y-125721900D01*
X104381798Y-125721900D02*
X104381798Y-125888566D01*
X104381798Y-125888566D02*
X104348465Y-126021900D01*
X104348465Y-126021900D02*
X104315131Y-126088566D01*
X104315131Y-126088566D02*
X104281798Y-126121900D01*
X104281798Y-126121900D02*
X104215131Y-126155233D01*
X104215131Y-126155233D02*
X104148465Y-126155233D01*
X104148465Y-126155233D02*
X104081798Y-126121900D01*
X104081798Y-126121900D02*
X104048465Y-126088566D01*
X104048465Y-126088566D02*
X104015131Y-126021900D01*
X104015131Y-126021900D02*
X103981798Y-125888566D01*
X103981798Y-125888566D02*
X103981798Y-125721900D01*
X103981798Y-125721900D02*
X104015131Y-125588566D01*
X104015131Y-125588566D02*
X104048465Y-125521900D01*
X104048465Y-125521900D02*
X104081798Y-125488566D01*
X104081798Y-125488566D02*
X104148465Y-125455233D01*
X112715131Y-124905233D02*
X113081797Y-124438566D01*
X112715131Y-124438566D02*
X113081797Y-124905233D01*
X113648464Y-124438566D02*
X113648464Y-124905233D01*
X113481798Y-124171900D02*
X113315131Y-124671900D01*
X113315131Y-124671900D02*
X113748464Y-124671900D01*
X105215131Y-124905233D02*
X105581797Y-124438566D01*
X105215131Y-124438566D02*
X105581797Y-124905233D01*
X106215131Y-124905233D02*
X105815131Y-124905233D01*
X106015131Y-124905233D02*
X106015131Y-124205233D01*
X106015131Y-124205233D02*
X105948464Y-124305233D01*
X105948464Y-124305233D02*
X105881798Y-124371900D01*
X105881798Y-124371900D02*
X105815131Y-124405233D01*
X105215131Y-126155233D02*
X105581797Y-125688566D01*
X105215131Y-125688566D02*
X105581797Y-126155233D01*
X105881798Y-126155233D02*
X106015131Y-126155233D01*
X106015131Y-126155233D02*
X106081798Y-126121900D01*
X106081798Y-126121900D02*
X106115131Y-126088566D01*
X106115131Y-126088566D02*
X106181798Y-125988566D01*
X106181798Y-125988566D02*
X106215131Y-125855233D01*
X106215131Y-125855233D02*
X106215131Y-125588566D01*
X106215131Y-125588566D02*
X106181798Y-125521900D01*
X106181798Y-125521900D02*
X106148464Y-125488566D01*
X106148464Y-125488566D02*
X106081798Y-125455233D01*
X106081798Y-125455233D02*
X105948464Y-125455233D01*
X105948464Y-125455233D02*
X105881798Y-125488566D01*
X105881798Y-125488566D02*
X105848464Y-125521900D01*
X105848464Y-125521900D02*
X105815131Y-125588566D01*
X105815131Y-125588566D02*
X105815131Y-125755233D01*
X105815131Y-125755233D02*
X105848464Y-125821900D01*
X105848464Y-125821900D02*
X105881798Y-125855233D01*
X105881798Y-125855233D02*
X105948464Y-125888566D01*
X105948464Y-125888566D02*
X106081798Y-125888566D01*
X106081798Y-125888566D02*
X106148464Y-125855233D01*
X106148464Y-125855233D02*
X106181798Y-125821900D01*
X106181798Y-125821900D02*
X106215131Y-125755233D01*
X115215131Y-124905233D02*
X115581797Y-124438566D01*
X115215131Y-124438566D02*
X115581797Y-124905233D01*
X116181798Y-124205233D02*
X115848464Y-124205233D01*
X115848464Y-124205233D02*
X115815131Y-124538566D01*
X115815131Y-124538566D02*
X115848464Y-124505233D01*
X115848464Y-124505233D02*
X115915131Y-124471900D01*
X115915131Y-124471900D02*
X116081798Y-124471900D01*
X116081798Y-124471900D02*
X116148464Y-124505233D01*
X116148464Y-124505233D02*
X116181798Y-124538566D01*
X116181798Y-124538566D02*
X116215131Y-124605233D01*
X116215131Y-124605233D02*
X116215131Y-124771900D01*
X116215131Y-124771900D02*
X116181798Y-124838566D01*
X116181798Y-124838566D02*
X116148464Y-124871900D01*
X116148464Y-124871900D02*
X116081798Y-124905233D01*
X116081798Y-124905233D02*
X115915131Y-124905233D01*
X115915131Y-124905233D02*
X115848464Y-124871900D01*
X115848464Y-124871900D02*
X115815131Y-124838566D01*
X112715131Y-125688566D02*
X112881797Y-126155233D01*
X113048464Y-125688566D02*
X112881797Y-126155233D01*
X112881797Y-126155233D02*
X112815131Y-126321900D01*
X112815131Y-126321900D02*
X112781797Y-126355233D01*
X112781797Y-126355233D02*
X112715131Y-126388566D01*
X113681797Y-126155233D02*
X113281797Y-126155233D01*
X113481797Y-126155233D02*
X113481797Y-125455233D01*
X113481797Y-125455233D02*
X113415130Y-125555233D01*
X113415130Y-125555233D02*
X113348464Y-125621900D01*
X113348464Y-125621900D02*
X113281797Y-125655233D01*
X110215131Y-124905233D02*
X110581797Y-124438566D01*
X110215131Y-124438566D02*
X110581797Y-124905233D01*
X110781798Y-124205233D02*
X111215131Y-124205233D01*
X111215131Y-124205233D02*
X110981798Y-124471900D01*
X110981798Y-124471900D02*
X111081798Y-124471900D01*
X111081798Y-124471900D02*
X111148464Y-124505233D01*
X111148464Y-124505233D02*
X111181798Y-124538566D01*
X111181798Y-124538566D02*
X111215131Y-124605233D01*
X111215131Y-124605233D02*
X111215131Y-124771900D01*
X111215131Y-124771900D02*
X111181798Y-124838566D01*
X111181798Y-124838566D02*
X111148464Y-124871900D01*
X111148464Y-124871900D02*
X111081798Y-124905233D01*
X111081798Y-124905233D02*
X110881798Y-124905233D01*
X110881798Y-124905233D02*
X110815131Y-124871900D01*
X110815131Y-124871900D02*
X110781798Y-124838566D01*
X107715131Y-126155233D02*
X108081797Y-125688566D01*
X107715131Y-125688566D02*
X108081797Y-126155233D01*
X108448464Y-125755233D02*
X108381798Y-125721900D01*
X108381798Y-125721900D02*
X108348464Y-125688566D01*
X108348464Y-125688566D02*
X108315131Y-125621900D01*
X108315131Y-125621900D02*
X108315131Y-125588566D01*
X108315131Y-125588566D02*
X108348464Y-125521900D01*
X108348464Y-125521900D02*
X108381798Y-125488566D01*
X108381798Y-125488566D02*
X108448464Y-125455233D01*
X108448464Y-125455233D02*
X108581798Y-125455233D01*
X108581798Y-125455233D02*
X108648464Y-125488566D01*
X108648464Y-125488566D02*
X108681798Y-125521900D01*
X108681798Y-125521900D02*
X108715131Y-125588566D01*
X108715131Y-125588566D02*
X108715131Y-125621900D01*
X108715131Y-125621900D02*
X108681798Y-125688566D01*
X108681798Y-125688566D02*
X108648464Y-125721900D01*
X108648464Y-125721900D02*
X108581798Y-125755233D01*
X108581798Y-125755233D02*
X108448464Y-125755233D01*
X108448464Y-125755233D02*
X108381798Y-125788566D01*
X108381798Y-125788566D02*
X108348464Y-125821900D01*
X108348464Y-125821900D02*
X108315131Y-125888566D01*
X108315131Y-125888566D02*
X108315131Y-126021900D01*
X108315131Y-126021900D02*
X108348464Y-126088566D01*
X108348464Y-126088566D02*
X108381798Y-126121900D01*
X108381798Y-126121900D02*
X108448464Y-126155233D01*
X108448464Y-126155233D02*
X108581798Y-126155233D01*
X108581798Y-126155233D02*
X108648464Y-126121900D01*
X108648464Y-126121900D02*
X108681798Y-126088566D01*
X108681798Y-126088566D02*
X108715131Y-126021900D01*
X108715131Y-126021900D02*
X108715131Y-125888566D01*
X108715131Y-125888566D02*
X108681798Y-125821900D01*
X108681798Y-125821900D02*
X108648464Y-125788566D01*
X108648464Y-125788566D02*
X108581798Y-125755233D01*
X117715131Y-125688566D02*
X117881797Y-126155233D01*
X118048464Y-125688566D02*
X117881797Y-126155233D01*
X117881797Y-126155233D02*
X117815131Y-126321900D01*
X117815131Y-126321900D02*
X117781797Y-126355233D01*
X117781797Y-126355233D02*
X117715131Y-126388566D01*
X118248464Y-125455233D02*
X118681797Y-125455233D01*
X118681797Y-125455233D02*
X118448464Y-125721900D01*
X118448464Y-125721900D02*
X118548464Y-125721900D01*
X118548464Y-125721900D02*
X118615130Y-125755233D01*
X118615130Y-125755233D02*
X118648464Y-125788566D01*
X118648464Y-125788566D02*
X118681797Y-125855233D01*
X118681797Y-125855233D02*
X118681797Y-126021900D01*
X118681797Y-126021900D02*
X118648464Y-126088566D01*
X118648464Y-126088566D02*
X118615130Y-126121900D01*
X118615130Y-126121900D02*
X118548464Y-126155233D01*
X118548464Y-126155233D02*
X118348464Y-126155233D01*
X118348464Y-126155233D02*
X118281797Y-126121900D01*
X118281797Y-126121900D02*
X118248464Y-126088566D01*
X110215131Y-126155233D02*
X110581797Y-125688566D01*
X110215131Y-125688566D02*
X110581797Y-126155233D01*
X110781798Y-125455233D02*
X111248464Y-125455233D01*
X111248464Y-125455233D02*
X110948464Y-126155233D01*
D21*
%TO.C,Button*%
X164000000Y-97500000D02*
X164250000Y-97500000D01*
X164000000Y-97750000D02*
X164000000Y-97500000D01*
X164000000Y-104750000D02*
X164000000Y-97750000D01*
X164000000Y-104750000D02*
X164000000Y-105000000D01*
X164000000Y-105000000D02*
X164250000Y-105000000D01*
X164250000Y-97500000D02*
X173250000Y-97500000D01*
X173250000Y-97500000D02*
X173500000Y-97500000D01*
X173250000Y-105000000D02*
X164250000Y-105000000D01*
X173250000Y-105000000D02*
X173500000Y-105000000D01*
X173500000Y-97500000D02*
X173500000Y-97750000D01*
X173500000Y-97750000D02*
X173500000Y-104750000D01*
X173500000Y-105000000D02*
X173500000Y-104750000D01*
X137000000Y-97500000D02*
X137250000Y-97500000D01*
X137000000Y-97750000D02*
X137000000Y-97500000D01*
X137000000Y-104750000D02*
X137000000Y-97750000D01*
X137000000Y-104750000D02*
X137000000Y-105000000D01*
X137000000Y-105000000D02*
X137250000Y-105000000D01*
X137250000Y-97500000D02*
X146250000Y-97500000D01*
X146250000Y-97500000D02*
X146500000Y-97500000D01*
X146250000Y-105000000D02*
X137250000Y-105000000D01*
X146250000Y-105000000D02*
X146500000Y-105000000D01*
X146500000Y-97500000D02*
X146500000Y-97750000D01*
X146500000Y-97750000D02*
X146500000Y-104750000D01*
X146500000Y-105000000D02*
X146500000Y-104750000D01*
X83000000Y-109500000D02*
X83250000Y-109500000D01*
X83000000Y-109750000D02*
X83000000Y-109500000D01*
X83000000Y-116750000D02*
X83000000Y-109750000D01*
X83000000Y-116750000D02*
X83000000Y-117000000D01*
X83000000Y-117000000D02*
X83250000Y-117000000D01*
X83250000Y-109500000D02*
X92250000Y-109500000D01*
X92250000Y-109500000D02*
X92500000Y-109500000D01*
X92250000Y-117000000D02*
X83250000Y-117000000D01*
X92250000Y-117000000D02*
X92500000Y-117000000D01*
X92500000Y-109500000D02*
X92500000Y-109750000D01*
X92500000Y-109750000D02*
X92500000Y-116750000D01*
X92500000Y-117000000D02*
X92500000Y-116750000D01*
X164000000Y-85500000D02*
X164250000Y-85500000D01*
X164000000Y-85750000D02*
X164000000Y-85500000D01*
X164000000Y-92750000D02*
X164000000Y-85750000D01*
X164000000Y-92750000D02*
X164000000Y-93000000D01*
X164000000Y-93000000D02*
X164250000Y-93000000D01*
X164250000Y-85500000D02*
X173250000Y-85500000D01*
X173250000Y-85500000D02*
X173500000Y-85500000D01*
X173250000Y-93000000D02*
X164250000Y-93000000D01*
X173250000Y-93000000D02*
X173500000Y-93000000D01*
X173500000Y-85500000D02*
X173500000Y-85750000D01*
X173500000Y-85750000D02*
X173500000Y-92750000D01*
X173500000Y-93000000D02*
X173500000Y-92750000D01*
X191000000Y-85500000D02*
X191250000Y-85500000D01*
X191000000Y-85750000D02*
X191000000Y-85500000D01*
X191000000Y-92750000D02*
X191000000Y-85750000D01*
X191000000Y-92750000D02*
X191000000Y-93000000D01*
X191000000Y-93000000D02*
X191250000Y-93000000D01*
X191250000Y-85500000D02*
X200250000Y-85500000D01*
X200250000Y-85500000D02*
X200500000Y-85500000D01*
X200250000Y-93000000D02*
X191250000Y-93000000D01*
X200250000Y-93000000D02*
X200500000Y-93000000D01*
X200500000Y-85500000D02*
X200500000Y-85750000D01*
X200500000Y-85750000D02*
X200500000Y-92750000D01*
X200500000Y-93000000D02*
X200500000Y-92750000D01*
X164000000Y-109500000D02*
X164250000Y-109500000D01*
X164000000Y-109750000D02*
X164000000Y-109500000D01*
X164000000Y-116750000D02*
X164000000Y-109750000D01*
X164000000Y-116750000D02*
X164000000Y-117000000D01*
X164000000Y-117000000D02*
X164250000Y-117000000D01*
X164250000Y-109500000D02*
X173250000Y-109500000D01*
X173250000Y-109500000D02*
X173500000Y-109500000D01*
X173250000Y-117000000D02*
X164250000Y-117000000D01*
X173250000Y-117000000D02*
X173500000Y-117000000D01*
X173500000Y-109500000D02*
X173500000Y-109750000D01*
X173500000Y-109750000D02*
X173500000Y-116750000D01*
X173500000Y-117000000D02*
X173500000Y-116750000D01*
X204500000Y-97500000D02*
X204750000Y-97500000D01*
X204500000Y-97750000D02*
X204500000Y-97500000D01*
X204500000Y-104750000D02*
X204500000Y-97750000D01*
X204500000Y-104750000D02*
X204500000Y-105000000D01*
X204500000Y-105000000D02*
X204750000Y-105000000D01*
X204750000Y-97500000D02*
X213750000Y-97500000D01*
X213750000Y-97500000D02*
X214000000Y-97500000D01*
X213750000Y-105000000D02*
X204750000Y-105000000D01*
X213750000Y-105000000D02*
X214000000Y-105000000D01*
X214000000Y-97500000D02*
X214000000Y-97750000D01*
X214000000Y-97750000D02*
X214000000Y-104750000D01*
X214000000Y-105000000D02*
X214000000Y-104750000D01*
X150500000Y-109500000D02*
X150750000Y-109500000D01*
X150500000Y-109750000D02*
X150500000Y-109500000D01*
X150500000Y-116750000D02*
X150500000Y-109750000D01*
X150500000Y-116750000D02*
X150500000Y-117000000D01*
X150500000Y-117000000D02*
X150750000Y-117000000D01*
X150750000Y-109500000D02*
X159750000Y-109500000D01*
X159750000Y-109500000D02*
X160000000Y-109500000D01*
X159750000Y-117000000D02*
X150750000Y-117000000D01*
X159750000Y-117000000D02*
X160000000Y-117000000D01*
X160000000Y-109500000D02*
X160000000Y-109750000D01*
X160000000Y-109750000D02*
X160000000Y-116750000D01*
X160000000Y-117000000D02*
X160000000Y-116750000D01*
X83000000Y-85500000D02*
X83250000Y-85500000D01*
X83000000Y-85750000D02*
X83000000Y-85500000D01*
X83000000Y-92750000D02*
X83000000Y-85750000D01*
X83000000Y-92750000D02*
X83000000Y-93000000D01*
X83000000Y-93000000D02*
X83250000Y-93000000D01*
X83250000Y-85500000D02*
X92250000Y-85500000D01*
X92250000Y-85500000D02*
X92500000Y-85500000D01*
X92250000Y-93000000D02*
X83250000Y-93000000D01*
X92250000Y-93000000D02*
X92500000Y-93000000D01*
X92500000Y-85500000D02*
X92500000Y-85750000D01*
X92500000Y-85750000D02*
X92500000Y-92750000D01*
X92500000Y-93000000D02*
X92500000Y-92750000D01*
X191000000Y-109500000D02*
X191250000Y-109500000D01*
X191000000Y-109750000D02*
X191000000Y-109500000D01*
X191000000Y-116750000D02*
X191000000Y-109750000D01*
X191000000Y-116750000D02*
X191000000Y-117000000D01*
X191000000Y-117000000D02*
X191250000Y-117000000D01*
X191250000Y-109500000D02*
X200250000Y-109500000D01*
X200250000Y-109500000D02*
X200500000Y-109500000D01*
X200250000Y-117000000D02*
X191250000Y-117000000D01*
X200250000Y-117000000D02*
X200500000Y-117000000D01*
X200500000Y-109500000D02*
X200500000Y-109750000D01*
X200500000Y-109750000D02*
X200500000Y-116750000D01*
X200500000Y-117000000D02*
X200500000Y-116750000D01*
X177500000Y-109500000D02*
X177750000Y-109500000D01*
X177500000Y-109750000D02*
X177500000Y-109500000D01*
X177500000Y-116750000D02*
X177500000Y-109750000D01*
X177500000Y-116750000D02*
X177500000Y-117000000D01*
X177500000Y-117000000D02*
X177750000Y-117000000D01*
X177750000Y-109500000D02*
X186750000Y-109500000D01*
X186750000Y-109500000D02*
X187000000Y-109500000D01*
X186750000Y-117000000D02*
X177750000Y-117000000D01*
X186750000Y-117000000D02*
X187000000Y-117000000D01*
X187000000Y-109500000D02*
X187000000Y-109750000D01*
X187000000Y-109750000D02*
X187000000Y-116750000D01*
X187000000Y-117000000D02*
X187000000Y-116750000D01*
X123500000Y-97500000D02*
X123750000Y-97500000D01*
X123500000Y-97750000D02*
X123500000Y-97500000D01*
X123500000Y-104750000D02*
X123500000Y-97750000D01*
X123500000Y-104750000D02*
X123500000Y-105000000D01*
X123500000Y-105000000D02*
X123750000Y-105000000D01*
X123750000Y-97500000D02*
X132750000Y-97500000D01*
X132750000Y-97500000D02*
X133000000Y-97500000D01*
X132750000Y-105000000D02*
X123750000Y-105000000D01*
X132750000Y-105000000D02*
X133000000Y-105000000D01*
X133000000Y-97500000D02*
X133000000Y-97750000D01*
X133000000Y-97750000D02*
X133000000Y-104750000D01*
X133000000Y-105000000D02*
X133000000Y-104750000D01*
X96500000Y-109500000D02*
X96750000Y-109500000D01*
X96500000Y-109750000D02*
X96500000Y-109500000D01*
X96500000Y-116750000D02*
X96500000Y-109750000D01*
X96500000Y-116750000D02*
X96500000Y-117000000D01*
X96500000Y-117000000D02*
X96750000Y-117000000D01*
X96750000Y-109500000D02*
X105750000Y-109500000D01*
X105750000Y-109500000D02*
X106000000Y-109500000D01*
X105750000Y-117000000D02*
X96750000Y-117000000D01*
X105750000Y-117000000D02*
X106000000Y-117000000D01*
X106000000Y-109500000D02*
X106000000Y-109750000D01*
X106000000Y-109750000D02*
X106000000Y-116750000D01*
X106000000Y-117000000D02*
X106000000Y-116750000D01*
X123500000Y-85500000D02*
X123750000Y-85500000D01*
X123500000Y-85750000D02*
X123500000Y-85500000D01*
X123500000Y-92750000D02*
X123500000Y-85750000D01*
X123500000Y-92750000D02*
X123500000Y-93000000D01*
X123500000Y-93000000D02*
X123750000Y-93000000D01*
X123750000Y-85500000D02*
X132750000Y-85500000D01*
X132750000Y-85500000D02*
X133000000Y-85500000D01*
X132750000Y-93000000D02*
X123750000Y-93000000D01*
X132750000Y-93000000D02*
X133000000Y-93000000D01*
X133000000Y-85500000D02*
X133000000Y-85750000D01*
X133000000Y-85750000D02*
X133000000Y-92750000D01*
X133000000Y-93000000D02*
X133000000Y-92750000D01*
X177500000Y-97500000D02*
X177750000Y-97500000D01*
X177500000Y-97750000D02*
X177500000Y-97500000D01*
X177500000Y-104750000D02*
X177500000Y-97750000D01*
X177500000Y-104750000D02*
X177500000Y-105000000D01*
X177500000Y-105000000D02*
X177750000Y-105000000D01*
X177750000Y-97500000D02*
X186750000Y-97500000D01*
X186750000Y-97500000D02*
X187000000Y-97500000D01*
X186750000Y-105000000D02*
X177750000Y-105000000D01*
X186750000Y-105000000D02*
X187000000Y-105000000D01*
X187000000Y-97500000D02*
X187000000Y-97750000D01*
X187000000Y-97750000D02*
X187000000Y-104750000D01*
X187000000Y-105000000D02*
X187000000Y-104750000D01*
X96500000Y-85500000D02*
X96750000Y-85500000D01*
X96500000Y-85750000D02*
X96500000Y-85500000D01*
X96500000Y-92750000D02*
X96500000Y-85750000D01*
X96500000Y-92750000D02*
X96500000Y-93000000D01*
X96500000Y-93000000D02*
X96750000Y-93000000D01*
X96750000Y-85500000D02*
X105750000Y-85500000D01*
X105750000Y-85500000D02*
X106000000Y-85500000D01*
X105750000Y-93000000D02*
X96750000Y-93000000D01*
X105750000Y-93000000D02*
X106000000Y-93000000D01*
X106000000Y-85500000D02*
X106000000Y-85750000D01*
X106000000Y-85750000D02*
X106000000Y-92750000D01*
X106000000Y-93000000D02*
X106000000Y-92750000D01*
X204500000Y-109500000D02*
X204750000Y-109500000D01*
X204500000Y-109750000D02*
X204500000Y-109500000D01*
X204500000Y-116750000D02*
X204500000Y-109750000D01*
X204500000Y-116750000D02*
X204500000Y-117000000D01*
X204500000Y-117000000D02*
X204750000Y-117000000D01*
X204750000Y-109500000D02*
X213750000Y-109500000D01*
X213750000Y-109500000D02*
X214000000Y-109500000D01*
X213750000Y-117000000D02*
X204750000Y-117000000D01*
X213750000Y-117000000D02*
X214000000Y-117000000D01*
X214000000Y-109500000D02*
X214000000Y-109750000D01*
X214000000Y-109750000D02*
X214000000Y-116750000D01*
X214000000Y-117000000D02*
X214000000Y-116750000D01*
X204500000Y-85500000D02*
X204750000Y-85500000D01*
X204500000Y-85750000D02*
X204500000Y-85500000D01*
X204500000Y-92750000D02*
X204500000Y-85750000D01*
X204500000Y-92750000D02*
X204500000Y-93000000D01*
X204500000Y-93000000D02*
X204750000Y-93000000D01*
X204750000Y-85500000D02*
X213750000Y-85500000D01*
X213750000Y-85500000D02*
X214000000Y-85500000D01*
X213750000Y-93000000D02*
X204750000Y-93000000D01*
X213750000Y-93000000D02*
X214000000Y-93000000D01*
X214000000Y-85500000D02*
X214000000Y-85750000D01*
X214000000Y-85750000D02*
X214000000Y-92750000D01*
X214000000Y-93000000D02*
X214000000Y-92750000D01*
X191000000Y-97500000D02*
X191250000Y-97500000D01*
X191000000Y-97750000D02*
X191000000Y-97500000D01*
X191000000Y-104750000D02*
X191000000Y-97750000D01*
X191000000Y-104750000D02*
X191000000Y-105000000D01*
X191000000Y-105000000D02*
X191250000Y-105000000D01*
X191250000Y-97500000D02*
X200250000Y-97500000D01*
X200250000Y-97500000D02*
X200500000Y-97500000D01*
X200250000Y-105000000D02*
X191250000Y-105000000D01*
X200250000Y-105000000D02*
X200500000Y-105000000D01*
X200500000Y-97500000D02*
X200500000Y-97750000D01*
X200500000Y-97750000D02*
X200500000Y-104750000D01*
X200500000Y-105000000D02*
X200500000Y-104750000D01*
X83000000Y-97500000D02*
X83250000Y-97500000D01*
X83000000Y-97750000D02*
X83000000Y-97500000D01*
X83000000Y-104750000D02*
X83000000Y-97750000D01*
X83000000Y-104750000D02*
X83000000Y-105000000D01*
X83000000Y-105000000D02*
X83250000Y-105000000D01*
X83250000Y-97500000D02*
X92250000Y-97500000D01*
X92250000Y-97500000D02*
X92500000Y-97500000D01*
X92250000Y-105000000D02*
X83250000Y-105000000D01*
X92250000Y-105000000D02*
X92500000Y-105000000D01*
X92500000Y-97500000D02*
X92500000Y-97750000D01*
X92500000Y-97750000D02*
X92500000Y-104750000D01*
X92500000Y-105000000D02*
X92500000Y-104750000D01*
X150500000Y-97500000D02*
X150750000Y-97500000D01*
X150500000Y-97750000D02*
X150500000Y-97500000D01*
X150500000Y-104750000D02*
X150500000Y-97750000D01*
X150500000Y-104750000D02*
X150500000Y-105000000D01*
X150500000Y-105000000D02*
X150750000Y-105000000D01*
X150750000Y-97500000D02*
X159750000Y-97500000D01*
X159750000Y-97500000D02*
X160000000Y-97500000D01*
X159750000Y-105000000D02*
X150750000Y-105000000D01*
X159750000Y-105000000D02*
X160000000Y-105000000D01*
X160000000Y-97500000D02*
X160000000Y-97750000D01*
X160000000Y-97750000D02*
X160000000Y-104750000D01*
X160000000Y-105000000D02*
X160000000Y-104750000D01*
X137000000Y-109500000D02*
X137250000Y-109500000D01*
X137000000Y-109750000D02*
X137000000Y-109500000D01*
X137000000Y-116750000D02*
X137000000Y-109750000D01*
X137000000Y-116750000D02*
X137000000Y-117000000D01*
X137000000Y-117000000D02*
X137250000Y-117000000D01*
X137250000Y-109500000D02*
X146250000Y-109500000D01*
X146250000Y-109500000D02*
X146500000Y-109500000D01*
X146250000Y-117000000D02*
X137250000Y-117000000D01*
X146250000Y-117000000D02*
X146500000Y-117000000D01*
X146500000Y-109500000D02*
X146500000Y-109750000D01*
X146500000Y-109750000D02*
X146500000Y-116750000D01*
X146500000Y-117000000D02*
X146500000Y-116750000D01*
X123500000Y-109500000D02*
X123750000Y-109500000D01*
X123500000Y-109750000D02*
X123500000Y-109500000D01*
X123500000Y-116750000D02*
X123500000Y-109750000D01*
X123500000Y-116750000D02*
X123500000Y-117000000D01*
X123500000Y-117000000D02*
X123750000Y-117000000D01*
X123750000Y-109500000D02*
X132750000Y-109500000D01*
X132750000Y-109500000D02*
X133000000Y-109500000D01*
X132750000Y-117000000D02*
X123750000Y-117000000D01*
X132750000Y-117000000D02*
X133000000Y-117000000D01*
X133000000Y-109500000D02*
X133000000Y-109750000D01*
X133000000Y-109750000D02*
X133000000Y-116750000D01*
X133000000Y-117000000D02*
X133000000Y-116750000D01*
X110000000Y-97500000D02*
X110250000Y-97500000D01*
X110000000Y-97750000D02*
X110000000Y-97500000D01*
X110000000Y-104750000D02*
X110000000Y-97750000D01*
X110000000Y-104750000D02*
X110000000Y-105000000D01*
X110000000Y-105000000D02*
X110250000Y-105000000D01*
X110250000Y-97500000D02*
X119250000Y-97500000D01*
X119250000Y-97500000D02*
X119500000Y-97500000D01*
X119250000Y-105000000D02*
X110250000Y-105000000D01*
X119250000Y-105000000D02*
X119500000Y-105000000D01*
X119500000Y-97500000D02*
X119500000Y-97750000D01*
X119500000Y-97750000D02*
X119500000Y-104750000D01*
X119500000Y-105000000D02*
X119500000Y-104750000D01*
X137000000Y-85500000D02*
X137250000Y-85500000D01*
X137000000Y-85750000D02*
X137000000Y-85500000D01*
X137000000Y-92750000D02*
X137000000Y-85750000D01*
X137000000Y-92750000D02*
X137000000Y-93000000D01*
X137000000Y-93000000D02*
X137250000Y-93000000D01*
X137250000Y-85500000D02*
X146250000Y-85500000D01*
X146250000Y-85500000D02*
X146500000Y-85500000D01*
X146250000Y-93000000D02*
X137250000Y-93000000D01*
X146250000Y-93000000D02*
X146500000Y-93000000D01*
X146500000Y-85500000D02*
X146500000Y-85750000D01*
X146500000Y-85750000D02*
X146500000Y-92750000D01*
X146500000Y-93000000D02*
X146500000Y-92750000D01*
X177500000Y-85500000D02*
X177750000Y-85500000D01*
X177500000Y-85750000D02*
X177500000Y-85500000D01*
X177500000Y-92750000D02*
X177500000Y-85750000D01*
X177500000Y-92750000D02*
X177500000Y-93000000D01*
X177500000Y-93000000D02*
X177750000Y-93000000D01*
X177750000Y-85500000D02*
X186750000Y-85500000D01*
X186750000Y-85500000D02*
X187000000Y-85500000D01*
X186750000Y-93000000D02*
X177750000Y-93000000D01*
X186750000Y-93000000D02*
X187000000Y-93000000D01*
X187000000Y-85500000D02*
X187000000Y-85750000D01*
X187000000Y-85750000D02*
X187000000Y-92750000D01*
X187000000Y-93000000D02*
X187000000Y-92750000D01*
X150500000Y-85500000D02*
X150750000Y-85500000D01*
X150500000Y-85750000D02*
X150500000Y-85500000D01*
X150500000Y-92750000D02*
X150500000Y-85750000D01*
X150500000Y-92750000D02*
X150500000Y-93000000D01*
X150500000Y-93000000D02*
X150750000Y-93000000D01*
X150750000Y-85500000D02*
X159750000Y-85500000D01*
X159750000Y-85500000D02*
X160000000Y-85500000D01*
X159750000Y-93000000D02*
X150750000Y-93000000D01*
X159750000Y-93000000D02*
X160000000Y-93000000D01*
X160000000Y-85500000D02*
X160000000Y-85750000D01*
X160000000Y-85750000D02*
X160000000Y-92750000D01*
X160000000Y-93000000D02*
X160000000Y-92750000D01*
X96500000Y-97500000D02*
X96750000Y-97500000D01*
X96500000Y-97750000D02*
X96500000Y-97500000D01*
X96500000Y-104750000D02*
X96500000Y-97750000D01*
X96500000Y-104750000D02*
X96500000Y-105000000D01*
X96500000Y-105000000D02*
X96750000Y-105000000D01*
X96750000Y-97500000D02*
X105750000Y-97500000D01*
X105750000Y-97500000D02*
X106000000Y-97500000D01*
X105750000Y-105000000D02*
X96750000Y-105000000D01*
X105750000Y-105000000D02*
X106000000Y-105000000D01*
X106000000Y-97500000D02*
X106000000Y-97750000D01*
X106000000Y-97750000D02*
X106000000Y-104750000D01*
X106000000Y-105000000D02*
X106000000Y-104750000D01*
X110000000Y-109500000D02*
X110250000Y-109500000D01*
X110000000Y-109750000D02*
X110000000Y-109500000D01*
X110000000Y-116750000D02*
X110000000Y-109750000D01*
X110000000Y-116750000D02*
X110000000Y-117000000D01*
X110000000Y-117000000D02*
X110250000Y-117000000D01*
X110250000Y-109500000D02*
X119250000Y-109500000D01*
X119250000Y-109500000D02*
X119500000Y-109500000D01*
X119250000Y-117000000D02*
X110250000Y-117000000D01*
X119250000Y-117000000D02*
X119500000Y-117000000D01*
X119500000Y-109500000D02*
X119500000Y-109750000D01*
X119500000Y-109750000D02*
X119500000Y-116750000D01*
X119500000Y-117000000D02*
X119500000Y-116750000D01*
X110000000Y-85500000D02*
X110250000Y-85500000D01*
X110000000Y-85750000D02*
X110000000Y-85500000D01*
X110000000Y-92750000D02*
X110000000Y-85750000D01*
X110000000Y-92750000D02*
X110000000Y-93000000D01*
X110000000Y-93000000D02*
X110250000Y-93000000D01*
X110250000Y-85500000D02*
X119250000Y-85500000D01*
X119250000Y-85500000D02*
X119500000Y-85500000D01*
X119250000Y-93000000D02*
X110250000Y-93000000D01*
X119250000Y-93000000D02*
X119500000Y-93000000D01*
X119500000Y-85500000D02*
X119500000Y-85750000D01*
X119500000Y-85750000D02*
X119500000Y-92750000D01*
X119500000Y-93000000D02*
X119500000Y-92750000D01*
%TD*%
D24*
X100821429Y-88704819D02*
X101059524Y-89704819D01*
X101059524Y-89704819D02*
X101250000Y-88990533D01*
X101250000Y-88990533D02*
X101440476Y-89704819D01*
X101440476Y-89704819D02*
X101678572Y-88704819D01*
X155250000Y-89228628D02*
X155250000Y-89704819D01*
X154916667Y-88704819D02*
X155250000Y-89228628D01*
X155250000Y-89228628D02*
X155583333Y-88704819D01*
X194845238Y-113181009D02*
X194511905Y-113181009D01*
X194511905Y-113704819D02*
X194511905Y-112704819D01*
X194511905Y-112704819D02*
X194988095Y-112704819D01*
X195369048Y-112704819D02*
X195369048Y-113514342D01*
X195369048Y-113514342D02*
X195416667Y-113609580D01*
X195416667Y-113609580D02*
X195464286Y-113657200D01*
X195464286Y-113657200D02*
X195559524Y-113704819D01*
X195559524Y-113704819D02*
X195750000Y-113704819D01*
X195750000Y-113704819D02*
X195845238Y-113657200D01*
X195845238Y-113657200D02*
X195892857Y-113609580D01*
X195892857Y-113609580D02*
X195940476Y-113514342D01*
X195940476Y-113514342D02*
X195940476Y-112704819D01*
X196416667Y-113704819D02*
X196416667Y-112704819D01*
X196416667Y-112704819D02*
X196988095Y-113704819D01*
X196988095Y-113704819D02*
X196988095Y-112704819D01*
X181916667Y-113704819D02*
X181916667Y-112704819D01*
X181916667Y-112704819D02*
X182250000Y-113419104D01*
X182250000Y-113419104D02*
X182583333Y-112704819D01*
X182583333Y-112704819D02*
X182583333Y-113704819D01*
X128392857Y-101181009D02*
X128059524Y-101181009D01*
X128059524Y-101704819D02*
X128059524Y-100704819D01*
X128059524Y-100704819D02*
X128535714Y-100704819D01*
X86202381Y-113657200D02*
X86345238Y-113704819D01*
X86345238Y-113704819D02*
X86583333Y-113704819D01*
X86583333Y-113704819D02*
X86678571Y-113657200D01*
X86678571Y-113657200D02*
X86726190Y-113609580D01*
X86726190Y-113609580D02*
X86773809Y-113514342D01*
X86773809Y-113514342D02*
X86773809Y-113419104D01*
X86773809Y-113419104D02*
X86726190Y-113323866D01*
X86726190Y-113323866D02*
X86678571Y-113276247D01*
X86678571Y-113276247D02*
X86583333Y-113228628D01*
X86583333Y-113228628D02*
X86392857Y-113181009D01*
X86392857Y-113181009D02*
X86297619Y-113133390D01*
X86297619Y-113133390D02*
X86250000Y-113085771D01*
X86250000Y-113085771D02*
X86202381Y-112990533D01*
X86202381Y-112990533D02*
X86202381Y-112895295D01*
X86202381Y-112895295D02*
X86250000Y-112800057D01*
X86250000Y-112800057D02*
X86297619Y-112752438D01*
X86297619Y-112752438D02*
X86392857Y-112704819D01*
X86392857Y-112704819D02*
X86630952Y-112704819D01*
X86630952Y-112704819D02*
X86773809Y-112752438D01*
X87202381Y-113704819D02*
X87202381Y-112704819D01*
X87630952Y-113704819D02*
X87630952Y-113181009D01*
X87630952Y-113181009D02*
X87583333Y-113085771D01*
X87583333Y-113085771D02*
X87488095Y-113038152D01*
X87488095Y-113038152D02*
X87345238Y-113038152D01*
X87345238Y-113038152D02*
X87250000Y-113085771D01*
X87250000Y-113085771D02*
X87202381Y-113133390D01*
X88107143Y-113704819D02*
X88107143Y-113038152D01*
X88107143Y-112704819D02*
X88059524Y-112752438D01*
X88059524Y-112752438D02*
X88107143Y-112800057D01*
X88107143Y-112800057D02*
X88154762Y-112752438D01*
X88154762Y-112752438D02*
X88107143Y-112704819D01*
X88107143Y-112704819D02*
X88107143Y-112800057D01*
X88440476Y-113038152D02*
X88821428Y-113038152D01*
X88583333Y-113704819D02*
X88583333Y-112847676D01*
X88583333Y-112847676D02*
X88630952Y-112752438D01*
X88630952Y-112752438D02*
X88726190Y-112704819D01*
X88726190Y-112704819D02*
X88821428Y-112704819D01*
X89011905Y-113038152D02*
X89392857Y-113038152D01*
X89154762Y-112704819D02*
X89154762Y-113561961D01*
X89154762Y-113561961D02*
X89202381Y-113657200D01*
X89202381Y-113657200D02*
X89297619Y-113704819D01*
X89297619Y-113704819D02*
X89392857Y-113704819D01*
X141464286Y-88704819D02*
X142035714Y-88704819D01*
X141750000Y-89704819D02*
X141750000Y-88704819D01*
X88130952Y-89800057D02*
X88035714Y-89752438D01*
X88035714Y-89752438D02*
X87940476Y-89657200D01*
X87940476Y-89657200D02*
X87797619Y-89514342D01*
X87797619Y-89514342D02*
X87702381Y-89466723D01*
X87702381Y-89466723D02*
X87607143Y-89466723D01*
X87654762Y-89704819D02*
X87559524Y-89657200D01*
X87559524Y-89657200D02*
X87464286Y-89561961D01*
X87464286Y-89561961D02*
X87416667Y-89371485D01*
X87416667Y-89371485D02*
X87416667Y-89038152D01*
X87416667Y-89038152D02*
X87464286Y-88847676D01*
X87464286Y-88847676D02*
X87559524Y-88752438D01*
X87559524Y-88752438D02*
X87654762Y-88704819D01*
X87654762Y-88704819D02*
X87845238Y-88704819D01*
X87845238Y-88704819D02*
X87940476Y-88752438D01*
X87940476Y-88752438D02*
X88035714Y-88847676D01*
X88035714Y-88847676D02*
X88083333Y-89038152D01*
X88083333Y-89038152D02*
X88083333Y-89371485D01*
X88083333Y-89371485D02*
X88035714Y-89561961D01*
X88035714Y-89561961D02*
X87940476Y-89657200D01*
X87940476Y-89657200D02*
X87845238Y-89704819D01*
X87845238Y-89704819D02*
X87654762Y-89704819D01*
X141416667Y-112704819D02*
X141750000Y-113704819D01*
X141750000Y-113704819D02*
X142083333Y-112704819D01*
X207178571Y-101704819D02*
X206845238Y-101228628D01*
X206607143Y-101704819D02*
X206607143Y-100704819D01*
X206607143Y-100704819D02*
X206988095Y-100704819D01*
X206988095Y-100704819D02*
X207083333Y-100752438D01*
X207083333Y-100752438D02*
X207130952Y-100800057D01*
X207130952Y-100800057D02*
X207178571Y-100895295D01*
X207178571Y-100895295D02*
X207178571Y-101038152D01*
X207178571Y-101038152D02*
X207130952Y-101133390D01*
X207130952Y-101133390D02*
X207083333Y-101181009D01*
X207083333Y-101181009D02*
X206988095Y-101228628D01*
X206988095Y-101228628D02*
X206607143Y-101228628D01*
X207607143Y-101181009D02*
X207940476Y-101181009D01*
X208083333Y-101704819D02*
X207607143Y-101704819D01*
X207607143Y-101704819D02*
X207607143Y-100704819D01*
X207607143Y-100704819D02*
X208083333Y-100704819D01*
X208369048Y-100704819D02*
X208940476Y-100704819D01*
X208654762Y-101704819D02*
X208654762Y-100704819D01*
X209273810Y-100704819D02*
X209273810Y-101514342D01*
X209273810Y-101514342D02*
X209321429Y-101609580D01*
X209321429Y-101609580D02*
X209369048Y-101657200D01*
X209369048Y-101657200D02*
X209464286Y-101704819D01*
X209464286Y-101704819D02*
X209654762Y-101704819D01*
X209654762Y-101704819D02*
X209750000Y-101657200D01*
X209750000Y-101657200D02*
X209797619Y-101609580D01*
X209797619Y-101609580D02*
X209845238Y-101514342D01*
X209845238Y-101514342D02*
X209845238Y-100704819D01*
X210892857Y-101704819D02*
X210559524Y-101228628D01*
X210321429Y-101704819D02*
X210321429Y-100704819D01*
X210321429Y-100704819D02*
X210702381Y-100704819D01*
X210702381Y-100704819D02*
X210797619Y-100752438D01*
X210797619Y-100752438D02*
X210845238Y-100800057D01*
X210845238Y-100800057D02*
X210892857Y-100895295D01*
X210892857Y-100895295D02*
X210892857Y-101038152D01*
X210892857Y-101038152D02*
X210845238Y-101133390D01*
X210845238Y-101133390D02*
X210797619Y-101181009D01*
X210797619Y-101181009D02*
X210702381Y-101228628D01*
X210702381Y-101228628D02*
X210321429Y-101228628D01*
X211321429Y-101704819D02*
X211321429Y-100704819D01*
X211321429Y-100704819D02*
X211892857Y-101704819D01*
X211892857Y-101704819D02*
X211892857Y-100704819D01*
X182250000Y-89704819D02*
X182250000Y-88704819D01*
X128559523Y-113609580D02*
X128511904Y-113657200D01*
X128511904Y-113657200D02*
X128369047Y-113704819D01*
X128369047Y-113704819D02*
X128273809Y-113704819D01*
X128273809Y-113704819D02*
X128130952Y-113657200D01*
X128130952Y-113657200D02*
X128035714Y-113561961D01*
X128035714Y-113561961D02*
X127988095Y-113466723D01*
X127988095Y-113466723D02*
X127940476Y-113276247D01*
X127940476Y-113276247D02*
X127940476Y-113133390D01*
X127940476Y-113133390D02*
X127988095Y-112942914D01*
X127988095Y-112942914D02*
X128035714Y-112847676D01*
X128035714Y-112847676D02*
X128130952Y-112752438D01*
X128130952Y-112752438D02*
X128273809Y-112704819D01*
X128273809Y-112704819D02*
X128369047Y-112704819D01*
X128369047Y-112704819D02*
X128511904Y-112752438D01*
X128511904Y-112752438D02*
X128559523Y-112800057D01*
X114535714Y-89181009D02*
X114869047Y-89181009D01*
X115011904Y-89704819D02*
X114535714Y-89704819D01*
X114535714Y-89704819D02*
X114535714Y-88704819D01*
X114535714Y-88704819D02*
X115011904Y-88704819D01*
X168892857Y-100704819D02*
X168892857Y-101419104D01*
X168892857Y-101419104D02*
X168845238Y-101561961D01*
X168845238Y-101561961D02*
X168750000Y-101657200D01*
X168750000Y-101657200D02*
X168607143Y-101704819D01*
X168607143Y-101704819D02*
X168511905Y-101704819D01*
X155321428Y-113181009D02*
X155464285Y-113228628D01*
X155464285Y-113228628D02*
X155511904Y-113276247D01*
X155511904Y-113276247D02*
X155559523Y-113371485D01*
X155559523Y-113371485D02*
X155559523Y-113514342D01*
X155559523Y-113514342D02*
X155511904Y-113609580D01*
X155511904Y-113609580D02*
X155464285Y-113657200D01*
X155464285Y-113657200D02*
X155369047Y-113704819D01*
X155369047Y-113704819D02*
X154988095Y-113704819D01*
X154988095Y-113704819D02*
X154988095Y-112704819D01*
X154988095Y-112704819D02*
X155321428Y-112704819D01*
X155321428Y-112704819D02*
X155416666Y-112752438D01*
X155416666Y-112752438D02*
X155464285Y-112800057D01*
X155464285Y-112800057D02*
X155511904Y-112895295D01*
X155511904Y-112895295D02*
X155511904Y-112990533D01*
X155511904Y-112990533D02*
X155464285Y-113085771D01*
X155464285Y-113085771D02*
X155416666Y-113133390D01*
X155416666Y-113133390D02*
X155321428Y-113181009D01*
X155321428Y-113181009D02*
X154988095Y-113181009D01*
X168464286Y-88704819D02*
X168464286Y-89514342D01*
X168464286Y-89514342D02*
X168511905Y-89609580D01*
X168511905Y-89609580D02*
X168559524Y-89657200D01*
X168559524Y-89657200D02*
X168654762Y-89704819D01*
X168654762Y-89704819D02*
X168845238Y-89704819D01*
X168845238Y-89704819D02*
X168940476Y-89657200D01*
X168940476Y-89657200D02*
X168988095Y-89609580D01*
X168988095Y-89609580D02*
X169035714Y-89514342D01*
X169035714Y-89514342D02*
X169035714Y-88704819D01*
X181988095Y-101704819D02*
X181988095Y-100704819D01*
X182559523Y-101704819D02*
X182130952Y-101133390D01*
X182559523Y-100704819D02*
X181988095Y-101276247D01*
X195654762Y-88704819D02*
X195845238Y-88704819D01*
X195845238Y-88704819D02*
X195940476Y-88752438D01*
X195940476Y-88752438D02*
X196035714Y-88847676D01*
X196035714Y-88847676D02*
X196083333Y-89038152D01*
X196083333Y-89038152D02*
X196083333Y-89371485D01*
X196083333Y-89371485D02*
X196035714Y-89561961D01*
X196035714Y-89561961D02*
X195940476Y-89657200D01*
X195940476Y-89657200D02*
X195845238Y-89704819D01*
X195845238Y-89704819D02*
X195654762Y-89704819D01*
X195654762Y-89704819D02*
X195559524Y-89657200D01*
X195559524Y-89657200D02*
X195464286Y-89561961D01*
X195464286Y-89561961D02*
X195416667Y-89371485D01*
X195416667Y-89371485D02*
X195416667Y-89038152D01*
X195416667Y-89038152D02*
X195464286Y-88847676D01*
X195464286Y-88847676D02*
X195559524Y-88752438D01*
X195559524Y-88752438D02*
X195654762Y-88704819D01*
X114488095Y-101704819D02*
X114488095Y-100704819D01*
X114488095Y-100704819D02*
X114726190Y-100704819D01*
X114726190Y-100704819D02*
X114869047Y-100752438D01*
X114869047Y-100752438D02*
X114964285Y-100847676D01*
X114964285Y-100847676D02*
X115011904Y-100942914D01*
X115011904Y-100942914D02*
X115059523Y-101133390D01*
X115059523Y-101133390D02*
X115059523Y-101276247D01*
X115059523Y-101276247D02*
X115011904Y-101466723D01*
X115011904Y-101466723D02*
X114964285Y-101561961D01*
X114964285Y-101561961D02*
X114869047Y-101657200D01*
X114869047Y-101657200D02*
X114726190Y-101704819D01*
X114726190Y-101704819D02*
X114488095Y-101704819D01*
X154964286Y-101704819D02*
X154964286Y-100704819D01*
X154964286Y-101181009D02*
X155535714Y-101181009D01*
X155535714Y-101704819D02*
X155535714Y-100704819D01*
X87511905Y-101419104D02*
X87988095Y-101419104D01*
X87416667Y-101704819D02*
X87750000Y-100704819D01*
X87750000Y-100704819D02*
X88083333Y-101704819D01*
X207178571Y-113181009D02*
X207511904Y-113181009D01*
X207654761Y-113704819D02*
X207178571Y-113704819D01*
X207178571Y-113704819D02*
X207178571Y-112704819D01*
X207178571Y-112704819D02*
X207654761Y-112704819D01*
X208083333Y-113704819D02*
X208083333Y-112704819D01*
X208083333Y-112704819D02*
X208654761Y-113704819D01*
X208654761Y-113704819D02*
X208654761Y-112704819D01*
X208988095Y-112704819D02*
X209559523Y-112704819D01*
X209273809Y-113704819D02*
X209273809Y-112704819D01*
X209892857Y-113181009D02*
X210226190Y-113181009D01*
X210369047Y-113704819D02*
X209892857Y-113704819D01*
X209892857Y-113704819D02*
X209892857Y-112704819D01*
X209892857Y-112704819D02*
X210369047Y-112704819D01*
X211369047Y-113704819D02*
X211035714Y-113228628D01*
X210797619Y-113704819D02*
X210797619Y-112704819D01*
X210797619Y-112704819D02*
X211178571Y-112704819D01*
X211178571Y-112704819D02*
X211273809Y-112752438D01*
X211273809Y-112752438D02*
X211321428Y-112800057D01*
X211321428Y-112800057D02*
X211369047Y-112895295D01*
X211369047Y-112895295D02*
X211369047Y-113038152D01*
X211369047Y-113038152D02*
X211321428Y-113133390D01*
X211321428Y-113133390D02*
X211273809Y-113181009D01*
X211273809Y-113181009D02*
X211178571Y-113228628D01*
X211178571Y-113228628D02*
X210797619Y-113228628D01*
X208988095Y-89704819D02*
X208988095Y-88704819D01*
X208988095Y-88704819D02*
X209369047Y-88704819D01*
X209369047Y-88704819D02*
X209464285Y-88752438D01*
X209464285Y-88752438D02*
X209511904Y-88800057D01*
X209511904Y-88800057D02*
X209559523Y-88895295D01*
X209559523Y-88895295D02*
X209559523Y-89038152D01*
X209559523Y-89038152D02*
X209511904Y-89133390D01*
X209511904Y-89133390D02*
X209464285Y-89181009D01*
X209464285Y-89181009D02*
X209369047Y-89228628D01*
X209369047Y-89228628D02*
X208988095Y-89228628D01*
X142011904Y-100752438D02*
X141916666Y-100704819D01*
X141916666Y-100704819D02*
X141773809Y-100704819D01*
X141773809Y-100704819D02*
X141630952Y-100752438D01*
X141630952Y-100752438D02*
X141535714Y-100847676D01*
X141535714Y-100847676D02*
X141488095Y-100942914D01*
X141488095Y-100942914D02*
X141440476Y-101133390D01*
X141440476Y-101133390D02*
X141440476Y-101276247D01*
X141440476Y-101276247D02*
X141488095Y-101466723D01*
X141488095Y-101466723D02*
X141535714Y-101561961D01*
X141535714Y-101561961D02*
X141630952Y-101657200D01*
X141630952Y-101657200D02*
X141773809Y-101704819D01*
X141773809Y-101704819D02*
X141869047Y-101704819D01*
X141869047Y-101704819D02*
X142011904Y-101657200D01*
X142011904Y-101657200D02*
X142059523Y-101609580D01*
X142059523Y-101609580D02*
X142059523Y-101276247D01*
X142059523Y-101276247D02*
X141869047Y-101276247D01*
X114416667Y-112704819D02*
X115083333Y-113704819D01*
X115083333Y-112704819D02*
X114416667Y-113704819D01*
X168464286Y-113704819D02*
X168464286Y-112704819D01*
X168464286Y-112704819D02*
X169035714Y-113704819D01*
X169035714Y-113704819D02*
X169035714Y-112704819D01*
X100916667Y-112704819D02*
X101583333Y-112704819D01*
X101583333Y-112704819D02*
X100916667Y-113704819D01*
X100916667Y-113704819D02*
X101583333Y-113704819D01*
X196059523Y-101704819D02*
X195583333Y-101704819D01*
X195583333Y-101704819D02*
X195583333Y-100704819D01*
X100964286Y-101657200D02*
X101107143Y-101704819D01*
X101107143Y-101704819D02*
X101345238Y-101704819D01*
X101345238Y-101704819D02*
X101440476Y-101657200D01*
X101440476Y-101657200D02*
X101488095Y-101609580D01*
X101488095Y-101609580D02*
X101535714Y-101514342D01*
X101535714Y-101514342D02*
X101535714Y-101419104D01*
X101535714Y-101419104D02*
X101488095Y-101323866D01*
X101488095Y-101323866D02*
X101440476Y-101276247D01*
X101440476Y-101276247D02*
X101345238Y-101228628D01*
X101345238Y-101228628D02*
X101154762Y-101181009D01*
X101154762Y-101181009D02*
X101059524Y-101133390D01*
X101059524Y-101133390D02*
X101011905Y-101085771D01*
X101011905Y-101085771D02*
X100964286Y-100990533D01*
X100964286Y-100990533D02*
X100964286Y-100895295D01*
X100964286Y-100895295D02*
X101011905Y-100800057D01*
X101011905Y-100800057D02*
X101059524Y-100752438D01*
X101059524Y-100752438D02*
X101154762Y-100704819D01*
X101154762Y-100704819D02*
X101392857Y-100704819D01*
X101392857Y-100704819D02*
X101535714Y-100752438D01*
X128559523Y-89704819D02*
X128226190Y-89228628D01*
X127988095Y-89704819D02*
X127988095Y-88704819D01*
X127988095Y-88704819D02*
X128369047Y-88704819D01*
X128369047Y-88704819D02*
X128464285Y-88752438D01*
X128464285Y-88752438D02*
X128511904Y-88800057D01*
X128511904Y-88800057D02*
X128559523Y-88895295D01*
X128559523Y-88895295D02*
X128559523Y-89038152D01*
X128559523Y-89038152D02*
X128511904Y-89133390D01*
X128511904Y-89133390D02*
X128464285Y-89181009D01*
X128464285Y-89181009D02*
X128369047Y-89228628D01*
X128369047Y-89228628D02*
X127988095Y-89228628D01*
D22*
%TO.C,Button*%
X165750000Y-98250000D02*
X168750000Y-98250000D01*
X165750000Y-104250000D02*
X165750000Y-98250000D01*
X168750000Y-98250000D02*
X171750000Y-98250000D01*
X171750000Y-98250000D02*
X171750000Y-104250000D01*
X171750000Y-104250000D02*
X165750000Y-104250000D01*
X170765564Y-101250000D02*
G75*
G02*
X166734436Y-101250000I-2015564J0D01*
G01*
X166734436Y-101250000D02*
G75*
G02*
X170765564Y-101250000I2015564J0D01*
G01*
X138750000Y-98250000D02*
X141750000Y-98250000D01*
X138750000Y-104250000D02*
X138750000Y-98250000D01*
X141750000Y-98250000D02*
X144750000Y-98250000D01*
X144750000Y-98250000D02*
X144750000Y-104250000D01*
X144750000Y-104250000D02*
X138750000Y-104250000D01*
X143765564Y-101250000D02*
G75*
G02*
X139734436Y-101250000I-2015564J0D01*
G01*
X139734436Y-101250000D02*
G75*
G02*
X143765564Y-101250000I2015564J0D01*
G01*
X84750000Y-110250000D02*
X87750000Y-110250000D01*
X84750000Y-116250000D02*
X84750000Y-110250000D01*
X87750000Y-110250000D02*
X90750000Y-110250000D01*
X90750000Y-110250000D02*
X90750000Y-116250000D01*
X90750000Y-116250000D02*
X84750000Y-116250000D01*
X89765564Y-113250000D02*
G75*
G02*
X85734436Y-113250000I-2015564J0D01*
G01*
X85734436Y-113250000D02*
G75*
G02*
X89765564Y-113250000I2015564J0D01*
G01*
X165750000Y-86250000D02*
X168750000Y-86250000D01*
X165750000Y-92250000D02*
X165750000Y-86250000D01*
X168750000Y-86250000D02*
X171750000Y-86250000D01*
X171750000Y-86250000D02*
X171750000Y-92250000D01*
X171750000Y-92250000D02*
X165750000Y-92250000D01*
X170765564Y-89250000D02*
G75*
G02*
X166734436Y-89250000I-2015564J0D01*
G01*
X166734436Y-89250000D02*
G75*
G02*
X170765564Y-89250000I2015564J0D01*
G01*
X192750000Y-86250000D02*
X195750000Y-86250000D01*
X192750000Y-92250000D02*
X192750000Y-86250000D01*
X195750000Y-86250000D02*
X198750000Y-86250000D01*
X198750000Y-86250000D02*
X198750000Y-92250000D01*
X198750000Y-92250000D02*
X192750000Y-92250000D01*
X197765564Y-89250000D02*
G75*
G02*
X193734436Y-89250000I-2015564J0D01*
G01*
X193734436Y-89250000D02*
G75*
G02*
X197765564Y-89250000I2015564J0D01*
G01*
X165750000Y-110250000D02*
X168750000Y-110250000D01*
X165750000Y-116250000D02*
X165750000Y-110250000D01*
X168750000Y-110250000D02*
X171750000Y-110250000D01*
X171750000Y-110250000D02*
X171750000Y-116250000D01*
X171750000Y-116250000D02*
X165750000Y-116250000D01*
X170765564Y-113250000D02*
G75*
G02*
X166734436Y-113250000I-2015564J0D01*
G01*
X166734436Y-113250000D02*
G75*
G02*
X170765564Y-113250000I2015564J0D01*
G01*
X206250000Y-98250000D02*
X209250000Y-98250000D01*
X206250000Y-104250000D02*
X206250000Y-98250000D01*
X209250000Y-98250000D02*
X212250000Y-98250000D01*
X212250000Y-98250000D02*
X212250000Y-104250000D01*
X212250000Y-104250000D02*
X206250000Y-104250000D01*
X211265564Y-101250000D02*
G75*
G02*
X207234436Y-101250000I-2015564J0D01*
G01*
X207234436Y-101250000D02*
G75*
G02*
X211265564Y-101250000I2015564J0D01*
G01*
X152250000Y-110250000D02*
X155250000Y-110250000D01*
X152250000Y-116250000D02*
X152250000Y-110250000D01*
X155250000Y-110250000D02*
X158250000Y-110250000D01*
X158250000Y-110250000D02*
X158250000Y-116250000D01*
X158250000Y-116250000D02*
X152250000Y-116250000D01*
X157265564Y-113250000D02*
G75*
G02*
X153234436Y-113250000I-2015564J0D01*
G01*
X153234436Y-113250000D02*
G75*
G02*
X157265564Y-113250000I2015564J0D01*
G01*
X84750000Y-86250000D02*
X87750000Y-86250000D01*
X84750000Y-92250000D02*
X84750000Y-86250000D01*
X87750000Y-86250000D02*
X90750000Y-86250000D01*
X90750000Y-86250000D02*
X90750000Y-92250000D01*
X90750000Y-92250000D02*
X84750000Y-92250000D01*
X89765564Y-89250000D02*
G75*
G02*
X85734436Y-89250000I-2015564J0D01*
G01*
X85734436Y-89250000D02*
G75*
G02*
X89765564Y-89250000I2015564J0D01*
G01*
X192750000Y-110250000D02*
X195750000Y-110250000D01*
X192750000Y-116250000D02*
X192750000Y-110250000D01*
X195750000Y-110250000D02*
X198750000Y-110250000D01*
X198750000Y-110250000D02*
X198750000Y-116250000D01*
X198750000Y-116250000D02*
X192750000Y-116250000D01*
X197765564Y-113250000D02*
G75*
G02*
X193734436Y-113250000I-2015564J0D01*
G01*
X193734436Y-113250000D02*
G75*
G02*
X197765564Y-113250000I2015564J0D01*
G01*
X179250000Y-110250000D02*
X182250000Y-110250000D01*
X179250000Y-116250000D02*
X179250000Y-110250000D01*
X182250000Y-110250000D02*
X185250000Y-110250000D01*
X185250000Y-110250000D02*
X185250000Y-116250000D01*
X185250000Y-116250000D02*
X179250000Y-116250000D01*
X184265564Y-113250000D02*
G75*
G02*
X180234436Y-113250000I-2015564J0D01*
G01*
X180234436Y-113250000D02*
G75*
G02*
X184265564Y-113250000I2015564J0D01*
G01*
X125250000Y-98250000D02*
X128250000Y-98250000D01*
X125250000Y-104250000D02*
X125250000Y-98250000D01*
X128250000Y-98250000D02*
X131250000Y-98250000D01*
X131250000Y-98250000D02*
X131250000Y-104250000D01*
X131250000Y-104250000D02*
X125250000Y-104250000D01*
X130265564Y-101250000D02*
G75*
G02*
X126234436Y-101250000I-2015564J0D01*
G01*
X126234436Y-101250000D02*
G75*
G02*
X130265564Y-101250000I2015564J0D01*
G01*
X98250000Y-110250000D02*
X101250000Y-110250000D01*
X98250000Y-116250000D02*
X98250000Y-110250000D01*
X101250000Y-110250000D02*
X104250000Y-110250000D01*
X104250000Y-110250000D02*
X104250000Y-116250000D01*
X104250000Y-116250000D02*
X98250000Y-116250000D01*
X103265564Y-113250000D02*
G75*
G02*
X99234436Y-113250000I-2015564J0D01*
G01*
X99234436Y-113250000D02*
G75*
G02*
X103265564Y-113250000I2015564J0D01*
G01*
X125250000Y-86250000D02*
X128250000Y-86250000D01*
X125250000Y-92250000D02*
X125250000Y-86250000D01*
X128250000Y-86250000D02*
X131250000Y-86250000D01*
X131250000Y-86250000D02*
X131250000Y-92250000D01*
X131250000Y-92250000D02*
X125250000Y-92250000D01*
X130265564Y-89250000D02*
G75*
G02*
X126234436Y-89250000I-2015564J0D01*
G01*
X126234436Y-89250000D02*
G75*
G02*
X130265564Y-89250000I2015564J0D01*
G01*
X179250000Y-98250000D02*
X182250000Y-98250000D01*
X179250000Y-104250000D02*
X179250000Y-98250000D01*
X182250000Y-98250000D02*
X185250000Y-98250000D01*
X185250000Y-98250000D02*
X185250000Y-104250000D01*
X185250000Y-104250000D02*
X179250000Y-104250000D01*
X184265564Y-101250000D02*
G75*
G02*
X180234436Y-101250000I-2015564J0D01*
G01*
X180234436Y-101250000D02*
G75*
G02*
X184265564Y-101250000I2015564J0D01*
G01*
X98250000Y-86250000D02*
X101250000Y-86250000D01*
X98250000Y-92250000D02*
X98250000Y-86250000D01*
X101250000Y-86250000D02*
X104250000Y-86250000D01*
X104250000Y-86250000D02*
X104250000Y-92250000D01*
X104250000Y-92250000D02*
X98250000Y-92250000D01*
X103265564Y-89250000D02*
G75*
G02*
X99234436Y-89250000I-2015564J0D01*
G01*
X99234436Y-89250000D02*
G75*
G02*
X103265564Y-89250000I2015564J0D01*
G01*
X206250000Y-110250000D02*
X209250000Y-110250000D01*
X206250000Y-116250000D02*
X206250000Y-110250000D01*
X209250000Y-110250000D02*
X212250000Y-110250000D01*
X212250000Y-110250000D02*
X212250000Y-116250000D01*
X212250000Y-116250000D02*
X206250000Y-116250000D01*
X211265564Y-113250000D02*
G75*
G02*
X207234436Y-113250000I-2015564J0D01*
G01*
X207234436Y-113250000D02*
G75*
G02*
X211265564Y-113250000I2015564J0D01*
G01*
X206250000Y-86250000D02*
X209250000Y-86250000D01*
X206250000Y-92250000D02*
X206250000Y-86250000D01*
X209250000Y-86250000D02*
X212250000Y-86250000D01*
X212250000Y-86250000D02*
X212250000Y-92250000D01*
X212250000Y-92250000D02*
X206250000Y-92250000D01*
X211265564Y-89250000D02*
G75*
G02*
X207234436Y-89250000I-2015564J0D01*
G01*
X207234436Y-89250000D02*
G75*
G02*
X211265564Y-89250000I2015564J0D01*
G01*
X192750000Y-98250000D02*
X195750000Y-98250000D01*
X192750000Y-104250000D02*
X192750000Y-98250000D01*
X195750000Y-98250000D02*
X198750000Y-98250000D01*
X198750000Y-98250000D02*
X198750000Y-104250000D01*
X198750000Y-104250000D02*
X192750000Y-104250000D01*
X197765564Y-101250000D02*
G75*
G02*
X193734436Y-101250000I-2015564J0D01*
G01*
X193734436Y-101250000D02*
G75*
G02*
X197765564Y-101250000I2015564J0D01*
G01*
X84750000Y-98250000D02*
X87750000Y-98250000D01*
X84750000Y-104250000D02*
X84750000Y-98250000D01*
X87750000Y-98250000D02*
X90750000Y-98250000D01*
X90750000Y-98250000D02*
X90750000Y-104250000D01*
X90750000Y-104250000D02*
X84750000Y-104250000D01*
X89765564Y-101250000D02*
G75*
G02*
X85734436Y-101250000I-2015564J0D01*
G01*
X85734436Y-101250000D02*
G75*
G02*
X89765564Y-101250000I2015564J0D01*
G01*
X152250000Y-98250000D02*
X155250000Y-98250000D01*
X152250000Y-104250000D02*
X152250000Y-98250000D01*
X155250000Y-98250000D02*
X158250000Y-98250000D01*
X158250000Y-98250000D02*
X158250000Y-104250000D01*
X158250000Y-104250000D02*
X152250000Y-104250000D01*
X157265564Y-101250000D02*
G75*
G02*
X153234436Y-101250000I-2015564J0D01*
G01*
X153234436Y-101250000D02*
G75*
G02*
X157265564Y-101250000I2015564J0D01*
G01*
X138750000Y-110250000D02*
X141750000Y-110250000D01*
X138750000Y-116250000D02*
X138750000Y-110250000D01*
X141750000Y-110250000D02*
X144750000Y-110250000D01*
X144750000Y-110250000D02*
X144750000Y-116250000D01*
X144750000Y-116250000D02*
X138750000Y-116250000D01*
X143765564Y-113250000D02*
G75*
G02*
X139734436Y-113250000I-2015564J0D01*
G01*
X139734436Y-113250000D02*
G75*
G02*
X143765564Y-113250000I2015564J0D01*
G01*
X125250000Y-110250000D02*
X128250000Y-110250000D01*
X125250000Y-116250000D02*
X125250000Y-110250000D01*
X128250000Y-110250000D02*
X131250000Y-110250000D01*
X131250000Y-110250000D02*
X131250000Y-116250000D01*
X131250000Y-116250000D02*
X125250000Y-116250000D01*
X130265564Y-113250000D02*
G75*
G02*
X126234436Y-113250000I-2015564J0D01*
G01*
X126234436Y-113250000D02*
G75*
G02*
X130265564Y-113250000I2015564J0D01*
G01*
X111750000Y-98250000D02*
X114750000Y-98250000D01*
X111750000Y-104250000D02*
X111750000Y-98250000D01*
X114750000Y-98250000D02*
X117750000Y-98250000D01*
X117750000Y-98250000D02*
X117750000Y-104250000D01*
X117750000Y-104250000D02*
X111750000Y-104250000D01*
X116765564Y-101250000D02*
G75*
G02*
X112734436Y-101250000I-2015564J0D01*
G01*
X112734436Y-101250000D02*
G75*
G02*
X116765564Y-101250000I2015564J0D01*
G01*
X138750000Y-86250000D02*
X141750000Y-86250000D01*
X138750000Y-92250000D02*
X138750000Y-86250000D01*
X141750000Y-86250000D02*
X144750000Y-86250000D01*
X144750000Y-86250000D02*
X144750000Y-92250000D01*
X144750000Y-92250000D02*
X138750000Y-92250000D01*
X143765564Y-89250000D02*
G75*
G02*
X139734436Y-89250000I-2015564J0D01*
G01*
X139734436Y-89250000D02*
G75*
G02*
X143765564Y-89250000I2015564J0D01*
G01*
X179250000Y-86250000D02*
X182250000Y-86250000D01*
X179250000Y-92250000D02*
X179250000Y-86250000D01*
X182250000Y-86250000D02*
X185250000Y-86250000D01*
X185250000Y-86250000D02*
X185250000Y-92250000D01*
X185250000Y-92250000D02*
X179250000Y-92250000D01*
X184265564Y-89250000D02*
G75*
G02*
X180234436Y-89250000I-2015564J0D01*
G01*
X180234436Y-89250000D02*
G75*
G02*
X184265564Y-89250000I2015564J0D01*
G01*
X152250000Y-86250000D02*
X155250000Y-86250000D01*
X152250000Y-92250000D02*
X152250000Y-86250000D01*
X155250000Y-86250000D02*
X158250000Y-86250000D01*
X158250000Y-86250000D02*
X158250000Y-92250000D01*
X158250000Y-92250000D02*
X152250000Y-92250000D01*
X157265564Y-89250000D02*
G75*
G02*
X153234436Y-89250000I-2015564J0D01*
G01*
X153234436Y-89250000D02*
G75*
G02*
X157265564Y-89250000I2015564J0D01*
G01*
X98250000Y-98250000D02*
X101250000Y-98250000D01*
X98250000Y-104250000D02*
X98250000Y-98250000D01*
X101250000Y-98250000D02*
X104250000Y-98250000D01*
X104250000Y-98250000D02*
X104250000Y-104250000D01*
X104250000Y-104250000D02*
X98250000Y-104250000D01*
X103265564Y-101250000D02*
G75*
G02*
X99234436Y-101250000I-2015564J0D01*
G01*
X99234436Y-101250000D02*
G75*
G02*
X103265564Y-101250000I2015564J0D01*
G01*
X111750000Y-110250000D02*
X114750000Y-110250000D01*
X111750000Y-116250000D02*
X111750000Y-110250000D01*
X114750000Y-110250000D02*
X117750000Y-110250000D01*
X117750000Y-110250000D02*
X117750000Y-116250000D01*
X117750000Y-116250000D02*
X111750000Y-116250000D01*
X116765564Y-113250000D02*
G75*
G02*
X112734436Y-113250000I-2015564J0D01*
G01*
X112734436Y-113250000D02*
G75*
G02*
X116765564Y-113250000I2015564J0D01*
G01*
X111750000Y-86250000D02*
X114750000Y-86250000D01*
X111750000Y-92250000D02*
X111750000Y-86250000D01*
X114750000Y-86250000D02*
X117750000Y-86250000D01*
X117750000Y-86250000D02*
X117750000Y-92250000D01*
X117750000Y-92250000D02*
X111750000Y-92250000D01*
X116765564Y-89250000D02*
G75*
G02*
X112734436Y-89250000I-2015564J0D01*
G01*
X112734436Y-89250000D02*
G75*
G02*
X116765564Y-89250000I2015564J0D01*
G01*
%TD*%
M02*
