%TF.GenerationSoftware,KiCad,Pcbnew,9.0.7*%
%TF.CreationDate,2026-01-30T19:35:37-03:00*%
%TF.ProjectId,teclado_matricial,7465636c-6164-46f5-9f6d-617472696369,rev?*%
%TF.SameCoordinates,Original*%
%TF.FileFunction,AssemblyDrawing,Top*%
%FSLAX46Y46*%
G04 Gerber Fmt 4.6, Leading zero omitted, Abs format (unit mm)*
G04 Created by KiCad (PCBNEW 9.0.7) date 2026-01-30 19:35:37*
%MOMM*%
%LPD*%
G01*
G04 APERTURE LIST*
%ADD10C,0.150000*%
%ADD11C,0.100000*%
G04 APERTURE END LIST*
D10*
X100821429Y-88704819D02*
X101059524Y-89704819D01*
X101059524Y-89704819D02*
X101250000Y-88990533D01*
X101250000Y-88990533D02*
X101440476Y-89704819D01*
X101440476Y-89704819D02*
X101678572Y-88704819D01*
X155250000Y-89228628D02*
X155250000Y-89704819D01*
X154916667Y-88704819D02*
X155250000Y-89228628D01*
X155250000Y-89228628D02*
X155583333Y-88704819D01*
X194845238Y-113181009D02*
X194511905Y-113181009D01*
X194511905Y-113704819D02*
X194511905Y-112704819D01*
X194511905Y-112704819D02*
X194988095Y-112704819D01*
X195369048Y-112704819D02*
X195369048Y-113514342D01*
X195369048Y-113514342D02*
X195416667Y-113609580D01*
X195416667Y-113609580D02*
X195464286Y-113657200D01*
X195464286Y-113657200D02*
X195559524Y-113704819D01*
X195559524Y-113704819D02*
X195750000Y-113704819D01*
X195750000Y-113704819D02*
X195845238Y-113657200D01*
X195845238Y-113657200D02*
X195892857Y-113609580D01*
X195892857Y-113609580D02*
X195940476Y-113514342D01*
X195940476Y-113514342D02*
X195940476Y-112704819D01*
X196416667Y-113704819D02*
X196416667Y-112704819D01*
X196416667Y-112704819D02*
X196988095Y-113704819D01*
X196988095Y-113704819D02*
X196988095Y-112704819D01*
X181916667Y-113704819D02*
X181916667Y-112704819D01*
X181916667Y-112704819D02*
X182250000Y-113419104D01*
X182250000Y-113419104D02*
X182583333Y-112704819D01*
X182583333Y-112704819D02*
X182583333Y-113704819D01*
X128392857Y-101181009D02*
X128059524Y-101181009D01*
X128059524Y-101704819D02*
X128059524Y-100704819D01*
X128059524Y-100704819D02*
X128535714Y-100704819D01*
X87416667Y-112704819D02*
X88083333Y-112704819D01*
X88083333Y-112704819D02*
X87416667Y-113704819D01*
X87416667Y-113704819D02*
X88083333Y-113704819D01*
X141464286Y-88704819D02*
X142035714Y-88704819D01*
X141750000Y-89704819D02*
X141750000Y-88704819D01*
X88130952Y-89800057D02*
X88035714Y-89752438D01*
X88035714Y-89752438D02*
X87940476Y-89657200D01*
X87940476Y-89657200D02*
X87797619Y-89514342D01*
X87797619Y-89514342D02*
X87702381Y-89466723D01*
X87702381Y-89466723D02*
X87607143Y-89466723D01*
X87654762Y-89704819D02*
X87559524Y-89657200D01*
X87559524Y-89657200D02*
X87464286Y-89561961D01*
X87464286Y-89561961D02*
X87416667Y-89371485D01*
X87416667Y-89371485D02*
X87416667Y-89038152D01*
X87416667Y-89038152D02*
X87464286Y-88847676D01*
X87464286Y-88847676D02*
X87559524Y-88752438D01*
X87559524Y-88752438D02*
X87654762Y-88704819D01*
X87654762Y-88704819D02*
X87845238Y-88704819D01*
X87845238Y-88704819D02*
X87940476Y-88752438D01*
X87940476Y-88752438D02*
X88035714Y-88847676D01*
X88035714Y-88847676D02*
X88083333Y-89038152D01*
X88083333Y-89038152D02*
X88083333Y-89371485D01*
X88083333Y-89371485D02*
X88035714Y-89561961D01*
X88035714Y-89561961D02*
X87940476Y-89657200D01*
X87940476Y-89657200D02*
X87845238Y-89704819D01*
X87845238Y-89704819D02*
X87654762Y-89704819D01*
X141821428Y-113181009D02*
X141964285Y-113228628D01*
X141964285Y-113228628D02*
X142011904Y-113276247D01*
X142011904Y-113276247D02*
X142059523Y-113371485D01*
X142059523Y-113371485D02*
X142059523Y-113514342D01*
X142059523Y-113514342D02*
X142011904Y-113609580D01*
X142011904Y-113609580D02*
X141964285Y-113657200D01*
X141964285Y-113657200D02*
X141869047Y-113704819D01*
X141869047Y-113704819D02*
X141488095Y-113704819D01*
X141488095Y-113704819D02*
X141488095Y-112704819D01*
X141488095Y-112704819D02*
X141821428Y-112704819D01*
X141821428Y-112704819D02*
X141916666Y-112752438D01*
X141916666Y-112752438D02*
X141964285Y-112800057D01*
X141964285Y-112800057D02*
X142011904Y-112895295D01*
X142011904Y-112895295D02*
X142011904Y-112990533D01*
X142011904Y-112990533D02*
X141964285Y-113085771D01*
X141964285Y-113085771D02*
X141916666Y-113133390D01*
X141916666Y-113133390D02*
X141821428Y-113181009D01*
X141821428Y-113181009D02*
X141488095Y-113181009D01*
X207178571Y-101704819D02*
X206845238Y-101228628D01*
X206607143Y-101704819D02*
X206607143Y-100704819D01*
X206607143Y-100704819D02*
X206988095Y-100704819D01*
X206988095Y-100704819D02*
X207083333Y-100752438D01*
X207083333Y-100752438D02*
X207130952Y-100800057D01*
X207130952Y-100800057D02*
X207178571Y-100895295D01*
X207178571Y-100895295D02*
X207178571Y-101038152D01*
X207178571Y-101038152D02*
X207130952Y-101133390D01*
X207130952Y-101133390D02*
X207083333Y-101181009D01*
X207083333Y-101181009D02*
X206988095Y-101228628D01*
X206988095Y-101228628D02*
X206607143Y-101228628D01*
X207607143Y-101181009D02*
X207940476Y-101181009D01*
X208083333Y-101704819D02*
X207607143Y-101704819D01*
X207607143Y-101704819D02*
X207607143Y-100704819D01*
X207607143Y-100704819D02*
X208083333Y-100704819D01*
X208369048Y-100704819D02*
X208940476Y-100704819D01*
X208654762Y-101704819D02*
X208654762Y-100704819D01*
X209273810Y-100704819D02*
X209273810Y-101514342D01*
X209273810Y-101514342D02*
X209321429Y-101609580D01*
X209321429Y-101609580D02*
X209369048Y-101657200D01*
X209369048Y-101657200D02*
X209464286Y-101704819D01*
X209464286Y-101704819D02*
X209654762Y-101704819D01*
X209654762Y-101704819D02*
X209750000Y-101657200D01*
X209750000Y-101657200D02*
X209797619Y-101609580D01*
X209797619Y-101609580D02*
X209845238Y-101514342D01*
X209845238Y-101514342D02*
X209845238Y-100704819D01*
X210892857Y-101704819D02*
X210559524Y-101228628D01*
X210321429Y-101704819D02*
X210321429Y-100704819D01*
X210321429Y-100704819D02*
X210702381Y-100704819D01*
X210702381Y-100704819D02*
X210797619Y-100752438D01*
X210797619Y-100752438D02*
X210845238Y-100800057D01*
X210845238Y-100800057D02*
X210892857Y-100895295D01*
X210892857Y-100895295D02*
X210892857Y-101038152D01*
X210892857Y-101038152D02*
X210845238Y-101133390D01*
X210845238Y-101133390D02*
X210797619Y-101181009D01*
X210797619Y-101181009D02*
X210702381Y-101228628D01*
X210702381Y-101228628D02*
X210321429Y-101228628D01*
X211321429Y-101704819D02*
X211321429Y-100704819D01*
X211321429Y-100704819D02*
X211892857Y-101704819D01*
X211892857Y-101704819D02*
X211892857Y-100704819D01*
X182250000Y-89704819D02*
X182250000Y-88704819D01*
X127916667Y-112704819D02*
X128250000Y-113704819D01*
X128250000Y-113704819D02*
X128583333Y-112704819D01*
X114535714Y-89181009D02*
X114869047Y-89181009D01*
X115011904Y-89704819D02*
X114535714Y-89704819D01*
X114535714Y-89704819D02*
X114535714Y-88704819D01*
X114535714Y-88704819D02*
X115011904Y-88704819D01*
X168892857Y-100704819D02*
X168892857Y-101419104D01*
X168892857Y-101419104D02*
X168845238Y-101561961D01*
X168845238Y-101561961D02*
X168750000Y-101657200D01*
X168750000Y-101657200D02*
X168607143Y-101704819D01*
X168607143Y-101704819D02*
X168511905Y-101704819D01*
X153083333Y-113657200D02*
X153226190Y-113704819D01*
X153226190Y-113704819D02*
X153464285Y-113704819D01*
X153464285Y-113704819D02*
X153559523Y-113657200D01*
X153559523Y-113657200D02*
X153607142Y-113609580D01*
X153607142Y-113609580D02*
X153654761Y-113514342D01*
X153654761Y-113514342D02*
X153654761Y-113419104D01*
X153654761Y-113419104D02*
X153607142Y-113323866D01*
X153607142Y-113323866D02*
X153559523Y-113276247D01*
X153559523Y-113276247D02*
X153464285Y-113228628D01*
X153464285Y-113228628D02*
X153273809Y-113181009D01*
X153273809Y-113181009D02*
X153178571Y-113133390D01*
X153178571Y-113133390D02*
X153130952Y-113085771D01*
X153130952Y-113085771D02*
X153083333Y-112990533D01*
X153083333Y-112990533D02*
X153083333Y-112895295D01*
X153083333Y-112895295D02*
X153130952Y-112800057D01*
X153130952Y-112800057D02*
X153178571Y-112752438D01*
X153178571Y-112752438D02*
X153273809Y-112704819D01*
X153273809Y-112704819D02*
X153511904Y-112704819D01*
X153511904Y-112704819D02*
X153654761Y-112752438D01*
X154083333Y-113704819D02*
X154083333Y-112704819D01*
X154083333Y-112704819D02*
X154464285Y-112704819D01*
X154464285Y-112704819D02*
X154559523Y-112752438D01*
X154559523Y-112752438D02*
X154607142Y-112800057D01*
X154607142Y-112800057D02*
X154654761Y-112895295D01*
X154654761Y-112895295D02*
X154654761Y-113038152D01*
X154654761Y-113038152D02*
X154607142Y-113133390D01*
X154607142Y-113133390D02*
X154559523Y-113181009D01*
X154559523Y-113181009D02*
X154464285Y-113228628D01*
X154464285Y-113228628D02*
X154083333Y-113228628D01*
X155035714Y-113419104D02*
X155511904Y-113419104D01*
X154940476Y-113704819D02*
X155273809Y-112704819D01*
X155273809Y-112704819D02*
X155607142Y-113704819D01*
X156511904Y-113609580D02*
X156464285Y-113657200D01*
X156464285Y-113657200D02*
X156321428Y-113704819D01*
X156321428Y-113704819D02*
X156226190Y-113704819D01*
X156226190Y-113704819D02*
X156083333Y-113657200D01*
X156083333Y-113657200D02*
X155988095Y-113561961D01*
X155988095Y-113561961D02*
X155940476Y-113466723D01*
X155940476Y-113466723D02*
X155892857Y-113276247D01*
X155892857Y-113276247D02*
X155892857Y-113133390D01*
X155892857Y-113133390D02*
X155940476Y-112942914D01*
X155940476Y-112942914D02*
X155988095Y-112847676D01*
X155988095Y-112847676D02*
X156083333Y-112752438D01*
X156083333Y-112752438D02*
X156226190Y-112704819D01*
X156226190Y-112704819D02*
X156321428Y-112704819D01*
X156321428Y-112704819D02*
X156464285Y-112752438D01*
X156464285Y-112752438D02*
X156511904Y-112800057D01*
X156940476Y-113181009D02*
X157273809Y-113181009D01*
X157416666Y-113704819D02*
X156940476Y-113704819D01*
X156940476Y-113704819D02*
X156940476Y-112704819D01*
X156940476Y-112704819D02*
X157416666Y-112704819D01*
X168464286Y-88704819D02*
X168464286Y-89514342D01*
X168464286Y-89514342D02*
X168511905Y-89609580D01*
X168511905Y-89609580D02*
X168559524Y-89657200D01*
X168559524Y-89657200D02*
X168654762Y-89704819D01*
X168654762Y-89704819D02*
X168845238Y-89704819D01*
X168845238Y-89704819D02*
X168940476Y-89657200D01*
X168940476Y-89657200D02*
X168988095Y-89609580D01*
X168988095Y-89609580D02*
X169035714Y-89514342D01*
X169035714Y-89514342D02*
X169035714Y-88704819D01*
X181988095Y-101704819D02*
X181988095Y-100704819D01*
X182559523Y-101704819D02*
X182130952Y-101133390D01*
X182559523Y-100704819D02*
X181988095Y-101276247D01*
X195654762Y-88704819D02*
X195845238Y-88704819D01*
X195845238Y-88704819D02*
X195940476Y-88752438D01*
X195940476Y-88752438D02*
X196035714Y-88847676D01*
X196035714Y-88847676D02*
X196083333Y-89038152D01*
X196083333Y-89038152D02*
X196083333Y-89371485D01*
X196083333Y-89371485D02*
X196035714Y-89561961D01*
X196035714Y-89561961D02*
X195940476Y-89657200D01*
X195940476Y-89657200D02*
X195845238Y-89704819D01*
X195845238Y-89704819D02*
X195654762Y-89704819D01*
X195654762Y-89704819D02*
X195559524Y-89657200D01*
X195559524Y-89657200D02*
X195464286Y-89561961D01*
X195464286Y-89561961D02*
X195416667Y-89371485D01*
X195416667Y-89371485D02*
X195416667Y-89038152D01*
X195416667Y-89038152D02*
X195464286Y-88847676D01*
X195464286Y-88847676D02*
X195559524Y-88752438D01*
X195559524Y-88752438D02*
X195654762Y-88704819D01*
X114488095Y-101704819D02*
X114488095Y-100704819D01*
X114488095Y-100704819D02*
X114726190Y-100704819D01*
X114726190Y-100704819D02*
X114869047Y-100752438D01*
X114869047Y-100752438D02*
X114964285Y-100847676D01*
X114964285Y-100847676D02*
X115011904Y-100942914D01*
X115011904Y-100942914D02*
X115059523Y-101133390D01*
X115059523Y-101133390D02*
X115059523Y-101276247D01*
X115059523Y-101276247D02*
X115011904Y-101466723D01*
X115011904Y-101466723D02*
X114964285Y-101561961D01*
X114964285Y-101561961D02*
X114869047Y-101657200D01*
X114869047Y-101657200D02*
X114726190Y-101704819D01*
X114726190Y-101704819D02*
X114488095Y-101704819D01*
X154964286Y-101704819D02*
X154964286Y-100704819D01*
X154964286Y-101181009D02*
X155535714Y-101181009D01*
X155535714Y-101704819D02*
X155535714Y-100704819D01*
X87511905Y-101419104D02*
X87988095Y-101419104D01*
X87416667Y-101704819D02*
X87750000Y-100704819D01*
X87750000Y-100704819D02*
X88083333Y-101704819D01*
X207178571Y-113181009D02*
X207511904Y-113181009D01*
X207654761Y-113704819D02*
X207178571Y-113704819D01*
X207178571Y-113704819D02*
X207178571Y-112704819D01*
X207178571Y-112704819D02*
X207654761Y-112704819D01*
X208083333Y-113704819D02*
X208083333Y-112704819D01*
X208083333Y-112704819D02*
X208654761Y-113704819D01*
X208654761Y-113704819D02*
X208654761Y-112704819D01*
X208988095Y-112704819D02*
X209559523Y-112704819D01*
X209273809Y-113704819D02*
X209273809Y-112704819D01*
X209892857Y-113181009D02*
X210226190Y-113181009D01*
X210369047Y-113704819D02*
X209892857Y-113704819D01*
X209892857Y-113704819D02*
X209892857Y-112704819D01*
X209892857Y-112704819D02*
X210369047Y-112704819D01*
X211369047Y-113704819D02*
X211035714Y-113228628D01*
X210797619Y-113704819D02*
X210797619Y-112704819D01*
X210797619Y-112704819D02*
X211178571Y-112704819D01*
X211178571Y-112704819D02*
X211273809Y-112752438D01*
X211273809Y-112752438D02*
X211321428Y-112800057D01*
X211321428Y-112800057D02*
X211369047Y-112895295D01*
X211369047Y-112895295D02*
X211369047Y-113038152D01*
X211369047Y-113038152D02*
X211321428Y-113133390D01*
X211321428Y-113133390D02*
X211273809Y-113181009D01*
X211273809Y-113181009D02*
X211178571Y-113228628D01*
X211178571Y-113228628D02*
X210797619Y-113228628D01*
X208988095Y-89704819D02*
X208988095Y-88704819D01*
X208988095Y-88704819D02*
X209369047Y-88704819D01*
X209369047Y-88704819D02*
X209464285Y-88752438D01*
X209464285Y-88752438D02*
X209511904Y-88800057D01*
X209511904Y-88800057D02*
X209559523Y-88895295D01*
X209559523Y-88895295D02*
X209559523Y-89038152D01*
X209559523Y-89038152D02*
X209511904Y-89133390D01*
X209511904Y-89133390D02*
X209464285Y-89181009D01*
X209464285Y-89181009D02*
X209369047Y-89228628D01*
X209369047Y-89228628D02*
X208988095Y-89228628D01*
X142011904Y-100752438D02*
X141916666Y-100704819D01*
X141916666Y-100704819D02*
X141773809Y-100704819D01*
X141773809Y-100704819D02*
X141630952Y-100752438D01*
X141630952Y-100752438D02*
X141535714Y-100847676D01*
X141535714Y-100847676D02*
X141488095Y-100942914D01*
X141488095Y-100942914D02*
X141440476Y-101133390D01*
X141440476Y-101133390D02*
X141440476Y-101276247D01*
X141440476Y-101276247D02*
X141488095Y-101466723D01*
X141488095Y-101466723D02*
X141535714Y-101561961D01*
X141535714Y-101561961D02*
X141630952Y-101657200D01*
X141630952Y-101657200D02*
X141773809Y-101704819D01*
X141773809Y-101704819D02*
X141869047Y-101704819D01*
X141869047Y-101704819D02*
X142011904Y-101657200D01*
X142011904Y-101657200D02*
X142059523Y-101609580D01*
X142059523Y-101609580D02*
X142059523Y-101276247D01*
X142059523Y-101276247D02*
X141869047Y-101276247D01*
X115059523Y-113609580D02*
X115011904Y-113657200D01*
X115011904Y-113657200D02*
X114869047Y-113704819D01*
X114869047Y-113704819D02*
X114773809Y-113704819D01*
X114773809Y-113704819D02*
X114630952Y-113657200D01*
X114630952Y-113657200D02*
X114535714Y-113561961D01*
X114535714Y-113561961D02*
X114488095Y-113466723D01*
X114488095Y-113466723D02*
X114440476Y-113276247D01*
X114440476Y-113276247D02*
X114440476Y-113133390D01*
X114440476Y-113133390D02*
X114488095Y-112942914D01*
X114488095Y-112942914D02*
X114535714Y-112847676D01*
X114535714Y-112847676D02*
X114630952Y-112752438D01*
X114630952Y-112752438D02*
X114773809Y-112704819D01*
X114773809Y-112704819D02*
X114869047Y-112704819D01*
X114869047Y-112704819D02*
X115011904Y-112752438D01*
X115011904Y-112752438D02*
X115059523Y-112800057D01*
X168464286Y-113704819D02*
X168464286Y-112704819D01*
X168464286Y-112704819D02*
X169035714Y-113704819D01*
X169035714Y-113704819D02*
X169035714Y-112704819D01*
X100916667Y-112704819D02*
X101583333Y-113704819D01*
X101583333Y-112704819D02*
X100916667Y-113704819D01*
X196059523Y-101704819D02*
X195583333Y-101704819D01*
X195583333Y-101704819D02*
X195583333Y-100704819D01*
X100964286Y-101657200D02*
X101107143Y-101704819D01*
X101107143Y-101704819D02*
X101345238Y-101704819D01*
X101345238Y-101704819D02*
X101440476Y-101657200D01*
X101440476Y-101657200D02*
X101488095Y-101609580D01*
X101488095Y-101609580D02*
X101535714Y-101514342D01*
X101535714Y-101514342D02*
X101535714Y-101419104D01*
X101535714Y-101419104D02*
X101488095Y-101323866D01*
X101488095Y-101323866D02*
X101440476Y-101276247D01*
X101440476Y-101276247D02*
X101345238Y-101228628D01*
X101345238Y-101228628D02*
X101154762Y-101181009D01*
X101154762Y-101181009D02*
X101059524Y-101133390D01*
X101059524Y-101133390D02*
X101011905Y-101085771D01*
X101011905Y-101085771D02*
X100964286Y-100990533D01*
X100964286Y-100990533D02*
X100964286Y-100895295D01*
X100964286Y-100895295D02*
X101011905Y-100800057D01*
X101011905Y-100800057D02*
X101059524Y-100752438D01*
X101059524Y-100752438D02*
X101154762Y-100704819D01*
X101154762Y-100704819D02*
X101392857Y-100704819D01*
X101392857Y-100704819D02*
X101535714Y-100752438D01*
X128559523Y-89704819D02*
X128226190Y-89228628D01*
X127988095Y-89704819D02*
X127988095Y-88704819D01*
X127988095Y-88704819D02*
X128369047Y-88704819D01*
X128369047Y-88704819D02*
X128464285Y-88752438D01*
X128464285Y-88752438D02*
X128511904Y-88800057D01*
X128511904Y-88800057D02*
X128559523Y-88895295D01*
X128559523Y-88895295D02*
X128559523Y-89038152D01*
X128559523Y-89038152D02*
X128511904Y-89133390D01*
X128511904Y-89133390D02*
X128464285Y-89181009D01*
X128464285Y-89181009D02*
X128369047Y-89228628D01*
X128369047Y-89228628D02*
X127988095Y-89228628D01*
D11*
%TO.C,j*%
X165750000Y-98250000D02*
X168750000Y-98250000D01*
X165750000Y-104250000D02*
X165750000Y-98250000D01*
X168750000Y-98250000D02*
X171750000Y-98250000D01*
X171750000Y-98250000D02*
X171750000Y-104250000D01*
X171750000Y-104250000D02*
X165750000Y-104250000D01*
X170765564Y-101250000D02*
G75*
G02*
X166734436Y-101250000I-2015564J0D01*
G01*
X166734436Y-101250000D02*
G75*
G02*
X170765564Y-101250000I2015564J0D01*
G01*
%TO.C,g*%
X138750000Y-98250000D02*
X141750000Y-98250000D01*
X138750000Y-104250000D02*
X138750000Y-98250000D01*
X141750000Y-98250000D02*
X144750000Y-98250000D01*
X144750000Y-98250000D02*
X144750000Y-104250000D01*
X144750000Y-104250000D02*
X138750000Y-104250000D01*
X143765564Y-101250000D02*
G75*
G02*
X139734436Y-101250000I-2015564J0D01*
G01*
X139734436Y-101250000D02*
G75*
G02*
X143765564Y-101250000I2015564J0D01*
G01*
%TO.C,z*%
X84750000Y-110250000D02*
X87750000Y-110250000D01*
X84750000Y-116250000D02*
X84750000Y-110250000D01*
X87750000Y-110250000D02*
X90750000Y-110250000D01*
X90750000Y-110250000D02*
X90750000Y-116250000D01*
X90750000Y-116250000D02*
X84750000Y-116250000D01*
X89765564Y-113250000D02*
G75*
G02*
X85734436Y-113250000I-2015564J0D01*
G01*
X85734436Y-113250000D02*
G75*
G02*
X89765564Y-113250000I2015564J0D01*
G01*
%TO.C,u*%
X165750000Y-86250000D02*
X168750000Y-86250000D01*
X165750000Y-92250000D02*
X165750000Y-86250000D01*
X168750000Y-86250000D02*
X171750000Y-86250000D01*
X171750000Y-86250000D02*
X171750000Y-92250000D01*
X171750000Y-92250000D02*
X165750000Y-92250000D01*
X170765564Y-89250000D02*
G75*
G02*
X166734436Y-89250000I-2015564J0D01*
G01*
X166734436Y-89250000D02*
G75*
G02*
X170765564Y-89250000I2015564J0D01*
G01*
%TO.C,o*%
X192750000Y-86250000D02*
X195750000Y-86250000D01*
X192750000Y-92250000D02*
X192750000Y-86250000D01*
X195750000Y-86250000D02*
X198750000Y-86250000D01*
X198750000Y-86250000D02*
X198750000Y-92250000D01*
X198750000Y-92250000D02*
X192750000Y-92250000D01*
X197765564Y-89250000D02*
G75*
G02*
X193734436Y-89250000I-2015564J0D01*
G01*
X193734436Y-89250000D02*
G75*
G02*
X197765564Y-89250000I2015564J0D01*
G01*
%TO.C,n*%
X165750000Y-110250000D02*
X168750000Y-110250000D01*
X165750000Y-116250000D02*
X165750000Y-110250000D01*
X168750000Y-110250000D02*
X171750000Y-110250000D01*
X171750000Y-110250000D02*
X171750000Y-116250000D01*
X171750000Y-116250000D02*
X165750000Y-116250000D01*
X170765564Y-113250000D02*
G75*
G02*
X166734436Y-113250000I-2015564J0D01*
G01*
X166734436Y-113250000D02*
G75*
G02*
X170765564Y-113250000I2015564J0D01*
G01*
%TO.C,ret*%
X206250000Y-98250000D02*
X209250000Y-98250000D01*
X206250000Y-104250000D02*
X206250000Y-98250000D01*
X209250000Y-98250000D02*
X212250000Y-98250000D01*
X212250000Y-98250000D02*
X212250000Y-104250000D01*
X212250000Y-104250000D02*
X206250000Y-104250000D01*
X211265564Y-101250000D02*
G75*
G02*
X207234436Y-101250000I-2015564J0D01*
G01*
X207234436Y-101250000D02*
G75*
G02*
X211265564Y-101250000I2015564J0D01*
G01*
%TO.C,space*%
X152250000Y-110250000D02*
X155250000Y-110250000D01*
X152250000Y-116250000D02*
X152250000Y-110250000D01*
X155250000Y-110250000D02*
X158250000Y-110250000D01*
X158250000Y-110250000D02*
X158250000Y-116250000D01*
X158250000Y-116250000D02*
X152250000Y-116250000D01*
X157265564Y-113250000D02*
G75*
G02*
X153234436Y-113250000I-2015564J0D01*
G01*
X153234436Y-113250000D02*
G75*
G02*
X157265564Y-113250000I2015564J0D01*
G01*
%TO.C,q*%
X84750000Y-86250000D02*
X87750000Y-86250000D01*
X84750000Y-92250000D02*
X84750000Y-86250000D01*
X87750000Y-86250000D02*
X90750000Y-86250000D01*
X90750000Y-86250000D02*
X90750000Y-92250000D01*
X90750000Y-92250000D02*
X84750000Y-92250000D01*
X89765564Y-89250000D02*
G75*
G02*
X85734436Y-89250000I-2015564J0D01*
G01*
X85734436Y-89250000D02*
G75*
G02*
X89765564Y-89250000I2015564J0D01*
G01*
%TO.C,fun*%
X192750000Y-110250000D02*
X195750000Y-110250000D01*
X192750000Y-116250000D02*
X192750000Y-110250000D01*
X195750000Y-110250000D02*
X198750000Y-110250000D01*
X198750000Y-110250000D02*
X198750000Y-116250000D01*
X198750000Y-116250000D02*
X192750000Y-116250000D01*
X197765564Y-113250000D02*
G75*
G02*
X193734436Y-113250000I-2015564J0D01*
G01*
X193734436Y-113250000D02*
G75*
G02*
X197765564Y-113250000I2015564J0D01*
G01*
%TO.C,m*%
X179250000Y-110250000D02*
X182250000Y-110250000D01*
X179250000Y-116250000D02*
X179250000Y-110250000D01*
X182250000Y-110250000D02*
X185250000Y-110250000D01*
X185250000Y-110250000D02*
X185250000Y-116250000D01*
X185250000Y-116250000D02*
X179250000Y-116250000D01*
X184265564Y-113250000D02*
G75*
G02*
X180234436Y-113250000I-2015564J0D01*
G01*
X180234436Y-113250000D02*
G75*
G02*
X184265564Y-113250000I2015564J0D01*
G01*
%TO.C,f*%
X125250000Y-98250000D02*
X128250000Y-98250000D01*
X125250000Y-104250000D02*
X125250000Y-98250000D01*
X128250000Y-98250000D02*
X131250000Y-98250000D01*
X131250000Y-98250000D02*
X131250000Y-104250000D01*
X131250000Y-104250000D02*
X125250000Y-104250000D01*
X130265564Y-101250000D02*
G75*
G02*
X126234436Y-101250000I-2015564J0D01*
G01*
X126234436Y-101250000D02*
G75*
G02*
X130265564Y-101250000I2015564J0D01*
G01*
%TO.C,x*%
X98250000Y-110250000D02*
X101250000Y-110250000D01*
X98250000Y-116250000D02*
X98250000Y-110250000D01*
X101250000Y-110250000D02*
X104250000Y-110250000D01*
X104250000Y-110250000D02*
X104250000Y-116250000D01*
X104250000Y-116250000D02*
X98250000Y-116250000D01*
X103265564Y-113250000D02*
G75*
G02*
X99234436Y-113250000I-2015564J0D01*
G01*
X99234436Y-113250000D02*
G75*
G02*
X103265564Y-113250000I2015564J0D01*
G01*
%TO.C,r*%
X125250000Y-86250000D02*
X128250000Y-86250000D01*
X125250000Y-92250000D02*
X125250000Y-86250000D01*
X128250000Y-86250000D02*
X131250000Y-86250000D01*
X131250000Y-86250000D02*
X131250000Y-92250000D01*
X131250000Y-92250000D02*
X125250000Y-92250000D01*
X130265564Y-89250000D02*
G75*
G02*
X126234436Y-89250000I-2015564J0D01*
G01*
X126234436Y-89250000D02*
G75*
G02*
X130265564Y-89250000I2015564J0D01*
G01*
%TO.C,k*%
X179250000Y-98250000D02*
X182250000Y-98250000D01*
X179250000Y-104250000D02*
X179250000Y-98250000D01*
X182250000Y-98250000D02*
X185250000Y-98250000D01*
X185250000Y-98250000D02*
X185250000Y-104250000D01*
X185250000Y-104250000D02*
X179250000Y-104250000D01*
X184265564Y-101250000D02*
G75*
G02*
X180234436Y-101250000I-2015564J0D01*
G01*
X180234436Y-101250000D02*
G75*
G02*
X184265564Y-101250000I2015564J0D01*
G01*
%TO.C,w*%
X98250000Y-86250000D02*
X101250000Y-86250000D01*
X98250000Y-92250000D02*
X98250000Y-86250000D01*
X101250000Y-86250000D02*
X104250000Y-86250000D01*
X104250000Y-86250000D02*
X104250000Y-92250000D01*
X104250000Y-92250000D02*
X98250000Y-92250000D01*
X103265564Y-89250000D02*
G75*
G02*
X99234436Y-89250000I-2015564J0D01*
G01*
X99234436Y-89250000D02*
G75*
G02*
X103265564Y-89250000I2015564J0D01*
G01*
%TO.C,enter*%
X206250000Y-110250000D02*
X209250000Y-110250000D01*
X206250000Y-116250000D02*
X206250000Y-110250000D01*
X209250000Y-110250000D02*
X212250000Y-110250000D01*
X212250000Y-110250000D02*
X212250000Y-116250000D01*
X212250000Y-116250000D02*
X206250000Y-116250000D01*
X211265564Y-113250000D02*
G75*
G02*
X207234436Y-113250000I-2015564J0D01*
G01*
X207234436Y-113250000D02*
G75*
G02*
X211265564Y-113250000I2015564J0D01*
G01*
%TO.C,p*%
X206250000Y-86250000D02*
X209250000Y-86250000D01*
X206250000Y-92250000D02*
X206250000Y-86250000D01*
X209250000Y-86250000D02*
X212250000Y-86250000D01*
X212250000Y-86250000D02*
X212250000Y-92250000D01*
X212250000Y-92250000D02*
X206250000Y-92250000D01*
X211265564Y-89250000D02*
G75*
G02*
X207234436Y-89250000I-2015564J0D01*
G01*
X207234436Y-89250000D02*
G75*
G02*
X211265564Y-89250000I2015564J0D01*
G01*
%TO.C,l*%
X192750000Y-98250000D02*
X195750000Y-98250000D01*
X192750000Y-104250000D02*
X192750000Y-98250000D01*
X195750000Y-98250000D02*
X198750000Y-98250000D01*
X198750000Y-98250000D02*
X198750000Y-104250000D01*
X198750000Y-104250000D02*
X192750000Y-104250000D01*
X197765564Y-101250000D02*
G75*
G02*
X193734436Y-101250000I-2015564J0D01*
G01*
X193734436Y-101250000D02*
G75*
G02*
X197765564Y-101250000I2015564J0D01*
G01*
%TO.C,a*%
X84750000Y-98250000D02*
X87750000Y-98250000D01*
X84750000Y-104250000D02*
X84750000Y-98250000D01*
X87750000Y-98250000D02*
X90750000Y-98250000D01*
X90750000Y-98250000D02*
X90750000Y-104250000D01*
X90750000Y-104250000D02*
X84750000Y-104250000D01*
X89765564Y-101250000D02*
G75*
G02*
X85734436Y-101250000I-2015564J0D01*
G01*
X85734436Y-101250000D02*
G75*
G02*
X89765564Y-101250000I2015564J0D01*
G01*
%TO.C,h*%
X152250000Y-98250000D02*
X155250000Y-98250000D01*
X152250000Y-104250000D02*
X152250000Y-98250000D01*
X155250000Y-98250000D02*
X158250000Y-98250000D01*
X158250000Y-98250000D02*
X158250000Y-104250000D01*
X158250000Y-104250000D02*
X152250000Y-104250000D01*
X157265564Y-101250000D02*
G75*
G02*
X153234436Y-101250000I-2015564J0D01*
G01*
X153234436Y-101250000D02*
G75*
G02*
X157265564Y-101250000I2015564J0D01*
G01*
%TO.C,b*%
X138750000Y-110250000D02*
X141750000Y-110250000D01*
X138750000Y-116250000D02*
X138750000Y-110250000D01*
X141750000Y-110250000D02*
X144750000Y-110250000D01*
X144750000Y-110250000D02*
X144750000Y-116250000D01*
X144750000Y-116250000D02*
X138750000Y-116250000D01*
X143765564Y-113250000D02*
G75*
G02*
X139734436Y-113250000I-2015564J0D01*
G01*
X139734436Y-113250000D02*
G75*
G02*
X143765564Y-113250000I2015564J0D01*
G01*
%TO.C,v*%
X125250000Y-110250000D02*
X128250000Y-110250000D01*
X125250000Y-116250000D02*
X125250000Y-110250000D01*
X128250000Y-110250000D02*
X131250000Y-110250000D01*
X131250000Y-110250000D02*
X131250000Y-116250000D01*
X131250000Y-116250000D02*
X125250000Y-116250000D01*
X130265564Y-113250000D02*
G75*
G02*
X126234436Y-113250000I-2015564J0D01*
G01*
X126234436Y-113250000D02*
G75*
G02*
X130265564Y-113250000I2015564J0D01*
G01*
%TO.C,d*%
X111750000Y-98250000D02*
X114750000Y-98250000D01*
X111750000Y-104250000D02*
X111750000Y-98250000D01*
X114750000Y-98250000D02*
X117750000Y-98250000D01*
X117750000Y-98250000D02*
X117750000Y-104250000D01*
X117750000Y-104250000D02*
X111750000Y-104250000D01*
X116765564Y-101250000D02*
G75*
G02*
X112734436Y-101250000I-2015564J0D01*
G01*
X112734436Y-101250000D02*
G75*
G02*
X116765564Y-101250000I2015564J0D01*
G01*
%TO.C,t*%
X138750000Y-86250000D02*
X141750000Y-86250000D01*
X138750000Y-92250000D02*
X138750000Y-86250000D01*
X141750000Y-86250000D02*
X144750000Y-86250000D01*
X144750000Y-86250000D02*
X144750000Y-92250000D01*
X144750000Y-92250000D02*
X138750000Y-92250000D01*
X143765564Y-89250000D02*
G75*
G02*
X139734436Y-89250000I-2015564J0D01*
G01*
X139734436Y-89250000D02*
G75*
G02*
X143765564Y-89250000I2015564J0D01*
G01*
%TO.C,i*%
X179250000Y-86250000D02*
X182250000Y-86250000D01*
X179250000Y-92250000D02*
X179250000Y-86250000D01*
X182250000Y-86250000D02*
X185250000Y-86250000D01*
X185250000Y-86250000D02*
X185250000Y-92250000D01*
X185250000Y-92250000D02*
X179250000Y-92250000D01*
X184265564Y-89250000D02*
G75*
G02*
X180234436Y-89250000I-2015564J0D01*
G01*
X180234436Y-89250000D02*
G75*
G02*
X184265564Y-89250000I2015564J0D01*
G01*
%TO.C,y*%
X152250000Y-86250000D02*
X155250000Y-86250000D01*
X152250000Y-92250000D02*
X152250000Y-86250000D01*
X155250000Y-86250000D02*
X158250000Y-86250000D01*
X158250000Y-86250000D02*
X158250000Y-92250000D01*
X158250000Y-92250000D02*
X152250000Y-92250000D01*
X157265564Y-89250000D02*
G75*
G02*
X153234436Y-89250000I-2015564J0D01*
G01*
X153234436Y-89250000D02*
G75*
G02*
X157265564Y-89250000I2015564J0D01*
G01*
%TO.C,s*%
X98250000Y-98250000D02*
X101250000Y-98250000D01*
X98250000Y-104250000D02*
X98250000Y-98250000D01*
X101250000Y-98250000D02*
X104250000Y-98250000D01*
X104250000Y-98250000D02*
X104250000Y-104250000D01*
X104250000Y-104250000D02*
X98250000Y-104250000D01*
X103265564Y-101250000D02*
G75*
G02*
X99234436Y-101250000I-2015564J0D01*
G01*
X99234436Y-101250000D02*
G75*
G02*
X103265564Y-101250000I2015564J0D01*
G01*
%TO.C,c*%
X111750000Y-110250000D02*
X114750000Y-110250000D01*
X111750000Y-116250000D02*
X111750000Y-110250000D01*
X114750000Y-110250000D02*
X117750000Y-110250000D01*
X117750000Y-110250000D02*
X117750000Y-116250000D01*
X117750000Y-116250000D02*
X111750000Y-116250000D01*
X116765564Y-113250000D02*
G75*
G02*
X112734436Y-113250000I-2015564J0D01*
G01*
X112734436Y-113250000D02*
G75*
G02*
X116765564Y-113250000I2015564J0D01*
G01*
%TO.C,e*%
X111750000Y-86250000D02*
X114750000Y-86250000D01*
X111750000Y-92250000D02*
X111750000Y-86250000D01*
X114750000Y-86250000D02*
X117750000Y-86250000D01*
X117750000Y-86250000D02*
X117750000Y-92250000D01*
X117750000Y-92250000D02*
X111750000Y-92250000D01*
X116765564Y-89250000D02*
G75*
G02*
X112734436Y-89250000I-2015564J0D01*
G01*
X112734436Y-89250000D02*
G75*
G02*
X116765564Y-89250000I2015564J0D01*
G01*
%TD*%
M02*
