%TF.GenerationSoftware,KiCad,Pcbnew,9.0.7*%
%TF.CreationDate,2026-01-30T19:35:37-03:00*%
%TF.ProjectId,teclado_matricial,7465636c-6164-46f5-9f6d-617472696369,rev?*%
%TF.SameCoordinates,Original*%
%TF.FileFunction,Glue,Top*%
%TF.FilePolarity,Positive*%
%FSLAX46Y46*%
G04 Gerber Fmt 4.6, Leading zero omitted, Abs format (unit mm)*
G04 Created by KiCad (PCBNEW 9.0.7) date 2026-01-30 19:35:37*
%MOMM*%
%LPD*%
G01*
G04 APERTURE LIST*
%ADD10C,0.175000*%
G04 APERTURE END LIST*
D10*
X107715131Y-124905233D02*
X108081797Y-124438566D01*
X107715131Y-124438566D02*
X108081797Y-124905233D01*
X108315131Y-124271900D02*
X108348464Y-124238566D01*
X108348464Y-124238566D02*
X108415131Y-124205233D01*
X108415131Y-124205233D02*
X108581798Y-124205233D01*
X108581798Y-124205233D02*
X108648464Y-124238566D01*
X108648464Y-124238566D02*
X108681798Y-124271900D01*
X108681798Y-124271900D02*
X108715131Y-124338566D01*
X108715131Y-124338566D02*
X108715131Y-124405233D01*
X108715131Y-124405233D02*
X108681798Y-124505233D01*
X108681798Y-124505233D02*
X108281798Y-124905233D01*
X108281798Y-124905233D02*
X108715131Y-124905233D01*
X117715131Y-124905233D02*
X118081797Y-124438566D01*
X117715131Y-124438566D02*
X118081797Y-124905233D01*
X118648464Y-124205233D02*
X118515131Y-124205233D01*
X118515131Y-124205233D02*
X118448464Y-124238566D01*
X118448464Y-124238566D02*
X118415131Y-124271900D01*
X118415131Y-124271900D02*
X118348464Y-124371900D01*
X118348464Y-124371900D02*
X118315131Y-124505233D01*
X118315131Y-124505233D02*
X118315131Y-124771900D01*
X118315131Y-124771900D02*
X118348464Y-124838566D01*
X118348464Y-124838566D02*
X118381798Y-124871900D01*
X118381798Y-124871900D02*
X118448464Y-124905233D01*
X118448464Y-124905233D02*
X118581798Y-124905233D01*
X118581798Y-124905233D02*
X118648464Y-124871900D01*
X118648464Y-124871900D02*
X118681798Y-124838566D01*
X118681798Y-124838566D02*
X118715131Y-124771900D01*
X118715131Y-124771900D02*
X118715131Y-124605233D01*
X118715131Y-124605233D02*
X118681798Y-124538566D01*
X118681798Y-124538566D02*
X118648464Y-124505233D01*
X118648464Y-124505233D02*
X118581798Y-124471900D01*
X118581798Y-124471900D02*
X118448464Y-124471900D01*
X118448464Y-124471900D02*
X118381798Y-124505233D01*
X118381798Y-124505233D02*
X118348464Y-124538566D01*
X118348464Y-124538566D02*
X118315131Y-124605233D01*
X103031797Y-124638566D02*
X103565131Y-124638566D01*
X115215131Y-125688566D02*
X115381797Y-126155233D01*
X115548464Y-125688566D02*
X115381797Y-126155233D01*
X115381797Y-126155233D02*
X115315131Y-126321900D01*
X115315131Y-126321900D02*
X115281797Y-126355233D01*
X115281797Y-126355233D02*
X115215131Y-126388566D01*
X115781797Y-125521900D02*
X115815130Y-125488566D01*
X115815130Y-125488566D02*
X115881797Y-125455233D01*
X115881797Y-125455233D02*
X116048464Y-125455233D01*
X116048464Y-125455233D02*
X116115130Y-125488566D01*
X116115130Y-125488566D02*
X116148464Y-125521900D01*
X116148464Y-125521900D02*
X116181797Y-125588566D01*
X116181797Y-125588566D02*
X116181797Y-125655233D01*
X116181797Y-125655233D02*
X116148464Y-125755233D01*
X116148464Y-125755233D02*
X115748464Y-126155233D01*
X115748464Y-126155233D02*
X116181797Y-126155233D01*
X102715131Y-126155233D02*
X103081797Y-125688566D01*
X102715131Y-125688566D02*
X103081797Y-126155233D01*
X103715131Y-126155233D02*
X103315131Y-126155233D01*
X103515131Y-126155233D02*
X103515131Y-125455233D01*
X103515131Y-125455233D02*
X103448464Y-125555233D01*
X103448464Y-125555233D02*
X103381798Y-125621900D01*
X103381798Y-125621900D02*
X103315131Y-125655233D01*
X104148465Y-125455233D02*
X104215131Y-125455233D01*
X104215131Y-125455233D02*
X104281798Y-125488566D01*
X104281798Y-125488566D02*
X104315131Y-125521900D01*
X104315131Y-125521900D02*
X104348465Y-125588566D01*
X104348465Y-125588566D02*
X104381798Y-125721900D01*
X104381798Y-125721900D02*
X104381798Y-125888566D01*
X104381798Y-125888566D02*
X104348465Y-126021900D01*
X104348465Y-126021900D02*
X104315131Y-126088566D01*
X104315131Y-126088566D02*
X104281798Y-126121900D01*
X104281798Y-126121900D02*
X104215131Y-126155233D01*
X104215131Y-126155233D02*
X104148465Y-126155233D01*
X104148465Y-126155233D02*
X104081798Y-126121900D01*
X104081798Y-126121900D02*
X104048465Y-126088566D01*
X104048465Y-126088566D02*
X104015131Y-126021900D01*
X104015131Y-126021900D02*
X103981798Y-125888566D01*
X103981798Y-125888566D02*
X103981798Y-125721900D01*
X103981798Y-125721900D02*
X104015131Y-125588566D01*
X104015131Y-125588566D02*
X104048465Y-125521900D01*
X104048465Y-125521900D02*
X104081798Y-125488566D01*
X104081798Y-125488566D02*
X104148465Y-125455233D01*
X112715131Y-124905233D02*
X113081797Y-124438566D01*
X112715131Y-124438566D02*
X113081797Y-124905233D01*
X113648464Y-124438566D02*
X113648464Y-124905233D01*
X113481798Y-124171900D02*
X113315131Y-124671900D01*
X113315131Y-124671900D02*
X113748464Y-124671900D01*
X105215131Y-124905233D02*
X105581797Y-124438566D01*
X105215131Y-124438566D02*
X105581797Y-124905233D01*
X106215131Y-124905233D02*
X105815131Y-124905233D01*
X106015131Y-124905233D02*
X106015131Y-124205233D01*
X106015131Y-124205233D02*
X105948464Y-124305233D01*
X105948464Y-124305233D02*
X105881798Y-124371900D01*
X105881798Y-124371900D02*
X105815131Y-124405233D01*
X105215131Y-126155233D02*
X105581797Y-125688566D01*
X105215131Y-125688566D02*
X105581797Y-126155233D01*
X105881798Y-126155233D02*
X106015131Y-126155233D01*
X106015131Y-126155233D02*
X106081798Y-126121900D01*
X106081798Y-126121900D02*
X106115131Y-126088566D01*
X106115131Y-126088566D02*
X106181798Y-125988566D01*
X106181798Y-125988566D02*
X106215131Y-125855233D01*
X106215131Y-125855233D02*
X106215131Y-125588566D01*
X106215131Y-125588566D02*
X106181798Y-125521900D01*
X106181798Y-125521900D02*
X106148464Y-125488566D01*
X106148464Y-125488566D02*
X106081798Y-125455233D01*
X106081798Y-125455233D02*
X105948464Y-125455233D01*
X105948464Y-125455233D02*
X105881798Y-125488566D01*
X105881798Y-125488566D02*
X105848464Y-125521900D01*
X105848464Y-125521900D02*
X105815131Y-125588566D01*
X105815131Y-125588566D02*
X105815131Y-125755233D01*
X105815131Y-125755233D02*
X105848464Y-125821900D01*
X105848464Y-125821900D02*
X105881798Y-125855233D01*
X105881798Y-125855233D02*
X105948464Y-125888566D01*
X105948464Y-125888566D02*
X106081798Y-125888566D01*
X106081798Y-125888566D02*
X106148464Y-125855233D01*
X106148464Y-125855233D02*
X106181798Y-125821900D01*
X106181798Y-125821900D02*
X106215131Y-125755233D01*
X115215131Y-124905233D02*
X115581797Y-124438566D01*
X115215131Y-124438566D02*
X115581797Y-124905233D01*
X116181798Y-124205233D02*
X115848464Y-124205233D01*
X115848464Y-124205233D02*
X115815131Y-124538566D01*
X115815131Y-124538566D02*
X115848464Y-124505233D01*
X115848464Y-124505233D02*
X115915131Y-124471900D01*
X115915131Y-124471900D02*
X116081798Y-124471900D01*
X116081798Y-124471900D02*
X116148464Y-124505233D01*
X116148464Y-124505233D02*
X116181798Y-124538566D01*
X116181798Y-124538566D02*
X116215131Y-124605233D01*
X116215131Y-124605233D02*
X116215131Y-124771900D01*
X116215131Y-124771900D02*
X116181798Y-124838566D01*
X116181798Y-124838566D02*
X116148464Y-124871900D01*
X116148464Y-124871900D02*
X116081798Y-124905233D01*
X116081798Y-124905233D02*
X115915131Y-124905233D01*
X115915131Y-124905233D02*
X115848464Y-124871900D01*
X115848464Y-124871900D02*
X115815131Y-124838566D01*
X112715131Y-125688566D02*
X112881797Y-126155233D01*
X113048464Y-125688566D02*
X112881797Y-126155233D01*
X112881797Y-126155233D02*
X112815131Y-126321900D01*
X112815131Y-126321900D02*
X112781797Y-126355233D01*
X112781797Y-126355233D02*
X112715131Y-126388566D01*
X113681797Y-126155233D02*
X113281797Y-126155233D01*
X113481797Y-126155233D02*
X113481797Y-125455233D01*
X113481797Y-125455233D02*
X113415130Y-125555233D01*
X113415130Y-125555233D02*
X113348464Y-125621900D01*
X113348464Y-125621900D02*
X113281797Y-125655233D01*
X110215131Y-124905233D02*
X110581797Y-124438566D01*
X110215131Y-124438566D02*
X110581797Y-124905233D01*
X110781798Y-124205233D02*
X111215131Y-124205233D01*
X111215131Y-124205233D02*
X110981798Y-124471900D01*
X110981798Y-124471900D02*
X111081798Y-124471900D01*
X111081798Y-124471900D02*
X111148464Y-124505233D01*
X111148464Y-124505233D02*
X111181798Y-124538566D01*
X111181798Y-124538566D02*
X111215131Y-124605233D01*
X111215131Y-124605233D02*
X111215131Y-124771900D01*
X111215131Y-124771900D02*
X111181798Y-124838566D01*
X111181798Y-124838566D02*
X111148464Y-124871900D01*
X111148464Y-124871900D02*
X111081798Y-124905233D01*
X111081798Y-124905233D02*
X110881798Y-124905233D01*
X110881798Y-124905233D02*
X110815131Y-124871900D01*
X110815131Y-124871900D02*
X110781798Y-124838566D01*
X107715131Y-126155233D02*
X108081797Y-125688566D01*
X107715131Y-125688566D02*
X108081797Y-126155233D01*
X108448464Y-125755233D02*
X108381798Y-125721900D01*
X108381798Y-125721900D02*
X108348464Y-125688566D01*
X108348464Y-125688566D02*
X108315131Y-125621900D01*
X108315131Y-125621900D02*
X108315131Y-125588566D01*
X108315131Y-125588566D02*
X108348464Y-125521900D01*
X108348464Y-125521900D02*
X108381798Y-125488566D01*
X108381798Y-125488566D02*
X108448464Y-125455233D01*
X108448464Y-125455233D02*
X108581798Y-125455233D01*
X108581798Y-125455233D02*
X108648464Y-125488566D01*
X108648464Y-125488566D02*
X108681798Y-125521900D01*
X108681798Y-125521900D02*
X108715131Y-125588566D01*
X108715131Y-125588566D02*
X108715131Y-125621900D01*
X108715131Y-125621900D02*
X108681798Y-125688566D01*
X108681798Y-125688566D02*
X108648464Y-125721900D01*
X108648464Y-125721900D02*
X108581798Y-125755233D01*
X108581798Y-125755233D02*
X108448464Y-125755233D01*
X108448464Y-125755233D02*
X108381798Y-125788566D01*
X108381798Y-125788566D02*
X108348464Y-125821900D01*
X108348464Y-125821900D02*
X108315131Y-125888566D01*
X108315131Y-125888566D02*
X108315131Y-126021900D01*
X108315131Y-126021900D02*
X108348464Y-126088566D01*
X108348464Y-126088566D02*
X108381798Y-126121900D01*
X108381798Y-126121900D02*
X108448464Y-126155233D01*
X108448464Y-126155233D02*
X108581798Y-126155233D01*
X108581798Y-126155233D02*
X108648464Y-126121900D01*
X108648464Y-126121900D02*
X108681798Y-126088566D01*
X108681798Y-126088566D02*
X108715131Y-126021900D01*
X108715131Y-126021900D02*
X108715131Y-125888566D01*
X108715131Y-125888566D02*
X108681798Y-125821900D01*
X108681798Y-125821900D02*
X108648464Y-125788566D01*
X108648464Y-125788566D02*
X108581798Y-125755233D01*
X117715131Y-125688566D02*
X117881797Y-126155233D01*
X118048464Y-125688566D02*
X117881797Y-126155233D01*
X117881797Y-126155233D02*
X117815131Y-126321900D01*
X117815131Y-126321900D02*
X117781797Y-126355233D01*
X117781797Y-126355233D02*
X117715131Y-126388566D01*
X118248464Y-125455233D02*
X118681797Y-125455233D01*
X118681797Y-125455233D02*
X118448464Y-125721900D01*
X118448464Y-125721900D02*
X118548464Y-125721900D01*
X118548464Y-125721900D02*
X118615130Y-125755233D01*
X118615130Y-125755233D02*
X118648464Y-125788566D01*
X118648464Y-125788566D02*
X118681797Y-125855233D01*
X118681797Y-125855233D02*
X118681797Y-126021900D01*
X118681797Y-126021900D02*
X118648464Y-126088566D01*
X118648464Y-126088566D02*
X118615130Y-126121900D01*
X118615130Y-126121900D02*
X118548464Y-126155233D01*
X118548464Y-126155233D02*
X118348464Y-126155233D01*
X118348464Y-126155233D02*
X118281797Y-126121900D01*
X118281797Y-126121900D02*
X118248464Y-126088566D01*
X110215131Y-126155233D02*
X110581797Y-125688566D01*
X110215131Y-125688566D02*
X110581797Y-126155233D01*
X110781798Y-125455233D02*
X111248464Y-125455233D01*
X111248464Y-125455233D02*
X110948464Y-126155233D01*
M02*
