%TF.GenerationSoftware,KiCad,Pcbnew,9.0.7*%
%TF.CreationDate,2026-01-30T19:35:37-03:00*%
%TF.ProjectId,teclado_matricial,7465636c-6164-46f5-9f6d-617472696369,rev?*%
%TF.SameCoordinates,Original*%
%TF.FileFunction,Soldermask,Top*%
%TF.FilePolarity,Negative*%
%FSLAX46Y46*%
G04 Gerber Fmt 4.6, Leading zero omitted, Abs format (unit mm)*
G04 Created by KiCad (PCBNEW 9.0.7) date 2026-01-30 19:35:37*
%MOMM*%
%LPD*%
G01*
G04 APERTURE LIST*
%ADD10C,2.000000*%
%ADD11R,1.700000X1.700000*%
%ADD12C,1.700000*%
G04 APERTURE END LIST*
D10*
%TO.C,j*%
X165500000Y-99000000D03*
X172000000Y-99000000D03*
X165500000Y-103500000D03*
X172000000Y-103500000D03*
%TD*%
%TO.C,g*%
X138500000Y-99000000D03*
X145000000Y-99000000D03*
X138500000Y-103500000D03*
X145000000Y-103500000D03*
%TD*%
%TO.C,z*%
X84500000Y-111000000D03*
X91000000Y-111000000D03*
X84500000Y-115500000D03*
X91000000Y-115500000D03*
%TD*%
%TO.C,u*%
X165500000Y-87000000D03*
X172000000Y-87000000D03*
X165500000Y-91500000D03*
X172000000Y-91500000D03*
%TD*%
%TO.C,o*%
X192500000Y-87000000D03*
X199000000Y-87000000D03*
X192500000Y-91500000D03*
X199000000Y-91500000D03*
%TD*%
%TO.C,n*%
X165500000Y-111000000D03*
X172000000Y-111000000D03*
X165500000Y-115500000D03*
X172000000Y-115500000D03*
%TD*%
%TO.C,ret*%
X206000000Y-99000000D03*
X212500000Y-99000000D03*
X206000000Y-103500000D03*
X212500000Y-103500000D03*
%TD*%
%TO.C,space*%
X152000000Y-111000000D03*
X158500000Y-111000000D03*
X152000000Y-115500000D03*
X158500000Y-115500000D03*
%TD*%
%TO.C,q*%
X84500000Y-87000000D03*
X91000000Y-87000000D03*
X84500000Y-91500000D03*
X91000000Y-91500000D03*
%TD*%
%TO.C,fun*%
X192500000Y-111000000D03*
X199000000Y-111000000D03*
X192500000Y-115500000D03*
X199000000Y-115500000D03*
%TD*%
%TO.C,m*%
X179000000Y-111000000D03*
X185500000Y-111000000D03*
X179000000Y-115500000D03*
X185500000Y-115500000D03*
%TD*%
%TO.C,f*%
X125000000Y-99000000D03*
X131500000Y-99000000D03*
X125000000Y-103500000D03*
X131500000Y-103500000D03*
%TD*%
%TO.C,x*%
X98000000Y-111000000D03*
X104500000Y-111000000D03*
X98000000Y-115500000D03*
X104500000Y-115500000D03*
%TD*%
%TO.C,r*%
X125000000Y-87000000D03*
X131500000Y-87000000D03*
X125000000Y-91500000D03*
X131500000Y-91500000D03*
%TD*%
%TO.C,k*%
X179000000Y-99000000D03*
X185500000Y-99000000D03*
X179000000Y-103500000D03*
X185500000Y-103500000D03*
%TD*%
%TO.C,w*%
X98000000Y-87000000D03*
X104500000Y-87000000D03*
X98000000Y-91500000D03*
X104500000Y-91500000D03*
%TD*%
%TO.C,enter*%
X206000000Y-111000000D03*
X212500000Y-111000000D03*
X206000000Y-115500000D03*
X212500000Y-115500000D03*
%TD*%
%TO.C,p*%
X206000000Y-87000000D03*
X212500000Y-87000000D03*
X206000000Y-91500000D03*
X212500000Y-91500000D03*
%TD*%
%TO.C,l*%
X192500000Y-99000000D03*
X199000000Y-99000000D03*
X192500000Y-103500000D03*
X199000000Y-103500000D03*
%TD*%
%TO.C,a*%
X84500000Y-99000000D03*
X91000000Y-99000000D03*
X84500000Y-103500000D03*
X91000000Y-103500000D03*
%TD*%
%TO.C,h*%
X152000000Y-99000000D03*
X158500000Y-99000000D03*
X152000000Y-103500000D03*
X158500000Y-103500000D03*
%TD*%
%TO.C,b*%
X138500000Y-111000000D03*
X145000000Y-111000000D03*
X138500000Y-115500000D03*
X145000000Y-115500000D03*
%TD*%
%TO.C,v*%
X125000000Y-111000000D03*
X131500000Y-111000000D03*
X125000000Y-115500000D03*
X131500000Y-115500000D03*
%TD*%
%TO.C,d*%
X111500000Y-99000000D03*
X118000000Y-99000000D03*
X111500000Y-103500000D03*
X118000000Y-103500000D03*
%TD*%
%TO.C,t*%
X138500000Y-87000000D03*
X145000000Y-87000000D03*
X138500000Y-91500000D03*
X145000000Y-91500000D03*
%TD*%
%TO.C,i*%
X179000000Y-87000000D03*
X185500000Y-87000000D03*
X179000000Y-91500000D03*
X185500000Y-91500000D03*
%TD*%
%TO.C,y*%
X152000000Y-87000000D03*
X158500000Y-87000000D03*
X152000000Y-91500000D03*
X158500000Y-91500000D03*
%TD*%
%TO.C,s*%
X98000000Y-99000000D03*
X104500000Y-99000000D03*
X98000000Y-103500000D03*
X104500000Y-103500000D03*
%TD*%
%TO.C,c*%
X111500000Y-111000000D03*
X118000000Y-111000000D03*
X111500000Y-115500000D03*
X118000000Y-115500000D03*
%TD*%
%TO.C,e*%
X111500000Y-87000000D03*
X118000000Y-87000000D03*
X111500000Y-91500000D03*
X118000000Y-91500000D03*
%TD*%
D11*
%TO.C,PinHeader_1*%
X84710000Y-122590000D03*
D12*
X87250000Y-122590000D03*
X89790000Y-122590000D03*
X92330000Y-122590000D03*
X94870000Y-122590000D03*
X97410000Y-122590000D03*
X99950000Y-122590000D03*
%TD*%
D11*
%TO.C,PinHeader_2*%
X84710000Y-126130000D03*
D12*
X87250000Y-126130000D03*
X89790000Y-126130000D03*
X92330000Y-126130000D03*
X94870000Y-126130000D03*
X97410000Y-126130000D03*
X99950000Y-126130000D03*
%TD*%
M02*
