%TF.GenerationSoftware,KiCad,Pcbnew,9.0.7*%
%TF.CreationDate,2026-01-30T17:59:14-03:00*%
%TF.ProjectId,pcb_geral,7063625f-6765-4726-916c-2e6b69636164,rev?*%
%TF.SameCoordinates,Original*%
%TF.FileFunction,Soldermask,Top*%
%TF.FilePolarity,Negative*%
%FSLAX46Y46*%
G04 Gerber Fmt 4.6, Leading zero omitted, Abs format (unit mm)*
G04 Created by KiCad (PCBNEW 9.0.7) date 2026-01-30 17:59:14*
%MOMM*%
%LPD*%
G01*
G04 APERTURE LIST*
%ADD10R,1.700000X1.700000*%
%ADD11C,1.700000*%
%ADD12C,13.000000*%
%ADD13R,0.850000X0.850000*%
%ADD14C,0.850000*%
%ADD15R,0.300000X1.300000*%
%ADD16R,1.800000X2.200000*%
G04 APERTURE END LIST*
D10*
%TO.C,ESP32PinSocket_2*%
X157720000Y-109750000D03*
D11*
X160260000Y-109750000D03*
X162800000Y-109750000D03*
X165340000Y-109750000D03*
X167880000Y-109750000D03*
X170420000Y-109750000D03*
X172960000Y-109750000D03*
X175500000Y-109750000D03*
X178040000Y-109750000D03*
X180580000Y-109750000D03*
X183120000Y-109750000D03*
X185660000Y-109750000D03*
X188200000Y-109750000D03*
X190740000Y-109750000D03*
X193280000Y-109750000D03*
X195820000Y-109750000D03*
X198360000Y-109750000D03*
X200900000Y-109750000D03*
X203440000Y-109750000D03*
X205980000Y-109750000D03*
X208520000Y-109750000D03*
%TD*%
D10*
%TO.C,KeyboardSocket_2*%
X84630000Y-126120000D03*
D11*
X87170000Y-126120000D03*
X89710000Y-126120000D03*
X92250000Y-126120000D03*
X94790000Y-126120000D03*
X97330000Y-126120000D03*
X99870000Y-126120000D03*
%TD*%
D12*
%TO.C,REF\u002A\u002A*%
X90800000Y-102690000D03*
%TD*%
D13*
%TO.C,FlatCable_Header*%
X91250000Y-89100000D03*
D14*
X92250000Y-89100000D03*
X93250000Y-89100000D03*
X94250000Y-89100000D03*
X95250000Y-89100000D03*
X96250000Y-89100000D03*
X97250000Y-89100000D03*
X98250000Y-89100000D03*
X99250000Y-89100000D03*
X100250000Y-89100000D03*
X101250000Y-89100000D03*
X102250000Y-89100000D03*
X103250000Y-89100000D03*
X104250000Y-89100000D03*
%TD*%
D10*
%TO.C,ESP32PinSocket_1*%
X157670000Y-84250000D03*
D11*
X160210000Y-84250000D03*
X162750000Y-84250000D03*
X165290000Y-84250000D03*
X167830000Y-84250000D03*
X170370000Y-84250000D03*
X172910000Y-84250000D03*
X175450000Y-84250000D03*
X177990000Y-84250000D03*
X180530000Y-84250000D03*
X183070000Y-84250000D03*
X185610000Y-84250000D03*
X188150000Y-84250000D03*
X190690000Y-84250000D03*
X193230000Y-84250000D03*
X195770000Y-84250000D03*
X198310000Y-84250000D03*
X200850000Y-84250000D03*
X203390000Y-84250000D03*
X205930000Y-84250000D03*
X208470000Y-84250000D03*
%TD*%
D10*
%TO.C,KeyboardSocket_1*%
X84650000Y-122550000D03*
D11*
X87190000Y-122550000D03*
X89730000Y-122550000D03*
X92270000Y-122550000D03*
X94810000Y-122550000D03*
X97350000Y-122550000D03*
X99890000Y-122550000D03*
%TD*%
D15*
%TO.C,FlatCableSocket*%
X101250000Y-84200000D03*
X100750000Y-84200000D03*
X100250000Y-84200000D03*
X99750000Y-84200000D03*
X99250000Y-84200000D03*
X98750000Y-84200000D03*
X98250000Y-84200000D03*
X97750000Y-84200000D03*
X97250000Y-84200000D03*
X96750000Y-84200000D03*
X96250000Y-84200000D03*
X95750000Y-84200000D03*
X95250000Y-84200000D03*
X94750000Y-84200000D03*
D16*
X103150000Y-80950000D03*
X92850000Y-80950000D03*
%TD*%
M02*
