%TF.GenerationSoftware,KiCad,Pcbnew,9.0.7*%
%TF.CreationDate,2026-01-27T19:23:09-03:00*%
%TF.ProjectId,pcb_geral,7063625f-6765-4726-916c-2e6b69636164,rev?*%
%TF.SameCoordinates,Original*%
%TF.FileFunction,Legend,Top*%
%TF.FilePolarity,Positive*%
%FSLAX46Y46*%
G04 Gerber Fmt 4.6, Leading zero omitted, Abs format (unit mm)*
G04 Created by KiCad (PCBNEW 9.0.7) date 2026-01-27 19:23:09*
%MOMM*%
%LPD*%
G01*
G04 APERTURE LIST*
%ADD10C,0.120000*%
G04 APERTURE END LIST*
D10*
%TO.C,ESP32PinSocket_2*%
X156390000Y-108420000D02*
X157720000Y-108420000D01*
X156390000Y-109750000D02*
X156390000Y-108420000D01*
X158990000Y-108420000D02*
X209850000Y-108420000D01*
X158990000Y-111080000D02*
X158990000Y-108420000D01*
X158990000Y-111080000D02*
X209850000Y-111080000D01*
X209850000Y-111080000D02*
X209850000Y-108420000D01*
%TO.C,KeyboardPinSocket*%
X83170000Y-121420000D02*
X84500000Y-121420000D01*
X83170000Y-122750000D02*
X83170000Y-121420000D01*
X83170000Y-124020000D02*
X85770000Y-124020000D01*
X83170000Y-126620000D02*
X83170000Y-124020000D01*
X83170000Y-126620000D02*
X101070000Y-126620000D01*
X85770000Y-121420000D02*
X101070000Y-121420000D01*
X85770000Y-124020000D02*
X85770000Y-121420000D01*
X101070000Y-126620000D02*
X101070000Y-121420000D01*
%TO.C,FlatCable_Header*%
X90515000Y-89845000D02*
X90515000Y-89100000D01*
X91250000Y-89845000D02*
X90515000Y-89845000D01*
X91985000Y-88355000D02*
X104860000Y-88355000D01*
X91985000Y-88414435D02*
X91985000Y-88355000D01*
X91985000Y-89845000D02*
X91985000Y-89785565D01*
X91985000Y-89845000D02*
X104860000Y-89845000D01*
X104860000Y-88689970D02*
X104860000Y-88355000D01*
X104860000Y-89845000D02*
X104860000Y-89510030D01*
%TO.C,ESP32PinSocket_1*%
X156340000Y-82920000D02*
X157670000Y-82920000D01*
X156340000Y-84250000D02*
X156340000Y-82920000D01*
X158940000Y-82920000D02*
X209800000Y-82920000D01*
X158940000Y-85580000D02*
X158940000Y-82920000D01*
X158940000Y-85580000D02*
X209800000Y-85580000D01*
X209800000Y-85580000D02*
X209800000Y-82920000D01*
%TO.C,FlatCableSocket*%
X92850000Y-77850000D02*
X92850000Y-79590000D01*
X92850000Y-83650000D02*
X92850000Y-82310000D01*
X94340000Y-83650000D02*
X92850000Y-83650000D01*
X101660000Y-83650000D02*
X101660000Y-84850000D01*
X101660000Y-83650000D02*
X103150000Y-83650000D01*
X103150000Y-77850000D02*
X92850000Y-77850000D01*
X103150000Y-79590000D02*
X103150000Y-77850000D01*
X103150000Y-83650000D02*
X103150000Y-82310000D01*
%TD*%
M02*
