M48
; DRILL file {KiCad 9.0.7} date 2026-01-27T19:23:12-0300
; FORMAT={-:-/ absolute / metric / decimal}
; #@! TF.CreationDate,2026-01-27T19:23:12-03:00
; #@! TF.GenerationSoftware,Kicad,Pcbnew,9.0.7
; #@! TF.FileFunction,Plated,1,2,PTH
FMAT,2
METRIC
; #@! TA.AperFunction,Plated,PTH,ViaDrill
T1C0.400
; #@! TA.AperFunction,Plated,PTH,ComponentDrill
T2C0.500
; #@! TA.AperFunction,Plated,PTH,ComponentDrill
T3C1.000
%
G90
G05
T1
X91.25Y-89.1
X91.25Y-89.1
X92.25Y-89.1
X92.25Y-89.1
X93.25Y-89.1
X93.25Y-89.1
X94.25Y-89.1
X94.25Y-89.1
X95.25Y-89.1
X95.25Y-89.1
X96.25Y-89.1
X96.25Y-89.1
X97.25Y-89.1
X97.25Y-89.1
X98.25Y-89.1
X98.25Y-89.1
X99.25Y-89.1
X99.25Y-89.1
X100.25Y-89.1
X100.25Y-89.1
X101.25Y-89.1
X101.25Y-89.1
X102.25Y-89.1
X102.25Y-89.1
X103.25Y-89.1
X103.25Y-89.1
X104.25Y-89.1
X104.25Y-89.1
T2
X91.25Y-89.1
X92.25Y-89.1
X93.25Y-89.1
X94.25Y-89.1
X95.25Y-89.1
X96.25Y-89.1
X97.25Y-89.1
X98.25Y-89.1
X99.25Y-89.1
X100.25Y-89.1
X101.25Y-89.1
X102.25Y-89.1
X103.25Y-89.1
X104.25Y-89.1
T3
X84.5Y-122.75
X84.5Y-125.29
X87.04Y-122.75
X87.04Y-125.29
X89.58Y-122.75
X89.58Y-125.29
X92.12Y-122.75
X92.12Y-125.29
X94.66Y-122.75
X94.66Y-125.29
X97.2Y-122.75
X97.2Y-125.29
X99.74Y-122.75
X99.74Y-125.29
X157.67Y-84.25
X157.72Y-109.75
X160.21Y-84.25
X160.26Y-109.75
X162.75Y-84.25
X162.8Y-109.75
X165.29Y-84.25
X165.34Y-109.75
X167.83Y-84.25
X167.88Y-109.75
X170.37Y-84.25
X170.42Y-109.75
X172.91Y-84.25
X172.96Y-109.75
X175.45Y-84.25
X175.5Y-109.75
X177.99Y-84.25
X178.04Y-109.75
X180.53Y-84.25
X180.58Y-109.75
X183.07Y-84.25
X183.12Y-109.75
X185.61Y-84.25
X185.66Y-109.75
X188.15Y-84.25
X188.2Y-109.75
X190.69Y-84.25
X190.74Y-109.75
X193.23Y-84.25
X193.28Y-109.75
X195.77Y-84.25
X195.82Y-109.75
X198.31Y-84.25
X198.36Y-109.75
X200.85Y-84.25
X200.9Y-109.75
X203.39Y-84.25
X203.44Y-109.75
X205.93Y-84.25
X205.98Y-109.75
X208.47Y-84.25
X208.52Y-109.75
M30
