%TF.GenerationSoftware,KiCad,Pcbnew,9.0.7*%
%TF.CreationDate,2026-01-30T17:59:14-03:00*%
%TF.ProjectId,pcb_geral,7063625f-6765-4726-916c-2e6b69636164,rev?*%
%TF.SameCoordinates,Original*%
%TF.FileFunction,Glue,Top*%
%TF.FilePolarity,Positive*%
%FSLAX46Y46*%
G04 Gerber Fmt 4.6, Leading zero omitted, Abs format (unit mm)*
G04 Created by KiCad (PCBNEW 9.0.7) date 2026-01-30 17:59:14*
%MOMM*%
%LPD*%
G01*
G04 APERTURE LIST*
%ADD10C,0.175000*%
%ADD11C,0.020000*%
%ADD12C,0.050000*%
G04 APERTURE END LIST*
D10*
X107715131Y-124905233D02*
X108081797Y-124438566D01*
X107715131Y-124438566D02*
X108081797Y-124905233D01*
X108315131Y-124271900D02*
X108348464Y-124238566D01*
X108348464Y-124238566D02*
X108415131Y-124205233D01*
X108415131Y-124205233D02*
X108581798Y-124205233D01*
X108581798Y-124205233D02*
X108648464Y-124238566D01*
X108648464Y-124238566D02*
X108681798Y-124271900D01*
X108681798Y-124271900D02*
X108715131Y-124338566D01*
X108715131Y-124338566D02*
X108715131Y-124405233D01*
X108715131Y-124405233D02*
X108681798Y-124505233D01*
X108681798Y-124505233D02*
X108281798Y-124905233D01*
X108281798Y-124905233D02*
X108715131Y-124905233D01*
D11*
X89406014Y-83979262D02*
X89591728Y-83979262D01*
X89591728Y-83979262D02*
X89491728Y-84093548D01*
X89491728Y-84093548D02*
X89534585Y-84093548D01*
X89534585Y-84093548D02*
X89563157Y-84107834D01*
X89563157Y-84107834D02*
X89577442Y-84122119D01*
X89577442Y-84122119D02*
X89591728Y-84150691D01*
X89591728Y-84150691D02*
X89591728Y-84222119D01*
X89591728Y-84222119D02*
X89577442Y-84250691D01*
X89577442Y-84250691D02*
X89563157Y-84264977D01*
X89563157Y-84264977D02*
X89534585Y-84279262D01*
X89534585Y-84279262D02*
X89448871Y-84279262D01*
X89448871Y-84279262D02*
X89420299Y-84264977D01*
X89420299Y-84264977D02*
X89406014Y-84250691D01*
X89763156Y-84107834D02*
X89734585Y-84093548D01*
X89734585Y-84093548D02*
X89720299Y-84079262D01*
X89720299Y-84079262D02*
X89706013Y-84050691D01*
X89706013Y-84050691D02*
X89706013Y-84036405D01*
X89706013Y-84036405D02*
X89720299Y-84007834D01*
X89720299Y-84007834D02*
X89734585Y-83993548D01*
X89734585Y-83993548D02*
X89763156Y-83979262D01*
X89763156Y-83979262D02*
X89820299Y-83979262D01*
X89820299Y-83979262D02*
X89848871Y-83993548D01*
X89848871Y-83993548D02*
X89863156Y-84007834D01*
X89863156Y-84007834D02*
X89877442Y-84036405D01*
X89877442Y-84036405D02*
X89877442Y-84050691D01*
X89877442Y-84050691D02*
X89863156Y-84079262D01*
X89863156Y-84079262D02*
X89848871Y-84093548D01*
X89848871Y-84093548D02*
X89820299Y-84107834D01*
X89820299Y-84107834D02*
X89763156Y-84107834D01*
X89763156Y-84107834D02*
X89734585Y-84122119D01*
X89734585Y-84122119D02*
X89720299Y-84136405D01*
X89720299Y-84136405D02*
X89706013Y-84164977D01*
X89706013Y-84164977D02*
X89706013Y-84222119D01*
X89706013Y-84222119D02*
X89720299Y-84250691D01*
X89720299Y-84250691D02*
X89734585Y-84264977D01*
X89734585Y-84264977D02*
X89763156Y-84279262D01*
X89763156Y-84279262D02*
X89820299Y-84279262D01*
X89820299Y-84279262D02*
X89848871Y-84264977D01*
X89848871Y-84264977D02*
X89863156Y-84250691D01*
X89863156Y-84250691D02*
X89877442Y-84222119D01*
X89877442Y-84222119D02*
X89877442Y-84164977D01*
X89877442Y-84164977D02*
X89863156Y-84136405D01*
X89863156Y-84136405D02*
X89848871Y-84122119D01*
X89848871Y-84122119D02*
X89820299Y-84107834D01*
X89434585Y-84762245D02*
X89434585Y-84462245D01*
X89434585Y-84576531D02*
X89463157Y-84562245D01*
X89463157Y-84562245D02*
X89520299Y-84562245D01*
X89520299Y-84562245D02*
X89548871Y-84576531D01*
X89548871Y-84576531D02*
X89563157Y-84590817D01*
X89563157Y-84590817D02*
X89577442Y-84619388D01*
X89577442Y-84619388D02*
X89577442Y-84705102D01*
X89577442Y-84705102D02*
X89563157Y-84733674D01*
X89563157Y-84733674D02*
X89548871Y-84747960D01*
X89548871Y-84747960D02*
X89520299Y-84762245D01*
X89520299Y-84762245D02*
X89463157Y-84762245D01*
X89463157Y-84762245D02*
X89434585Y-84747960D01*
X89748871Y-84762245D02*
X89720300Y-84747960D01*
X89720300Y-84747960D02*
X89706014Y-84719388D01*
X89706014Y-84719388D02*
X89706014Y-84462245D01*
X105813157Y-83879262D02*
X105813157Y-84079262D01*
X105741728Y-83764977D02*
X105670299Y-83979262D01*
X105670299Y-83979262D02*
X105856014Y-83979262D01*
X105670299Y-84547960D02*
X105698871Y-84562245D01*
X105698871Y-84562245D02*
X105756014Y-84562245D01*
X105756014Y-84562245D02*
X105784585Y-84547960D01*
X105784585Y-84547960D02*
X105798871Y-84519388D01*
X105798871Y-84519388D02*
X105798871Y-84505102D01*
X105798871Y-84505102D02*
X105784585Y-84476531D01*
X105784585Y-84476531D02*
X105756014Y-84462245D01*
X105756014Y-84462245D02*
X105713157Y-84462245D01*
X105713157Y-84462245D02*
X105684585Y-84447960D01*
X105684585Y-84447960D02*
X105670299Y-84419388D01*
X105670299Y-84419388D02*
X105670299Y-84405102D01*
X105670299Y-84405102D02*
X105684585Y-84376531D01*
X105684585Y-84376531D02*
X105713157Y-84362245D01*
X105713157Y-84362245D02*
X105756014Y-84362245D01*
X105756014Y-84362245D02*
X105784585Y-84376531D01*
X106056014Y-84562245D02*
X106056014Y-84262245D01*
X106056014Y-84547960D02*
X106027442Y-84562245D01*
X106027442Y-84562245D02*
X105970299Y-84562245D01*
X105970299Y-84562245D02*
X105941728Y-84547960D01*
X105941728Y-84547960D02*
X105927442Y-84533674D01*
X105927442Y-84533674D02*
X105913156Y-84505102D01*
X105913156Y-84505102D02*
X105913156Y-84419388D01*
X105913156Y-84419388D02*
X105927442Y-84390817D01*
X105927442Y-84390817D02*
X105941728Y-84376531D01*
X105941728Y-84376531D02*
X105970299Y-84362245D01*
X105970299Y-84362245D02*
X106027442Y-84362245D01*
X106027442Y-84362245D02*
X106056014Y-84376531D01*
X86241728Y-84329262D02*
X86070299Y-84329262D01*
X86156014Y-84329262D02*
X86156014Y-84029262D01*
X86156014Y-84029262D02*
X86127442Y-84072119D01*
X86127442Y-84072119D02*
X86098871Y-84100691D01*
X86098871Y-84100691D02*
X86070299Y-84114977D01*
X86527442Y-84329262D02*
X86356013Y-84329262D01*
X86441728Y-84329262D02*
X86441728Y-84029262D01*
X86441728Y-84029262D02*
X86413156Y-84072119D01*
X86413156Y-84072119D02*
X86384585Y-84100691D01*
X86384585Y-84100691D02*
X86356013Y-84114977D01*
X86084585Y-84812245D02*
X86084585Y-84612245D01*
X86084585Y-84669388D02*
X86098871Y-84640817D01*
X86098871Y-84640817D02*
X86113157Y-84626531D01*
X86113157Y-84626531D02*
X86141728Y-84612245D01*
X86141728Y-84612245D02*
X86170299Y-84612245D01*
X86256013Y-84797960D02*
X86284585Y-84812245D01*
X86284585Y-84812245D02*
X86341728Y-84812245D01*
X86341728Y-84812245D02*
X86370299Y-84797960D01*
X86370299Y-84797960D02*
X86384585Y-84769388D01*
X86384585Y-84769388D02*
X86384585Y-84755102D01*
X86384585Y-84755102D02*
X86370299Y-84726531D01*
X86370299Y-84726531D02*
X86341728Y-84712245D01*
X86341728Y-84712245D02*
X86298871Y-84712245D01*
X86298871Y-84712245D02*
X86270299Y-84697960D01*
X86270299Y-84697960D02*
X86256013Y-84669388D01*
X86256013Y-84669388D02*
X86256013Y-84655102D01*
X86256013Y-84655102D02*
X86270299Y-84626531D01*
X86270299Y-84626531D02*
X86298871Y-84612245D01*
X86298871Y-84612245D02*
X86341728Y-84612245D01*
X86341728Y-84612245D02*
X86370299Y-84626531D01*
X86470299Y-84612245D02*
X86584585Y-84612245D01*
X86513156Y-84512245D02*
X86513156Y-84769388D01*
X86513156Y-84769388D02*
X86527442Y-84797960D01*
X86527442Y-84797960D02*
X86556013Y-84812245D01*
X86556013Y-84812245D02*
X86584585Y-84812245D01*
X88641728Y-84279262D02*
X88470299Y-84279262D01*
X88556014Y-84279262D02*
X88556014Y-83979262D01*
X88556014Y-83979262D02*
X88527442Y-84022119D01*
X88527442Y-84022119D02*
X88498871Y-84050691D01*
X88498871Y-84050691D02*
X88470299Y-84064977D01*
X88898871Y-84079262D02*
X88898871Y-84279262D01*
X88827442Y-83964977D02*
X88756013Y-84179262D01*
X88756013Y-84179262D02*
X88941728Y-84179262D01*
X88470299Y-84747960D02*
X88498871Y-84762245D01*
X88498871Y-84762245D02*
X88556014Y-84762245D01*
X88556014Y-84762245D02*
X88584585Y-84747960D01*
X88584585Y-84747960D02*
X88598871Y-84719388D01*
X88598871Y-84719388D02*
X88598871Y-84705102D01*
X88598871Y-84705102D02*
X88584585Y-84676531D01*
X88584585Y-84676531D02*
X88556014Y-84662245D01*
X88556014Y-84662245D02*
X88513157Y-84662245D01*
X88513157Y-84662245D02*
X88484585Y-84647960D01*
X88484585Y-84647960D02*
X88470299Y-84619388D01*
X88470299Y-84619388D02*
X88470299Y-84605102D01*
X88470299Y-84605102D02*
X88484585Y-84576531D01*
X88484585Y-84576531D02*
X88513157Y-84562245D01*
X88513157Y-84562245D02*
X88556014Y-84562245D01*
X88556014Y-84562245D02*
X88584585Y-84576531D01*
X88856014Y-84747960D02*
X88827442Y-84762245D01*
X88827442Y-84762245D02*
X88770299Y-84762245D01*
X88770299Y-84762245D02*
X88741728Y-84747960D01*
X88741728Y-84747960D02*
X88727442Y-84733674D01*
X88727442Y-84733674D02*
X88713156Y-84705102D01*
X88713156Y-84705102D02*
X88713156Y-84619388D01*
X88713156Y-84619388D02*
X88727442Y-84590817D01*
X88727442Y-84590817D02*
X88741728Y-84576531D01*
X88741728Y-84576531D02*
X88770299Y-84562245D01*
X88770299Y-84562245D02*
X88827442Y-84562245D01*
X88827442Y-84562245D02*
X88856014Y-84576531D01*
X88984585Y-84762245D02*
X88984585Y-84462245D01*
X89013157Y-84647960D02*
X89098871Y-84762245D01*
X89098871Y-84562245D02*
X88984585Y-84676531D01*
D12*
X84199560Y-84445066D02*
X84732894Y-84445066D01*
X160036227Y-113411733D02*
X159636227Y-113411733D01*
X159836227Y-113411733D02*
X159836227Y-112711733D01*
X159836227Y-112711733D02*
X159769560Y-112811733D01*
X159769560Y-112811733D02*
X159702894Y-112878400D01*
X159702894Y-112878400D02*
X159636227Y-112911733D01*
X160269561Y-112711733D02*
X160702894Y-112711733D01*
X160702894Y-112711733D02*
X160469561Y-112978400D01*
X160469561Y-112978400D02*
X160569561Y-112978400D01*
X160569561Y-112978400D02*
X160636227Y-113011733D01*
X160636227Y-113011733D02*
X160669561Y-113045066D01*
X160669561Y-113045066D02*
X160702894Y-113111733D01*
X160702894Y-113111733D02*
X160702894Y-113278400D01*
X160702894Y-113278400D02*
X160669561Y-113345066D01*
X160669561Y-113345066D02*
X160636227Y-113378400D01*
X160636227Y-113378400D02*
X160569561Y-113411733D01*
X160569561Y-113411733D02*
X160369561Y-113411733D01*
X160369561Y-113411733D02*
X160302894Y-113378400D01*
X160302894Y-113378400D02*
X160269561Y-113345066D01*
D11*
X85341728Y-84329262D02*
X85170299Y-84329262D01*
X85256014Y-84329262D02*
X85256014Y-84029262D01*
X85256014Y-84029262D02*
X85227442Y-84072119D01*
X85227442Y-84072119D02*
X85198871Y-84100691D01*
X85198871Y-84100691D02*
X85170299Y-84114977D01*
X85527442Y-84029262D02*
X85556013Y-84029262D01*
X85556013Y-84029262D02*
X85584585Y-84043548D01*
X85584585Y-84043548D02*
X85598871Y-84057834D01*
X85598871Y-84057834D02*
X85613156Y-84086405D01*
X85613156Y-84086405D02*
X85627442Y-84143548D01*
X85627442Y-84143548D02*
X85627442Y-84214977D01*
X85627442Y-84214977D02*
X85613156Y-84272119D01*
X85613156Y-84272119D02*
X85598871Y-84300691D01*
X85598871Y-84300691D02*
X85584585Y-84314977D01*
X85584585Y-84314977D02*
X85556013Y-84329262D01*
X85556013Y-84329262D02*
X85527442Y-84329262D01*
X85527442Y-84329262D02*
X85498871Y-84314977D01*
X85498871Y-84314977D02*
X85484585Y-84300691D01*
X85484585Y-84300691D02*
X85470299Y-84272119D01*
X85470299Y-84272119D02*
X85456013Y-84214977D01*
X85456013Y-84214977D02*
X85456013Y-84143548D01*
X85456013Y-84143548D02*
X85470299Y-84086405D01*
X85470299Y-84086405D02*
X85484585Y-84057834D01*
X85484585Y-84057834D02*
X85498871Y-84043548D01*
X85498871Y-84043548D02*
X85527442Y-84029262D01*
X85313157Y-84797960D02*
X85284585Y-84812245D01*
X85284585Y-84812245D02*
X85227442Y-84812245D01*
X85227442Y-84812245D02*
X85198871Y-84797960D01*
X85198871Y-84797960D02*
X85184585Y-84783674D01*
X85184585Y-84783674D02*
X85170299Y-84755102D01*
X85170299Y-84755102D02*
X85170299Y-84669388D01*
X85170299Y-84669388D02*
X85184585Y-84640817D01*
X85184585Y-84640817D02*
X85198871Y-84626531D01*
X85198871Y-84626531D02*
X85227442Y-84612245D01*
X85227442Y-84612245D02*
X85284585Y-84612245D01*
X85284585Y-84612245D02*
X85313157Y-84626531D01*
X85427442Y-84797960D02*
X85456014Y-84812245D01*
X85456014Y-84812245D02*
X85513157Y-84812245D01*
X85513157Y-84812245D02*
X85541728Y-84797960D01*
X85541728Y-84797960D02*
X85556014Y-84769388D01*
X85556014Y-84769388D02*
X85556014Y-84755102D01*
X85556014Y-84755102D02*
X85541728Y-84726531D01*
X85541728Y-84726531D02*
X85513157Y-84712245D01*
X85513157Y-84712245D02*
X85470300Y-84712245D01*
X85470300Y-84712245D02*
X85441728Y-84697960D01*
X85441728Y-84697960D02*
X85427442Y-84669388D01*
X85427442Y-84669388D02*
X85427442Y-84655102D01*
X85427442Y-84655102D02*
X85441728Y-84626531D01*
X85441728Y-84626531D02*
X85470300Y-84612245D01*
X85470300Y-84612245D02*
X85513157Y-84612245D01*
X85513157Y-84612245D02*
X85541728Y-84626531D01*
D10*
X117715131Y-124905233D02*
X118081797Y-124438566D01*
X117715131Y-124438566D02*
X118081797Y-124905233D01*
X118648464Y-124205233D02*
X118515131Y-124205233D01*
X118515131Y-124205233D02*
X118448464Y-124238566D01*
X118448464Y-124238566D02*
X118415131Y-124271900D01*
X118415131Y-124271900D02*
X118348464Y-124371900D01*
X118348464Y-124371900D02*
X118315131Y-124505233D01*
X118315131Y-124505233D02*
X118315131Y-124771900D01*
X118315131Y-124771900D02*
X118348464Y-124838566D01*
X118348464Y-124838566D02*
X118381798Y-124871900D01*
X118381798Y-124871900D02*
X118448464Y-124905233D01*
X118448464Y-124905233D02*
X118581798Y-124905233D01*
X118581798Y-124905233D02*
X118648464Y-124871900D01*
X118648464Y-124871900D02*
X118681798Y-124838566D01*
X118681798Y-124838566D02*
X118715131Y-124771900D01*
X118715131Y-124771900D02*
X118715131Y-124605233D01*
X118715131Y-124605233D02*
X118681798Y-124538566D01*
X118681798Y-124538566D02*
X118648464Y-124505233D01*
X118648464Y-124505233D02*
X118581798Y-124471900D01*
X118581798Y-124471900D02*
X118448464Y-124471900D01*
X118448464Y-124471900D02*
X118381798Y-124505233D01*
X118381798Y-124505233D02*
X118348464Y-124538566D01*
X118348464Y-124538566D02*
X118315131Y-124605233D01*
D11*
X87741728Y-84279262D02*
X87570299Y-84279262D01*
X87656014Y-84279262D02*
X87656014Y-83979262D01*
X87656014Y-83979262D02*
X87627442Y-84022119D01*
X87627442Y-84022119D02*
X87598871Y-84050691D01*
X87598871Y-84050691D02*
X87570299Y-84064977D01*
X87841728Y-83979262D02*
X88027442Y-83979262D01*
X88027442Y-83979262D02*
X87927442Y-84093548D01*
X87927442Y-84093548D02*
X87970299Y-84093548D01*
X87970299Y-84093548D02*
X87998871Y-84107834D01*
X87998871Y-84107834D02*
X88013156Y-84122119D01*
X88013156Y-84122119D02*
X88027442Y-84150691D01*
X88027442Y-84150691D02*
X88027442Y-84222119D01*
X88027442Y-84222119D02*
X88013156Y-84250691D01*
X88013156Y-84250691D02*
X87998871Y-84264977D01*
X87998871Y-84264977D02*
X87970299Y-84279262D01*
X87970299Y-84279262D02*
X87884585Y-84279262D01*
X87884585Y-84279262D02*
X87856013Y-84264977D01*
X87856013Y-84264977D02*
X87841728Y-84250691D01*
X87570299Y-84747960D02*
X87598871Y-84762245D01*
X87598871Y-84762245D02*
X87656014Y-84762245D01*
X87656014Y-84762245D02*
X87684585Y-84747960D01*
X87684585Y-84747960D02*
X87698871Y-84719388D01*
X87698871Y-84719388D02*
X87698871Y-84705102D01*
X87698871Y-84705102D02*
X87684585Y-84676531D01*
X87684585Y-84676531D02*
X87656014Y-84662245D01*
X87656014Y-84662245D02*
X87613157Y-84662245D01*
X87613157Y-84662245D02*
X87584585Y-84647960D01*
X87584585Y-84647960D02*
X87570299Y-84619388D01*
X87570299Y-84619388D02*
X87570299Y-84605102D01*
X87570299Y-84605102D02*
X87584585Y-84576531D01*
X87584585Y-84576531D02*
X87613157Y-84562245D01*
X87613157Y-84562245D02*
X87656014Y-84562245D01*
X87656014Y-84562245D02*
X87684585Y-84576531D01*
X87956014Y-84762245D02*
X87956014Y-84462245D01*
X87956014Y-84747960D02*
X87927442Y-84762245D01*
X87927442Y-84762245D02*
X87870299Y-84762245D01*
X87870299Y-84762245D02*
X87841728Y-84747960D01*
X87841728Y-84747960D02*
X87827442Y-84733674D01*
X87827442Y-84733674D02*
X87813156Y-84705102D01*
X87813156Y-84705102D02*
X87813156Y-84619388D01*
X87813156Y-84619388D02*
X87827442Y-84590817D01*
X87827442Y-84590817D02*
X87841728Y-84576531D01*
X87841728Y-84576531D02*
X87870299Y-84562245D01*
X87870299Y-84562245D02*
X87927442Y-84562245D01*
X87927442Y-84562245D02*
X87956014Y-84576531D01*
X88098871Y-84762245D02*
X88098871Y-84562245D01*
X88098871Y-84462245D02*
X88084585Y-84476531D01*
X88084585Y-84476531D02*
X88098871Y-84490817D01*
X88098871Y-84490817D02*
X88113157Y-84476531D01*
X88113157Y-84476531D02*
X88098871Y-84462245D01*
X88098871Y-84462245D02*
X88098871Y-84490817D01*
D10*
X103031797Y-124638566D02*
X103565131Y-124638566D01*
X115215131Y-125688566D02*
X115381797Y-126155233D01*
X115548464Y-125688566D02*
X115381797Y-126155233D01*
X115381797Y-126155233D02*
X115315131Y-126321900D01*
X115315131Y-126321900D02*
X115281797Y-126355233D01*
X115281797Y-126355233D02*
X115215131Y-126388566D01*
X115781797Y-125521900D02*
X115815130Y-125488566D01*
X115815130Y-125488566D02*
X115881797Y-125455233D01*
X115881797Y-125455233D02*
X116048464Y-125455233D01*
X116048464Y-125455233D02*
X116115130Y-125488566D01*
X116115130Y-125488566D02*
X116148464Y-125521900D01*
X116148464Y-125521900D02*
X116181797Y-125588566D01*
X116181797Y-125588566D02*
X116181797Y-125655233D01*
X116181797Y-125655233D02*
X116148464Y-125755233D01*
X116148464Y-125755233D02*
X115748464Y-126155233D01*
X115748464Y-126155233D02*
X116181797Y-126155233D01*
X102715131Y-126155233D02*
X103081797Y-125688566D01*
X102715131Y-125688566D02*
X103081797Y-126155233D01*
X103715131Y-126155233D02*
X103315131Y-126155233D01*
X103515131Y-126155233D02*
X103515131Y-125455233D01*
X103515131Y-125455233D02*
X103448464Y-125555233D01*
X103448464Y-125555233D02*
X103381798Y-125621900D01*
X103381798Y-125621900D02*
X103315131Y-125655233D01*
X104148465Y-125455233D02*
X104215131Y-125455233D01*
X104215131Y-125455233D02*
X104281798Y-125488566D01*
X104281798Y-125488566D02*
X104315131Y-125521900D01*
X104315131Y-125521900D02*
X104348465Y-125588566D01*
X104348465Y-125588566D02*
X104381798Y-125721900D01*
X104381798Y-125721900D02*
X104381798Y-125888566D01*
X104381798Y-125888566D02*
X104348465Y-126021900D01*
X104348465Y-126021900D02*
X104315131Y-126088566D01*
X104315131Y-126088566D02*
X104281798Y-126121900D01*
X104281798Y-126121900D02*
X104215131Y-126155233D01*
X104215131Y-126155233D02*
X104148465Y-126155233D01*
X104148465Y-126155233D02*
X104081798Y-126121900D01*
X104081798Y-126121900D02*
X104048465Y-126088566D01*
X104048465Y-126088566D02*
X104015131Y-126021900D01*
X104015131Y-126021900D02*
X103981798Y-125888566D01*
X103981798Y-125888566D02*
X103981798Y-125721900D01*
X103981798Y-125721900D02*
X104015131Y-125588566D01*
X104015131Y-125588566D02*
X104048465Y-125521900D01*
X104048465Y-125521900D02*
X104081798Y-125488566D01*
X104081798Y-125488566D02*
X104148465Y-125455233D01*
X112715131Y-124905233D02*
X113081797Y-124438566D01*
X112715131Y-124438566D02*
X113081797Y-124905233D01*
X113648464Y-124438566D02*
X113648464Y-124905233D01*
X113481798Y-124171900D02*
X113315131Y-124671900D01*
X113315131Y-124671900D02*
X113748464Y-124671900D01*
D11*
X90391728Y-84279262D02*
X90220299Y-84279262D01*
X90306014Y-84279262D02*
X90306014Y-83979262D01*
X90306014Y-83979262D02*
X90277442Y-84022119D01*
X90277442Y-84022119D02*
X90248871Y-84050691D01*
X90248871Y-84050691D02*
X90220299Y-84064977D01*
X90506013Y-84007834D02*
X90520299Y-83993548D01*
X90520299Y-83993548D02*
X90548871Y-83979262D01*
X90548871Y-83979262D02*
X90620299Y-83979262D01*
X90620299Y-83979262D02*
X90648871Y-83993548D01*
X90648871Y-83993548D02*
X90663156Y-84007834D01*
X90663156Y-84007834D02*
X90677442Y-84036405D01*
X90677442Y-84036405D02*
X90677442Y-84064977D01*
X90677442Y-84064977D02*
X90663156Y-84107834D01*
X90663156Y-84107834D02*
X90491728Y-84279262D01*
X90491728Y-84279262D02*
X90677442Y-84279262D01*
X90220299Y-84747960D02*
X90248871Y-84762245D01*
X90248871Y-84762245D02*
X90306014Y-84762245D01*
X90306014Y-84762245D02*
X90334585Y-84747960D01*
X90334585Y-84747960D02*
X90348871Y-84719388D01*
X90348871Y-84719388D02*
X90348871Y-84705102D01*
X90348871Y-84705102D02*
X90334585Y-84676531D01*
X90334585Y-84676531D02*
X90306014Y-84662245D01*
X90306014Y-84662245D02*
X90263157Y-84662245D01*
X90263157Y-84662245D02*
X90234585Y-84647960D01*
X90234585Y-84647960D02*
X90220299Y-84619388D01*
X90220299Y-84619388D02*
X90220299Y-84605102D01*
X90220299Y-84605102D02*
X90234585Y-84576531D01*
X90234585Y-84576531D02*
X90263157Y-84562245D01*
X90263157Y-84562245D02*
X90306014Y-84562245D01*
X90306014Y-84562245D02*
X90334585Y-84576531D01*
X90606014Y-84762245D02*
X90606014Y-84462245D01*
X90606014Y-84747960D02*
X90577442Y-84762245D01*
X90577442Y-84762245D02*
X90520299Y-84762245D01*
X90520299Y-84762245D02*
X90491728Y-84747960D01*
X90491728Y-84747960D02*
X90477442Y-84733674D01*
X90477442Y-84733674D02*
X90463156Y-84705102D01*
X90463156Y-84705102D02*
X90463156Y-84619388D01*
X90463156Y-84619388D02*
X90477442Y-84590817D01*
X90477442Y-84590817D02*
X90491728Y-84576531D01*
X90491728Y-84576531D02*
X90520299Y-84562245D01*
X90520299Y-84562245D02*
X90577442Y-84562245D01*
X90577442Y-84562245D02*
X90606014Y-84576531D01*
X90791728Y-84762245D02*
X90763157Y-84747960D01*
X90763157Y-84747960D02*
X90748871Y-84733674D01*
X90748871Y-84733674D02*
X90734585Y-84705102D01*
X90734585Y-84705102D02*
X90734585Y-84619388D01*
X90734585Y-84619388D02*
X90748871Y-84590817D01*
X90748871Y-84590817D02*
X90763157Y-84576531D01*
X90763157Y-84576531D02*
X90791728Y-84562245D01*
X90791728Y-84562245D02*
X90834585Y-84562245D01*
X90834585Y-84562245D02*
X90863157Y-84576531D01*
X90863157Y-84576531D02*
X90877443Y-84590817D01*
X90877443Y-84590817D02*
X90891728Y-84619388D01*
X90891728Y-84619388D02*
X90891728Y-84705102D01*
X90891728Y-84705102D02*
X90877443Y-84733674D01*
X90877443Y-84733674D02*
X90863157Y-84747960D01*
X90863157Y-84747960D02*
X90834585Y-84762245D01*
X90834585Y-84762245D02*
X90791728Y-84762245D01*
D10*
X105215131Y-124905233D02*
X105581797Y-124438566D01*
X105215131Y-124438566D02*
X105581797Y-124905233D01*
X106215131Y-124905233D02*
X105815131Y-124905233D01*
X106015131Y-124905233D02*
X106015131Y-124205233D01*
X106015131Y-124205233D02*
X105948464Y-124305233D01*
X105948464Y-124305233D02*
X105881798Y-124371900D01*
X105881798Y-124371900D02*
X105815131Y-124405233D01*
X105215131Y-126155233D02*
X105581797Y-125688566D01*
X105215131Y-125688566D02*
X105581797Y-126155233D01*
X105881798Y-126155233D02*
X106015131Y-126155233D01*
X106015131Y-126155233D02*
X106081798Y-126121900D01*
X106081798Y-126121900D02*
X106115131Y-126088566D01*
X106115131Y-126088566D02*
X106181798Y-125988566D01*
X106181798Y-125988566D02*
X106215131Y-125855233D01*
X106215131Y-125855233D02*
X106215131Y-125588566D01*
X106215131Y-125588566D02*
X106181798Y-125521900D01*
X106181798Y-125521900D02*
X106148464Y-125488566D01*
X106148464Y-125488566D02*
X106081798Y-125455233D01*
X106081798Y-125455233D02*
X105948464Y-125455233D01*
X105948464Y-125455233D02*
X105881798Y-125488566D01*
X105881798Y-125488566D02*
X105848464Y-125521900D01*
X105848464Y-125521900D02*
X105815131Y-125588566D01*
X105815131Y-125588566D02*
X105815131Y-125755233D01*
X105815131Y-125755233D02*
X105848464Y-125821900D01*
X105848464Y-125821900D02*
X105881798Y-125855233D01*
X105881798Y-125855233D02*
X105948464Y-125888566D01*
X105948464Y-125888566D02*
X106081798Y-125888566D01*
X106081798Y-125888566D02*
X106148464Y-125855233D01*
X106148464Y-125855233D02*
X106181798Y-125821900D01*
X106181798Y-125821900D02*
X106215131Y-125755233D01*
X115215131Y-124905233D02*
X115581797Y-124438566D01*
X115215131Y-124438566D02*
X115581797Y-124905233D01*
X116181798Y-124205233D02*
X115848464Y-124205233D01*
X115848464Y-124205233D02*
X115815131Y-124538566D01*
X115815131Y-124538566D02*
X115848464Y-124505233D01*
X115848464Y-124505233D02*
X115915131Y-124471900D01*
X115915131Y-124471900D02*
X116081798Y-124471900D01*
X116081798Y-124471900D02*
X116148464Y-124505233D01*
X116148464Y-124505233D02*
X116181798Y-124538566D01*
X116181798Y-124538566D02*
X116215131Y-124605233D01*
X116215131Y-124605233D02*
X116215131Y-124771900D01*
X116215131Y-124771900D02*
X116181798Y-124838566D01*
X116181798Y-124838566D02*
X116148464Y-124871900D01*
X116148464Y-124871900D02*
X116081798Y-124905233D01*
X116081798Y-124905233D02*
X115915131Y-124905233D01*
X115915131Y-124905233D02*
X115848464Y-124871900D01*
X115848464Y-124871900D02*
X115815131Y-124838566D01*
D11*
X86898871Y-84329262D02*
X86956014Y-84329262D01*
X86956014Y-84329262D02*
X86984585Y-84314977D01*
X86984585Y-84314977D02*
X86998871Y-84300691D01*
X86998871Y-84300691D02*
X87027442Y-84257834D01*
X87027442Y-84257834D02*
X87041728Y-84200691D01*
X87041728Y-84200691D02*
X87041728Y-84086405D01*
X87041728Y-84086405D02*
X87027442Y-84057834D01*
X87027442Y-84057834D02*
X87013157Y-84043548D01*
X87013157Y-84043548D02*
X86984585Y-84029262D01*
X86984585Y-84029262D02*
X86927442Y-84029262D01*
X86927442Y-84029262D02*
X86898871Y-84043548D01*
X86898871Y-84043548D02*
X86884585Y-84057834D01*
X86884585Y-84057834D02*
X86870299Y-84086405D01*
X86870299Y-84086405D02*
X86870299Y-84157834D01*
X86870299Y-84157834D02*
X86884585Y-84186405D01*
X86884585Y-84186405D02*
X86898871Y-84200691D01*
X86898871Y-84200691D02*
X86927442Y-84214977D01*
X86927442Y-84214977D02*
X86984585Y-84214977D01*
X86984585Y-84214977D02*
X87013157Y-84200691D01*
X87013157Y-84200691D02*
X87027442Y-84186405D01*
X87027442Y-84186405D02*
X87041728Y-84157834D01*
X87013157Y-84812245D02*
X87013157Y-84512245D01*
X87013157Y-84797960D02*
X86984585Y-84812245D01*
X86984585Y-84812245D02*
X86927442Y-84812245D01*
X86927442Y-84812245D02*
X86898871Y-84797960D01*
X86898871Y-84797960D02*
X86884585Y-84783674D01*
X86884585Y-84783674D02*
X86870299Y-84755102D01*
X86870299Y-84755102D02*
X86870299Y-84669388D01*
X86870299Y-84669388D02*
X86884585Y-84640817D01*
X86884585Y-84640817D02*
X86898871Y-84626531D01*
X86898871Y-84626531D02*
X86927442Y-84612245D01*
X86927442Y-84612245D02*
X86984585Y-84612245D01*
X86984585Y-84612245D02*
X87013157Y-84626531D01*
X87284586Y-84797960D02*
X87256014Y-84812245D01*
X87256014Y-84812245D02*
X87198871Y-84812245D01*
X87198871Y-84812245D02*
X87170300Y-84797960D01*
X87170300Y-84797960D02*
X87156014Y-84783674D01*
X87156014Y-84783674D02*
X87141728Y-84755102D01*
X87141728Y-84755102D02*
X87141728Y-84669388D01*
X87141728Y-84669388D02*
X87156014Y-84640817D01*
X87156014Y-84640817D02*
X87170300Y-84626531D01*
X87170300Y-84626531D02*
X87198871Y-84612245D01*
X87198871Y-84612245D02*
X87256014Y-84612245D01*
X87256014Y-84612245D02*
X87284586Y-84626531D01*
D10*
X112715131Y-125688566D02*
X112881797Y-126155233D01*
X113048464Y-125688566D02*
X112881797Y-126155233D01*
X112881797Y-126155233D02*
X112815131Y-126321900D01*
X112815131Y-126321900D02*
X112781797Y-126355233D01*
X112781797Y-126355233D02*
X112715131Y-126388566D01*
X113681797Y-126155233D02*
X113281797Y-126155233D01*
X113481797Y-126155233D02*
X113481797Y-125455233D01*
X113481797Y-125455233D02*
X113415130Y-125555233D01*
X113415130Y-125555233D02*
X113348464Y-125621900D01*
X113348464Y-125621900D02*
X113281797Y-125655233D01*
X110215131Y-124905233D02*
X110581797Y-124438566D01*
X110215131Y-124438566D02*
X110581797Y-124905233D01*
X110781798Y-124205233D02*
X111215131Y-124205233D01*
X111215131Y-124205233D02*
X110981798Y-124471900D01*
X110981798Y-124471900D02*
X111081798Y-124471900D01*
X111081798Y-124471900D02*
X111148464Y-124505233D01*
X111148464Y-124505233D02*
X111181798Y-124538566D01*
X111181798Y-124538566D02*
X111215131Y-124605233D01*
X111215131Y-124605233D02*
X111215131Y-124771900D01*
X111215131Y-124771900D02*
X111181798Y-124838566D01*
X111181798Y-124838566D02*
X111148464Y-124871900D01*
X111148464Y-124871900D02*
X111081798Y-124905233D01*
X111081798Y-124905233D02*
X110881798Y-124905233D01*
X110881798Y-124905233D02*
X110815131Y-124871900D01*
X110815131Y-124871900D02*
X110781798Y-124838566D01*
X107715131Y-126155233D02*
X108081797Y-125688566D01*
X107715131Y-125688566D02*
X108081797Y-126155233D01*
X108448464Y-125755233D02*
X108381798Y-125721900D01*
X108381798Y-125721900D02*
X108348464Y-125688566D01*
X108348464Y-125688566D02*
X108315131Y-125621900D01*
X108315131Y-125621900D02*
X108315131Y-125588566D01*
X108315131Y-125588566D02*
X108348464Y-125521900D01*
X108348464Y-125521900D02*
X108381798Y-125488566D01*
X108381798Y-125488566D02*
X108448464Y-125455233D01*
X108448464Y-125455233D02*
X108581798Y-125455233D01*
X108581798Y-125455233D02*
X108648464Y-125488566D01*
X108648464Y-125488566D02*
X108681798Y-125521900D01*
X108681798Y-125521900D02*
X108715131Y-125588566D01*
X108715131Y-125588566D02*
X108715131Y-125621900D01*
X108715131Y-125621900D02*
X108681798Y-125688566D01*
X108681798Y-125688566D02*
X108648464Y-125721900D01*
X108648464Y-125721900D02*
X108581798Y-125755233D01*
X108581798Y-125755233D02*
X108448464Y-125755233D01*
X108448464Y-125755233D02*
X108381798Y-125788566D01*
X108381798Y-125788566D02*
X108348464Y-125821900D01*
X108348464Y-125821900D02*
X108315131Y-125888566D01*
X108315131Y-125888566D02*
X108315131Y-126021900D01*
X108315131Y-126021900D02*
X108348464Y-126088566D01*
X108348464Y-126088566D02*
X108381798Y-126121900D01*
X108381798Y-126121900D02*
X108448464Y-126155233D01*
X108448464Y-126155233D02*
X108581798Y-126155233D01*
X108581798Y-126155233D02*
X108648464Y-126121900D01*
X108648464Y-126121900D02*
X108681798Y-126088566D01*
X108681798Y-126088566D02*
X108715131Y-126021900D01*
X108715131Y-126021900D02*
X108715131Y-125888566D01*
X108715131Y-125888566D02*
X108681798Y-125821900D01*
X108681798Y-125821900D02*
X108648464Y-125788566D01*
X108648464Y-125788566D02*
X108581798Y-125755233D01*
X117715131Y-125688566D02*
X117881797Y-126155233D01*
X118048464Y-125688566D02*
X117881797Y-126155233D01*
X117881797Y-126155233D02*
X117815131Y-126321900D01*
X117815131Y-126321900D02*
X117781797Y-126355233D01*
X117781797Y-126355233D02*
X117715131Y-126388566D01*
X118248464Y-125455233D02*
X118681797Y-125455233D01*
X118681797Y-125455233D02*
X118448464Y-125721900D01*
X118448464Y-125721900D02*
X118548464Y-125721900D01*
X118548464Y-125721900D02*
X118615130Y-125755233D01*
X118615130Y-125755233D02*
X118648464Y-125788566D01*
X118648464Y-125788566D02*
X118681797Y-125855233D01*
X118681797Y-125855233D02*
X118681797Y-126021900D01*
X118681797Y-126021900D02*
X118648464Y-126088566D01*
X118648464Y-126088566D02*
X118615130Y-126121900D01*
X118615130Y-126121900D02*
X118548464Y-126155233D01*
X118548464Y-126155233D02*
X118348464Y-126155233D01*
X118348464Y-126155233D02*
X118281797Y-126121900D01*
X118281797Y-126121900D02*
X118248464Y-126088566D01*
X110215131Y-126155233D02*
X110581797Y-125688566D01*
X110215131Y-125688566D02*
X110581797Y-126155233D01*
X110781798Y-125455233D02*
X111248464Y-125455233D01*
X111248464Y-125455233D02*
X110948464Y-126155233D01*
D12*
X83249560Y-84445066D02*
X83782894Y-84445066D01*
X83516227Y-84711733D02*
X83516227Y-84178400D01*
M02*
