%TF.GenerationSoftware,KiCad,Pcbnew,9.0.7*%
%TF.CreationDate,2026-01-30T17:59:14-03:00*%
%TF.ProjectId,pcb_geral,7063625f-6765-4726-916c-2e6b69636164,rev?*%
%TF.SameCoordinates,Original*%
%TF.FileFunction,Copper,L2,Bot*%
%TF.FilePolarity,Positive*%
%FSLAX46Y46*%
G04 Gerber Fmt 4.6, Leading zero omitted, Abs format (unit mm)*
G04 Created by KiCad (PCBNEW 9.0.7) date 2026-01-30 17:59:14*
%MOMM*%
%LPD*%
G01*
G04 APERTURE LIST*
%TA.AperFunction,ComponentPad*%
%ADD10R,1.700000X1.700000*%
%TD*%
%TA.AperFunction,ComponentPad*%
%ADD11C,1.700000*%
%TD*%
%TA.AperFunction,ComponentPad*%
%ADD12R,0.850000X0.850000*%
%TD*%
%TA.AperFunction,ComponentPad*%
%ADD13C,0.850000*%
%TD*%
%TA.AperFunction,ViaPad*%
%ADD14C,0.500000*%
%TD*%
%TA.AperFunction,Conductor*%
%ADD15C,0.600000*%
%TD*%
%TA.AperFunction,Conductor*%
%ADD16C,0.400000*%
%TD*%
%TA.AperFunction,Conductor*%
%ADD17C,0.100000*%
%TD*%
%TA.AperFunction,Conductor*%
%ADD18C,0.300000*%
%TD*%
G04 APERTURE END LIST*
D10*
%TO.P,ESP32PinSocket_2,1*%
%TO.N,.*%
X157720000Y-109750000D03*
D11*
%TO.P,ESP32PinSocket_2,2*%
X160260000Y-109750000D03*
%TO.P,ESP32PinSocket_2,3*%
X162800000Y-109750000D03*
%TO.P,ESP32PinSocket_2,4*%
X165340000Y-109750000D03*
%TO.P,ESP32PinSocket_2,5*%
X167880000Y-109750000D03*
%TO.P,ESP32PinSocket_2,6*%
X170420000Y-109750000D03*
%TO.P,ESP32PinSocket_2,7*%
X172960000Y-109750000D03*
%TO.P,ESP32PinSocket_2,8*%
X175500000Y-109750000D03*
%TO.P,ESP32PinSocket_2,9*%
X178040000Y-109750000D03*
%TO.P,ESP32PinSocket_2,10*%
X180580000Y-109750000D03*
%TO.P,ESP32PinSocket_2,11*%
X183120000Y-109750000D03*
%TO.P,ESP32PinSocket_2,12*%
X185660000Y-109750000D03*
%TO.P,ESP32PinSocket_2,13*%
X188200000Y-109750000D03*
%TO.P,ESP32PinSocket_2,14*%
X190740000Y-109750000D03*
%TO.P,ESP32PinSocket_2,15*%
X193280000Y-109750000D03*
%TO.P,ESP32PinSocket_2,16*%
X195820000Y-109750000D03*
%TO.P,ESP32PinSocket_2,17*%
X198360000Y-109750000D03*
%TO.P,ESP32PinSocket_2,18*%
X200900000Y-109750000D03*
%TO.P,ESP32PinSocket_2,19*%
X203440000Y-109750000D03*
%TO.P,ESP32PinSocket_2,20*%
X205980000Y-109750000D03*
%TO.P,ESP32PinSocket_2,21*%
X208520000Y-109750000D03*
%TD*%
D10*
%TO.P,KeyboardSocket_2,1*%
%TO.N,N/C*%
X84630000Y-126120000D03*
D11*
%TO.P,KeyboardSocket_2,2*%
X87170000Y-126120000D03*
%TO.P,KeyboardSocket_2,3*%
X89710000Y-126120000D03*
%TO.P,KeyboardSocket_2,4*%
X92250000Y-126120000D03*
%TO.P,KeyboardSocket_2,5*%
X94790000Y-126120000D03*
%TO.P,KeyboardSocket_2,6*%
X97330000Y-126120000D03*
%TO.P,KeyboardSocket_2,7*%
X99870000Y-126120000D03*
%TD*%
D12*
%TO.P,FlatCable_Header,1*%
%TO.N,N/C*%
X91250000Y-89100000D03*
D13*
%TO.P,FlatCable_Header,2*%
X92250000Y-89100000D03*
%TO.P,FlatCable_Header,3*%
X93250000Y-89100000D03*
%TO.P,FlatCable_Header,4*%
X94250000Y-89100000D03*
%TO.P,FlatCable_Header,5*%
X95250000Y-89100000D03*
%TO.P,FlatCable_Header,6*%
X96250000Y-89100000D03*
%TO.P,FlatCable_Header,7*%
X97250000Y-89100000D03*
%TO.P,FlatCable_Header,8*%
X98250000Y-89100000D03*
%TO.P,FlatCable_Header,9*%
X99250000Y-89100000D03*
%TO.P,FlatCable_Header,10*%
X100250000Y-89100000D03*
%TO.P,FlatCable_Header,11*%
X101250000Y-89100000D03*
%TO.P,FlatCable_Header,12*%
X102250000Y-89100000D03*
%TO.P,FlatCable_Header,13*%
X103250000Y-89100000D03*
%TO.P,FlatCable_Header,14*%
X104250000Y-89100000D03*
%TD*%
D10*
%TO.P,ESP32PinSocket_1,1*%
%TO.N,N/C*%
X157670000Y-84250000D03*
D11*
%TO.P,ESP32PinSocket_1,2*%
X160210000Y-84250000D03*
%TO.P,ESP32PinSocket_1,3*%
X162750000Y-84250000D03*
%TO.P,ESP32PinSocket_1,4*%
X165290000Y-84250000D03*
%TO.P,ESP32PinSocket_1,5*%
X167830000Y-84250000D03*
%TO.P,ESP32PinSocket_1,6*%
X170370000Y-84250000D03*
%TO.P,ESP32PinSocket_1,7*%
X172910000Y-84250000D03*
%TO.P,ESP32PinSocket_1,8*%
X175450000Y-84250000D03*
%TO.P,ESP32PinSocket_1,9*%
X177990000Y-84250000D03*
%TO.P,ESP32PinSocket_1,10*%
X180530000Y-84250000D03*
%TO.P,ESP32PinSocket_1,11*%
X183070000Y-84250000D03*
%TO.P,ESP32PinSocket_1,12*%
X185610000Y-84250000D03*
%TO.P,ESP32PinSocket_1,13*%
X188150000Y-84250000D03*
%TO.P,ESP32PinSocket_1,14*%
X190690000Y-84250000D03*
%TO.P,ESP32PinSocket_1,15*%
X193230000Y-84250000D03*
%TO.P,ESP32PinSocket_1,16*%
X195770000Y-84250000D03*
%TO.P,ESP32PinSocket_1,17*%
X198310000Y-84250000D03*
%TO.P,ESP32PinSocket_1,18*%
X200850000Y-84250000D03*
%TO.P,ESP32PinSocket_1,19*%
X203390000Y-84250000D03*
%TO.P,ESP32PinSocket_1,20*%
X205930000Y-84250000D03*
%TO.P,ESP32PinSocket_1,21*%
X208470000Y-84250000D03*
%TD*%
D10*
%TO.P,KeyboardSocket_1,1*%
%TO.N,N/C*%
X84650000Y-122550000D03*
D11*
%TO.P,KeyboardSocket_1,2*%
X87190000Y-122550000D03*
%TO.P,KeyboardSocket_1,3*%
X89730000Y-122550000D03*
%TO.P,KeyboardSocket_1,4*%
X92270000Y-122550000D03*
%TO.P,KeyboardSocket_1,5*%
X94810000Y-122550000D03*
%TO.P,KeyboardSocket_1,6*%
X97350000Y-122550000D03*
%TO.P,KeyboardSocket_1,7*%
X99890000Y-122550000D03*
%TD*%
D14*
%TO.N,*%
X93250000Y-89100000D03*
X99250000Y-89100000D03*
X91250000Y-89100000D03*
X99250000Y-89100000D03*
X92250000Y-89100000D03*
X103250000Y-89100000D03*
X100250000Y-89100000D03*
X104250000Y-89100000D03*
X102250000Y-89100000D03*
X103250000Y-89100000D03*
X95250000Y-89100000D03*
X94250000Y-89100000D03*
X104250000Y-89100000D03*
X93250000Y-89100000D03*
X92250000Y-89100000D03*
X95250000Y-89100000D03*
X102250000Y-89100000D03*
X100250000Y-89100000D03*
X101250000Y-89100000D03*
X94250000Y-89100000D03*
X91250000Y-89100000D03*
X101250000Y-89100000D03*
%TO.N,.*%
X96250000Y-89100000D03*
X98250000Y-89100000D03*
X97250000Y-89100000D03*
X97250000Y-89100000D03*
X96250000Y-89100000D03*
X98250000Y-89100000D03*
%TD*%
D15*
%TO.N,*%
X83000000Y-131750000D02*
X80500000Y-129250000D01*
D16*
X167830000Y-81080000D02*
X167830000Y-84250000D01*
X135500000Y-96750000D02*
X137250000Y-98500000D01*
X95250000Y-80700000D02*
X95250000Y-79750000D01*
D17*
X96750000Y-82200000D02*
X95250000Y-80700000D01*
D15*
X178750000Y-77000000D02*
X180530000Y-78780000D01*
D16*
X106750000Y-96750000D02*
X135500000Y-96750000D01*
D15*
X80500000Y-129250000D02*
X80500000Y-83250000D01*
D16*
X137250000Y-98500000D02*
X199000000Y-98500000D01*
D17*
X96750000Y-87600000D02*
X96750000Y-82200000D01*
D16*
X199000000Y-98500000D02*
X200850000Y-96650000D01*
D15*
X97200000Y-126250000D02*
X97200000Y-130050000D01*
D16*
X200850000Y-96650000D02*
X200850000Y-84250000D01*
D18*
X106250000Y-91000000D02*
X106250000Y-96250000D01*
D16*
X95500000Y-79500000D02*
X166250000Y-79500000D01*
D15*
X86750000Y-77000000D02*
X178750000Y-77000000D01*
X180530000Y-78780000D02*
X180530000Y-84250000D01*
X80500000Y-83250000D02*
X86750000Y-77000000D01*
X97200000Y-130050000D02*
X95500000Y-131750000D01*
X95500000Y-131750000D02*
X83000000Y-131750000D01*
D18*
X105700000Y-90450000D02*
X106250000Y-91000000D01*
X104350000Y-89100000D02*
X106250000Y-91000000D01*
D16*
X106250000Y-96250000D02*
X106750000Y-96750000D01*
X95250000Y-79750000D02*
X95500000Y-79500000D01*
D15*
X97350000Y-126100000D02*
X97200000Y-126250000D01*
D17*
X95250000Y-89100000D02*
X96750000Y-87600000D01*
D16*
X166250000Y-79500000D02*
X167830000Y-81080000D01*
D18*
%TO.N,.*%
X97250000Y-89100000D02*
X97250000Y-90500000D01*
D15*
X82500000Y-83750000D02*
X88000000Y-78250000D01*
D16*
X155000000Y-113250000D02*
X158670603Y-113250000D01*
X116000000Y-102500000D02*
X118750000Y-105250000D01*
X117750000Y-101500000D02*
X119500000Y-103250000D01*
X185500000Y-109590000D02*
X185660000Y-109750000D01*
X118750000Y-105250000D02*
X147000000Y-105250000D01*
X119500000Y-103250000D02*
X184000000Y-103250000D01*
D15*
X121250000Y-129000000D02*
X121250000Y-112500000D01*
D16*
X115000000Y-99500000D02*
X116000000Y-100500000D01*
X147000000Y-105250000D02*
X155000000Y-113250000D01*
D15*
X99890000Y-126100000D02*
X99740000Y-126250000D01*
D16*
X116750000Y-102000000D02*
X119000000Y-104250000D01*
D15*
X88000000Y-78250000D02*
X175000000Y-78250000D01*
D16*
X116000000Y-97500000D02*
X117750000Y-99250000D01*
D15*
X119350000Y-110600000D02*
X82500000Y-110600000D01*
D16*
X184000000Y-103250000D02*
X185500000Y-104750000D01*
X159250000Y-104250000D02*
X162800000Y-107800000D01*
X117750000Y-99250000D02*
X117750000Y-101500000D01*
D18*
X98250000Y-89100000D02*
X98250000Y-90250000D01*
D15*
X118500000Y-131750000D02*
X121250000Y-129000000D01*
D16*
X97250000Y-90500000D02*
X105250000Y-98500000D01*
X158670603Y-113250000D02*
X160260000Y-111660603D01*
X116000000Y-100500000D02*
X116000000Y-102500000D01*
D15*
X99740000Y-126250000D02*
X99740000Y-129990000D01*
D18*
X96250000Y-89100000D02*
X96250000Y-91000000D01*
D16*
X105500000Y-97500000D02*
X116000000Y-97500000D01*
X105250000Y-98500000D02*
X115500000Y-98500000D01*
D15*
X175000000Y-78250000D02*
X175450000Y-78700000D01*
X121250000Y-112500000D02*
X119350000Y-110600000D01*
D16*
X96250000Y-91000000D02*
X104750000Y-99500000D01*
X104750000Y-99500000D02*
X115000000Y-99500000D01*
D15*
X175450000Y-78700000D02*
X175450000Y-84250000D01*
D16*
X116750000Y-99750000D02*
X116750000Y-102000000D01*
X162800000Y-107800000D02*
X162800000Y-109750000D01*
X115500000Y-98500000D02*
X116750000Y-99750000D01*
D15*
X101500000Y-131750000D02*
X118500000Y-131750000D01*
D16*
X185500000Y-104750000D02*
X185500000Y-109590000D01*
X119000000Y-104250000D02*
X159250000Y-104250000D01*
X98250000Y-90250000D02*
X105500000Y-97500000D01*
D15*
X99740000Y-129990000D02*
X101500000Y-131750000D01*
X82500000Y-110600000D02*
X82500000Y-83750000D01*
D16*
X160260000Y-111660603D02*
X160260000Y-109750000D01*
%TD*%
M02*
