%TF.GenerationSoftware,KiCad,Pcbnew,9.0.7*%
%TF.CreationDate,2026-01-30T17:59:14-03:00*%
%TF.ProjectId,pcb_geral,7063625f-6765-4726-916c-2e6b69636164,rev?*%
%TF.SameCoordinates,Original*%
%TF.FileFunction,AssemblyDrawing,Top*%
%FSLAX46Y46*%
G04 Gerber Fmt 4.6, Leading zero omitted, Abs format (unit mm)*
G04 Created by KiCad (PCBNEW 9.0.7) date 2026-01-30 17:59:14*
%MOMM*%
%LPD*%
G01*
G04 APERTURE LIST*
%ADD10C,0.100000*%
G04 APERTURE END LIST*
D10*
%TO.C,ESP32PinSocket_2*%
X156450000Y-109115000D02*
X157085000Y-108480000D01*
X156450000Y-111020000D02*
X156450000Y-109115000D01*
X157085000Y-108480000D02*
X209790000Y-108480000D01*
X209790000Y-108480000D02*
X209790000Y-111020000D01*
X209790000Y-111020000D02*
X156450000Y-111020000D01*
%TO.C,KeyboardSocket_2*%
X83360000Y-125485000D02*
X83995000Y-124850000D01*
X83360000Y-127390000D02*
X83360000Y-125485000D01*
X83995000Y-124850000D02*
X101140000Y-124850000D01*
X101140000Y-124850000D02*
X101140000Y-127390000D01*
X101140000Y-127390000D02*
X83360000Y-127390000D01*
%TO.C,FlatCable_Header*%
X90750000Y-88465000D02*
X104750000Y-88465000D01*
X90750000Y-89417500D02*
X90750000Y-88465000D01*
X91067500Y-89735000D02*
X90750000Y-89417500D01*
X104750000Y-88465000D02*
X104750000Y-89735000D01*
X104750000Y-89735000D02*
X91067500Y-89735000D01*
%TO.C,ESP32PinSocket_1*%
X156400000Y-83615000D02*
X157035000Y-82980000D01*
X156400000Y-85520000D02*
X156400000Y-83615000D01*
X157035000Y-82980000D02*
X209740000Y-82980000D01*
X209740000Y-82980000D02*
X209740000Y-85520000D01*
X209740000Y-85520000D02*
X156400000Y-85520000D01*
%TO.C,KeyboardSocket_1*%
X83380000Y-121915000D02*
X84015000Y-121280000D01*
X83380000Y-123820000D02*
X83380000Y-121915000D01*
X84015000Y-121280000D02*
X101160000Y-121280000D01*
X101160000Y-121280000D02*
X101160000Y-123820000D01*
X101160000Y-123820000D02*
X83380000Y-123820000D01*
%TO.C,FlatCableSocket*%
X92950000Y-78950000D02*
X93550000Y-78950000D01*
X92950000Y-83550000D02*
X92950000Y-78950000D01*
X93050000Y-77950000D02*
X98000000Y-77950000D01*
X93050000Y-78650000D02*
X93050000Y-77950000D01*
X93550000Y-78650000D02*
X93050000Y-78650000D01*
X93550000Y-78950000D02*
X93550000Y-78650000D01*
X98000000Y-83550000D02*
X92950000Y-83550000D01*
X98000000Y-83550000D02*
X103050000Y-83550000D01*
X101250000Y-82842893D02*
X100750000Y-83550000D01*
X101750000Y-83550000D02*
X101250000Y-82842893D01*
X102450000Y-78650000D02*
X102950000Y-78650000D01*
X102450000Y-78950000D02*
X102450000Y-78650000D01*
X102950000Y-77950000D02*
X98000000Y-77950000D01*
X102950000Y-78650000D02*
X102950000Y-77950000D01*
X103050000Y-78950000D02*
X102450000Y-78950000D01*
X103050000Y-83550000D02*
X103050000Y-78950000D01*
%TD*%
M02*
